<?xml version="1.0" encoding="UTF-8" standalone="no"?>
<!-- Created with Inkscape (http://www.inkscape.org/) -->

<svg
   width="10.110712mm"
   height="10.767156mm"
   viewBox="0 0 10.11071 10.767156"
   version="1.1"
   id="svg1"
   xml:space="preserve"
   xmlns="http://www.w3.org/2000/svg"
   xmlns:svg="http://www.w3.org/2000/svg"><defs
     id="defs1" /><style
     type="text/css"
     id="style1">.st0{fill-rule:evenodd;clip-rule:evenodd;}</style><style
     type="text/css"
     id="style1-2">.st0{fill-rule:evenodd;clip-rule:evenodd;}</style><g
     id="g59"
     transform="translate(-127.77427,-193.00235)"><g
       id="g58"><path
         d="m 132.74173,194.65866 5.3e-4,-5.3e-4 c -1.73239,-0.004 -3.11633,1.53816 -3.07472,3.18476 0.0211,0.83555 0.38193,1.65857 0.94578,2.26955 0.22274,0.25003 0.38779,0.54394 0.35296,0.85043 -0.0278,0.22063 0.0787,0.44841 0.22651,0.63608 -0.0591,0.0995 -0.11015,0.20906 -0.11015,0.33497 0,0.1993 0.13348,0.3367 0.2667,0.46089 -0.0301,0.0761 -0.0596,0.15359 -0.0596,0.24079 0,0.41675 0.37281,0.70915 0.76889,0.70915 h 0.11149 c 0.0507,0.12891 0.0925,0.2728 0.19792,0.32704 0.1548,0.0795 0.32322,0.0947 0.45877,0.0977 h 0.002 0.002 c 0.13747,-10e-4 0.31144,-0.0184 0.471,-0.0968 0.10926,-0.0536 0.15451,-0.19843 0.2085,-0.32805 h 0.0787 c 0.3962,0 0.77,-0.29239 0.77,-0.70914 0,-0.0881 -0.0302,-0.16623 -0.0611,-0.24286 0.13202,-0.12407 0.26565,-0.2605 0.26565,-0.45883 0,-0.14228 -0.0699,-0.25855 -0.14391,-0.36623 0.15079,-0.21682 0.22609,-0.48009 0.24079,-0.6911 v -10e-4 -0.001 c 0.0314,-0.79432 1.51909,-1.58425 1.27634,-3.42114 -0.17558,-1.32859 -1.24417,-2.83084 -3.19505,-2.79472 z m 0.0101,0.89335 c 1.70068,0.0147 2.29846,1.21278 2.31371,2.2157 0.0354,0.74988 -0.37924,1.34995 -0.80712,1.92786 l -0.001,0.001 -0.001,0.001 c -0.35233,0.44691 -0.45411,1.11724 -0.48327,1.4917 l -1.872,5e-5 c -0.0401,-0.33781 -0.061,-0.68874 -0.19634,-1.00049 -0.35745,-0.82347 -1.07637,-1.16839 -1.11841,-2.21282 -0.0549,-1.36508 0.84896,-2.37739 2.17661,-2.41999 z m 0.94245,6.12872 c 0.19064,-5.6e-4 0.20157,0.16675 0.20022,0.21754 -0.002,0.083 -0.0842,0.17025 -0.14698,0.17035 l -1.81889,0.003 c -0.10468,1.3e-4 -0.17206,-0.0636 -0.17304,-0.16916 -9.3e-4,-0.10097 0.0608,-0.21988 0.18557,-0.21655 z m 0.008,1.08534 c -0.006,0.0712 -0.10281,0.15821 -0.18123,0.15823 l -1.36956,2.7e-4 c -0.11242,-0.002 -0.18964,-0.10323 -0.19158,-0.1666 -0.002,-0.0663 0.0609,-0.21665 0.17272,-0.21629 l 1.38394,0.005 c 0.18573,6.7e-4 0.19008,0.18034 0.18571,0.21939 z"
         style="color:#000000;fill:#9fc1f3;fill-opacity:0.501961;stroke:none;stroke-width:0.598737;stroke-linecap:round;-inkscape-stroke:none;paint-order:stroke markers fill"
         id="path58" /><path
         d="m 132.80151,193.00234 c -0.19649,0 -0.35823,0.16189 -0.35823,0.35823 v 0.56834 c 0,0.14215 0.17962,0.37023 0.35823,0.36093 0.17545,-0.005 0.38104,-0.12343 0.38104,-0.35879 v -0.56888 c 0,-0.24188 -0.17781,-0.34452 -0.38104,-0.35983 z m 3.66517,1.36684 c -0.0783,0.004 -0.15686,0.0444 -0.25347,0.0944 l -0.40115,0.40168 c -0.14523,0.14494 -0.14211,0.36845 0.009,0.52283 0.13932,0.13916 0.36736,0.13916 0.50646,0 l 0.40111,-0.40219 c 0.13831,-0.13792 0.14907,-0.35793 -0.009,-0.52232 -0.0965,-0.0754 -0.17456,-0.10091 -0.25295,-0.0944 z m -7.27846,0.0456 c -0.0774,-0.001 -0.16256,0.0208 -0.24235,0.0921 -0.13636,0.12164 -0.16968,0.35634 -0.0274,0.52126 l 10e-4,0.001 0.001,10e-4 0.40375,0.40486 c 0.12108,0.12107 0.39037,0.1201 0.52234,-0.0178 v -0.001 c 0.13662,-0.13902 0.13818,-0.36613 0,-0.50432 l -0.40111,-0.40272 c -0.023,-0.023 -0.12999,-0.0933 -0.2588,-0.0965 z m 7.77013,2.9735 c -0.19636,0 -0.35935,0.16093 -0.35935,0.35772 0,0.18301 0.12972,0.38103 0.35935,0.38103 h 0.56727 c 0.19641,0 0.35935,-0.16159 0.35935,-0.35825 0,-0.1947 -0.13592,-0.3805 -0.35935,-0.3805 z m -8.25693,0.005 -0.56888,5.2e-4 c -0.19661,0 -0.35828,0.16259 -0.35828,0.3588 v 0.0217 c 0,0.19639 0.16158,0.35931 0.35828,0.35931 h 0.56888 c 0.19671,0 0.35772,-0.16299 0.35772,-0.35931 0,-0.21333 -0.147,-0.38103 -0.35772,-0.38102 z m 7.22237,2.4708 c -0.0509,0.004 -0.10489,0.0276 -0.15819,0.0743 h -0.005 l -0.0456,0.0468 c -0.14391,0.14893 -0.13424,0.40154 -0.009,0.5207 l 0.40325,0.40116 c 0.21783,0.21789 0.5223,-0.002 0.5223,-0.0227 0.0231,-0.0255 0.0642,-0.0683 0.09,-0.14986 0.032,-0.0999 0.0172,-0.24252 -0.09,-0.34979 l -0.4022,-0.40115 c -0.009,-0.009 -0.14301,-0.13746 -0.2958,-0.1196 z m -6.2418,0.008 c -0.0836,-0.003 -0.1606,0.0199 -0.21804,0.072 -0.15184,0.13719 -0.28932,0.28949 -0.43392,0.43444 -0.15833,0.18748 -0.127,0.40688 -0.001,0.53769 0.15638,0.12958 0.37751,0.13133 0.52336,-0.008 l 0.40113,-0.40118 c 0.12712,-0.12711 0.13917,-0.38151 -0.007,-0.52068 -0.0848,-0.0679 -0.17514,-0.103 -0.25879,-0.10794 z"
         style="color:#000000;opacity:0.0174731;fill:#0c0e11;fill-opacity:1;stroke:none;stroke-width:0.598737;stroke-linecap:round;-inkscape-stroke:none;paint-order:stroke markers fill"
         id="path56" /></g></g></svg>
