<?xml version="1.0" encoding="UTF-8" standalone="no"?>
<!-- Created with Inkscape (http://www.inkscape.org/) -->

<svg
   width="102.14689mm"
   height="67.921425mm"
   viewBox="0 0 102.14688 67.921428"
   version="1.1"
   id="svg1"
   xml:space="preserve"
   xmlns="http://www.w3.org/2000/svg"
   xmlns:svg="http://www.w3.org/2000/svg"><defs
     id="defs1" /><style
     type="text/css"
     id="style1">.st0{fill-rule:evenodd;clip-rule:evenodd;}</style><style
     type="text/css"
     id="style1-8">.st0{fill-rule:evenodd;clip-rule:evenodd;}</style><path
     id="ellipse24"
     style="fill:#9fc1f3;fill-opacity:1;stroke:none;stroke-width:2.75798;stroke-linecap:round;stroke-dasharray:none;stroke-opacity:1;paint-order:markers fill stroke"
     d="m 68.186176,0 c -5.68281,0.0303 -11.26716,1.48624 -16.24139,4.23436 h -22.2002 C 10.830796,4.23436 0.04615607,18.7198 1.5607256e-4,33.9788 -0.05274393,51.5405 13.348856,63.72324 29.744586,63.72324 h 22.26583 c 4.95805,2.72492 10.51832,4.16799 16.17576,4.19819 18.75582,1.4e-4 33.960564,-15.20438 33.960714,-33.9602 C 102.14732,15.205 86.942406,-1.3999806e-4 68.186176,0 Z m 0,6.79235 c 15.00486,0 27.16865,12.16402 27.16836,27.16888 -2.9e-4,15.00446 -12.16391,27.16785 -27.16836,27.16785 -15.00446,0 -27.16808,-12.16339 -27.16837,-27.16785 -2.9e-4,-15.00486 12.1635,-27.16888 27.16837,-27.16888 z m -38.4421,1.20716 h 16.59743 c -7.66979,6.44352 -12.10364,15.94451 -12.11554,25.96172 0.0136,10.03742 4.46682,19.55469 12.16412,25.99686 h -16.64601 c -14.5681,0 -25.9792999,-12.18977 -25.9792999,-25.97929 0,-12.67525 9.9971699,-25.63076 25.9792999,-25.97929 z m 44.2929,11.65717 a 3.0531383,3.0980852 0 0 0 -3.05304,3.098 3.0531383,3.0980852 0 0 0 3.05304,3.09852 3.0531383,3.0980852 0 0 0 3.05304,-3.09852 3.0531383,3.0980852 0 0 0 -3.05304,-3.098 z m -7.67343,0.42323 c -0.044,8e-4 -0.0886,0.006 -0.13333,0.015 -4.89791,0.99275 -9.04675,4.68495 -10.37766,9.83712 -1.86629,7.21802 2.47139,14.58346 9.6914,16.45016 4.77602,1.23512 9.61707,-0.24662 12.88603,-3.48248 0.82844,-0.82076 0.31031,-1.91057 -0.87023,-1.57871 -1.46086,0.36012 -2.977,0.4137 -4.46122,0.14573 -6.13557,-1.13446 -10.1279,-7.36429 -8.91677,-13.9144 0.41926,-2.22322 1.41087,-4.27229 2.84117,-5.92884 0.54571,-0.67577 8e-4,-1.55563 -0.65939,-1.54357 z m 13.88132,8.95656 a 2.0438364,2.0739248 0 0 0 -2.0438,2.07429 2.0438364,2.0739248 0 0 0 2.0438,2.07378 2.0438364,2.0739248 0 0 0 2.0438,-2.07378 2.0438364,2.0739248 0 0 0 -2.0438,-2.07429 z" /></svg>
