<?xml version="1.0" encoding="UTF-8" standalone="no"?>
<!-- Created with Inkscape (http://www.inkscape.org/) -->

<svg
   width="109.00781mm"
   height="67.743668mm"
   viewBox="0 0 109.0078 67.743671"
   version="1.1"
   id="svg1"
   xml:space="preserve"
   xmlns="http://www.w3.org/2000/svg"
   xmlns:svg="http://www.w3.org/2000/svg"><defs
     id="defs1" /><style
     type="text/css"
     id="style1">.st0{fill-rule:evenodd;clip-rule:evenodd;}</style><style
     type="text/css"
     id="style1-8">.st0{fill-rule:evenodd;clip-rule:evenodd;}</style><g
     id="g10"
     transform="translate(-882.46299,351.39971)"><g
       id="g17"
       transform="translate(269.51586,-605.29917)"><path
         id="path1-33"
         style="fill:#ffffff;fill-opacity:0.9;fill-rule:nonzero;stroke-width:1.75757"
         d="m 696.49351,273.17047 -0.16226,0.0331 c 0.2599,1.33609 -0.0159,2.60246 -0.82476,3.7977 -0.80598,1.19397 -1.87898,1.92052 -3.21634,2.17765 l 0.0295,0.1633 c 1.34011,-0.25837 2.60524,0.0147 3.7977,0.82475 1.19397,0.806 1.92136,1.88231 2.18126,3.21841 l 0.16227,-0.0336 c -0.2599,-1.33609 0.0147,-2.60523 0.82475,-3.7977 0.806,-1.19396 1.87621,-1.91876 3.21634,-2.17713 l -0.0294,-0.16381 c -1.33734,0.25711 -2.60555,-0.0145 -3.79925,-0.82734 -1.19522,-0.80877 -1.92107,-1.88199 -2.17972,-3.21531 z m -8.25892,0.95653 c -7.0699,-0.0641 -13.04404,5.40129 -13.54336,12.52947 -0.52262,7.43707 5.0821,13.89093 12.5212,14.41359 5.88468,0.4138 11.15406,-3.00922 13.35525,-8.14214 0.40216,-0.93487 -0.552,-1.58967 -1.47484,-0.84749 -1.86121,1.49591 -4.27213,2.32193 -6.84248,2.14095 -5.41459,-0.38077 -9.49653,-5.07836 -9.11572,-10.49497 0.25447,-3.62719 2.44803,-6.65604 5.49631,-8.14627 1.18318,-0.57897 0.90728,-1.44814 -0.39636,-1.45314 z" /><path
         id="path12"
         style="fill:#9fc1f3;fill-opacity:1;stroke-width:0.264583"
         d="m 688.0361,253.89947 c -5.82874,0 -11.33213,1.49744 -16.13958,4.1274 h -29.20494 c -8.17295,0 -15.61067,3.34674 -21.00285,8.74158 -5.39485,5.38426 -8.74159,12.82197 -8.74159,21.00286 0,8.18088 3.3495,15.61847 8.73642,21.00801 l 0.1111,0.10026 c 5.38163,5.33132 12.77688,8.63616 20.89692,8.63616 h 29.19409 c 4.80745,2.6273 10.31375,4.1274 16.15043,4.1274 h 0.047 c 9.31331,0 17.78528,-3.81257 23.9236,-9.94823 6.13566,-6.13567 9.94823,-14.60502 9.94823,-23.9236 0,-9.3186 -3.80996,-17.79053 -9.94565,-23.92619 l -0.24081,-0.21963 c -6.12507,-6.00867 -14.49642,-9.72602 -23.68537,-9.72602 z m 0.0563,4.14394 c 16.40647,2e-5 29.70646,13.30024 29.7062,29.70671 -3e-5,16.40627 -13.29993,29.70617 -29.7062,29.70619 -16.40627,-2e-5 -29.70617,-13.29992 -29.7062,-29.70619 -2.6e-4,-16.40647 13.29973,-29.70669 29.7062,-29.70671 z m -21.71599,3.7486 c -0.78317,0.65352 -1.53704,1.34114 -2.25671,2.06344 -6.14359,6.1251 -9.9565,14.59726 -9.9565,23.91586 0,9.31858 3.81522,17.78793 9.94823,23.9236 0.71897,0.7181 1.46935,1.40393 2.24896,2.05569 h -23.66936 c -11.17609,0 -17.92013,-7.16792 -18.34612,-7.63313 -4.70691,-4.70691 -7.63312,-11.20508 -7.63312,-18.34616 0,-7.1411 2.92621,-13.63919 7.63312,-18.34875 4.70164,-4.70957 11.1998,-7.63055 18.34617,-7.63055 z" /></g><circle
       style="opacity:1;fill:none;fill-opacity:1;stroke:#9fc1f3;stroke-width:5.6;stroke-linecap:round;stroke-dasharray:none;stroke-opacity:1;paint-order:markers fill stroke"
       id="path10"
       cx="957.51984"
       cy="-317.67654"
       r="30" /></g></svg>
