<?xml version="1.0" encoding="UTF-8" standalone="no"?>
<!-- Created with Inkscape (http://www.inkscape.org/) -->

<svg
   width="10.11072mm"
   height="10.767156mm"
   viewBox="0 0 10.110718 10.767156"
   version="1.1"
   id="svg1"
   xml:space="preserve"
   xmlns="http://www.w3.org/2000/svg"
   xmlns:svg="http://www.w3.org/2000/svg"><defs
     id="defs1" /><style
     type="text/css"
     id="style1">.st0{fill-rule:evenodd;clip-rule:evenodd;}</style><style
     type="text/css"
     id="style1-2">.st0{fill-rule:evenodd;clip-rule:evenodd;}</style><g
     id="g18"
     transform="translate(-141.20099,-191.46535)"><path
       d="m 146.37171,193.12066 c -0.0661,-10e-4 -0.13374,-3e-4 -0.20319,0.001 l 5.3e-4,-5.3e-4 c -0.46159,-0.001 -0.91049,0.1117 -1.31506,0.31326 -0.74158,0.36974 -1.33688,1.03212 -1.59708,1.82786 -1.5e-4,3.6e-4 1.4e-4,2.4e-4 0,0.001 -0.40828,1.15095 -0.017,2.4451 0.7832,3.31219 0.22274,0.25003 0.38779,0.54394 0.35296,0.85043 -0.0278,0.22063 0.0787,0.44841 0.22651,0.63608 -0.0591,0.0995 -0.11015,0.20906 -0.11015,0.33497 0,0.1993 0.13348,0.3367 0.2667,0.46089 -0.0301,0.0761 -0.0596,0.15359 -0.0596,0.24079 0,0.41675 0.37281,0.70915 0.76889,0.70915 h 0.11149 c 0.0507,0.12891 0.0925,0.2728 0.19792,0.32704 0.1548,0.0795 0.32322,0.0947 0.45877,0.0977 h 0.002 0.002 c 0.13747,-0.001 0.31144,-0.0184 0.471,-0.0968 0.10926,-0.0536 0.15451,-0.19843 0.2085,-0.32805 h 0.0787 c 0.3962,0 0.77,-0.29239 0.77,-0.70914 0,-0.0881 -0.0302,-0.16623 -0.0611,-0.24286 0.13202,-0.12407 0.26565,-0.2605 0.26565,-0.45883 0,-0.14228 -0.0699,-0.25855 -0.14391,-0.36623 0.15079,-0.21682 0.22609,-0.48009 0.24079,-0.6911 v -0.001 -0.001 c 0.0314,-0.79432 1.53916,-1.58701 1.27634,-3.42114 -0.14969,-1.28737 -1.11802,-2.46492 -2.4168,-2.72692 -0.19341,-0.0434 -0.37995,-0.0632 -0.5784,-0.067 z m -0.19314,0.89435 c 2.01921,0.0175 2.48369,1.70306 2.26439,2.74964 -0.0931,0.55768 -0.45958,0.98346 -0.7578,1.39392 l -0.001,0.001 -0.001,0.001 c -0.30639,0.38864 -0.41436,0.89724 -0.47627,1.4018 l -0.007,0.0899 c -0.59867,-0.004 -1.19785,0.0135 -1.796,-0.016 l -0.076,-0.004 -0.009,-0.075 c -0.0644,-0.31351 -0.0894,-0.62674 -0.18734,-0.90544 -0.30589,-0.5852 -0.85236,-1.07505 -1.06371,-1.77966 l -10e-4,-0.002 -0.001,-0.002 c -0.0308,-0.14259 -0.0465,-0.28612 -0.0527,-0.42916 -0.0545,-1.3651 0.84897,-2.37739 2.17662,-2.41999 z m 1.04196,6.2283 c 0.0545,-0.001 0.11171,0.005 0.15342,0.046 0.0375,0.0303 0.0665,0.0818 0.0468,0.13013 -0.0212,0.0629 -0.0861,0.0969 -0.14698,0.11218 -0.64726,-2.7e-4 -1.29441,0.001 -1.9416,-5.4e-4 -0.0434,-0.002 -0.0883,0.004 -0.13012,-0.005 -0.042,-0.006 -0.0784,-0.0371 -0.10427,-0.0714 -0.0211,-0.0233 -0.0225,-0.0557 -0.0195,-0.0852 0.005,-0.0482 0.0511,-0.0826 0.0932,-0.103 0.0299,-0.017 0.0628,-0.0193 0.0965,-0.0184 z m -0.3117,0.70333 c 0.0655,0.001 0.13254,-0.001 0.19741,0.005 0.0372,0.009 0.0744,0.0362 0.0972,0.0704 0.0171,0.0226 0.0226,0.0507 0.0195,0.0784 -0.004,0.0458 -0.0437,0.0822 -0.0833,0.10237 -0.0621,0.0355 -0.1362,0.0266 -0.20476,0.0279 -0.48767,0.001 -0.97454,0.001 -1.46216,-10e-4 -0.0701,-9.8e-4 -0.1476,-0.0321 -0.18098,-0.0972 -0.0225,-0.0408 -0.006,-0.0921 0.02,-0.12469 0.0295,-0.0315 0.0691,-0.0546 0.11184,-0.0615 z"
       style="color:#000000;opacity:0.5;fill:#9fc1f3;fill-opacity:1;stroke:none;stroke-width:0.598737;stroke-linecap:round;-inkscape-stroke:none;paint-order:stroke markers fill"
       id="path16" /><path
       d="m 146.2283,191.46534 c -0.19649,0 -0.35822,0.16189 -0.35822,0.35823 v 0.56834 c 0,0.14215 0.17962,0.37023 0.35822,0.36093 0.17546,-0.005 0.38105,-0.12343 0.38105,-0.35879 v -0.56888 c 0,-0.24188 -0.17781,-0.34452 -0.38105,-0.35983 z m 3.66517,1.36684 c -0.0783,0.004 -0.15686,0.0444 -0.25347,0.0944 l -0.40115,0.40168 c -0.14523,0.14494 -0.14211,0.36845 0.009,0.52283 0.13932,0.13916 0.36736,0.13916 0.50646,0 l 0.40111,-0.40219 c 0.13831,-0.13792 0.14907,-0.35793 -0.009,-0.52232 -0.0965,-0.0754 -0.17456,-0.10091 -0.25295,-0.0944 z m -7.27846,0.0456 c -0.0774,-0.001 -0.16256,0.0208 -0.24235,0.0921 -0.13635,0.12164 -0.16968,0.35634 -0.0274,0.52126 l 0.001,0.001 0.001,0.001 0.40375,0.40486 c 0.12108,0.12107 0.39037,0.1201 0.52234,-0.0178 v -0.001 c 0.13662,-0.13902 0.13818,-0.36613 0,-0.50432 l -0.40111,-0.40272 c -0.023,-0.023 -0.12999,-0.0933 -0.2588,-0.0965 z m 7.77008,2.9735 c -0.19636,0 -0.35935,0.16093 -0.35935,0.35772 0,0.18301 0.12972,0.38103 0.35935,0.38103 h 0.56728 c 0.1964,0 0.35935,-0.16159 0.35935,-0.35825 0,-0.1947 -0.13592,-0.3805 -0.35935,-0.3805 z m -8.25693,0.005 -0.56888,5.2e-4 c -0.19661,0 -0.35828,0.16259 -0.35828,0.3588 v 0.0217 c 0,0.19639 0.16158,0.35931 0.35828,0.35931 h 0.56888 c 0.19671,0 0.35772,-0.16299 0.35772,-0.35931 0,-0.21333 -0.147,-0.38103 -0.35772,-0.38102 z m 7.22237,2.4708 c -0.0509,0.004 -0.10489,0.0276 -0.15818,0.0743 h -0.005 l -0.0456,0.0468 c -0.14392,0.14893 -0.13425,0.40154 -0.009,0.5207 l 0.40325,0.40116 c 0.21783,0.21789 0.5223,-0.002 0.5223,-0.0227 0.0231,-0.0255 0.0642,-0.0683 0.09,-0.14986 0.032,-0.0999 0.0172,-0.24252 -0.09,-0.34979 l -0.4022,-0.40115 c -0.009,-0.009 -0.14301,-0.13746 -0.2958,-0.1196 z m -6.45984,0.08 c -0.15184,0.13719 -0.28932,0.28949 -0.43392,0.43444 -0.15833,0.18748 -0.127,0.40688 -0.001,0.53769 0.15638,0.12958 0.37751,0.13133 0.52336,-0.008 l 0.40113,-0.40118 c 0.12712,-0.12711 0.13917,-0.38151 -0.007,-0.52068 -0.14292,-0.11444 -0.34993,-0.16258 -0.48257,-0.0423 z"
       style="color:#000000;opacity:0.0295699;fill:#0c0e11;fill-opacity:1;stroke:none;stroke-width:0.598737;stroke-linecap:round;-inkscape-stroke:none;paint-order:stroke markers fill"
       id="path17" /></g></svg>
