<?xml version="1.0" encoding="UTF-8" standalone="no"?>
<!-- Created with Inkscape (http://www.inkscape.org/) -->

<svg
   width="135.46666mm"
   height="69.54837mm"
   viewBox="0 0 135.46664 69.548374"
   version="1.1"
   id="svg1"
   xml:space="preserve"
   xmlns="http://www.w3.org/2000/svg"
   xmlns:svg="http://www.w3.org/2000/svg"><defs
     id="defs1" /><g
     style="clip-rule:evenodd;fill-rule:evenodd;image-rendering:optimizeQuality;shape-rendering:geometricPrecision;text-rendering:geometricPrecision"
     id="g20"
     transform="matrix(0.26458333,0,0,0.26458333,3.0915848e-6,3.2505546e-6)"><path
       fill-rule="nonzero"
       d="M 316.78,16.55 H 110.88 C 80.38,16.55 52.66,29.03 32.57,49.12 12.47,69.21 0,96.93 0,127.44 c 0,30.5 12.47,58.22 32.57,78.31 20.09,20.1 47.81,32.57 78.31,32.57 h 193.25 c 21.54,15.43 47.9,24.54 76.26,24.54 h 0.18 c 36.14,0 69.02,-14.79 92.83,-38.6 C 497.2,200.45 512,167.59 512,131.43 512,95.28 497.22,62.4 473.37,38.63 449.53,14.8 416.67,0 380.57,0 h -0.18 c -23.02,0 -44.72,6.02 -63.61,16.55 z m 70.62,97.17 0.43,0.09 c 0.82,-3.45 2.83,-6.19 6.04,-8.16 3.2,-1.98 6.53,-2.57 10.01,-1.75 l 0.1,-0.43 c -3.47,-0.82 -6.2,-2.83 -8.17,-6.03 -1.98,-3.22 -2.57,-6.55 -1.75,-10.01 l -0.43,-0.1 c -0.82,3.47 -2.83,6.2 -6.03,8.18 -3.21,1.98 -6.55,2.56 -10.02,1.74 l -0.1,0.43 c 3.47,0.82 6.2,2.84 8.18,6.04 1.99,3.19 2.56,6.52 1.74,10 z m 36.87,16.77 0.53,0.12 c 1.02,-4.35 3.55,-7.78 7.58,-10.26 4.02,-2.49 8.2,-3.22 12.56,-2.19 l 0.13,-0.53 c -4.35,-1.03 -7.78,-3.55 -10.26,-7.59 -2.49,-4.03 -3.22,-8.22 -2.2,-12.56 l -0.53,-0.12 c -1.02,4.35 -3.55,7.77 -7.58,10.26 -4.02,2.49 -8.21,3.22 -12.56,2.19 l -0.13,0.53 c 4.36,1.03 7.78,3.55 10.26,7.58 2.49,4.02 3.22,8.22 2.2,12.57 z M 385.48,69.48 c -15.69,7.67 -26.98,23.26 -28.29,41.93 -1.96,27.88 19.05,52.06 46.92,54.02 13.23,0.93 25.64,-3.32 35.22,-11.02 4.75,-3.82 9.66,-0.45 7.59,4.36 -11.33,26.42 -38.45,44.04 -68.74,41.91 -38.29,-2.69 -67.14,-35.91 -64.45,-74.19 2.57,-36.69 33.32,-64.82 69.71,-64.49 6.71,0.06 8.13,4.5 2.04,7.48 z m -5.09,-53.95 h 0.18 c 63.75,0 115.91,52.15 115.91,115.9 0,63.75 -52.23,115.91 -115.91,115.91 h -0.18 c -63.68,0 -115.91,-52.16 -115.91,-115.91 0,-63.75 52.16,-115.9 115.91,-115.9 z"
       id="path1-3" /></g><style
     type="text/css"
     id="style1">.st0{fill-rule:evenodd;clip-rule:evenodd;}</style></svg>
