<?xml version="1.0" encoding="UTF-8" standalone="no"?>
<!-- Created with Inkscape (http://www.inkscape.org/) -->

<svg
   width="17.467161mm"
   height="14.034318mm"
   viewBox="0 0 17.467158 14.034319"
   version="1.1"
   id="svg1"
   xml:space="preserve"
   xmlns="http://www.w3.org/2000/svg"
   xmlns:svg="http://www.w3.org/2000/svg"><defs
     id="defs1" /><style
     type="text/css"
     id="style1">.st0{fill-rule:evenodd;clip-rule:evenodd;}</style><style
     type="text/css"
     id="style1-2">.st0{fill-rule:evenodd;clip-rule:evenodd;}</style><g
     id="g31"
     transform="matrix(0.34867844,0,0,0.34867844,-146.18938,-95.346838)"
     style="stroke-width:2.86799"><path
       id="path29"
       style="opacity:0.0201613;fill:#ffffff;fill-opacity:1;stroke:none;stroke-width:0.286799;stroke-linecap:round;paint-order:stroke markers fill"
       d="m 439.65315,273.4521 c -0.45371,4e-5 -0.907,0.17193 -1.24876,0.51742 -0.3193,0.3168 -0.51889,0.76083 -0.51889,1.24728 v 3.23025 c 3e-4,0.46895 0.18697,0.91847 0.51889,1.24972 0.68601,0.686 1.81344,0.686 2.49944,0 0.3193,-0.31931 0.51888,-0.76327 0.51888,-1.24972 v -3.23073 c -2.4e-4,-0.45042 -0.17335,-0.88344 -0.4838,-1.20977 l -0.0352,-0.04 c -0.343,-0.34283 -0.797,-0.51454 -1.25069,-0.5145 z m -13.05795,5.18985 c -0.97537,0 -1.76858,0.79571 -1.76858,1.7686 4.1e-4,0.4684 0.18613,0.91758 0.51643,1.24971 l 2.28749,2.28506 c 0.34675,0.34175 0.79828,0.51644 1.24729,0.51644 0.46908,4.7e-4 0.91891,-0.18633 1.24971,-0.51888 0.34426,-0.34676 0.51889,-0.8007 0.51889,-1.24972 2.3e-4,-0.46903 -0.18654,-0.91877 -0.51889,-1.24972 l -2.28504,-2.28504 c -0.34427,-0.34426 -0.79576,-0.51646 -1.2473,-0.51645 z m 25.96339,0.3693 c -0.46779,10e-6 -0.9164,0.18582 -1.24729,0.51645 l -2.28506,2.28749 c -0.34426,0.34674 -0.51889,0.79826 -0.51889,1.24728 0,0.97537 0.79323,1.76861 1.7686,1.76861 0.45056,-10e-4 0.88378,-0.17294 1.21219,-0.48138 l 2.32501,-2.32256 c 0.34426,-0.34426 0.51647,-0.79578 0.51647,-1.24729 0,-0.97288 -0.79818,-1.7686 -1.77103,-1.7686 z m -13.16368,3.98106 c -2.92111,0 -5.56829,1.18734 -7.48658,3.10066 -1.91334,1.91582 -3.10067,4.56006 -3.10067,7.48367 0,2.92361 1.18733,5.56784 3.10067,7.48366 1.91829,1.91582 4.56299,3.10116 7.48658,3.10116 2.92361,0 5.56787,-1.18534 7.48368,-3.10116 1.91579,-1.91582 3.10066,-4.56005 3.10066,-7.48366 0,-2.92112 -1.18733,-5.56785 -3.10066,-7.48367 -1.91581,-1.91582 -4.56007,-3.10066 -7.48368,-3.10066 z m -18.36276,8.55653 c -0.45129,-4.5e-4 -0.88577,0.17273 -1.21269,0.48381 l -0.0375,0.035 c -0.68575,0.68349 -0.68806,1.81349 0.002,2.49699 0.3168,0.3193 0.76083,0.51887 1.24728,0.51888 h 3.22782 c 0.46936,5e-4 0.91964,-0.18517 1.25214,-0.51644 0.31682,-0.31932 0.51645,-0.76327 0.51645,-1.24971 5e-4,-0.97726 -0.79135,-1.76955 -1.76859,-1.76861 z m 33.49187,0.52132 c -0.46912,-10e-4 -0.91902,0.18613 -1.24972,0.51888 -0.6885,0.68601 -0.6885,1.81343 0,2.49943 0.3168,0.31931 0.76079,0.51889 1.24972,0.51889 h 3.23073 c 0.45014,-0.002 0.88267,-0.17457 1.20978,-0.48381 l 0.0375,-0.0351 c 0.68599,-0.68602 0.68848,-1.81344 0,-2.49945 -0.31682,-0.3168 -0.76584,-0.51887 -1.24729,-0.51889 z m -26.01552,10.25496 c -0.45138,-0.001 -0.88554,0.17276 -1.2122,0.48429 l -2.32256,2.31722 c -0.34673,0.34674 -0.51645,0.79821 -0.51645,1.24971 0,0.97787 0.79323,1.76616 1.7686,1.76616 0.46791,5e-4 0.9168,-0.18524 1.24728,-0.51645 l 2.28505,-2.28749 c 0.34675,-0.34675 0.51889,-0.79832 0.51889,-1.24482 0,-0.97681 -0.79181,-1.76862 -1.76861,-1.76862 z m 21.39813,0.36687 c -0.97286,0 -1.76616,0.79574 -1.76616,1.76862 -5e-4,0.46938 0.1851,0.91971 0.51645,1.25213 l 2.28506,2.28507 c 0.34425,0.34424 0.79821,0.51645 1.24972,0.51645 0.97286,0 1.76616,-0.79822 1.76616,-1.76861 5e-4,-0.46874 -0.18476,-0.9185 -0.51645,-1.24972 l -2.28749,-2.28504 c -0.34673,-0.34425 -0.79826,-0.5189 -1.24729,-0.5189 z m -10.7753,4.25244 c -0.4534,0 -0.90644,0.17149 -1.25069,0.5145 -0.3168,0.31931 -0.51646,0.7608 -0.51646,1.24972 v 3.23075 c 0,0.45045 0.17316,0.88357 0.48384,1.20976 l 0.0325,0.0375 c 0.68598,0.68599 1.81591,0.68849 2.49942,0 0.3193,-0.31681 0.51892,-0.76333 0.51891,-1.24729 v -3.23073 c -7e-5,-0.46849 -0.18581,-0.91781 -0.51646,-1.24972 -0.34424,-0.34301 -0.79781,-0.51451 -1.25117,-0.51451 z" /><path
       style="fill:#9fc1f3;fill-opacity:1;stroke:none;stroke-width:8.79029;stroke-linecap:round;stroke-dasharray:none;stroke-opacity:1;paint-order:stroke markers fill"
       d="m 469.36218,290.70869 c -0.0491,-0.11492 -0.11332,-0.22479 -0.21514,-0.23581 l -2.04675,-0.2218 c -1.1457,-7.42486 -6.90615,-14.93584 -12.72037,-16.30366 -0.0556,0.0358 -0.24142,0.91237 -0.19341,1.28034 6.42991,3.78843 9.56217,12.47901 9.12316,14.85711 -0.58949,0.0752 -1.52909,-0.0154 -2.1041,0.13054 -0.34137,0.12968 -0.10896,0.40821 -0.003,0.64148 l 3.59887,6.96233 4.2057,-6.5378 c 0.11603,-0.19041 0.27192,-0.36577 0.35523,-0.57237 z"
       id="path30" /><path
       d="m 447.81636,293.54121 0.0657,0.0136 c 0.12549,-0.52788 0.43306,-0.94721 0.92424,-1.24861 0.4897,-0.30303 0.99928,-0.39329 1.53176,-0.26781 l 0.005,-0.0659 c -0.53101,-0.12546 -0.94875,-0.43306 -1.25013,-0.9227 -0.30302,-0.49274 -0.39329,-1.00231 -0.26782,-1.5318 l -0.0659,-0.0157 c -0.1254,0.53099 -0.43302,0.9487 -0.92265,1.25171 -0.49125,0.30298 -1.00238,0.39173 -1.53336,0.26626 l -0.005,0.0657 c 0.53099,0.12545 0.94872,0.43457 1.25174,0.9243 0.30451,0.48811 0.39176,0.99767 0.26626,1.53017 z m -4.8422,-4.21379 0.0809,0.0183 c 0.15594,-0.66564 0.54321,-1.19052 1.15998,-1.56998 0.61513,-0.38105 1.25477,-0.49275 1.92191,-0.33516 l 0.005,-0.0811 c -0.66562,-0.15759 -1.19048,-0.54323 -1.56995,-1.16144 -0.38106,-0.61668 -0.49274,-1.25783 -0.33668,-1.92195 l -0.0811,-0.0183 c -0.1561,0.66567 -0.54323,1.18898 -1.15989,1.57002 -0.6152,0.38099 -1.25634,0.49271 -1.92203,0.33511 l -0.005,0.0811 c 0.66721,0.15754 1.19057,0.54322 1.57005,1.15989 0.38103,0.61516 0.49274,1.25785 0.33664,1.92346 z m -3.19069,-5.23482 c -2.4009,1.17369 -4.12856,3.55931 -4.32899,6.41622 -0.3,4.26628 2.91504,7.96635 7.17979,8.26624 2.02452,0.14233 3.92345,-0.50798 5.38943,-1.68629 0.72687,-0.5845 1.47818,-0.0689 1.16152,0.6672 -1.73378,4.04285 -5.88378,6.73908 -10.51885,6.41318 -5.85921,-0.41166 -10.27388,-5.49504 -9.86225,-11.35277 0.39324,-5.61436 5.09869,-9.91887 10.66717,-9.86837 1.02674,0.005 1.24406,0.68859 0.31218,1.14459 z"
       style="fill:#9fc1f3;fill-opacity:1;fill-rule:nonzero;stroke-width:0.758818"
       id="path31" /></g></svg>
