<?xml version="1.0" encoding="UTF-8" standalone="no"?>
<!-- Created with Inkscape (http://www.inkscape.org/) -->

<svg
   width="60.515347"
   height="47.265049"
   viewBox="0 0 16.011349 12.505544"
   version="1.1"
   id="svg1"
   xml:space="preserve"
   xmlns="http://www.w3.org/2000/svg"
   xmlns:svg="http://www.w3.org/2000/svg"><defs
     id="defs1" /><g
     id="g1"
     transform="translate(-0.6083004,-2.2636291)"><g
       id="g2"
       transform="translate(-26.197558,0.44518922)"><path
         id="path2"
         style="color:#000000;fill:#12375b;fill-opacity:1;stroke-linecap:round;-inkscape-stroke:none;paint-order:markers fill stroke"
         d="m 30.667896,1.8184937 c -0.169167,0.00969 -0.278012,0.1030707 -0.384473,0.2439127 -0.106846,0.1413526 -0.197549,0.3247058 -0.31471,0.4764567 l -0.0098,0.011886 -0.0098,0.00775 c -0.468898,0.3444027 -1.457861,1.460354 -1.812329,2.4825369 l -0.0098,0.025321 -0.0217,0.01757 c -0.395364,0.3275306 -0.928131,0.745374 -1.181323,1.1740886 -0.09803,0.1659963 -0.143382,0.3321404 -0.10387,0.5270996 0.03951,0.1949593 0.167987,0.4233405 0.4377,0.6914306 2.338142,1.9838033 5.453529,4.2125792 7.888924,6.1815352 0.651037,0.526388 1.063205,0.653058 1.51567,0.658358 1.627946,0.01903 2.19773,-0.0053 3.82819,0.0057 0.433292,0.0029 0.955229,-0.137881 1.384411,-0.390674 0.429184,-0.252792 0.762638,-0.613964 0.851628,-1.048514 0.12498,-0.610305 0.100998,-0.916847 0.04496,-1.625224 -0.120587,-0.898058 -0.885886,-1.6838925 -1.789038,-1.7967902 h 0.0062 C 40.117127,9.3908659 39.532599,9.129659 39.070483,8.7245321 38.60837,8.3194051 38.26725,7.7794908 37.849886,7.1484009 l -0.0021,-0.00413 -0.0021,-0.00362 C 37.632377,6.738983 37.476462,6.3132513 37.324337,5.8947306 l -0.0021,-0.00207 v -0.00207 C 36.301562,2.6357317 36.504506,3.1497726 36.316646,2.6659871 36.154571,2.4377944 35.780793,2.4213035 35.59576,2.6329142 l -0.0041,0.00362 -0.0036,0.00413 C 34.963648,3.2169316 34.053785,3.658583 33.26417,3.5398341 32.475981,3.4212996 31.805029,2.7451138 31.23277,2.1404363 c -10e-4,-0.00109 -0.0031,-4.603e-4 -0.0041,-0.00155 -0.108878,-0.06978 -0.176556,-0.1575431 -0.240296,-0.2149739 -0.06901,-0.062177 -0.139613,-0.1072299 -0.318326,-0.1054199 z m 0.150378,1.1446329 0.06253,0.078031 c 0.376893,0.4700475 0.964872,1.1886005 1.779736,1.4009481 0.814865,0.2123475 1.855753,-0.077922 2.757455,-0.5555216 0.0364,-0.028785 0.07178,-0.05451 0.111104,-0.068213 0.04619,-0.016088 0.104106,-0.019963 0.152446,0.00413 0.04833,0.024097 0.07821,0.069076 0.0956,0.1131714 0.01464,0.037065 0.02007,0.079051 0.02377,0.1229899 0.109269,0.3888682 0.243257,0.7839704 0.337447,1.1833903 l 0.01602,0.058911 -0.04702,0.040824 C 35.766491,5.6276264 35.331736,5.7147975 35.052646,5.9650055 34.872904,6.188126 34.952513,6.5743399 35.23403,6.6662547 l 0.0021,0.00155 h 0.0021 c 0.14532,0.056935 0.278936,0.02732 0.431498,-0.040824 0.152564,-0.068145 0.313489,-0.1755176 0.486792,-0.2402954 0.0244,-0.00868 0.09188,-0.057583 0.1757,-0.083716 0.04191,-0.013067 0.110515,-0.022141 0.163815,0.021187 0.04704,0.038239 0.06029,0.092259 0.06511,0.1498616 0.151348,0.374168 0.301947,0.7488483 0.472322,1.1100098 l 0.03669,0.080099 -0.07597,0.047025 c -0.303375,0.1834227 -0.641212,0.272682 -0.847493,0.4898926 -0.183364,0.2360551 -0.03657,0.6317393 0.248047,0.6991821 0.183443,0.024052 0.350479,-0.035808 0.529166,-0.1250569 0.18071,-0.090258 0.369104,-0.2071469 0.588078,-0.2594157 l 0.06253,-0.015503 0.03876,0.05271 c 0.526539,0.713639 0.973026,1.1476497 1.800924,1.4448731 h 0.0036 l 0.0021,0.00207 c 0.538455,0.2269741 1.142778,0.2795561 1.730644,0.4511361 v 0.0021 h 0.0021 c 0.254383,0.08481 0.464762,0.258195 0.556555,0.488342 0.330222,0.82795 0.362695,1.384917 0.163871,1.861044 -0.216254,0.59348 -1.194601,0.628556 -1.769036,0.607599 -1.406174,0 -1.717865,0.01229 -3.211173,-0.0036 -0.464759,-0.0051 -0.728656,-0.104404 -1.074353,-0.379305 -2.810042,-2.233411 -7.877586,-6.1916028 -7.878589,-6.1923866 -0.01751,-0.01106 -0.03411,-0.025413 -0.04341,-0.041858 -0.01683,-0.029741 -0.0167,-0.057779 -0.0155,-0.080098 0.006,-0.1155407 0.138901,-0.3024879 0.214974,-0.3963583 0.189543,-0.2532449 0.457486,-0.493611 0.738745,-0.6242598 0.364028,-1.098882 1.08738,-2.0150674 1.983547,-2.7291327 z" /></g><path
       style="opacity:1;fill:#ff6f10;fill-opacity:1;stroke:none;stroke-width:0.199001;stroke-linecap:round;stroke-dasharray:none;stroke-opacity:1;paint-order:markers fill stroke"
       d="m 2.6632001,6.1106842 c 2.626863,2.1686403 5.186468,4.1917468 7.8216539,6.3503738 0.261605,0.212119 0.60501,0.27807 0.934474,0.267786 1.228807,0.005 3.102833,0.0075 4.33146,-0.01368 0.08047,-0.390921 -0.03027,-1.300666 -0.523793,-1.656571 -0.244428,-0.197249 -0.575059,-0.220256 -0.868471,-0.29881 -0.73255,-0.150327 -1.488075,-0.350862 -2.08398,-0.8248966 C 11.924976,9.6541225 11.639853,9.3040801 11.369314,8.9491648 11.004713,9.0404848 10.699241,9.2949575 10.326705,9.3582204 10.076066,9.3867404 9.8536441,9.1528088 9.8624781,8.9063862 9.8368381,8.7193186 9.9866971,8.5752361 10.137375,8.4937251 10.366123,8.3501495 10.626885,8.255862 10.849696,8.1070043 10.750186,7.81928 10.606425,7.5471462 10.498224,7.2619016 10.423064,7.1082676 10.386843,6.935709 10.302144,6.7878458 c -0.08171,-0.086528 -0.210809,-7.673e-4 -0.298781,0.029496 -0.2450729,0.1003827 -0.4692589,0.2596978 -0.7289529,0.31974 -0.229587,0.04061 -0.479052,-0.11391 -0.513056,-0.3509875 -0.03594,-0.1724975 0.03081,-0.36317 0.187965,-0.4529492 C 9.2610561,6.120187 9.5433641,6.0622699 9.9587491,5.761448 9.9354391,5.6101068 9.8824591,5.5213582 9.8624591,5.4050487 9.7623961,5.059234 9.6606871,4.7127203 9.5644611,4.3665432 9.5230011,4.2450587 9.3669361,4.229711 9.2747951,4.3027723 8.3849801,4.8079179 7.1412561,5.1575717 6.2056811,4.8099764 5.4218081,4.4917443 4.7488121,3.5910653 4.6223411,3.4123404 3.7326921,4.0781902 2.9278171,5.1853326 2.6631991,6.1106845 Z"
       id="path3" /><path
       style="fill:#ffffff;fill-opacity:1;stroke:none;stroke-width:1.05;stroke-linecap:round;paint-order:stroke markers fill"
       d="m 2.6519751,6.1012952 c -0.02154,0.064729 -0.108407,0.081569 -0.157975,0.1211178 -0.307638,0.1939567 -0.565128,0.467737 -0.748406,0.7810295 -0.04051,0.077051 -0.09447,0.2011392 -8.12e-4,0.2615009 0.429328,0.3587856 0.880427,0.6908961 1.317933,1.0396804 2.182795,1.7077132 4.360101,3.4226322 6.5362,5.1387202 0.239787,0.19658 0.5213589,0.365861 0.8387639,0.381607 0.557483,0.03499 1.116819,0.01894 1.675095,0.02608 0.783939,-0.0014 1.5682,0.0069 2.351921,-0.01135 0.356952,-0.03231 0.745388,-0.08864 1.024371,-0.333704 0.20988,-0.195071 0.268174,-0.496816 0.297318,-0.770155 0.0042,-0.08159 0.01351,-0.179301 -0.0013,-0.253009 -0.02284,0.07344 -0.0042,0.164583 -0.03666,0.231868 -0.953971,0.02327 -1.908607,0.01805 -2.862871,0.02106 -0.613053,-0.0033 -1.226798,0.0027 -1.839226,-0.02725 -0.237628,-0.03682 -0.459904,-0.149627 -0.639165,-0.308938 C 9.4149111,11.599099 8.4282951,10.791502 7.4344181,9.9929688 5.8638891,8.7220553 4.2875151,7.458157 2.7303831,6.1708423 2.7042511,6.1483752 2.6755211,6.1249926 2.6519751,6.1012952 Z"
       id="path4" /></g></svg>
