<?xml version="1.0" encoding="UTF-8" standalone="no"?>
<!-- Created with Inkscape (http://www.inkscape.org/) -->

<svg
   width="14.329987mm"
   height="15.978321mm"
   viewBox="0 0 14.329984 15.978322"
   version="1.1"
   id="svg1"
   xml:space="preserve"
   xmlns="http://www.w3.org/2000/svg"
   xmlns:svg="http://www.w3.org/2000/svg"><defs
     id="defs1" /><style
     type="text/css"
     id="style1">.st0{fill-rule:evenodd;clip-rule:evenodd;}</style><style
     type="text/css"
     id="style1-2">.st0{fill-rule:evenodd;clip-rule:evenodd;}</style><g
     id="path1"
     transform="translate(-145.23041,-109.17369)"><path
       id="path3"
       style="color:#000000;fill:#000000;stroke-linecap:round;-inkscape-stroke:none;paint-order:stroke markers fill"
       d="m 146.46858,109.1737 c -0.40161,-2e-5 -0.71943,0.10351 -0.93173,0.30851 -0.2127,0.2054 -0.30649,0.49769 -0.30644,0.82269 l 0.002,14.00107 c 7e-5,0.48174 0.46274,0.8358 1.08779,0.84587 0.31394,0.004 0.637,-0.0824 0.87901,-0.26148 l 5.19401,-3.87522 5.19838,3.87522 c 0.24195,0.1791 0.56491,0.2662 0.87902,0.26148 0.57762,-0.01 1.08771,-0.32409 1.08778,-0.84542 l 0.002,-14.00107 c 1.9e-4,-0.325 -0.0942,-0.61684 -0.30696,-0.82218 -0.2123,-0.20495 -0.53014,-0.309 -0.93172,-0.30902 z m 0.1602,1.01751 h 11.50552 c 0.22999,-0.0107 0.33182,0.0863 0.33641,0.29507 l 0.0816,13.1944 c 0.007,0.25646 -0.0684,0.32553 -0.14624,0.35347 -0.11688,0.0419 -0.27327,-0.0464 -0.30689,-0.08 l -5.70222,-4.23799 -5.70354,4.23799 c -0.0941,0.0931 -0.19684,0.0686 -0.30838,0.08 -0.0779,-0.0279 -0.15138,-0.097 -0.14469,-0.35347 l 0.0816,-13.1944 c 0.001,-0.19869 0.0788,-0.29507 0.30683,-0.29507 z" /></g></svg>
