<?xml version="1.0" encoding="UTF-8" standalone="no"?>
<!-- Created with Inkscape (http://www.inkscape.org/) -->

<svg
   width="205.92593mm"
   height="175.99292mm"
   viewBox="0 0 205.9259 175.99293"
   version="1.1"
   id="svg1"
   xml:space="preserve"
   xmlns="http://www.w3.org/2000/svg"
   xmlns:svg="http://www.w3.org/2000/svg"><defs
     id="defs1" /><style
     type="text/css"
     id="style1">.st0{fill-rule:evenodd;clip-rule:evenodd;}</style><path
     style="color:#000000;fill:#000000;stroke-linecap:round;-inkscape-stroke:none"
     d="M 56.459057,7.254638e-4 C 25.201187,-0.14930054 -1.1852326,26.584721 0.04108741,61.770251 1.2473974,96.381541 28.182807,137.63513 96.205147,172.61791 l 6.570323,3.375 6.95117,-3.37695 C 177.7449,137.63378 204.67856,96.380611 205.88484,61.770251 207.11142,26.577331 180.7138,-0.16062554 149.44734,7.254638e-4 127.37361,0.11463046 111.52793,12.593451 102.96297,21.389401 94.397657,12.593501 78.551567,0.11462546 56.478587,7.254638e-4 Z M 56.400457,15.000721 c 21.14886,0.10914 36.82458,17.43951 40.66601,22.32813 l 5.896493,7.5039 5.89843,-7.5039 c 3.84185,-4.88909 19.51551,-22.21899 40.66407,-22.32813 22.8192,-0.11776 42.33084,18.59691 41.36718,46.2461 -0.94719,27.17678 -22.86453,64.495029 -87.92968,97.980469 C 37.897757,125.74185 15.980457,88.423601 15.033267,61.246821 c -0.96366,-27.64919 18.54795,-46.36386 41.36719,-46.2461 z"
     id="path8" /></svg>
