<?xml version="1.0" encoding="UTF-8" standalone="no"?>
<!-- Created with Inkscape (http://www.inkscape.org/) -->

<svg
   width="17.466965mm"
   height="14.034205mm"
   viewBox="0 0 17.466962 14.034206"
   version="1.1"
   id="svg1"
   xml:space="preserve"
   xmlns="http://www.w3.org/2000/svg"
   xmlns:svg="http://www.w3.org/2000/svg"><defs
     id="defs1" /><style
     type="text/css"
     id="style1">.st0{fill-rule:evenodd;clip-rule:evenodd;}</style><style
     type="text/css"
     id="style1-2">.st0{fill-rule:evenodd;clip-rule:evenodd;}</style><g
     id="g35"
     transform="translate(-108.50544,-227.11787)"><path
       id="path16"
       style="fill:#12375b;fill-opacity:1;stroke:none;stroke-width:0.0999999;stroke-linecap:round;paint-order:stroke markers fill"
       d="m 115.61361,227.11792 c -0.15818,0 -0.31644,0.0599 -0.43563,0.18035 -0.11132,0.11046 -0.18086,0.26549 -0.18086,0.43512 v 1.12603 c 1.1e-4,0.1635 0.0652,0.32065 0.18086,0.43614 0.23921,0.2392 0.63259,0.2392 0.87178,0 0.11134,-0.11133 0.18087,-0.26653 0.18087,-0.43614 v -1.12655 c -1e-4,-0.15704 -0.0607,-0.3079 -0.16898,-0.42168 l -0.0119,-0.014 c -0.1196,-0.11953 -0.27795,-0.17932 -0.43615,-0.17932 z m -4.55321,1.80971 c -0.34009,0 -0.6165,0.27727 -0.6165,0.6165 1.6e-4,0.16332 0.0647,0.31982 0.17984,0.43563 l 0.79788,0.79685 c 0.12092,0.11916 0.27805,0.18035 0.4346,0.18035 0.16356,1.7e-4 0.32081,-0.065 0.43615,-0.18087 0.12005,-0.1209 0.18087,-0.27958 0.18087,-0.43614 8e-5,-0.16355 -0.065,-0.32025 -0.18087,-0.43564 l -0.79685,-0.79685 c -0.12002,-0.12004 -0.27767,-0.17984 -0.43512,-0.17983 z m 9.0532,0.12867 c -0.16312,0 -0.31975,0.0646 -0.43512,0.17984 l -0.79685,0.79788 c -0.12003,0.12091 -0.18087,0.27803 -0.18087,0.4346 0,0.3401 0.27641,0.61702 0.6165,0.61702 0.1571,-3.5e-4 0.30821,-0.0604 0.42272,-0.16795 l 0.8108,-0.80977 c 0.12004,-0.12004 0.18035,-0.27767 0.18035,-0.43512 0,-0.33921 -0.27832,-0.6165 -0.61753,-0.6165 z m -4.5899,1.38803 c -1.01853,0 -1.94185,0.41392 -2.6107,1.08107 -0.66714,0.66799 -1.08107,1.59026 -1.08107,2.60966 0,1.0194 0.41393,1.94114 1.08107,2.60915 0.66885,0.66799 1.5913,1.08158 2.6107,1.08158 1.01939,0 1.94114,-0.41359 2.60914,-1.08158 0.66799,-0.66801 1.08107,-1.58975 1.08107,-2.60915 0,-1.01852 -0.41394,-1.94167 -1.08107,-2.60966 -0.668,-0.66801 -1.58975,-1.08107 -2.60914,-1.08107 z m 0.002,1.07074 a 2.6288652,2.6288652 0 0 1 2.62879,2.62878 2.6288652,2.6288652 0 0 1 -2.62879,2.62878 2.6288652,2.6288652 0 0 1 -2.62878,-2.62878 2.6288652,2.6288652 0 0 1 2.62878,-2.62878 z m -6.40477,1.91254 c -0.15735,-1.5e-4 -0.30923,0.0605 -0.42323,0.16898 l -0.0129,0.0119 c -0.23911,0.23832 -0.23984,0.63243 0.002,0.87075 0.11047,0.11133 0.26498,0.18087 0.43459,0.18087 h 1.12552 c 0.16365,1.7e-4 0.32073,-0.0643 0.43666,-0.17984 0.11047,-0.11134 0.18035,-0.26602 0.18035,-0.43563 1.9e-4,-0.34076 -0.27626,-0.61733 -0.61701,-0.61702 z m 11.67784,0.1819 c -0.16358,-3.6e-4 -0.32084,0.0649 -0.43615,0.18087 -0.24007,0.23919 -0.24007,0.63259 0,0.87178 0.11047,0.11135 0.26566,0.18087 0.43615,0.18087 h 1.12654 c 0.15695,-0.002 0.30762,-0.0612 0.42168,-0.16898 l 0.0129,-0.0119 c 0.2392,-0.2392 0.24006,-0.63205 0,-0.87126 -0.11047,-0.11044 -0.26724,-0.18087 -0.43511,-0.18087 z m -9.07128,3.57601 c -0.15737,-3.6e-4 -0.30882,0.0598 -0.42272,0.16847 l -0.80977,0.80822 c -0.1209,0.12092 -0.17983,0.2782 -0.17983,0.43563 0,0.34096 0.27641,0.61598 0.6165,0.61598 0.16316,1.7e-4 0.31988,-0.0649 0.43512,-0.18035 l 0.79633,-0.79737 c 0.1209,-0.12091 0.18138,-0.2784 0.18138,-0.43408 0,-0.3406 -0.27641,-0.6165 -0.61701,-0.6165 z m 7.46104,0.12764 c -0.3392,0 -0.61547,0.27778 -0.61547,0.61702 -1.8e-4,0.16367 0.0643,0.32024 0.17984,0.43615 l 0.79685,0.79685 c 0.12004,0.12004 0.2782,0.18035 0.43563,0.18035 0.33922,0 0.61598,-0.27868 0.61598,-0.61702 1.9e-4,-0.16344 -0.0647,-0.32014 -0.18035,-0.43563 l -0.79736,-0.79685 c -0.12091,-0.12003 -0.27855,-0.18087 -0.43512,-0.18087 z m -3.75688,1.4826 c -0.15809,0 -0.31612,0.0602 -0.43615,0.17983 -0.11046,0.11133 -0.18035,0.26518 -0.18035,0.43564 v 1.12654 c 0,0.15705 0.0607,0.30794 0.16899,0.42168 l 0.0114,0.0129 c 0.23918,0.23918 0.63293,0.24007 0.87127,0 0.11133,-0.11047 0.18087,-0.26585 0.18087,-0.4346 v -1.12654 c -2e-5,-0.16337 -0.0645,-0.32042 -0.17984,-0.43615 -0.12004,-0.1196 -0.27807,-0.17932 -0.43615,-0.17932 z" /><path
       style="fill:#12375b;fill-opacity:1;stroke:none;stroke-width:3.06499;stroke-linecap:round;stroke-dasharray:none;stroke-opacity:1;paint-order:stroke markers fill"
       d="m 125.97241,233.13494 c -0.0172,-0.0401 -0.0395,-0.0784 -0.075,-0.0823 l -0.71365,-0.0773 c -0.39948,-2.5889 -2.40803,-5.20782 -4.43533,-5.68474 -0.0194,0.0125 -0.0841,0.31812 -0.0675,0.44642 2.24198,1.32095 3.33412,4.35116 3.18106,5.18035 -0.20556,0.0263 -0.53317,-0.005 -0.73366,0.0456 -0.11902,0.0451 -0.0381,0.14233 -0.003,0.22367 l 1.25484,2.42761 1.46645,-2.27958 c 0.0405,-0.0664 0.0948,-0.12756 0.12386,-0.19957 z"
       id="path17" /></g></svg>
