<?xml version="1.0" encoding="UTF-8" standalone="no"?>
<!-- Created with Inkscape (http://www.inkscape.org/) -->

<svg
   width="109.00781mm"
   height="67.743668mm"
   viewBox="0 0 109.0078 67.743671"
   version="1.1"
   id="svg1"
   xml:space="preserve"
   xmlns="http://www.w3.org/2000/svg"
   xmlns:svg="http://www.w3.org/2000/svg"><defs
     id="defs1" /><style
     type="text/css"
     id="style1">.st0{fill-rule:evenodd;clip-rule:evenodd;}</style><g
     id="g16"
     transform="translate(-222.84153,-168.50496)"><ellipse
       style="opacity:1;fill:#ffffff;fill-opacity:0.495667;stroke-width:1.565;stroke-linecap:square;stroke-linejoin:bevel;paint-order:stroke fill markers"
       id="path14"
       cx="257.04828"
       cy="202.04317"
       rx="26.295128"
       ry="24.416904" /><g
       id="g12"
       transform="translate(6.1713055,-46.955585)"><path
         id="path4"
         style="fill:#234577;fill-opacity:1;stroke-width:0.264583"
         d="m 250.58906,215.46055 c 5.82874,0 11.33213,1.49744 16.13958,4.1274 h 29.20494 c 8.17295,0 15.61067,3.34674 21.00285,8.74158 5.39485,5.38426 8.74159,12.82197 8.74159,21.00286 0,8.18088 -3.3495,15.61847 -8.73642,21.00801 l -0.1111,0.10026 c -5.38163,5.33132 -12.77688,8.63616 -20.89692,8.63616 h -29.19409 c -4.80745,2.6273 -10.31375,4.1274 -16.15043,4.1274 h -0.047 c -9.31331,0 -17.78528,-3.81257 -23.9236,-9.94823 -6.13566,-6.13567 -9.94823,-14.60502 -9.94823,-23.9236 0,-9.3186 3.80996,-17.79053 9.94565,-23.92619 l 0.24081,-0.21963 c 6.12507,-6.00867 14.49642,-9.72602 23.68537,-9.72602 z m -0.0563,4.14394 c -16.40647,2e-5 -29.70646,13.30024 -29.7062,29.70671 3e-5,16.40627 13.29993,29.70617 29.7062,29.70619 16.40627,-2e-5 29.70617,-13.29992 29.7062,-29.70619 2.6e-4,-16.40647 -13.29973,-29.70669 -29.7062,-29.70671 z m 21.71599,3.7486 c 0.78317,0.65352 1.53704,1.34114 2.25671,2.06344 6.14359,6.1251 9.9565,14.59726 9.9565,23.91586 0,9.31858 -3.81522,17.78793 -9.94823,23.9236 -0.71897,0.7181 -1.46935,1.40393 -2.24896,2.05569 h 23.66936 c 11.17609,0 17.92013,-7.16792 18.34612,-7.63313 4.70691,-4.70691 7.63312,-11.20508 7.63312,-18.34616 0,-7.1411 -2.92621,-13.63919 -7.63312,-18.34875 -4.70164,-4.70957 -11.1998,-7.63055 -18.34617,-7.63055 z" /><path
         id="path8"
         style="opacity:1;fill:#234577;fill-opacity:0.993068;stroke-width:1.565;stroke-linecap:square;stroke-linejoin:bevel;paint-order:stroke fill markers"
         d="m 250.32219,219.05485 c -8.06575,0.0337 -16.08416,3.42943 -21.61212,9.32449 -4.71728,4.82605 -7.67385,11.33036 -8.28425,18.0449 -0.23787,3.17614 -0.16794,6.39616 0.58395,9.50484 1.53492,7.08934 5.76768,13.52743 11.6396,17.78031 4.86694,3.62586 10.87587,5.65801 16.9323,5.84616 3.06236,0.023 6.14456,-0.22479 9.09195,-1.10226 5.14136,-1.43877 9.9206,-4.22784 13.57953,-8.13181 4.78675,-4.83014 7.78488,-11.34635 8.40207,-18.11362 0.51729,-5.83771 -0.58699,-11.83699 -3.36724,-17.01343 -3.9179,-7.50265 -11.11823,-13.20656 -19.34662,-15.22388 -2.48732,-0.62675 -5.05424,-0.93435 -7.61917,-0.9157 z m 0.54829,8.95759 c 0.007,0 0.0106,-2.2e-4 0.0196,0.009 0.52424,1.26919 1.00498,2.57103 1.51929,3.8499 0.53562,1.40781 1.14428,2.79339 1.63866,4.21369 -2.03997,-0.43271 -4.19161,-0.4751 -6.23683,-0.0109 -0.17905,0.0786 -0.0865,-0.12975 -0.0517,-0.20515 1.03089,-2.61816 2.01171,-5.26317 3.11093,-7.85017 z m -9.31003,2.10995 c 0.60087,0.47919 1.14919,1.03207 1.72031,1.54926 0.81338,0.79206 1.69698,1.51687 2.46961,2.34766 -0.26113,0.734 -0.58093,1.47126 -0.86041,2.20761 -0.0963,0.10009 -0.0496,0.3882 -0.21032,0.4036 -0.90833,-0.22286 -1.79592,-0.54375 -2.69751,-0.79944 -0.17469,-1.89961 -0.28518,-3.80672 -0.42168,-5.70869 z m 18.56372,0.01 -5.1e-4,0.006 c -0.0895,1.8887 -0.23584,3.7969 -0.39016,5.68958 -0.87998,0.29436 -1.7841,0.56114 -2.68097,0.8108 -0.45327,-0.84235 -0.73769,-1.77115 -1.10071,-2.65669 0.51049,-0.47488 1.02121,-0.94984 1.53169,-1.42472 0.88502,-0.79559 1.71655,-1.65585 2.63085,-2.41587 z m -26.02218,5.9185 -0.005,0.004 c 2.70639,0.82395 5.41398,1.64968 8.11578,2.49028 0.1348,0.0141 0.23815,0.0876 0.0806,0.18294 -1.47709,1.22654 -2.71929,2.738 -3.6096,4.44107 -0.094,0.071 -0.18348,0.55715 -0.29611,0.35243 -1.42417,-2.49238 -2.89577,-4.96192 -4.29483,-7.46621 z m 33.52302,0.009 h 0.0103 l -0.007,0.003 c -1.42637,2.50925 -2.87595,5.00619 -4.3279,7.50084 -0.31816,-0.38534 -0.49364,-0.88954 -0.78083,-1.30638 -0.825,-1.35641 -1.90958,-2.53728 -3.12126,-3.55586 -0.14424,-0.0934 -0.002,-0.13609 0.094,-0.15399 2.70756,-0.83981 5.41783,-1.67186 8.13284,-2.48719 z m -16.22072,2.2257 v 0.004 c 1.01402,0.0122 2.01948,0.20654 2.97708,0.5426 3.8112,1.25526 6.85217,4.69527 7.4688,8.68061 0.35817,2.42282 0.0851,5.00148 -1.13637,7.1577 -1.80519,3.43087 -5.50414,5.8091 -9.39426,5.9061 -2.17397,0.11404 -4.36326,-0.46152 -6.22029,-1.59163 -2.92354,-1.70606 -4.90965,-4.84478 -5.31854,-8.19123 -0.0669,-1.25434 -0.13111,-2.53961 0.18035,-3.76876 0.66083,-3.09567 2.73305,-5.8347 5.49631,-7.36441 1.54746,-0.83375 3.29116,-1.38698 5.06119,-1.36478 0.1502,3e-5 0.30039,-0.004 0.45062,0 0.14511,-0.01 0.29025,-0.0188 0.43511,-0.01 z m 14.80427,5.51233 c 1.83643,0.24297 3.67212,0.52723 5.49527,0.85318 -1.51952,1.12573 -3.11267,2.15491 -4.67052,3.22874 -0.77822,-0.52961 -1.5608,-1.05297 -2.33422,-1.58957 0.26954,-0.55724 0.59529,-1.0882 0.89969,-1.6278 0.20373,-0.27792 0.30974,-0.68045 0.60978,-0.86455 z m -30.58057,0.0155 c 0.49814,0.77961 0.94913,1.62058 1.40509,2.43655 -0.57679,0.46702 -1.23962,0.88059 -1.85725,1.31464 -0.20298,0.0866 -0.4012,0.41854 -0.63356,0.21653 -1.53959,-1.00821 -3.06718,-2.04361 -4.55321,-3.12798 1.87492,-0.30349 3.75548,-0.5896 5.63893,-0.83974 z m 28.97601,5.48132 -0.004,0.005 c 2.30383,1.55648 4.60167,3.12376 6.89157,4.701 -0.15337,-0.0479 0.41855,0.20291 0.17053,0.21291 -2.83292,0.44174 -5.66843,0.87773 -8.50646,1.28003 0.31825,-0.73374 0.64223,-1.4922 0.85628,-2.27377 0.41082,-1.26593 0.503,-2.59706 0.5855,-3.91604 l 0.003,-0.004 c -5.1e-4,-3.5e-4 -10e-4,-6.9e-4 -0.002,-0.001 z m -27.48669,0.0264 c 0.0379,0.0526 0.0241,0.16244 0.0408,0.22944 0.0537,1.91364 0.43192,3.8309 1.25316,5.56813 -0.001,0.0991 0.2955,0.40727 0.0408,0.36587 -2.8214,-0.42374 -5.64524,-0.84044 -8.46253,-1.29139 0.25468,-0.21754 0.54472,-0.39681 0.817,-0.59376 2.09992,-1.43098 4.18752,-2.88262 6.31073,-4.27829 z m -0.0961,8.52144 c 0.91565,0.1388 1.83556,0.26396 2.74815,0.42478 -0.0218,0.93386 -0.11081,1.89446 -0.18861,2.836 -1.21671,0.4149 -2.47712,0.77375 -3.71141,1.16376 -0.58131,0.16216 -1.16963,0.39403 -1.74614,0.51883 0.77017,-1.44514 1.62568,-2.85049 2.43809,-4.27468 0.17049,-0.19959 0.21514,-0.55191 0.45992,-0.66869 z m 27.77247,0.009 v 0.005 c 0.96125,1.63431 1.9179,3.27386 2.8484,4.92631 -1.81811,-0.5251 -3.64156,-1.10089 -5.45445,-1.66812 -0.12086,-0.92686 -0.17412,-1.88566 -0.23512,-2.8267 0.91066,-0.19048 1.86991,-0.30455 2.80396,-0.43098 0.0116,0.005 0.0251,-0.0142 0.0372,-0.005 z m -5.27307,2.19935 -0.004,0.007 c 0.24224,2.89798 0.45308,5.80917 0.6599,8.71368 -1.42216,-1.2861 -2.81169,-2.60842 -4.22299,-3.90674 -0.69895,-0.67957 -1.47364,-1.29575 -2.10375,-2.03812 0.21307,-0.10617 0.49738,-0.14089 0.73329,-0.22169 1.80619,-0.47679 3.46652,-1.39557 4.92838,-2.54506 z m -17.32142,0.009 c 0.014,-0.002 0.0251,0.0281 0.0377,0.0191 1.57248,1.24312 3.40204,2.15939 5.348,2.64686 0.0517,0.0604 0.37379,0.0315 0.32659,0.13436 -1.89436,1.81239 -3.83738,3.57397 -5.75313,5.36401 -0.17107,0.089 -0.54878,0.64178 -0.57878,0.41083 0.16955,-2.86045 0.3898,-5.7188 0.6196,-8.57518 z m 8.662,3.57187 c 0.73055,0.60333 1.41145,1.27995 2.11667,1.91771 -0.652,1.68759 -1.31481,3.37114 -1.97507,5.05551 -0.0406,0.0619 -0.1077,0.39466 -0.1726,0.17621 -0.672,-1.74315 -1.41702,-3.46122 -2.03399,-5.22397 0.64337,-0.67427 1.36124,-1.3044 2.06499,-1.92546 z" /></g><path
       style="opacity:1;fill:#000000;fill-opacity:0.05;stroke-width:1.56499;stroke-linecap:square;stroke-linejoin:bevel;paint-order:stroke fill markers"
       d="m 278.36751,176.37174 c 4.58754,4.12231 8.20619,9.37063 10.10864,15.2582 1.26438,3.78359 1.81085,7.78593 1.67771,11.77029 -0.15884,9.4565 -4.63248,18.66416 -11.69839,24.90058 -0.8265,0.54761 -0.4849,0.64681 0.33918,0.56081 8.24598,-0.0478 16.49333,0.0209 24.73833,-0.11747 3.99015,-0.11701 7.87758,-1.4462 11.35212,-3.36092 7.74152,-4.34431 13.09323,-12.78301 13.40681,-21.69286 0.41243,-6.99877 -2.1942,-14.07699 -6.96131,-19.20355 -3.78744,-4.18712 -8.96475,-7.03387 -14.50072,-8.09993 -2.51947,-0.57396 -5.12418,-0.31943 -7.68488,-0.40757 -7.0993,-0.0302 -14.19868,-0.0389 -21.298,-0.0586 0.17349,0.15033 0.34702,0.30066 0.52051,0.45098 z"
       id="path15" /></g></svg>
