<?xml version="1.0" encoding="UTF-8" standalone="no"?>
<!-- Created with Inkscape (http://www.inkscape.org/) -->

<svg
   width="102.14689mm"
   height="67.921432mm"
   viewBox="0 0 102.14688 67.921436"
   version="1.1"
   id="svg1"
   xml:space="preserve"
   xmlns="http://www.w3.org/2000/svg"
   xmlns:svg="http://www.w3.org/2000/svg"><defs
     id="defs1" /><style
     type="text/css"
     id="style1">.st0{fill-rule:evenodd;clip-rule:evenodd;}</style><style
     type="text/css"
     id="style1-8">.st0{fill-rule:evenodd;clip-rule:evenodd;}</style><path
     id="path28"
     style="fill:#234577;fill-opacity:1;stroke-width:2.86499;stroke-linecap:round;paint-order:markers fill stroke"
     d="M 33.96071,0 C 15.20452,-1.3999903e-4 -4.2999088e-4,15.20504 0,33.96123 c 1.5000912e-4,18.75578 15.20493,33.96034 33.96071,33.9602 5.65744,-0.0302 11.21772,-1.47327 16.17576,-4.19819 H 72.4023 c 16.3957,0 29.79733,-12.18278 29.74443,-29.74444 C 102.10073,18.71984 91.31605,4.23436 72.4023,4.23436 H 50.2021 C 45.22788,1.48626 39.64352,0.0303 33.96071,0 Z m 21.84467,7.99951 h 16.59743 c 15.9821,0.34853 25.979302,13.30406 25.979302,25.97929 0,13.7895 -11.411232,25.97929 -25.979302,25.97929 H 55.7568 C 63.45408,53.51594 67.90732,43.99863 67.92092,33.96123 67.90902,23.94404 63.47516,14.44301 55.80538,7.99951 Z m -22.00383,2.19263 c 1.14735,0.0121 2.04331,0.95 2.04329,2.06086 v 3.77806 c -0.003,1.3601 -0.87616,2.08799 -2.06706,2.06292 -1.15151,-0.0243 -2.06654,-0.93013 -2.06654,-2.06292 V 12.253 c 0,-1.05861 0.85126,-2.074 2.09031,-2.06086 z m 15.24817,6.0663 c 0.62037,0 1.17842,0.27774 1.55752,0.71416 0.3161,0.36388 0.50798,0.838 0.50798,1.35393 -0.22354,1.77034 -2.09623,2.95223 -3.27887,4.13359 -0.815,0.80912 -2.09873,0.79993 -2.89956,0.0171 -0.82909,-0.81046 -0.82603,-2.13454 -0.0202,-2.94298 1.32617,-1.03947 2.28811,-3.13471 4.13309,-3.27576 z m -30.44414,0.43769 c 0.55465,-0.0216 1.11674,0.17738 1.53944,0.601 l 2.67219,2.67477 c 0.90002,0.90002 0.7748,2.37321 -0.23203,3.11868 -0.7992,0.59174 -1.92165,0.53045 -2.64687,-0.16123 l -2.71611,-2.7094 c -0.77009,-0.77009 -0.79892,-1.99452 -0.11059,-2.80086 0.39211,-0.45933 0.93932,-0.70134 1.49397,-0.72296 z m 15.48019,4.65243 c 3.41876,0 6.51113,1.38586 8.75141,3.62614 2.24027,2.24027 3.62561,5.33267 3.62561,8.7514 0,3.41585 -1.38825,6.51061 -3.62561,8.75089 -2.24028,2.24028 -5.33265,3.62562 -8.75141,3.62562 -3.41583,0 -6.51131,-1.38825 -8.7545,-3.62562 -2.23737,-2.24028 -3.62562,-5.33214 -3.62562,-8.75089 0,-3.41873 1.38825,-6.51113 3.62562,-8.7514 2.24319,-2.24028 5.33576,-3.62614 8.7545,-3.62614 z M 51.7772,31.35105 h 3.77806 c 1.03655,0.004 1.97512,0.7948 2.05569,1.91978 0.088,1.22894 -0.89617,2.21639 -2.05569,2.21641 H 51.7772 c -1.08864,10e-4 -2.0048,-0.85448 -2.06241,-1.95854 -0.0625,-1.19868 0.8977,-2.17765 2.06241,-2.17765 z m -39.16402,0.61289 h 3.77445 c 1.14388,-0.001 2.06809,0.92788 2.06809,2.06499 0.001,1.14277 -0.92533,2.06919 -2.06809,2.06809 h -3.77445 c -1.24552,10e-4 -1.91554,-0.8809 -2.01021,-1.83038 -0.11025,-1.10573 0.55983,-2.30267 2.01021,-2.3027 z m 33.98139,12.00185 c 0.57544,-0.0597 1.1747,0.11993 1.63246,0.54984 l 2.71869,2.71559 c 0.89163,0.89162 0.78149,2.37674 -0.25063,3.12953 -0.82091,0.59873 -1.95663,0.51086 -2.67477,-0.20671 l -2.67219,-2.67477 c -0.72592,-0.73117 -0.79023,-1.83404 -0.24288,-2.62878 0.36238,-0.52615 0.91388,-0.82505 1.48932,-0.8847 z M 21.80383,44.3854 c 0.52762,0.004 1.05002,0.20915 1.44488,0.60617 0.81672,0.82264 0.79791,2.12781 0,2.9223 l -2.67167,2.67219 c -0.86542,0.83739 -1.96532,0.81643 -2.8758,0.0393 -0.91017,-0.77726 -0.86107,-2.14665 -0.047,-2.96519 l 2.67477,-2.67168 c 0.41453,-0.40856 0.94722,-0.6067 1.47484,-0.60306 z m 12.56306,4.96972 c 1.1655,-0.0119 2.09031,0.9293 2.09031,2.06293 v 3.77806 c -0.0189,1.12256 -0.83545,2.0654 -2.06912,2.06241 -1.37759,-0.004 -2.06706,-0.93852 -2.06706,-2.06344 v -3.77755 c 7.6e-4,-1.25211 1.05669,-2.06241 2.04587,-2.06241 z" /></svg>
