<?xml version="1.0" encoding="UTF-8" standalone="no"?>
<!-- Created with Inkscape (http://www.inkscape.org/) -->

<svg
   width="109.00781mm"
   height="67.743668mm"
   viewBox="0 0 109.0078 67.743671"
   version="1.1"
   id="svg1"
   xml:space="preserve"
   xmlns="http://www.w3.org/2000/svg"
   xmlns:svg="http://www.w3.org/2000/svg"><defs
     id="defs1" /><style
     type="text/css"
     id="style1">.st0{fill-rule:evenodd;clip-rule:evenodd;}</style><style
     type="text/css"
     id="style1-8">.st0{fill-rule:evenodd;clip-rule:evenodd;}</style><g
     id="g11"
     transform="translate(-902.26647,275.76175)"><g
       id="g4"
       transform="translate(678.11531,-446.3247)"><ellipse
         style="opacity:1;fill:#ffffff;fill-opacity:0.901961;stroke-width:1.565;stroke-linecap:square;stroke-linejoin:bevel;paint-order:stroke fill markers"
         id="ellipse1"
         cx="257.04828"
         cy="202.04317"
         rx="26.295128"
         ry="24.416904" /><g
         id="g3"
         transform="translate(6.1713055,-46.955585)"><path
           id="path1"
           style="fill:#234577;fill-opacity:1;stroke-width:0.264583"
           d="m 251.85173,217.51853 c -9.18894,0 -17.56031,3.71736 -23.68537,9.72602 l -0.24082,0.21963 c -6.13568,6.13565 -9.94564,14.60759 -9.94564,23.92618 0,9.31858 3.81257,17.78795 9.94823,23.92361 6.13831,6.13565 14.6103,9.94823 23.9236,9.94823 h 0.047 c 5.83667,0 11.34299,-1.5001 16.15043,-4.1274 h 29.19409 c 8.12003,0 15.51529,-3.30485 20.89691,-8.63616 l 0.11111,-0.10026 c 5.38691,-5.38953 8.73641,-12.82714 8.73641,-21.00802 0,-8.18088 -3.34674,-15.61859 -8.74158,-21.00285 -5.39218,-5.39483 -12.82991,-8.74158 -21.00285,-8.74158 h -29.20494 c -4.80744,-2.62996 -10.31085,-4.1274 -16.13958,-4.1274 z m 21.70669,7.89254 h 23.68537 c 7.14637,0 13.64453,2.92098 18.34617,7.63054 4.70691,4.70956 7.63313,11.20766 7.63313,18.34875 0,7.14108 -2.92622,13.63927 -7.63313,18.34617 -0.42599,0.46521 -7.17009,7.63313 -18.34617,7.63313 h -23.66935 c 0.77961,-0.65176 1.52999,-1.33759 2.24896,-2.05569 6.133,-6.13566 9.94823,-14.60503 9.94823,-23.92361 0,-9.31859 -3.81292,-17.79075 -9.9565,-23.91585 -0.71967,-0.7223 -1.47354,-1.40992 -2.25671,-2.06344 z m -21.37854,4.65915 3.17758,8.07289 c -2.03997,-0.43271 -4.19161,-0.47505 -6.23683,-0.0109 -0.17905,0.0786 -0.0865,-0.12976 -0.0517,-0.20516 l 3.11092,-7.85016 z m -16.76849,8.03878 -0.005,0.004 c 2.70639,0.82395 5.41399,1.64969 8.11578,2.49029 0.1348,0.0141 0.23817,0.0876 0.0806,0.18293 -1.47709,1.22654 -2.71929,2.73801 -3.6096,4.44108 -0.094,0.071 -0.18348,0.55715 -0.29611,0.35243 -1.42416,-2.49238 -2.89576,-4.96192 -4.29482,-7.46621 z m 33.52302,0.009 h 0.0103 l -0.007,0.003 c -1.42637,2.50925 -2.87596,5.00619 -4.3279,7.50083 -0.31816,-0.38534 -0.49365,-0.88954 -0.78083,-1.30638 -0.825,-1.3564 -1.90958,-2.53727 -3.12126,-3.55585 -0.14424,-0.0934 -0.002,-0.1361 0.0941,-0.154 z m -16.22072,2.22622 v 0.004 c 1.01402,0.0122 2.01948,0.20654 2.97708,0.5426 3.8112,1.25526 6.85217,4.69527 7.4688,8.68061 0.35817,2.42282 0.0851,5.00148 -1.13637,7.1577 -1.80518,3.43087 -5.50414,5.8091 -9.39425,5.9061 -2.17397,0.11404 -4.36327,-0.46153 -6.2203,-1.59163 -2.92353,-1.70606 -4.90965,-4.84479 -5.31854,-8.19124 -0.0669,-1.25433 -0.1311,-2.53961 0.18036,-3.76876 0.66082,-3.09566 2.73304,-5.8347 5.4963,-7.36441 1.54746,-0.83375 3.29116,-1.38697 5.06119,-1.36477 0.1502,3e-5 0.30039,-0.004 0.45062,0 0.14511,-0.01 0.29025,-0.0186 0.43511,-0.01 z m 13.19972,11.00863 -0.004,0.005 7.0621,4.91391 -8.50646,1.28003 c 0.31825,-0.73374 0.64223,-1.4922 0.85628,-2.27377 0.41082,-1.26593 0.50299,-2.59706 0.58549,-3.91604 l 0.003,-0.004 c -5.1e-4,-3.5e-4 -5.5e-4,-7.3e-4 -0.002,-0.001 z m -27.4867,0.0264 c 0.0379,0.0526 0.0241,0.16244 0.0408,0.22944 0.0537,1.91364 0.43191,3.83091 1.25315,5.56813 -0.001,0.0991 0.29552,0.40727 0.0408,0.36587 -2.82139,-0.42374 -5.64524,-0.84044 -8.46253,-1.29139 0.12413,-0.10602 3.90468,-2.75342 7.12773,-4.87205 z m 22.40329,10.73009 -0.004,0.007 0.65991,8.71368 -6.32675,-5.94486 c 0.21307,-0.10617 0.49738,-0.14089 0.73329,-0.22169 1.80619,-0.47679 3.46652,-1.39558 4.92838,-2.54506 z m -17.32143,0.009 c 0.014,-0.002 0.0251,0.0281 0.0377,0.0191 1.57247,1.24311 3.40203,2.15939 5.34799,2.64686 0.0517,0.0604 0.37379,0.0315 0.32659,0.13436 l -6.33191,5.77484 z" /></g></g></g></svg>
