<?xml version="1.0" encoding="UTF-8" standalone="no"?>
<!-- Created with Inkscape (http://www.inkscape.org/) -->

<svg
   width="14.471985mm"
   height="14.596009mm"
   viewBox="0 0 14.471982 14.59601"
   version="1.1"
   id="svg1"
   xml:space="preserve"
   xmlns="http://www.w3.org/2000/svg"
   xmlns:svg="http://www.w3.org/2000/svg"><defs
     id="defs1" /><path
     id="path66"
     style="fill:#234577;fill-opacity:1;stroke:none;stroke-width:2.465;stroke-linecap:square;stroke-dasharray:none;stroke-opacity:1;paint-order:stroke markers fill"
     d="M 4.974363,5.4093396e-8 C 2.235743,5.4093396e-8 -1.6993804e-5,2.2357603 -1.6993804e-5,4.9743733 c 0,2.738615 2.235759993804,4.976441 4.974379993804,4.976441 2.73861,0 4.97644,-2.237826 4.97644,-4.976441 C 9.950803,2.2357603 7.712973,5.4093398e-8 4.974363,5.4093396e-8 Z M 4.974363,1.5642453 c 1.89282,0 3.41012,1.5173 3.41012,3.410128 0,1.892829 -1.5173,3.412196 -3.41012,3.412195 -1.89283,10e-7 -3.41013,-1.519366 -3.41013,-3.412195 0,-1.892828 1.5173,-3.410128 3.41013,-3.410128 z m 4.78627,6.606316 c -0.46373,0.681693 -1.04352,1.235787 -1.72858,1.673799 l 4.331,4.3351357 c 0.0853,0.09894 0.3977,0.414846 0.90899,0.416512 0.66268,-4.4e-5 1.19989,-0.537245 1.19993,-1.199927 -1.4e-4,-0.157226 -0.0369,-0.534057 -0.3514,-0.848527 z m 3.50728,4.7227087 a 0.5,0.5 0 0 1 0.49971,0.499711 0.5,0.5 0 0 1 -0.49971,0.500228 0.5,0.5 0 0 1 -0.50023,-0.500228 0.5,0.5 0 0 1 0.50023,-0.499711 z" /></svg>
