<?xml version="1.0" encoding="UTF-8" standalone="no"?>
<!-- Created with Inkscape (http://www.inkscape.org/) -->

<svg
   width="61.314087mm"
   height="61.839611mm"
   viewBox="0 0 61.314078 61.839614"
   version="1.1"
   id="svg1"
   xml:space="preserve"
   xmlns="http://www.w3.org/2000/svg"
   xmlns:svg="http://www.w3.org/2000/svg"><defs
     id="defs1" /><style
     type="text/css"
     id="style1">.st0{fill-rule:evenodd;clip-rule:evenodd;}</style><g
     id="g8"
     transform="translate(103.44584,-294.15388)"><path
       id="path66"
       style="fill:#9fc1f3;fill-opacity:1;stroke:none;stroke-width:2.465;stroke-linecap:square;stroke-dasharray:none;stroke-opacity:1;paint-order:stroke markers fill"
       d="m -82.370675,294.15388 c -11.60288,0 -21.075175,9.47234 -21.075175,21.07515 0,11.60284 9.472295,21.08394 21.075175,21.08394 11.60278,0 21.08394,-9.4811 21.08394,-21.08394 0,-11.60281 -9.48116,-21.07515 -21.08394,-21.07515 z m 0,6.62729 c 8.01944,0 14.4478,6.42843 14.4478,14.44786 0,8.01944 -6.42836,14.45661 -14.4478,14.45661 -8.01941,0 -14.44792,-6.43717 -14.44792,-14.45661 0,-8.01943 6.42851,-14.44786 14.44792,-14.44786 z m 20.27816,27.98931 c -1.96466,2.88817 -4.42108,5.23573 -7.32359,7.09147 l 18.34942,18.36689 c 0.36136,0.41918 1.68499,1.75759 3.85109,1.76465 2.80773,-1.8e-4 5.08375,-2.27617 5.08385,-5.08379 -5.9e-4,-0.66612 -0.15675,-2.26266 -1.48878,-3.59499 z m 14.85956,20.00894 a 2.1183744,2.1183744 0 0 1 2.11712,2.11715 2.1183744,2.1183744 0 0 1 -2.11712,2.11934 2.1183744,2.1183744 0 0 1 -2.11937,-2.11934 2.1183744,2.1183744 0 0 1 2.11937,-2.11715 z" /></g></svg>
