<?xml version="1.0" encoding="UTF-8" standalone="no"?>
<!-- Created with Inkscape (http://www.inkscape.org/) -->

<svg
   width="61.314087mm"
   height="61.839603mm"
   viewBox="0 0 61.314078 61.839607"
   version="1.1"
   id="svg1"
   xml:space="preserve"
   xmlns="http://www.w3.org/2000/svg"
   xmlns:svg="http://www.w3.org/2000/svg"><defs
     id="defs1" /><style
     type="text/css"
     id="style1">.st0{fill-rule:evenodd;clip-rule:evenodd;}</style><g
     id="g8"
     transform="translate(103.44587,-294.15386)"><path
       id="path66"
       style="fill:#234577;fill-opacity:1;stroke:none;stroke-width:2.465;stroke-linecap:square;stroke-dasharray:none;stroke-opacity:1;paint-order:stroke markers fill"
       d="m -82.370675,294.15388 c -11.60288,0 -21.075175,9.47234 -21.075175,21.07515 0,11.60284 9.472295,21.08394 21.075175,21.08394 11.60278,0 21.08394,-9.4811 21.08394,-21.08394 0,-11.60281 -9.48116,-21.07515 -21.08394,-21.07515 z m 0,6.62729 c 8.01944,0 14.4478,6.42843 14.4478,14.44786 0,8.01944 -6.42836,14.45661 -14.4478,14.45661 -8.01941,0 -14.44792,-6.43717 -14.44792,-14.45661 0,-8.01943 6.42851,-14.44786 14.44792,-14.44786 z m 20.27816,27.98931 c -1.96466,2.88817 -4.42108,5.23573 -7.32359,7.09147 l 18.34942,18.36689 c 0.36136,0.41918 1.68499,1.75759 3.85109,1.76465 2.80773,-1.8e-4 5.08375,-2.27617 5.08385,-5.08379 -5.9e-4,-0.66612 -0.15675,-2.26266 -1.48878,-3.59499 z m 14.85956,20.00894 a 2.1183744,2.1183744 0 0 1 2.11712,2.11715 2.1183744,2.1183744 0 0 1 -2.11712,2.11934 2.1183744,2.1183744 0 0 1 -2.11937,-2.11934 2.1183744,2.1183744 0 0 1 2.11937,-2.11715 z" /><path
       style="opacity:1;fill:#ffffff;fill-opacity:0.5;stroke-width:1.565;stroke-linecap:square;stroke-linejoin:bevel;paint-order:stroke fill markers"
       d="m -82.550388,300.80948 c -4.492307,0.0313 -8.922623,2.27883 -11.517021,5.9614 -1.883093,2.60924 -2.865438,5.85792 -2.68986,9.07602 0.113321,4.94034 3.057472,9.6777 7.40238,12.01838 4.63206,2.60378 10.70266,2.33049 15.085113,-0.67275 4.078128,-2.71315 6.546347,-7.63967 6.291077,-12.52998 -0.08901,-3.82322 -1.844675,-7.54987 -4.678548,-10.10841 -2.652157,-2.45405 -6.28777,-3.79559 -9.893141,-3.74466 z"
       id="path3" /></g></svg>
