<?xml version="1.0" encoding="UTF-8" standalone="no"?>
<!-- Created with Inkscape (http://www.inkscape.org/) -->

<svg
   width="16.346903mm"
   height="14.52194mm"
   viewBox="0 0 16.3469 14.521941"
   version="1.1"
   id="svg1"
   xml:space="preserve"
   xmlns="http://www.w3.org/2000/svg"
   xmlns:svg="http://www.w3.org/2000/svg"><defs
     id="defs1" /><g
     id="g31"
     style="fill:#234577;fill-opacity:1;stroke-width:1.28565"
     transform="matrix(0.9107112,0,0,-0.66431137,-1411.8194,85.689444)"><path
       id="path30"
       style="fill:#234577;fill-opacity:1;stroke-width:1.34072;stroke-linecap:round;paint-order:markers stroke fill"
       d="m 1551.2738,128.98988 c -0.5723,-0.004 -1.0353,-0.63842 -1.0355,-1.42065 -2e-4,-0.78505 0.4655,-1.42157 1.0401,-1.42157 h 15.8698 c 0.5748,7e-5 1.0399,0.63657 1.0397,1.42157 -2e-4,0.78223 -0.4632,1.41723 -1.0355,1.42065 z m 0,-9.50897 c -0.5723,-0.004 -1.0353,-0.63841 -1.0355,-1.42061 -2e-4,-0.78507 0.4655,-1.4216 1.0401,-1.4216 h 15.8698 c 0.5748,7e-5 1.0399,0.63656 1.0397,1.4216 -2e-4,0.7822 -0.4632,1.4172 -1.0355,1.42061 z m 0,-9.50895 c -0.5723,-0.004 -1.0353,-0.6384 -1.0355,-1.42064 -2e-4,-0.78503 0.4655,-1.42158 1.0401,-1.42158 h 15.8698 c 0.5748,8e-5 1.0399,0.63659 1.0397,1.42158 -2e-4,0.78224 -0.4632,1.41721 -1.0355,1.42064 z" /></g></svg>
