<?xml version="1.0" encoding="UTF-8" standalone="no"?>
<!-- Created with Inkscape (http://www.inkscape.org/) -->

<svg
   width="13.329419mm"
   height="15.371389mm"
   viewBox="0 0 13.329417 15.37139"
   version="1.1"
   id="svg1"
   xml:space="preserve"
   xmlns="http://www.w3.org/2000/svg"
   xmlns:svg="http://www.w3.org/2000/svg"><defs
     id="defs1" /><style
     type="text/css"
     id="style1">.st0{fill-rule:evenodd;clip-rule:evenodd;}</style><style
     type="text/css"
     id="style1-2">.st0{fill-rule:evenodd;clip-rule:evenodd;}</style><g
     id="g126"
     transform="matrix(0.99725594,0,0,0.99725604,-307.43059,-189.02285)"
     style="fill:#12375b;fill-opacity:1;stroke:#000000;stroke-width:0.501376"><g
       id="g125"
       style="fill:#12375b;fill-opacity:1"><g
         id="g124"
         transform="translate(119.63433,40.5974)"
         style="fill:#12375b;fill-opacity:1"><path
           id="path123"
           style="color:#000000;fill:#12375b;fill-opacity:1;stroke:none;stroke-linecap:round;-inkscape-stroke:none;paint-order:stroke markers fill"
           d="m 199.95782,148.9459 c 1.06299,2.2e-4 2.05047,0.92928 2.05047,2.02352 v 12.29604 c 0,1.10937 -1.56516,1.38073 -2.36708,0.78713 l -4.31597,-3.75892 -4.31391,3.75685 c -0.80007,0.60084 -2.36914,0.30578 -2.36914,-0.78506 v -12.29604 c 0,-1.08918 0.98222,-2.02347 2.05046,-2.02352 3.44209,-1.6e-4 5.82309,-7.2e-4 9.26517,0 z m 0,0.50005 h -9.26517 c -0.76204,0 -1.54886,0.7567 -1.54886,1.52554 v 12.29397 c 0,0.61542 1.05229,0.76369 1.56648,0.38294 l 4.61393,-3.98848 4.61601,3.98848 c 0.51395,0.38045 1.56647,0.23295 1.56647,-0.38294 v -12.29397 c 0,-0.94745 -0.92609,-1.52554 -1.54886,-1.52554 z m -4.13098,2.06134 v 2.63913 h 2.63654 v 1.00424 h -2.63654 v 2.63809 h -1.0058 v -2.63809 h -2.63705 v -1.00424 h 2.63705 v -2.63913 z" /></g></g></g></svg>
