<?xml version="1.0" encoding="UTF-8" standalone="no"?>
<!-- Created with Inkscape (http://www.inkscape.org/) -->

<svg
   width="14.370012mm"
   height="14.370005mm"
   viewBox="0 0 14.37001 14.370005"
   version="1.1"
   id="svg1"
   xml:space="preserve"
   xmlns="http://www.w3.org/2000/svg"
   xmlns:svg="http://www.w3.org/2000/svg"><defs
     id="defs1" /><style
     type="text/css"
     id="style1">.st0{fill-rule:evenodd;clip-rule:evenodd;}</style><style
     type="text/css"
     id="style1-2">.st0{fill-rule:evenodd;clip-rule:evenodd;}</style><path
     id="circle22"
     style="color:#e0e4ed;fill:#12375b;fill-opacity:1;stroke-width:0.999999;stroke-linecap:round;-inkscape-stroke:none;paint-order:markers fill stroke"
     d="M 14.370021,7.1850189 C 14.370021,3.2227889 11.147211,8.9214263e-6 7.1850412,8.9214263e-6 3.2228112,8.9214263e-6 1.1753677e-6,3.2227889 1.1753677e-6,7.1850189 1.1753677e-6,11.147229 3.2228112,14.370009 7.1850412,14.370009 c 3.9621698,0 7.1849798,-3.22278 7.1849798,-7.1849901 z m -1.02433,0 c 0,3.4089101 -2.75177,6.1601501 -6.1606498,6.1601501 -3.40893,0 -6.16271,-2.75124 -6.16271,-6.1601501 0,-3.40894 2.75378,-6.16268 6.16271,-6.16268 3.4088798,0 6.1606498,2.75374 6.1606498,6.16268 z m -2.30074,-0.52994 H 7.7139212 v -3.32898 h -1.05505 v 3.32898 h -3.33048 v 1.05654 h 3.33048 v 3.3290301 h 1.05505 V 7.7116189 h 3.3310298 z" /></svg>
