<?xml version="1.0" encoding="UTF-8" standalone="no"?>
<!-- Created with Inkscape (http://www.inkscape.org/) -->

<svg
   width="13.798641mm"
   height="13.800191mm"
   viewBox="0 0 13.798639 13.800192"
   version="1.1"
   id="svg1"
   xml:space="preserve"
   xmlns="http://www.w3.org/2000/svg"
   xmlns:svg="http://www.w3.org/2000/svg"><defs
     id="defs1" /><style
     type="text/css"
     id="style1">.st0{fill-rule:evenodd;clip-rule:evenodd;}</style><style
     type="text/css"
     id="style1-2">.st0{fill-rule:evenodd;clip-rule:evenodd;}</style><path
     id="path180"
     style="color:#000000;fill:#12375b;stroke-width:0.5;stroke-linecap:round;stroke-dasharray:none;-inkscape-stroke:none;paint-order:stroke markers fill"
     d="M 6.900349,6.3998264e-6 C 3.092909,-3.6001736e-6 9.0224596e-6,3.0924064 -9.7754042e-7,6.8998364 -9.7754042e-7,10.707286 3.092909,13.800196 6.900349,13.800196 c 3.80744,0 6.89829,-3.09291 6.89829,-6.9003596 C 13.798629,3.0924064 10.707789,6.3998264e-6 6.900349,6.3998264e-6 Z m 0,0.5002200001736 c 3.53722,0 6.39755,2.8624 6.39755,6.39961 1e-5,3.5372196 -2.86033,6.3996096 -6.39755,6.3996096 -3.53722,0 -6.40012998,-2.86238 -6.40011998,-6.3996096 0,-3.53721 2.86289998,-6.39961 6.40011998,-6.39961 z m -0.50333,2.73782 v 3.16105 h -3.15846 v 1.00149 h 3.15846 v 3.1600096 h 1.00304 V 7.4005864 h 3.15898 v -1.00149 h -3.15898 v -3.16105 z" /></svg>
