<?xml version="1.0" encoding="UTF-8" standalone="no"?>
<!-- Created with Inkscape (http://www.inkscape.org/) -->

<svg
   width="60.515316"
   height="47.265041"
   viewBox="0 0 16.011341 12.505543"
   version="1.1"
   id="svg1"
   xml:space="preserve"
   xmlns="http://www.w3.org/2000/svg"
   xmlns:svg="http://www.w3.org/2000/svg"><defs
     id="defs1" /><g
     id="g19"
     transform="translate(-26.805837,-1.8182513)"
     style="fill:#000000"><path
       id="path19"
       style="color:#000000;fill:#000000;stroke-linecap:round;-inkscape-stroke:none;paint-order:markers fill stroke"
       d="m 30.667876,1.8183039 c -0.169167,0.00969 -0.278012,0.1030709 -0.384472,0.2439128 -0.106846,0.1413525 -0.197549,0.324706 -0.31471,0.4764567 l -0.0098,0.011886 -0.0098,0.00775 c -0.468934,0.3444034 -1.457862,1.460355 -1.812329,2.4825369 l -0.0098,0.025321 -0.0217,0.01757 c -0.395364,0.3275303 -0.928132,0.7453744 -1.181323,1.1740885 -0.09803,0.1659962 -0.143382,0.3321407 -0.10387,0.5270997 0.03951,0.1949591 0.167987,0.4233408 0.437699,0.6914306 2.33814,1.9838013 5.453532,4.2125809 7.888925,6.1815349 0.651036,0.526388 1.063205,0.653058 1.515669,0.658358 1.627945,0.01903 2.197732,-0.0053 3.82819,0.0057 0.433292,0.0029 0.955231,-0.137882 1.384412,-0.390674 0.429184,-0.252792 0.762638,-0.613966 0.851628,-1.048515 0.12498,-0.610305 0.100996,-0.916848 0.04496,-1.625224 -0.120587,-0.898057 -0.885887,-1.6838923 -1.789038,-1.7967899 h 0.0062 C 40.117085,9.3906607 39.53258,9.1294689 39.070464,8.7243424 38.608352,8.3192158 38.26723,7.7793004 37.849867,7.1482112 l -0.0021,-0.00413 -0.0021,-0.00362 c -0.213243,-0.401669 -0.369225,-0.8274 -0.52135,-1.2459203 l -0.0021,-0.00207 v -0.00207 C 36.301576,2.6355512 36.504487,3.1495825 36.316627,2.6657974 36.154552,2.437605 35.780774,2.421114 35.595741,2.6327245 l -0.0041,0.00362 -0.0036,0.00413 C 34.963578,3.2167428 34.053714,3.6583947 33.2641,3.5396459 32.475912,3.4211115 31.804958,2.744925 31.2327,2.1402481 31.2317,2.1391581 31.2296,2.1397875 31.2286,2.1386981 31.119688,2.0689179 31.05201,1.9811546 30.98827,1.9237239 30.91926,1.8615469 30.848656,1.816494 30.669943,1.8183039 Z m 0.150379,1.144633 0.06253,0.078031 c 0.376893,0.4700471 0.964873,1.1886007 1.779736,1.4009481 0.814865,0.2123473 1.855754,-0.077923 2.757455,-0.5555216 0.124383,-0.064495 0.307781,-0.072744 0.382405,0.1689819 9.3e-5,0.00107 4.27e-4,0.00203 5.17e-4,0.0031 0.109269,0.3888678 0.243257,0.7839708 0.337447,1.1833903 l 0.01602,0.058911 -0.04703,0.040824 c -0.34087,0.2858384 -0.775626,0.37301 -1.054715,0.6232178 -0.179742,0.2231203 -0.100133,0.6093345 0.181384,0.7012492 l 0.0021,0.00155 h 0.0021 c 0.14532,0.056935 0.278936,0.027319 0.431498,-0.040824 0.152564,-0.068145 0.313489,-0.1755177 0.486792,-0.2402954 0.0244,-0.00868 0.09188,-0.057583 0.1757,-0.083716 0.04191,-0.013067 0.110514,-0.022141 0.163814,0.021187 0.04704,0.038239 0.06029,0.092259 0.06511,0.1498616 0.151347,0.3741677 0.301947,0.7488487 0.472322,1.1100098 l 0.03669,0.080098 -0.07596,0.047026 c -0.30344,0.1834244 -0.641278,0.2726841 -0.847558,0.4898945 -0.183364,0.2360549 -0.03657,0.6317394 0.248046,0.6991821 0.183443,0.024052 0.35048,-0.035808 0.529167,-0.1250569 0.18071,-0.090258 0.369104,-0.207147 0.588078,-0.2594157 l 0.06253,-0.015503 0.03876,0.05271 c 0.526538,0.7136383 0.973026,1.1476499 1.800923,1.4448731 h 0.0036 l 0.0021,0.00207 c 0.538454,0.2269743 1.142778,0.2795553 1.730644,0.4511353 v 0.0021 h 0.0021 c 0.254382,0.08481 0.464762,0.258196 0.556555,0.488342 0.158674,0.397836 0.247398,0.73198 0.275952,1.025777 l -0.344682,0.0041 c -1.216229,0.01664 -2.879457,0.01808 -4.02146,0.01343 h -0.0062 -0.0057 c -0.282368,0.0088 -0.548777,-0.05135 -0.734323,-0.201021 h -0.0021 L 28.979607,5.3105972 c 0.393617,-0.9305678 1.048474,-1.7180506 1.838648,-2.3476603 z m -2.223637,2.8711426 0.07493,0.062528 c 2.629992,2.171224 5.191216,4.1950445 7.823811,6.3515505 0.33761,0.273745 0.757404,0.345561 1.133265,0.33383 1.228201,0.005 3.089129,0.0077 4.320666,-0.01344 -0.01962,0.08015 -0.04295,0.158749 -0.07441,0.234094 -0.216254,0.59348 -1.19445,0.628672 -1.768884,0.607715 -1.406173,0 -1.717867,0.01227 -3.211174,-0.0036 -0.464758,-0.0051 -0.728656,-0.104404 -1.074353,-0.379305 -2.810039,-2.233409 -7.877586,-6.1916037 -7.878589,-6.1923875 -0.01751,-0.01106 -0.03411,-0.025413 -0.04341,-0.041858 -0.01683,-0.029741 -0.0167,-0.057779 -0.0155,-0.080099 0.006,-0.1155406 0.138901,-0.3024879 0.214974,-0.3963582 0.134296,-0.1794302 0.308817,-0.3506022 0.498678,-0.4826579 z" /></g></svg>
