<?xml version="1.0" encoding="UTF-8" standalone="no"?>
<!-- Created with Inkscape (http://www.inkscape.org/) -->

<svg
   width="59.265629mm"
   height="59.265636mm"
   viewBox="0 0 59.265619 59.26564"
   version="1.1"
   id="svg1"
   xml:space="preserve"
   xmlns="http://www.w3.org/2000/svg"
   xmlns:svg="http://www.w3.org/2000/svg"><defs
     id="defs1" /><g
     id="g39"
     transform="translate(2.9098995,76.59636)"><path
       style="opacity:1;fill:#adff2e;fill-opacity:1;stroke:none;stroke-width:0.399;stroke-linecap:round;stroke-dasharray:none;stroke-opacity:1;paint-order:markers fill stroke"
       d="M -2.9098995,-17.330724 H 56.355734 V -76.596358 H -2.9098995 Z"
       id="path39" /><path
       id="path38"
       style="opacity:1;fill:#000000;fill-opacity:1;stroke:none;stroke-width:0.399;stroke-linecap:round;stroke-dasharray:none;stroke-opacity:1;paint-order:markers fill stroke"
       d="m 9.9780496,-57.505262 h -4.353739 v 21.280355 c 2.75127,-0.008 5.5024894,-0.01579 8.2537594,-0.02377 0.01577,-4.547374 0.03907,-8.653928 0.0553,-13.201193 0.03625,-0.827369 0.728243,-1.594411 1.749981,-1.603711 1.062397,-0.0097 1.784147,0.716726 1.795267,1.701677 0.0034,0.303893 -0.0017,0.624915 0.02818,0.923609 0.01314,0.3496 0.124695,0.254709 0.614433,0.274918 l 7.4967,-0.02222 c -0.07218,-0.957389 -0.02203,-1.925759 -0.136943,-2.877859 -0.03324,-1.783385 -1.364996,-4.153003 -3.231327,-5.773809 -1.535917,-1.3046 -3.57585,-2.00416 -4.555794,-2.2009 -1.079692,-0.09845 -1.949951,-0.30529 -3.256649,-0.06615 -1.818036,0.293664 -3.657905,0.988932 -4.4591644,1.589053 z m 24.3917884,-0.35186 c -0.11536,0.08219 -0.24404,0.130143 -0.33331,0.238747 l -4.71599,0.146243 0.015,9.143627 c -0.0263,0.269803 0.31757,0.12799 0.46871,0.164333 2.54907,0.0136 5.098,-0.006 7.64708,-0.01137 0.0404,-0.374126 0.0306,-0.635498 0.0473,-1.01231 0.0523,-1.180519 0.72015,-1.871616 1.86363,-1.863484 1.01924,0.007 1.70364,0.843119 1.70411,1.839447 0.008,4.475355 0.005,8.505482 0.0131,12.980836 l 8.25169,-0.01754 c 0,-4.567772 0,-9.135265 0,-13.703038 -0.0205,-1.684502 -0.89485,-3.743339 -1.96267,-5.270479 -1.38187,-1.759372 -3.05848,-3.278135 -5.95468,-3.80132 -0.91068,-0.103309 -1.85,-0.143037 -2.75538,-0.06666 -1.49046,0.142989 -2.9526,0.410541 -4.28863,1.232967 z m -8.5943,11.717058 -8.247562,0.02377 c 0.05572,0.7235 0.08361,1.267414 0.140322,2.544296 0.173335,4.424063 4.260205,8.214293 10.06498,8.144588 4.53244,0.0093 9.58983,-3.304561 9.74702,-8.056985 l -0.005,-2.480469 c 0.0541,-0.244438 -0.25206,-0.118256 -0.38292,-0.153479 -2.56126,-0.0207 -5.12483,-0.04124 -7.68481,0.01447 v 1.180302 c 0,1.002686 -1.15844,1.46803 -1.91668,1.474417 -0.70012,0.0059 -1.61272,-0.567642 -1.65519,-1.369016 -0.0325,-0.634792 -0.0341,-0.815292 -0.0599,-1.321895 z" /></g></svg>
