<?xml version="1.0" encoding="UTF-8" standalone="no"?>
<!-- Created with Inkscape (http://www.inkscape.org/) -->

<svg
   width="72.0177mm"
   height="72.017693mm"
   viewBox="0 0 72.017688 72.017696"
   version="1.1"
   id="svg1"
   xml:space="preserve"
   xmlns="http://www.w3.org/2000/svg"
   xmlns:svg="http://www.w3.org/2000/svg"><defs
     id="defs1" /><g
     id="g108"
     transform="matrix(0.23782689,0,0,0.2378269,-133.54584,36.750347)"
     style="stroke-width:4.20475"><path
       id="rect103"
       style="opacity:1;fill:#313640;fill-opacity:1;stroke-width:1.11425;stroke-linecap:round;paint-order:markers fill stroke"
       d="M 561.52545,-154.52565 H 864.34112 V 148.28998 H 561.52545 Z" /><path
       style="opacity:1;fill:#4ac2d1;fill-opacity:1;stroke:none;stroke-width:1.11425;stroke-linecap:round;stroke-dasharray:none;stroke-opacity:1;paint-order:markers fill stroke"
       d="m 660.92966,-101.46099 c -17.42988,8.034333 -34.96699,15.939019 -52.31617,24.084317 -12.66613,29.240991 -25.16396,58.556588 -37.53466,87.923832 -0.40437,1.063633 1.03523,-0.29138 1.19827,-0.489304 8.64888,-8.0667014 17.24858,-16.1993818 26.16594,-23.969149 1.1022,-0.983739 2.85038,-2.297822 4.192,-0.891937 4.21969,2.980698 8.00177,6.5930409 12.36565,9.3498167 2.04428,0.8095959 3.32428,-1.5396607 4.83714,-2.4482266 12.32204,-10.3328651 24.18498,-21.2105241 36.59341,-31.4370421 1.81073,-0.584505 3.13888,1.496877 4.47648,2.364597 11.33698,10.194168 22.17362,20.936402 33.51448,31.1248312 1.69413,0.6331558 3.2729,-0.3797988 4.22712,-1.7389131 11.28921,-11.6360681 21.96277,-23.8594371 33.3379,-35.4096021 1.21811,-1.729322 3.41677,-0.861949 4.68743,0.279005 1.80949,1.021014 3.67184,3.490288 5.9694,2.492796 8.46839,-6.943635 15.90254,-15.067285 24.2683,-22.13198 0.94673,-0.976614 2.66477,-1.53039 3.58891,-0.190688 19.86314,21.163402 39.06107,42.943803 58.82434,64.1976314 1.9145,1.9964903 4.52683,-0.122383 6.38151,-1.10329128 2.096,-0.99993184 4.13292,-3.10905782 6.60889,-2.70526132 2.27746,1.58919856 3.81328,4.0982291 5.74662,6.0888614 2.01348,2.2649312 4.1194,4.9651655 6.1772,6.8917418 -12.14628,-29.497556 -24.71269,-58.821261 -37.07577,-88.228721 -34.74813,-15.95896 -69.49622,-31.918014 -104.24427,-47.877184 -17.33005,7.94129 -34.66007,15.88258 -51.99012,23.82387 z"
       id="path103" /><path
       id="path104"
       style="opacity:1;fill:#ffffff;fill-opacity:1;stroke:none;stroke-width:4.21134;stroke-linecap:round;stroke-dasharray:none;stroke-opacity:1;paint-order:markers fill stroke"
       d="m 2905.7344,-239.26172 c -11.0634,4.40667 -18.6772,14.63951 -27.7246,22.08398 -23.2937,21.17697 -45.0999,44.09629 -69.6602,63.82032 -6.5696,6.17861 -14.3205,-1.26974 -19.8886,-4.97071 -5.547,-3.83345 -14.1138,-12.10215 -20.4903,-4.97461 -33.8332,33.31494 -65.1833,69.065698 -97.748,103.611333 -12.4252,12.538337 -23.3149,26.929473 -37.3399,37.701172 -9.2102,3.121997 -15.0366,-7.169188 -21.4375,-11.808594 -39.9269,-36.699143 -78.5038,-74.896181 -119.2988,-110.632811 -3.7751,-4.1479 -10.3005,-5.7836 -14.4492,-1.11524 -40.4539,33.05447 -79.1548,68.210921 -118.8301,102.195317 -10.0006,7.627632 -18.2415,18.264688 -30,23.226563 -7.3895,0.962669 -12.2705,-6.941875 -18.1543,-10.144532 -12.5704,-9.028131 -23.9031,-20.102001 -37.2637,-27.845703 -9.6014,1.049079 -15.8975,10.225236 -23.1464,15.75 -30.6292,28.058282 -61.6606,55.739089 -91.4571,84.66797 -7.8916,7.993972 4.3139,22.156815 13.7032,16.212891 33.4398,-25.948924 65.3004,-54.0452873 98.6953,-80.062501 7.6895,-2.991697 17.6674,4.675174 17.707,12.6914061 -4.9019,15.1370549 -14.4588,28.4980349 -18.6836,43.8183599 -1.0169,9.74774 12.6346,15.748623 19,8.119141 60.6311,-47.188703 120.1908,-95.819645 181.0274,-142.697268 5.706,-2.575274 11.5214,-0.272413 15.1523,4.451172 24.2473,24.667656 48.7505,49.163472 71.6992,75.052736 5.8986,6.216803 -1.5472,14.5334925 -3.4844,20.87890613 C 2531.2624,51.744577 2507.4739,102.13624 2486.002,153.50586 c 0.01,8.80825 11.2519,14.55341 18.0957,8.89844 35.7165,-36.49883 70.1654,-74.263238 105.3144,-111.324221 50.9482,-54.0412062 101.4349,-108.540916 153.0586,-161.931639 10.8715,-3.88848 17.3104,7.95381 25.6094,12.374996 7.2992,3.358857 13.1748,-5.080246 18.6113,-8.656246 30.5939,-25.93312 59.1037,-54.33406 90.5215,-79.26954 6.6387,-2.98335 14.677,3.21847 15.0645,10.25782 41.9236,130.459096 82.2726,261.460054 124.1308,391.91406 3.6423,6.18876 11.9445,7.24608 17.2129,2.49414 3.9757,-4.75134 3.3751,-12.19791 5.5,-17.95312 9.1993,-38.67559 16.0873,-77.98325 26.334,-116.353518 13.8755,-11.224938 30.0446,-19.377858 44.8164,-29.398438 13.4914,-8.099411 26.369,-17.577423 40.7129,-24.060547 10.5608,3.123677 18.7647,11.571222 28.002,17.322266 7.8415,4.489486 15.9024,14.978453 25.9316,10.523438 5.7443,-3.275137 8.3717,-12.595949 2.3242,-17.021485 -13.6883,-16.477823 -26.9064,-33.5797022 -42.3144,-48.4667973 -8.5322,-3.8105867 -16.6195,4.5674633 -23.9473,7.81250006 -7.376,3.31746664 -15.3389,11.31730124 -23.9238,7.86523444 -32.5949,-33.4800162 -63.3746,-68.7455922 -95.0684,-103.0976572 -43.4771,-47.324296 -85.9769,-95.576376 -130.5019,-141.919926 -1.5523,-1.61707 -3.3332,-3.1513 -5.752,-2.77734 z m -140.5898,581.76563 c -0.175,0.004 -0.3523,0.012 -0.5332,0.0254 -9.5346,0.42683 -10.3467,16.31135 -0.5703,17.125 11.2266,1.04451 12.1266,-17.39079 1.1035,-17.15039 z m -385.5782,0.0137 c -0.3547,0.004 -0.7082,0.0213 -1.0547,0.0508 -9.1329,0.6018 -9.8986,15.50189 -0.7636,16.78516 7.8751,2.10287 13.1834,-7.9348 8.1699,-13.85352 -1.2848,-2.33798 -3.8686,-3.00926 -6.3516,-2.98242 z"
       transform="scale(0.26458333)" /><path
       id="path106"
       style="opacity:1;fill:#4ac2d1;fill-opacity:1;stroke:none;stroke-width:4.21134;stroke-linecap:round;stroke-dasharray:none;stroke-opacity:1;paint-order:markers fill stroke"
       d="m 2647.9004,307.19532 c -0.216,0.005 -0.4346,0.0253 -0.6562,0.0605 -4.121,0.0659 -1.8025,5.81018 -2.4805,8.28321 -0.1925,25.86953 0.091,51.7399 0.1719,77.60937 3.7389,-0.505 9.4542,0.97894 12.0195,-0.70703 0.3118,-19.14981 -0.1896,-38.57959 0.8281,-57.56055 10.8611,10.43793 19.7517,22.87571 29.6895,34.22071 7.1633,8.39489 14.28,16.98479 21.5098,25.23828 2.4217,1.37647 6.9189,0.58374 5.8769,-3.11133 0.6752,-27.39959 0.042,-54.8152 0.074,-82.2207 -3.7419,0.50498 -9.448,-0.97884 -12.0234,0.70703 -0.2356,19.04249 -0.4608,38.09334 -0.7031,57.13086 -16.8749,-19.2239 -33.308,-38.85688 -50.3711,-57.90235 -1.0611,-1.10501 -2.4236,-1.78446 -3.9356,-1.74804 z m 286.084,0.0156 c -0.2115,-0.0314 -0.4413,-0.0329 -0.6914,0.002 -5.4077,1.18757 -5.6115,8.43982 -8.2539,12.38672 -10.5963,23.23686 -21.4047,46.39829 -31.6758,69.76563 -1.4744,2.7037 0.9725,4.87254 3.6953,4.11133 3.8234,-0.3261 9.2405,1.7814 9.9805,-3.54492 2.1604,-4.66902 4.3548,-9.33131 6.2148,-14.12891 13.0731,0.12613 26.1462,0.24857 39.2188,0.37695 3.0431,5.24595 4.6518,11.45888 7.9863,16.41602 3.8705,0.81135 8.3558,1.39626 12.1543,0.29101 1.6818,-4.28205 -2.8071,-8.43066 -3.832,-12.46093 -10.6173,-23.37652 -21.0004,-46.8754 -31.9688,-70.08399 -0.7437,-1.21181 -1.3478,-2.91136 -2.8281,-3.13086 z m -97.2851,1.39453 c -7.1554,0.31398 -14.6629,-0.34779 -21.6153,1.00586 -1.324,25.91938 -0.9073,51.93958 -0.4453,77.89063 -0.2422,2.67085 -0.019,6.69642 3.7832,5.95117 2.8342,-0.566 8.0654,1.57769 9.4277,-1.89648 0.9774,-10.62104 0.4172,-21.31825 0.5782,-31.96875 11.1949,-0.1273 22.3891,-0.25497 33.584,-0.38086 0.098,-3.87502 0.7681,-7.8759 -0.379,-11.66211 -11.0685,-0.002 -22.142,0.005 -33.2089,-0.002 v -26.87304 c 13.1048,-0.36063 26.3804,0.78747 39.3828,-0.79102 1.2971,-3.10233 1.3591,-7.35797 -0.02,-10.43164 -10.2807,-1.17388 -20.7445,-0.7103 -31.0859,-0.8418 z m -294.7129,0.0273 c -1.3282,-0.009 -2.7235,0.18396 -3.8555,0.0371 -2.3918,0.0402 -6.541,-0.17908 -5.6055,3.55859 -0.4304,18.31156 -0.8526,36.69804 0.3047,54.98438 1.6725,10.3606 8.1342,19.78136 17.7344,24.31445 3.5478,1.8331 7.4664,2.7304 11.3633,3.32226 13.2673,1.23573 27.2354,-5.27434 33.2031,-17.49023 2.2597,-3.63173 3.9284,-7.41782 3.1309,-11.78711 v -56.56445 c -3.9226,0.44221 -8.9088,-1.4954 -12.3204,0.7539 -1.7846,19.53603 0.063,39.29728 -1.8086,58.8125 -2.6339,8.67983 -11.7133,14.18204 -20.6425,12.83203 -9.8605,-0.23959 -17.5564,-9.79761 -16.8946,-19.41796 -0.9232,-17.36142 0.576,-34.91802 -1.1601,-52.17579 -0.8598,-0.95762 -2.1211,-1.17027 -3.4492,-1.17968 z m -220.959,0.0762 c -3.1473,0.0534 -5.6269,0.77025 -4.211,5.25 0.029,26.24582 -0.5725,52.56762 0.064,78.76758 3.7961,1.13066 8.5713,1.31976 12.2305,-0.17578 1.2042,-26.84728 0.9683,-53.78202 0.4472,-80.6543 0.8147,-3.86289 -2.6992,-2.98503 -5.2793,-3.13477 v 0 c -1.0777,-0.0148 -2.2009,-0.0705 -3.25,-0.0527 z m 108.9472,0.29883 c -0.061,13.78755 -0.1223,27.57568 -0.1836,41.36328 0.1258,14.14273 -0.4361,28.46362 0.3301,42.5039 3.7678,1.2322 7.9601,0.0916 11.8692,0.27344 0.1292,-10.7378 0.2505,-21.47892 0.3828,-32.21484 5.9435,0.13255 11.8871,0.26172 17.8301,0.39648 5.5991,10.45924 10.3034,21.60431 16.6269,31.5625 4.1986,0.7951 9.0503,0.86723 13.1231,-0.35937 0.9768,-4.26345 -3.123,-8.19861 -4.5664,-12.02149 -3.6252,-7.08883 -7.8829,-13.9221 -11.1172,-21.17382 12.2538,-4.99504 20.4369,-19.22889 16.1445,-32.21876 -2.5885,-8.62306 -10.0966,-15.99136 -18.7246,-18.11132 z m 579.1211,0 c -0.061,13.78765 -0.1224,27.57563 -0.1836,41.36328 0.1257,14.14283 -0.438,28.46352 0.3282,42.5039 3.7678,1.2322 7.9621,0.0916 11.8711,0.27344 0.1292,-10.73785 0.2506,-21.47887 0.3828,-32.21484 5.9767,0.13255 11.9536,0.26172 17.9297,0.39648 5.5345,10.44557 10.1248,21.57869 16.4492,31.50391 4.1806,0.96405 9.0965,0.8683 13.1933,-0.29492 0.9869,-4.47673 -3.3901,-8.52281 -4.8886,-12.53321 -3.5932,-6.88672 -7.6786,-13.5997 -10.7891,-20.69336 10.7336,-4.57599 18.9558,-16.23299 16.9863,-28.11328 -1.4138,-10.24102 -9.1499,-19.10327 -18.8574,-22.1914 z m -566.748,11.52539 c 4.1837,0.0875 8.367,0.17425 12.5508,0.26172 6.6571,0.37822 14.84,-0.96825 19.3086,5.29101 7.0804,6.4117 2.8253,19.35623 -5.6817,22.16602 -5.729,2.23415 -12.4795,1.06338 -18.6328,1.4082 -2.0764,-0.53398 -5.7088,0.76997 -7.1719,-0.84961 -0.627,-9.40903 -0.285,-18.85546 -0.373,-28.27734 z m 579.1191,0 c 4.1837,0.0856 8.3671,0.17218 12.5508,0.25781 6.4717,0.39516 14.3978,-0.97185 18.8672,4.95117 4.4142,4.07768 5.8151,10.93853 2.1016,15.97266 -2.9477,5.60848 -9.3642,8.31276 -15.461,7.83594 -5.8215,-0.0709 -12.0211,0.63662 -17.6367,-0.47852 -0.722,-9.48792 -0.311,-19.03145 -0.4219,-28.53906 z m -88.5117,11.83203 c 4.6643,10.07111 9.3347,20.22444 13.5625,30.4375 -2.7555,1.83243 -7.1217,0.50206 -10.373,0.99805 -5.4264,-0.33702 -11.2847,0.73108 -16.4707,-0.81641 3.5411,-10.42896 8.8798,-20.47475 13.2812,-30.61914 z"
       transform="scale(0.26458333)" /><path
       id="path107"
       style="opacity:1;fill:#ffffff;fill-opacity:1;stroke:none;stroke-width:4.21134;stroke-linecap:round;stroke-dasharray:none;stroke-opacity:1;paint-order:markers fill stroke"
       d="m 2602.6407,419.81251 c -2.2323,1.4569 -2.5803,4.5782 -3.9786,6.73437 -3.3,7.35732 -6.9768,14.57541 -10.039,22.01953 -0.4782,1.60015 2.0665,0.80543 2.8906,0.94922 1.4561,0.11668 2.7707,-0.44777 3.1133,-2.01172 0.6843,-1.88801 1.5132,-3.4991 3.8379,-2.77539 3.4051,0.21678 7.0305,-0.68899 10.3066,0.39258 1.6317,1.24668 1.2597,4.97934 4.0899,4.40234 0.9534,-0.19566 2.8089,0.40042 3.3066,-0.59961 -1.9026,-5.51774 -4.8571,-10.68004 -7.1035,-16.08789 -2.0587,-4.30303 -3.8092,-8.87085 -6.1485,-12.98047 -0.084,-0.0431 -0.1821,-0.0561 -0.2753,-0.043 z m 132.4882,0.0137 c -2.1459,1.45278 -2.5006,4.54327 -3.8418,6.65625 -2.2318,4.30229 -3.7375,9.07777 -6.4336,13.08593 -1.6645,-1.51096 -2.1614,-4.08121 -3.3593,-5.99218 -2.32,-4.46031 -3.9209,-9.36064 -6.6914,-13.55078 -1.5371,-0.40143 -2.0685,2.07024 -2.0196,3.24023 -1.3634,7.44483 -2.6567,14.91876 -3.9785,22.37109 -0.066,1.87107 -1.2797,4.95461 1.7852,3.84571 2.7071,0.67829 3.2344,-1.17734 3.332,-3.46875 0.8041,-3.82492 0.8803,-7.88967 1.9141,-11.60547 2.2829,0.8863 2.2244,4.03379 3.498,5.8457 1.7304,3.18983 2.6252,6.92013 4.8047,9.81641 2.0942,0.85697 2.4713,-2.36444 3.2168,-3.62696 1.772,-4.04032 3.5509,-8.1883 5.4356,-12.11718 1.3924,0.83292 1.2261,3.16407 1.6875,4.60742 0.7414,3.34385 0.4636,7.02697 1.8046,10.17969 1.357,0.7789 3.3131,0.45778 4.7364,0.0664 0.2869,-2.49706 -0.8745,-5.09236 -1.0664,-7.62109 -1.3473,-6.95558 -2.0284,-14.08683 -3.9102,-20.91406 -0.1724,-0.35043 -0.444,-0.87106 -0.9141,-0.81836 z m -100.2265,0.0215 c -0.045,-0.002 -0.092,3.6e-4 -0.1367,0.004 -1.4588,0.68848 -0.7336,3.02098 -1.0372,4.32617 -0.1211,8.3944 0.049,16.79077 0.07,25.18555 1.8183,0.063 3.7007,0.37199 5.4746,-0.18946 0.1797,-5.70098 -0.3895,-11.50158 0.3847,-17.14453 1.6537,0.17333 2.4555,2.44948 3.7305,3.39063 4.5252,4.82012 8.8598,9.8608 13.3906,14.64844 1.1695,0.63226 2.2647,-0.48736 1.8086,-1.70704 0.075,-9.05069 0.3957,-18.13724 -0.1347,-27.16992 -0.6514,-1.49368 -3.0863,-1.03488 -4.3008,-0.57226 -0.8141,3.62913 -0.1546,7.52707 -0.3946,11.25195 -0.2681,1.93192 0.4104,4.25864 -0.5234,5.98828 -2.6383,-1.484 -4.4469,-4.31921 -6.6953,-6.36914 -3.869,-3.82126 -7.2949,-8.19547 -11.5039,-11.61914 -0.043,-0.0143 -0.087,-0.0211 -0.1328,-0.0234 z m 38.5254,0.002 c -4.9153,0.0841 -9.8374,4.65699 -8.4532,9.78907 1.15,5.35889 7.0366,6.74501 11.0723,9.26562 2.5438,1.26664 2.6863,5.37609 -0.1797,6.33789 -3.1464,1.59081 -5.8198,-1.95311 -8.8496,-1.91211 -1.9254,0.73141 -2.7329,3.88503 -0.4043,4.75391 3.3858,2.31806 7.9924,2.69032 11.8477,1.53125 4.7315,-1.58286 7.3997,-7.80887 4.3066,-12.02734 -2.7577,-4.21516 -8.4518,-4.53288 -11.8008,-7.96094 -2.0265,-2.65134 1.5598,-6.18578 4.3692,-4.91602 2.0608,0.4349 4.7614,2.96152 6.6093,0.88282 1.2808,-1.11476 1.0079,-3.03455 -0.5527,-3.72071 -2.2251,-1.36323 -4.8876,-2.03135 -7.4883,-2.01758 -0.1583,-0.007 -0.318,-0.009 -0.4765,-0.006 z m 304.2363,0.002 c -2.3556,1.12269 -2.2469,4.23606 -3.6641,6.16015 -2.3122,4.47087 -3.9568,9.38217 -6.8886,13.48243 -1.0165,0.3221 -0.8509,-1.85818 -1.4727,-2.25586 -2.8551,-5.60617 -4.9944,-11.61398 -8.3047,-16.96485 -1.2166,-1.29351 -1.7385,1.039 -1.8984,1.92188 -1.8353,8.50449 -2.9252,17.18181 -4.6699,25.6914 -0.793,2.5253 2.1465,1.49343 3.6855,1.58399 2.2894,-0.0426 1.5949,-3.12544 2.0469,-4.61914 0.7353,-3.20172 0.6889,-6.60705 1.8633,-9.6875 1.1586,-2.34309 1.7399,2.72775 2.6562,3.54883 1.8912,3.74661 3.1621,7.89149 5.543,11.3457 1.7852,0.85208 2.189,-2.11127 2.9121,-3.08789 1.9849,-3.94812 3.3741,-8.23861 5.6484,-12.01172 1.3317,-1.07862 1.3345,1.77451 1.4532,2.42187 0.8436,3.80577 0.749,7.87542 2.0097,11.54883 1.2927,0.8991 3.3137,0.62891 4.7539,0.32422 -0.2941,-6.76623 -2.1785,-13.40937 -3.0644,-20.13086 -0.9013,-2.90012 -0.7065,-6.09722 -1.9414,-8.87109 -0.1521,-0.21351 -0.3832,-0.43477 -0.668,-0.40039 z m -163.1914,0.0117 c -4.1163,0.0215 -9.1564,2.69043 -8.8652,7.39648 -0.4339,3.01574 0.8377,5.97976 3.4179,7.64063 2.9516,2.25449 7.579,2.64911 9.3477,6.2207 1.106,3.209 -3.1154,5.56316 -5.7422,4.0293 -1.7575,-0.45772 -3.5422,-2.13407 -5.1328,-2.04688 -1.5391,0.99206 -2.9438,3.46953 -0.9063,4.7461 3.5585,2.37538 8.4306,3.11401 12.4629,1.6621 1.9301,-0.88408 3.9161,-2.21714 4.6914,-4.21289 1.1491,-1.10656 0.3841,-3.2373 0.5684,-4.70703 -0.1933,-4.5445 -5.1822,-6.48667 -8.6621,-8.22461 -1.9708,-0.89683 -4.3541,-2.2862 -4.9004,-4.51367 0.3094,-2.9286 4.0294,-4.36219 6.3887,-2.66211 1.6358,1.04463 4.4543,2.27351 5.6132,-0.0977 0.9712,-1.07105 0.7361,-2.51274 -0.6171,-3.10547 -2.2619,-1.42148 -5,-2.14009 -7.6641,-2.125 z m 188.5703,0.0273 c -0.2495,3e-5 -0.4993,0.006 -0.75,0.0195 -8.3582,-0.0437 -15.5754,8.0221 -14.5254,16.34375 -0.055,8.40773 8.5475,15.12597 16.6875,13.88086 7.8018,-0.51129 14.0466,-8.03698 13.4942,-15.77148 -0.1107,-7.83841 -7.171,-14.47372 -14.9063,-14.47266 z m -462.3652,0.004 c -1.6386,0.77453 -0.63,3.28121 -0.9922,4.70703 -0.1073,8.25366 0.039,16.50795 0.068,24.76172 1.8183,0.063 3.7007,0.37199 5.4746,-0.18946 0.1758,-5.5782 -0.3601,-11.24415 0.2989,-16.77343 1.3585,-0.75086 1.9806,1.60652 2.9297,2.17578 4.8704,4.98019 9.1575,10.54051 14.2304,15.30664 1.829,1.36283 1.8409,-1.03872 1.6328,-2.46289 v -26.78321 c -1.3876,-0.33603 -4.0076,-1.08403 -4.7343,0.61719 -0.6665,5.31256 0.4004,10.81228 -0.6758,16.05274 -1.0376,0.76559 -1.9774,-1.39681 -2.7324,-1.83985 -4.9388,-5.1047 -9.6177,-10.50284 -14.7969,-15.35156 -0.2107,-0.12734 -0.4506,-0.24159 -0.7031,-0.2207 z m 339.3965,0.0117 c -2.1018,0.89145 -1.0465,3.8295 -1.379,5.58398 -0.024,7.95761 0.077,15.91536 0.1153,23.87305 1.8183,0.063 3.7007,0.37199 5.4746,-0.18946 0.1583,-5.8185 -0.3494,-11.73268 0.3691,-17.49609 1.5095,0.37857 2.1586,2.41543 3.4102,3.30664 4.7271,4.83822 8.8931,10.23834 13.8301,14.85352 0.9758,1.07816 2.1033,-0.15847 1.6992,-1.30274 0.092,-9.09382 0.386,-18.22109 -0.1113,-27.29883 -0.6686,-1.62377 -3.444,-1.01467 -4.6504,-0.45117 -0.6179,5.52454 0.071,11.18386 -0.7852,16.6582 -1.2336,-0.1652 -2.1921,-1.84849 -3.2109,-2.62304 -4.8401,-4.87958 -9.4518,-10.04701 -14.336,-14.84375 -0.1335,-0.0588 -0.2799,-0.0908 -0.4257,-0.0703 z m -392.125,0.0176 c -0.2802,-0.006 -0.5598,-0.004 -0.8399,0.004 -6.8983,0.30408 -12.9328,5.84531 -14.0391,12.63867 -1.9194,8.96437 6.2788,18.47926 15.4883,17.62696 7.6809,0.1635 14.6688,-6.69321 14.5879,-14.38868 0.5903,-8.0439 -6.1619,-15.86739 -14.3574,-15.84375 -0.2796,-0.0177 -0.5602,-0.0315 -0.8398,-0.0371 z m -164.6602,0.0234 c -0.051,-0.003 -0.1004,-10e-4 -0.1484,0.002 -1.8246,1.19052 -1.479,4.03676 -2.0606,5.9375 -0.4516,3.51647 -1.3794,6.92916 -1.7715,10.43555 -1.0291,4.1433 -1.3116,8.53523 -2.3554,12.62695 1.4285,0.84294 3.5735,0.76462 5.123,0.30079 1.0779,-3.95098 1.0365,-8.19197 2.1543,-12.15625 0.1033,-0.79462 -0.093,-2.68131 0.9727,-2.7793 3.0459,4.97805 4.5656,10.83946 7.7539,15.72461 1.8912,0.96482 2.3085,-2.02103 2.9882,-3.14844 2.0588,-4.22654 3.5175,-8.86982 6.0957,-12.77539 0.9783,1.27443 0.7028,3.43119 1.1778,4.99219 0.5958,3.38643 1.1525,6.87827 1.7168,10.21875 1.5622,0.31162 3.5449,0.46227 5.0019,-0.22852 -0.1882,-3.91208 -1.4234,-7.75145 -1.7988,-11.67187 -1.4297,-5.51397 -1.5432,-11.34837 -3.2324,-16.77735 -0.8541,-1.55217 -2.7085,0.1347 -2.7051,1.39453 -2.7365,5.6691 -5.0133,11.62597 -8.252,17.01954 -1.3034,0.59555 -1.71,-1.93227 -2.3183,-2.67383 -2.6578,-5.41113 -4.8096,-11.12998 -7.9297,-16.28125 -0.1063,-0.10908 -0.2604,-0.15146 -0.4121,-0.16016 z m 537.5391,0.006 c -1.7736,0.79133 -1.9556,3.32568 -2.9688,4.82422 -3.5991,8.02173 -7.4409,15.95892 -11.0176,23.97461 -0.061,1.29787 2.099,0.56207 2.8438,0.77734 1.381,0.105 2.9145,-0.0882 3.207,-1.75195 0.5059,-1.35923 0.98,-3.31534 2.9024,-3.08399 3.7796,-0.13694 7.5657,0.0539 11.3457,0.0762 1.1386,1.7962 1.7127,5.38921 4.6289,4.71679 0.9383,-0.10061 3.3961,0.32637 2.5859,-1.41601 -3.9483,-8.84654 -7.9938,-17.69332 -12.1113,-26.47656 -0.3812,-0.51674 -0.6343,-1.59709 -1.416,-1.64063 z m -418.6387,0.0195 c -0.066,-0.008 -0.1333,-0.008 -0.1992,0.002 -2.168,1.09852 -1.3843,4.27456 -2.0801,6.23047 -1.2141,7.54239 -2.8539,15.03126 -3.836,22.60157 0.3794,1.24495 2.4794,0.53422 3.4649,0.70117 0.9865,0.0489 2.0263,-0.30134 1.7637,-1.5625 1.0126,-4.44143 0.7548,-9.28677 2.6074,-13.47266 1.1198,0.5386 1.3281,2.47994 2.043,3.48828 2.0347,3.97418 3.3764,8.38344 5.8769,12.07618 1.8363,0.89828 2.3172,-2.18221 3.0352,-3.23047 1.6624,-3.71993 3.3133,-7.51137 5.0195,-11.16993 0.3653,-0.57802 1.7091,-2.1241 1.6562,-0.38867 0.6986,4.70946 1.4215,9.41701 2.1993,14.11524 1.6065,-0.21067 3.9507,0.84339 5.2246,-0.42969 -1.1197,-6.85657 -2.5034,-13.73047 -3.6289,-20.60547 -0.2575,-2.44394 -1.0158,-4.8253 -1.3223,-7.25195 -0.306,-1.26317 -2.0578,-1.50844 -2.3437,-0.0527 -3.1329,5.8398 -5.4499,12.13675 -8.6622,17.91016 -1.3589,0.72566 -1.9105,-1.79348 -2.5195,-2.56641 -2.7949,-5.38875 -4.7493,-11.29503 -8.1055,-16.3457 -0.062,-0.0242 -0.1274,-0.0409 -0.1933,-0.0488 z m -65.9629,0.18945 c -0.8767,-0.007 -1.6842,0.22583 -2.1973,0.91797 -0.8301,6.68855 0.4659,13.57701 -0.8847,20.20899 -1.1487,2.93396 -4.5859,4.08806 -7.4961,3.32226 -3.3615,-0.5602 -4.6769,-4.43649 -4.2461,-7.45312 -0.043,-5.42262 -0.014,-10.84485 -0.021,-16.26758 -1.0516,-0.46908 -2.1838,-0.74618 -3.3418,-0.66992 -1.3148,-0.17527 -2.4876,0.68518 -2.2129,2.08789 -0.038,6.51004 -0.4131,13.0785 0.2949,19.55664 1.1513,4.22096 4.9378,7.58211 9.2403,8.22852 5.217,0.85078 10.9919,-1.77083 12.9785,-6.83008 1.4988,-5.07107 0.6853,-10.50467 1.0312,-15.72657 0.032,-2.20843 0.065,-4.41654 0.098,-6.625 -0.8737,-0.33657 -2.115,-0.74146 -3.2422,-0.75 z m 152.2676,0.0137 c -1.1417,0.0212 -1.7762,0.9935 -1.5528,2.20117 -0.4314,6.17388 0.2878,12.45743 -0.7871,18.5664 -1.4233,4.36355 -7.9851,5.40245 -10.5898,1.5586 -2.2798,-2.68581 -1.0292,-6.52023 -1.4317,-9.72266 -0.2284,-3.94307 0.4166,-8.03797 -0.4492,-11.89453 -1.4556,-1.1882 -3.7137,-0.62088 -5.2968,0.0352 0.2597,7.02535 -0.1281,14.10421 0.6542,21.09375 1.3369,4.54033 5.6751,8.24037 10.5313,8.18164 3.664,0.38526 7.2464,-1.11256 9.543,-3.98633 3.9733,-3.54734 2.7385,-9.34185 3.0293,-14.06055 -0.2241,-3.74295 0.4591,-7.68122 -0.4707,-11.31836 -0.6784,-0.64508 -1.7925,-0.58175 -2.6602,-0.60351 -0.1828,-0.0379 -0.3564,-0.0538 -0.5195,-0.0508 z m 234.0918,0.004 c -2.165,-0.0822 -1.7523,2.21433 -1.6856,3.99219 v 25.38086 c 5.4782,-0.0637 10.9573,-0.12652 16.4356,-0.18945 -0.1146,-1.27113 0.9908,-4.31258 -1.1602,-4.33985 -3.2613,-0.20816 -6.5368,-0.15488 -9.8008,-0.2539 -0.2239,-7.86357 0.2181,-15.78139 -0.5,-23.61133 -0.3532,-1.05543 -1.9757,-0.86972 -2.8203,-0.92969 -0.1681,-0.0275 -0.3244,-0.0433 -0.4687,-0.0488 z m 299.4531,0 c -0.7806,-1.4e-4 -1.5604,0.005 -2.3398,0.008 -2.4044,0.23046 -5.1185,-0.26887 -7.3536,0.65429 -0.8806,4.28454 -0.2642,8.80629 -0.4687,13.17774 0.1511,5.07575 -0.3117,10.25292 0.4082,15.26953 6.0279,0.32693 12.1016,0.0481 18.1465,0.0742 -0.1466,-1.23703 0.8501,-3.6138 -0.6406,-4.26563 -3.9258,-0.42936 -7.9802,0.19281 -11.8594,-0.45508 -0.7285,-1.99412 -0.421,-4.3844 -0.25,-6.48437 1.0555,-1.70318 3.6937,-0.67351 5.332,-0.98828 1.7009,-0.41891 4.8387,0.88548 5.5723,-0.69922 0.3323,-1.43941 0.5012,-4.31436 -1.7051,-3.76563 -3.0589,-0.10395 -6.1206,-0.20034 -9.1777,-0.30859 -0.03,-2.3137 -0.222,-4.64172 -0.098,-6.94922 4.2723,-0.22749 8.5508,-0.32036 12.8262,-0.47851 -0.1214,-1.39115 1.0229,-4.56657 -1.375,-4.53125 -2.3306,-0.21864 -4.6757,-0.25738 -7.0176,-0.25782 z m -312.5801,0.01 c -1.1138,0.0337 -2.1104,0.73282 -1.8613,2.01758 -0.1715,9.03308 -0.3004,18.14801 0.1543,27.13867 1.5888,0.31434 3.2303,0.0298 4.8359,0.0176 -0.077,-9.36252 0.4205,-18.75114 -0.092,-28.09766 -0.1631,-1.14206 -1.7362,-0.97728 -2.5547,-1.05078 v 0 c -0.1606,-0.0226 -0.3214,-0.0302 -0.4805,-0.0254 z m -126.8183,0.008 c -2.1392,0.017 -2.4462,1.90204 -2.0997,3.875 0.092,8.41466 -0.2185,16.90446 0.2852,25.27344 1.5887,0.31434 3.2303,0.0298 4.8359,0.0176 -0.082,-9.33268 0.4321,-18.69403 -0.1113,-28.00977 -0.1479,-1.11239 -1.6142,-1.13214 -2.457,-1.13476 -0.1592,-0.016 -0.3105,-0.0226 -0.4531,-0.0215 z m -39.4239,0.006 c -1.928,-0.002 -3.8657,0.0841 -5.7422,0.008 v 0 c -2.5539,0.21984 -5.3519,-0.29985 -7.7734,0.53711 -0.7025,1.11915 -0.5499,2.86726 -0.041,3.99414 2.1244,0.77923 4.6942,0.11747 6.6973,1.01953 0.7848,7.81446 -0.049,15.78514 0.6309,23.58399 1.4696,0.31539 2.9933,0.0297 4.4804,0.0176 0.064,-7.84401 0.1226,-15.69036 0.1895,-23.53321 2.2939,-1.24772 5.1442,-0.0563 7.4101,-1.11523 0.4838,-1.15277 0.7478,-3.02469 -0.1738,-3.99805 -1.8301,-0.42238 -3.7478,-0.51198 -5.6758,-0.51367 z m 215.8887,0.004 c -0.2174,-0.0143 -0.4552,0.0116 -0.7168,0.0859 -1.9875,-0.0506 -3.9768,-0.0416 -5.9648,-0.0312 -3.2597,0.0324 -6.5197,0.077 -9.7793,0.11524 0.024,9.58875 -0.3231,19.23275 0.035,28.78906 5.5384,0.72851 11.2391,0.0809 16.836,0.20899 1.9115,0.51911 1.1927,-2.13524 1.2324,-3.32618 -1.1645,-1.77631 -3.9301,-0.79139 -5.7246,-1.09765 -2.3779,-0.16719 -4.9912,0.33175 -7.2344,-0.48828 -0.4651,-2.11094 -0.7055,-4.59596 -0.027,-6.65235 3.2878,-1.32373 7.1172,-0.0863 10.5136,-0.91797 0.7795,-1.1832 0.2796,-2.80627 0.2735,-4.14062 -3.5512,-0.2375 -7.2827,0.23439 -10.7266,-0.64453 -0.5916,-1.95849 -0.6295,-4.31603 -0.1,-6.27735 2.483,-1.12245 5.495,-0.45916 8.1738,-0.68554 1.6498,-0.42205 4.9096,1.13072 4.8418,-1.41016 0.3479,-1.34918 -0.1107,-3.42748 -1.6328,-3.52734 z m -407.7441,0.0137 c -1.4165,0.21013 -3.7282,-0.378 -4.5196,0.76953 v 28.60938 c 5.322,-0.20896 10.8004,0.0917 16.0274,-0.42969 2.0726,-1.32312 4.3766,-2.24554 5.7734,-4.41602 5.8639,-6.20273 4.3549,-17.28696 -2.8301,-21.84961 -4.1817,-3.08664 -9.5528,-2.59653 -14.4511,-2.68359 z m 524.8906,0.006 c -1.3742,0.20379 -3.6304,-0.36704 -4.3828,0.76367 v 28.60938 c 5.3219,-0.20896 10.7984,0.0917 16.0254,-0.42969 2.5125,-1.39976 4.9215,-2.95152 6.5761,-5.38672 4.7213,-6.09649 3.448,-15.70195 -2.8242,-20.25 -4.2799,-3.70841 -10.126,-3.2421 -15.3945,-3.30664 z m 112.7461,0.0195 -0.877,0.006 c -1.4597,0.17138 -3.7401,-0.30345 -4.5293,0.99219 0.1,9.35325 -0.2333,18.78543 0.2754,28.08984 1.5921,0.19656 3.5787,0.48515 5.0313,-0.2207 0.6756,-3.51197 0.3248,-7.14978 0.5234,-10.70899 1.9186,-0.25014 4.5479,-0.62015 5.3594,1.70703 1.7974,2.94696 2.8289,6.46625 5.0293,9.11133 1.6457,0.39958 3.7003,0.62345 5.2637,0 0.2607,-2.17002 -1.9241,-3.77363 -2.543,-5.76367 -0.6509,-1.87269 -3.0503,-3.85007 -2.0703,-5.93359 2.2154,-1.12881 4.2617,-3.30167 4.9277,-5.75586 0.7907,-3.59581 -0.071,-7.79688 -3.4258,-9.80078 -3.7978,-2.53875 -8.6714,-1.34971 -12.9648,-1.72266 z m 2.709,4.89648 c 0.2781,-0.005 0.5571,-0.002 0.8359,0.006 2.5679,0.29687 6.2899,-0.40286 7.4102,2.69336 1.8053,2.62224 -1.2524,6.33581 -4.1856,5.94727 -2.0268,-0.0203 -4.2517,0.40001 -6.1914,-0.11719 -0.6398,-2.64591 -0.1971,-5.4558 -0.332,-8.16016 0.8007,-0.26794 1.6285,-0.35451 2.4629,-0.36914 z m -112.125,0.01 c 0.1904,0.002 0.3846,0.008 0.5781,0.0137 3.9201,-0.11871 8.2361,1.19369 10.0801,4.95313 3.2076,4.91854 0.6058,12.39192 -5.0098,14.12304 -2.4927,0.37887 -5.2796,1.09146 -7.7109,0.39649 -0.6498,-5.80422 -0.3182,-11.72525 -0.2246,-17.56836 -0.2172,-1.74964 0.9542,-1.93186 2.2871,-1.91797 z m -523.1094,0.0273 c 4.0496,0.0367 8.032,2.33904 9.4414,6.26172 2.4626,5.63493 -1.701,13.19057 -8.0859,13.26953 -1.6738,-0.0167 -3.9092,0.7573 -5.334,-0.30273 -0.6199,-5.87545 -0.3656,-11.85452 -0.1875,-17.75977 -0.1801,-1.96939 2.1863,-1.31842 3.3554,-1.44531 0.2699,-0.0179 0.5406,-0.0259 0.8106,-0.0234 z m 90.5898,0.11524 c 0.3419,-0.0111 0.691,0.007 1.0469,0.0547 5.2737,-0.0557 10.3266,4.86424 9.5762,10.2793 0.1341,3.80161 -2.8078,7.08721 -6.0625,8.625 -3.253,1.04991 -6.9516,0.77445 -9.6211,-1.52344 -4.4507,-3.14517 -4.9487,-10.44665 -1,-14.18164 1.621,-1.73817 3.6672,-3.17658 6.0605,-3.2539 z m 515.5684,0.0801 c 0.2718,-0.006 0.5421,-0.003 0.8125,0.008 7.2418,0.0868 12.0697,9.89403 7.2148,15.48633 -3.1986,4.42051 -10.3365,5.46484 -14.3281,1.55273 -4.5654,-3.88724 -4.207,-12.10764 0.9668,-15.3457 1.5227,-1.19075 3.4315,-1.66019 5.334,-1.70117 z m -141.5215,5.92968 c 0.9997,0.44384 0.545,2.08908 1.3692,2.84375 0.581,1.72483 2.2303,3.39951 2.0546,5.26172 -2.109,0.94562 -4.7993,0.66789 -7.0625,0.2793 -1.2763,-0.90902 0.4515,-2.7055 0.6973,-3.81055 1.0932,-1.38396 0.8933,-4.1486 2.9414,-4.57422 z m -259.0469,0.0449 0.078,0.01 c 2.1216,0.96891 2.0377,3.87961 3.2714,5.63672 0.4482,0.83863 1.544,2.55542 -0.1523,2.77539 -2.1664,0.22412 -4.8135,0.69645 -6.7461,-0.4375 -0.4624,-1.24033 1.2121,-2.32675 1.3496,-3.58008 0.8595,-1.32486 0.9191,-3.46818 2.1992,-4.4043 z m 229.1114,12.19532 c -2.4272,0.10104 -4.3063,3.18561 -2.6543,5.24609 0.7385,1.60473 2.6928,1.15261 3.9082,1.86133 1.057,2.67302 -2.7436,4.31417 -2.7305,6.79492 0.9312,1.4966 2.8008,-0.63161 3.4902,-1.40234 2.5117,-2.82233 3.1796,-7.29478 1.5313,-10.67578 -0.8088,-1.11213 -2.1551,-1.85838 -3.5449,-1.82422 z m -140.5489,0.0449 c -1.8895,0.0409 -3.3228,1.76586 -2.8984,3.68359 -0.2,2.21902 1.963,3.28121 3.873,3.0918 1.5469,0.76775 -0.059,2.8944 -0.6543,3.875 -0.4268,1.04024 -2.5482,1.90705 -1.9375,3.1582 1.5452,1.67962 3.3671,-0.97729 4.3301,-2.11132 2.181,-3.22547 3.1785,-8.72202 -0.498,-11.25782 -0.5576,-0.30472 -1.1977,-0.44863 -1.8321,-0.42383 -0.1296,-0.0127 -0.2568,-0.0183 -0.3828,-0.0156 z m -272.0078,0.11719 c -0.079,0.002 -0.1567,0.005 -0.2344,0.01 -2.4425,-0.17922 -4.5293,3.29979 -2.6484,5.17774 0.7001,1.86028 4.0105,0.49684 3.9258,2.75 0.1041,2.38481 -3.2052,3.61482 -2.8613,5.91992 1.3051,1.23416 3.0441,-0.89749 3.8847,-1.83789 2.1254,-2.95624 2.8349,-7.38462 1.0528,-10.65625 -0.687,-1.01519 -1.9411,-1.38933 -3.1192,-1.36328 z"
       transform="scale(0.26458333)" /></g></svg>
