<?xml version="1.0" encoding="UTF-8" standalone="no"?>
<!-- Created with Inkscape (http://www.inkscape.org/) -->

<svg
   width="104.4321mm"
   height="103.91317mm"
   viewBox="0 0 104.43208 103.91318"
   version="1.1"
   id="svg1"
   xml:space="preserve"
   xmlns="http://www.w3.org/2000/svg"
   xmlns:svg="http://www.w3.org/2000/svg"><defs
     id="defs1" /><g
     id="g101"
     transform="matrix(0.46329124,0,0,0.46329124,-171.88236,-104.45431)"
     style="stroke-width:2.15847"><g
       id="g61"
       transform="translate(52.384827,22.45064)"
       style="stroke-width:2.15847"><path
         id="path54"
         style="fill:#214478;fill-opacity:1;stroke-width:2.15847"
         d="m 497.71587,203.01345 c -1.03701,0.0112 -2.07733,0.057 -3.11867,0.13849 -6.14764,0.48088 -23.81096,4.62543 -24.32565,5.70766 -0.0681,0.14312 0.92642,0.77102 2.20969,1.39578 l 2.33319,1.13585 3.65817,-0.48369 c 2.01197,-0.2662 5.17229,-0.71632 7.02283,-0.99994 1.85053,-0.28361 4.27213,-0.46811 5.38158,-0.41031 l 2.01745,0.10542 -1.97921,0.66714 c -1.08843,0.3669 -3.13481,0.91322 -4.54752,1.2144 -2.45468,0.52328 -2.64415,0.52487 -4.27364,0.0388 -1.36267,-0.40659 -1.99751,-0.46907 -3.16053,-0.31316 -2.17784,0.29196 -3.08316,0.55937 -2.84376,0.84026 0.41428,0.48607 6.52638,3.22377 7.45071,3.33726 1.17032,0.1437 3.15627,-0.27166 10.67222,-2.23191 16.45943,-4.29279 24.86869,3.05531 34.10902,10.55651 6.60334,5.36052 13.29216,20.74802 12.39298,22.30397 -0.14046,0.24305 -22.15082,-22.85898 -26.83184,-27.03038 l 5.37844,9.95296 c 8.28501,10.51102 18.88868,19.97924 21.0599,23.3446 0.4032,0.62495 -0.22318,2.62021 -0.39387,2.7536 -1.03998,0.81252 -12.11698,-11.91015 -14.05675,-13.2749 l 2.12466,6.24396 c 6.96532,9.10296 8.33346,9.37334 10.24908,12.11336 1.01332,1.44942 -0.018,3.85177 -0.34704,4.10881 -0.24695,0.1929 -8.39509,-10.36776 -9.23865,-9.16322 -0.60506,0.43719 -0.38041,3.13941 -0.15968,4.86586 0.19135,0.95603 0.41479,1.83737 3.37757,5.61102 1.97554,2.51623 3.98089,4.82784 4.45606,5.13716 1.79736,1.17004 3.14899,0.11988 4.51342,-3.50521 3.61496,-9.6044 4.30356,-24.38586 0.87237,-33.95571 -1.17381,-3.27383 -3.08714,-7.06327 -5.03949,-9.98131 -8.52871,-12.74722 -23.4078,-20.39124 -38.963,-20.22305 z m -37.13882,9.70587 c -0.7227,0.12725 -5.89093,2.44717 -10.27792,4.61367 -2.3553,1.16315 -3.25334,1.74735 -3.4432,2.23965 -0.17032,0.44176 -0.14399,0.75854 0.0786,0.94103 0.48543,0.39809 2.84892,1.39165 3.50108,1.47175 0.63633,0.0781 3.94336,-1.06247 7.1701,-2.47324 4.25236,-1.85919 4.02931,-1.82157 5.85494,-0.99322 0.8761,0.39751 1.88783,0.76302 2.24844,0.81132 0.41686,0.0562 -0.19881,0.32971 -1.69137,0.75138 -4.09797,1.15773 -4.12263,1.16083 -5.9185,0.68109 -1.64461,-0.43932 -1.65563,-0.43815 -3.98064,0.48214 -1.28222,0.50754 -2.40967,1.02024 -2.50527,1.13947 -0.20828,0.25981 4.18653,2.54825 6.25698,3.2582 1.10596,0.37923 3.31601,-0.1239 7.4595,-1.69809 3.11066,-1.18181 8.37384,-3.76474 9.27075,-4.54959 0.56013,-0.49014 0.55759,-0.49566 -0.52813,-1.12552 -5.02245,-2.91365 -12.05135,-5.80427 -13.49531,-5.55004 z m -21.6302,11.52746 -0.94775,0.51314 c -1.36491,0.73984 -8.15616,5.54988 -10.16062,7.19646 -1.30041,1.06825 -1.72744,1.58769 -1.80144,2.19005 -0.10786,0.87844 0.0987,1.02748 2.2903,1.65571 0.72884,0.20892 2.92912,0.99356 4.88963,1.74357 1.9605,0.75002 3.77326,1.40285 4.02869,1.45055 0.98297,0.18351 2.60552,-0.56429 6.67091,-3.07371 2.31744,-1.43048 4.77074,-2.93969 5.45135,-3.35432 1.53863,-0.93737 2.22627,-1.72968 2.09755,-2.4169 -0.16593,-0.88588 -3.84803,-2.74864 -9.50382,-4.80746 z m 0.78858,5.4932 c 0.65108,-0.14265 1.22611,0.057 2.36627,0.45837 1.06175,0.37376 1.92137,0.75013 1.91047,0.83613 -0.0109,0.086 -1.07418,0.798 -2.36316,1.58233 -2.10864,1.28305 -2.47939,1.41662 -3.69538,1.33222 -0.74331,-0.0516 -1.7514,-0.25269 -2.24069,-0.447 -0.48929,-0.19423 -1.07482,-0.3136 -1.3007,-0.2651 -0.49513,0.10629 -0.46717,0.0849 2.49959,-1.9017 1.44533,-0.96781 2.17252,-1.4526 2.8236,-1.59525 z m -7.321,4.16099 c 0.0722,0.009 -0.11187,0.2264 -0.40876,0.48317 -0.2969,0.25677 -0.59907,0.45962 -0.67127,0.45062 -0.0722,-0.009 0.11186,-0.22639 0.40876,-0.48317 0.29689,-0.25677 0.59907,-0.45962 0.67127,-0.45062 z m -1.44229,0.88935 c 0.0722,0.009 -0.11134,0.22588 -0.40824,0.48266 -0.29689,0.25677 -0.59908,0.46013 -0.67128,0.45113 -0.0722,-0.009 0.11136,-0.2264 0.40825,-0.48317 0.2969,-0.25677 0.59907,-0.45962 0.67127,-0.45062 z m -12.05352,5.79029 c -0.37826,0.0279 -0.57978,0.19183 -0.96532,0.51832 -1.08482,0.91864 -5.77964,6.29298 -7.86515,9.00307 -2.14909,2.79276 -2.65181,3.78204 -2.24379,4.41781 0.24947,0.38873 0.66298,0.47411 2.6882,0.55501 1.3164,0.0526 4.05778,0.2204 6.09162,0.3731 2.97393,0.22333 3.85393,0.19936 4.49533,-0.1235 1.17811,-0.59302 11.57871,-10.29926 11.64891,-10.87117 0.0635,-0.51713 -6.63948,-2.54398 -11.82305,-3.57498 -1.09328,-0.21745 -1.6485,-0.32554 -2.02675,-0.29766 z m 1.94406,5.36195 c 0.63511,-0.11896 3.15548,0.47267 3.62821,0.85163 0.25442,0.20396 0.15835,0.42844 -0.45062,1.05161 -2.01582,2.06286 -3.40264,3.03945 -4.47053,3.14865 v 5.2e-4 c -0.59391,0.0607 -1.71399,0.0359 -2.48925,-0.0563 l -1.40974,-0.16692 0.55604,-0.66507 c 1.22689,-1.46641 4.1235,-4.06809 4.63589,-4.16409 z m -17.52348,15.88017 c -1.02311,0.3225 -2.89332,3.14289 -5.86217,8.84029 -2.63262,5.05214 -4.38078,9.07532 -4.22145,9.71465 0.412,1.65329 11.90037,-4.29795 13.22745,-5.45856 2.12772,-2.6956 6.79239,-9.67294 8.88855,-13.15579 -3.72274,-0.0578 -8.36136,-0.71249 -12.03238,0.0594 z m 5.69785,4.46898 c 0.36687,-0.009 0.62837,0.0208 0.69246,0.10283 0.24482,0.31336 -2.13043,3.76031 -3.12487,4.53461 -0.65501,0.51 -5.05758,2.01391 -5.02088,1.71514 0.0515,-0.4198 3.35892,-5.30184 3.79563,-5.60276 0.50829,-0.35025 2.55703,-0.72352 3.65766,-0.74982 z m 117.47551,3.33106 c -2.07927,3.22935 -4.91911,5.88829 -8.4093,8.05945 1.79178,3.70144 5.67143,7.763 8.46305,10.87066 0.51947,0.5547 1.15599,1.03438 1.41438,1.06608 1.26713,0.15558 3.84542,-3.12381 5.86218,-7.4569 l 1.22318,-2.62878 -1.29191,-2.34456 c -4.20366,-7.62694 -6.94968,-8.05036 -7.26158,-7.56595 z m -1.87585,4.9661 c 0.3394,-0.26503 5.00426,3.75843 4.87205,4.77542 -0.0315,0.24134 -0.39143,0.97555 -0.79995,1.63143 l -0.7431,1.19269 c -1.25584,-1.4734 -2.79598,-2.73651 -3.91501,-4.3248 -0.13742,-0.29853 0.36419,-3.10143 0.58601,-3.27474 z m -10.90063,8.48837 c -0.91702,-0.20656 -1.86748,0.66571 -3.838,2.85564 -0.8316,0.92419 -2.70685,2.83942 -4.16719,4.25608 -1.46033,1.41666 -2.66614,2.66714 -2.67994,2.77915 -0.032,0.26042 1.34835,1.75279 1.65623,1.79059 0.12784,0.0157 1.3517,-1.15352 2.71973,-2.59829 1.36803,-1.44478 2.54396,-2.61973 2.61276,-2.61173 0.0688,0.008 0.0595,0.0973 -0.0207,0.19741 -2.94328,3.67548 -4.32636,5.5895 -4.38526,6.06888 -0.0678,0.55255 1.8754,4.10177 4.63486,8.4646 1.45031,2.29304 2.04778,2.36978 4.36045,0.56069 2.44459,-1.91229 8.20672,-8.00821 8.30182,-8.78293 0.12755,-1.03886 -4.36396,-8.04712 -7.36699,-11.4949 -0.73962,-0.84916 -1.27758,-1.36124 -1.8278,-1.48519 z m -115.51999,1.58422 c -0.19684,-0.25194 -5.57592,0.30267 -6.55158,1.17247 -2.00588,3.88275 -6.40031,11.55564 -7.88049,14.37056 -0.15704,0.29866 0.29074,0.87555 0.36174,0.96635 0.11312,0.14479 2.64618,-0.32429 4.08604,-1.20509 0.82623,-0.50544 10.26007,-14.9513 9.98429,-15.30429 z m 114.71694,6.67265 c 0.13076,0.0354 0.27608,0.11907 0.45114,0.24236 0.72453,0.51026 2.49258,2.61846 3.03444,3.61838 l 0.44338,0.81804 -1.12551,1.31361 c -0.61893,0.72255 -1.22799,1.30111 -1.35341,1.28571 -0.23315,-0.0286 -1.81793,-2.3422 -2.73213,-3.98838 -0.50311,-0.90597 -0.50238,-0.92911 0.092,-2.05156 0.53703,-1.01418 0.79785,-1.34444 1.19011,-1.23816 z m -14.95826,5.52989 c -0.2705,-0.0332 -1.17426,0.42959 -2.00866,1.02784 -2.10309,1.50789 -4.79053,3.26906 -8.09976,5.30821 -1.54649,0.95295 -2.83024,1.88099 -2.85254,2.0624 -0.0223,0.1814 0.1662,0.67088 0.41858,1.08779 0.56733,0.93721 0.59887,0.92698 4.69325,-1.47123 2.40143,-1.40658 2.77425,-1.56438 1.82831,-0.77514 -0.65339,0.54515 -2.14519,1.59982 -3.31504,2.34352 -2.01581,1.28153 -2.12548,1.399 -2.09238,2.2531 0.0372,0.9598 2.8791,8.16599 3.65507,9.26817 0.25423,0.36108 0.76912,0.6939 1.14464,0.74 0.99213,0.12181 4.39213,-1.38239 8.33489,-3.68763 4.37839,-2.55996 5.03397,-3.04117 5.12217,-3.75946 0.13471,-1.0971 -4.3169,-11.57961 -5.74642,-13.53147 -0.32447,-0.44302 -0.81162,-0.8329 -1.08211,-0.8661 z m -111.93425,7.96127 c -0.0663,-0.38151 -5.43326,0.45631 -5.43326,0.45631 0,0 -3.76277,3.81545 -4.17856,4.59764 1.29372,0.50222 3.19245,1.01888 3.82974,0.94258 1.65637,-0.19835 3.26294,-1.5483 4.72736,-3.97288 0.72815,-1.20556 1.08566,-1.84585 1.05472,-2.02365 z m 109.12564,0.3576 0.72967,1.06247 c 0.40122,0.58441 1.04679,1.77354 1.43454,2.64222 0.80231,1.79739 0.76524,1.88182 -1.2945,2.95537 -0.66378,0.34596 -1.32514,0.61456 -1.46916,0.59686 -0.14402,-0.0177 -0.51292,-1.03326 -0.8201,-2.25722 -0.60913,-2.42709 -0.47586,-3.15009 0.81287,-4.40749 z m -16.16594,3.04995 c -0.87158,0.0657 -11.14081,4.27475 -11.51609,4.72012 -0.38128,0.45254 0.13625,0.48656 1.60868,0.10542 0.77752,-0.20128 1.40792,-0.3149 1.39992,-0.2527 -0.008,0.0622 -0.90566,0.45062 -1.99575,0.863 -1.12004,0.42371 -2.10275,0.97765 -2.25929,1.27434 -0.15814,0.29972 -0.26993,2.18275 -0.25993,4.38785 0.0144,3.2889 0.0927,3.94097 0.52658,4.39146 0.58369,0.60599 1.45268,0.75476 3.86281,0.66146 3.89859,-0.15091 11.6719,-2.17921 12.4194,-3.24063 0.45548,-0.64676 0.46045,-0.61973 -1.10691,-6.55361 -1.72907,-6.54608 -1.68096,-6.43191 -2.67942,-6.35671 z m -105.45351,4.88623 c -0.39022,0.25043 -8.01657,6.98403 -8.43825,7.53237 2.0832,0.58608 6.44982,0.80562 6.91817,0.60489 1.94735,-2.25821 5.21275,-5.1949 7.14609,-7.26805 -2.66786,-0.008 -4.04137,-1.38151 -5.62601,-0.86921 z m 101.35143,1.51596 c 0.12032,0.0566 0.43729,1.04887 0.70487,2.20503 0.53771,2.32339 0.5265,2.34939 -1.23507,2.84376 -1.6572,0.46509 -1.75433,0.37645 -1.84743,-1.69499 -0.0466,-1.03644 0.003,-2.04952 0.11007,-2.25103 0.22407,-0.42153 1.94103,-1.25642 2.26756,-1.10277 z m -13.53109,1.13622 c -3.05197,1.53248 -8.77041,3.58244 -12.2104,5.33297 -1.57253,2.15962 -3.07539,5.17874 -2.93738,5.91558 0.091,0.48594 0.24299,0.65896 0.87644,0.31161 2.10938,-1.15669 14.36979,-3.24836 14.36979,-3.24836 l 0.20334,-8.3118 c 0,0 -0.12534,-0.0474 -0.30179,0 z m -16.73941,7.50668 c -5.82772,2.69088 -9.8446,5.04278 -13.86578,8.28077 -0.17904,1.57189 -1.09382,5.17228 -0.15033,6.2765 4.19665,-3.39891 8.02159,-5.91432 12.87204,-8.98434 0.69254,-2.40305 0.0914,-2.77469 1.14407,-5.57293 z m -76.29251,2.50474 c 0.43696,-0.64356 -8.84028,-0.45367 -8.84028,-0.45367 0,0 -8.58942,5.7003 -13.67306,10.76575 -0.0819,0.55637 0.11598,0.59278 1.34617,0.24753 2.95549,-0.82943 11.42713,0.41212 12.58838,-0.55501 1.89362,-2.7397 6.672,-7.19628 8.57879,-10.0046 z m 59.03682,8.08397 c -1.2311,1.03902 -2.0519,1.54277 -3.00067,2.47395 -1.55472,1.36457 -3.52517,3.54116 -3.79167,4.23217 -0.68849,1.78527 1.29883,4.67362 1.31678,4.65142 0.85294,-1.05489 3.26347,-3.69229 6.10343,-5.8664 l -0.0124,-2.71405 c -0.009,-1.97225 -0.0654,-2.76089 -0.61547,-2.77709 z m -9.83557,8.91108 c -2.39063,2.66998 -4.24552,6.01942 -5.70829,9.29667 0.16006,0.13158 3.04722,2.5217 3.15602,2.59162 0.39451,0.25356 0.52352,0.0725 0.90544,-0.75561 0.23997,-0.52033 1.23398,-2.20895 2.20813,-3.75275 l 1.77095,-2.80654 -1.48062,-2.36164 c -0.65489,-1.04457 -0.73114,-2.33098 -0.85163,-2.21175 z m -64.74499,-1.25958 c -0.80127,-0.0213 -1.92168,-4.6e-4 -3.40548,0.0336 -9.85264,0.22611 -11.06368,0.92695 -17.87901,10.34511 -1.52228,2.10363 -2.78397,3.95791 -2.80397,4.12068 -0.0547,0.44568 0.139,0.42517 4.62866,-0.49351 2.49094,-0.50971 4.80601,-0.75119 5.77019,-0.77102 0.76132,-0.0157 1.63395,-0.41999 4.98896,-4.48198 3.87999,-4.69759 6.32883,-4.99905 8.50996,-6.6424 2.12795,-1.60329 2.59448,-2.04649 0.19069,-2.11047 z m 49.8818,26.44905 c 1.17237,3.0988 2.24861,9.07072 3.55059,11.26801 1.06824,-1.20806 6.83367,-18.52078 6.86961,-18.81344 0.0534,-0.43524 -3.52724,-5.13676 -4.77561,-4.28325 z m -63.71317,-10.59266 c -0.80764,-0.0992 -5.41959,1.16669 -8.37761,2.45154 -6.23976,2.71029 -7.46213,4.03839 -9.30538,10.10843 -0.79117,2.60542 -1.84661,8.15567 -1.67897,8.8284 0.0606,0.24301 0.18315,0.45098 0.27285,0.46198 0.26575,0.0326 11.34679,-3.86601 11.89282,-4.18424 0.34429,-0.20064 0.77503,-1.17541 1.37666,-3.1166 0.4815,-1.55363 1.66205,-4.76732 2.62361,-7.14168 2.91897,-7.20781 3.81733,-7.33153 3.19602,-7.40783 z m 56.19571,27.06863 c 0,0 4.28538,9.8638 4.23798,10.2495 -0.012,0.0973 0.13723,0.49977 0.33176,0.89452 0.35025,0.71074 0.35922,0.71352 0.92656,0.27027 0.76475,-0.59749 2.84701,-6.22664 3.36517,-8.79274 -0.66407,-4.12626 -1.73505,-10.2825 -3.63234,-14.96911 -1.74279,5.74675 -5.22913,12.34756 -5.22913,12.34756 z m -53.92511,-3.80724 -4.124,-6.22101 -0.67759,6.00003 c -0.23166,2.05135 0.23641,7.05304 0.33181,7.61457 0.0955,0.56151 0.2861,1.03471 0.42375,1.05161 0.13765,0.0169 0.25551,-0.0142 0.26251,-0.0693 0.007,-0.0551 0.82906,-1.92487 1.82728,-4.15478 0.85203,-1.92533 1.31735,-2.21297 1.95624,-4.22112 z m -9.73251,-0.1889 c -0.0961,-0.0189 -0.22439,-0.005 -0.39429,0.016 -1.43878,0.17894 -12.70887,4.78004 -12.48244,5.94227 1.62504,8.341 5.43612,18.24464 7.8255,21.16386 2.92773,-2.10503 6.85063,-6.03015 10.01788,-9.06362 -1.38609,-5.52622 -4.64883,-10.47576 -4.70775,-16.31114 0.0285,-1.33866 0.0293,-1.69093 -0.2589,-1.7477 z m 12.11141,6.15105 c -0.0618,0.51769 2.24542,5.39611 4.12119,8.71368 0.66669,1.17911 1.38069,2.16475 1.58647,2.19005 0.38099,0.0468 1.36653,-0.90901 1.78129,-1.72755 0.30827,-0.6084 -2.26059,-5.15554 -4.53552,-8.1036 l -1.88594,-2.42399 c -0.13684,0.14728 -0.99381,0.7347 -1.06749,1.35141 z m 49.92873,0.96226 c -0.46242,-0.15783 -0.93249,0.52054 -1.64537,1.95441 -1.04885,2.1096 -3.50027,6.1228 -4.52169,7.40213 l -0.9586,1.20096 c 1.25913,4.07071 3.05412,7.99421 4.14187,12.11812 -0.0146,0.119 0.0976,0.37538 0.24959,0.56999 0.15204,0.1946 0.37149,0.43441 0.4284,0.37259 1.99122,-2.16304 5.64455,-6.9794 6.55981,-9.95598 0.19218,-1.56515 -0.70901,-5.16549 -2.65307,-10.59987 -0.68344,-1.91046 -1.13851,-2.90451 -1.60094,-3.06235 z m -51.7157,2.02985 -0.55501,0.56173 c -0.30526,0.30905 -0.8055,1.02788 -1.11156,1.59731 -0.45996,0.85575 -0.51243,1.14963 -0.30179,1.69396 0.32163,0.83115 4.66718,8.41965 5.43636,9.49348 0.5497,0.76739 0.59769,0.78429 1.13482,0.40617 0.84951,-0.59804 1.53115,-1.72969 1.44745,-2.40295 -0.0759,-0.61 -3.81566,-7.78215 -5.26117,-10.08983 z m 17.1235,13.3718 c -7.97304,0.25554 -6.52379,0.22202 -7.31945,2.04845 -0.3188,0.73178 -0.59167,1.42742 -0.60617,1.54564 -0.043,0.35068 1.29372,0.0373 5.62033,0.26562 l 3.83956,0.20258 c 0.55747,-0.0509 0.71681,-0.49987 0.93689,-0.88813 z m 23.86521,-0.0144 c -0.15822,-0.0193 -0.87473,0.53929 -1.63091,1.19889 -6.78151,5.91539 -13.3511,7.17622 -18.26813,8.1244 0.0517,4.80224 0.0781,10.70019 0.41953,15.03336 10.01336,-0.27618 17.29529,-5.17798 23.8761,-11.98472 -1.04031,-3.84776 -4.09253,-12.33473 -4.39667,-12.37193 z m -42.99221,0.0796 c -2.91971,4.38623 -6.00193,7.26996 -8.60609,11.85947 4.72575,7.7008 14.62928,11.78042 23.28745,11.87086 0.75971,-1.71677 1.6103,-6.76469 2.80551,-14.29163 -7.92363,-1.17933 -11.80764,-2.56094 -17.48687,-9.4387 z" /><text
         xml:space="preserve"
         style="font-weight:bold;font-size:22.0499px;line-height:1.25;font-family:'Arial Black';-inkscape-font-specification:'Arial Black,  Bold';text-align:center;text-anchor:middle;fill:#214478;fill-opacity:1;stroke-width:0.571095"
         x="471.77719"
         y="398.61404"
         id="text60"><tspan
           id="tspan59"
           style="fill:#214478;fill-opacity:1;stroke-width:0.571095"
           x="471.77719"
           y="398.61404">Image</tspan><tspan
           style="fill:#214478;fill-opacity:1;stroke-width:0.571095"
           x="471.77719"
           y="426.17642"
           id="tspan60">Placeholder</tspan></text></g><path
       style="fill:#214478;fill-opacity:1;stroke-width:2.15847"
       d="m 393.09161,394.0215 c 2.79433,-10.01867 6.24399,-15.34763 11.67996,-19.38507 6.33885,-4.96036 14.11296,-2.17778 18.91832,4.45286 5.8021,8.00601 4.34904,15.25327 2.83781,19.55565 0.29443,0.0183 5.09563,1.1829 8.91333,2.11156 3.81769,0.92867 9.30336,2.28448 9.40422,2.36783 -1.11958,2.67664 -5.28393,9.15178 -6.86233,11.45963 -5.15461,-0.78442 -19.05901,-4.25875 -18.54173,-3.49393 3.12802,4.62527 8.31479,10.75737 11.37633,15.38193 -0.84609,1.7601 -7.49556,5.02192 -10.68439,5.23323 -8.50465,-11.13791 -20.09569,-25.36001 -27.04152,-37.68369 z m 25.54309,-1.83943 c -0.59675,-4.29629 -4.35944,-8.36174 -6.25866,-8.12667 -2.23567,0.0941 -5.28252,4.11898 -5.87228,8.39174 2.27464,3.37215 5.72426,9.17185 8.50401,12.16755 3.49163,-3.70335 3.93971,-8.3387 3.62693,-12.43262 z m 22.86958,5.96575 c -0.91271,-0.58748 -2.35099,-1.88042 -3.19498,-2.87483 -2.02334,-2.38391 -7.43884,-9.24907 -11.05901,-14.87414 -3.60937,-5.6083 -9.64303,-13.89337 -9.94109,-15.18449 -0.0261,-0.68074 5.63585,-7.41599 6.40925,-7.64644 1.62186,1.70667 15.61671,25.98845 19.25033,28.54327 0.74346,0.52273 1.60802,0.45559 2.16544,-0.003 0.15727,-0.12939 1.50351,-1.84916 -0.186,-5.84202 -1.0002,-2.36381 -2.86524,-5.54312 -7.48351,-13.61253 -4.30932,-7.52958 -8.61257,-14.66841 -8.37003,-15.02737 1.51819,-2.24692 5.38456,-8.61336 5.84466,-8.39237 0.11338,0.0545 0.80295,1.08237 1.49903,2.39034 1.57782,2.96485 3.92654,6.69204 10.32255,17.49639 5.19154,8.76974 7.15253,13.48596 7.74102,17.70882 0.66973,4.80572 0.47199,9.14684 -2.96855,13.33322 -2.56039,3.11538 -4.05626,4.69956 -6.63952,4.91173 -1.48253,0.12172 -1.96642,-0.0107 -3.38959,-0.927 z m -2.11247,-55.78697 c -0.5913,-1.09025 -1.15189,-2.25626 -1.16562,-2.94579 1.75785,-2.2684 3.35067,-3.98956 5.47118,-6.8051 5.61625,3.40177 10.48563,6.80574 15.33,10.60958 0.62403,0.49897 0.90199,0.60429 0.70863,0.26442 -2.89041,-5.08052 -10.0475,-17.24187 -10.44163,-17.95046 -0.56367,-1.0134 -1.08199,-2.11695 -0.3494,-3.13517 1.86529,-2.59254 3.99672,-5.54734 5.42346,-7.89538 0.0367,0.0654 2.82592,4.31176 5.48093,8.91143 5.93505,11.07865 11.04102,21.75551 16.25562,33.60671 -1.70617,1.24864 -4.15255,2.95793 -6.20958,5.49788 -4.03522,-1.98643 -9.89289,-6.166 -14.01239,-9.18344 2.45607,4.02926 8.96736,16.04877 8.96736,16.04877 -1.84718,2.05146 -3.53597,5.41946 -5.73551,8.7042 -7.06019,-11.34859 -13.37118,-23.96686 -19.72305,-35.72765 z m 18.21486,-32.86543 c 0.15389,-0.39749 6.12746,-8.56109 7.89581,-9.51193 l 18.33276,16.4645 c 0.22699,-0.24277 -12.25015,-23.67365 -12.31959,-23.8748 2.55162,-4.56357 4.37287,-6.67801 7.98577,-10.62585 9.01239,17.03472 17.14896,35.85843 25.38209,53.82107 0.55326,1.18551 0.98418,2.35024 0.96775,2.59871 -0.0284,0.42863 -6.54081,3.06955 -10.19212,5.16481 -1.56208,-0.29592 -10.11795,-9.60523 -16.00269,-14.85574 -0.001,-0.001 -1.24336,-1.10565 -1.24487,-1.10698 2.4131,4.601 4.80381,9.21399 7.16369,13.84252 1.95916,3.84259 2.81074,5.11633 2.88692,6.34139 -2.76653,1.68823 -5.39684,3.14078 -8.10765,5.14048 -1.09026,0.20324 -22.95621,-42.86005 -22.74787,-43.39818 z m 49.89719,21.80887 c -1.78435,-4.10196 -4.60209,-10.38417 -8.12826,-17.82298 -4.69554,-9.90576 -11.26285,-25.21545 -16.39264,-35.29826 4.64443,-4.35512 8.34685,-7.87375 8.96428,-7.79829 1.59095,0.19476 13.28945,26.10992 16.42665,32.71403 6.76435,14.23964 12.59659,27.93679 12.73102,28.51822 0.18275,0.7918 -5.13772,2.1677 -11.0835,5.56198 -0.82077,-1.94543 -1.66018,-3.90371 -2.51755,-5.8747 z m 0.82232,-36.97257 c -10.69437,-23.07583 -12.5877,-26.61225 -12.60378,-27.11943 -0.0242,-0.76293 5.92216,-4.69952 7.76389,-5.52605 2.86445,2.03629 16.82747,15.09589 20.65451,19.24666 0.71408,0.77451 1.42908,1.55358 2.14479,2.33681 -0.004,-0.0104 -0.78747,-1.67473 -0.79088,-1.68542 -1.82708,-5.73085 -10.50462,-22.53265 -11.93939,-25.50939 1.51491,-1.22136 7.47038,-4.28408 10.8866,-5.55816 3.52025,7.03238 5.99982,14.43804 9.16548,21.64135 3.17739,7.24628 7.31219,16.57229 10.48959,23.81856 4.06813,9.26271 4.65327,10.98019 7.02322,16.96383 -1.32466,1.30592 -3.38967,2.88947 -6.70688,4.9426 -1.51164,-1.30168 -23.51998,-25.18522 -24.06691,-24.66922 -0.081,0.0765 0.2974,1.01034 0.8395,2.07674 4.25177,9.76237 8.9577,18.60984 13.84727,28.83284 -1.89553,1.44219 -6.69974,4.10002 -9.82954,5.71093 -4.44071,-9.57402 -11.35193,-23.63299 -16.87747,-35.50265 z m 48.44756,5.83184 c -4.64671,-1.56428 -9.34232,-6.55038 -13.56253,-14.09258 -7.66071,-13.69078 -12.24699,-28.34634 -9.70292,-34.57633 3.76265,-9.21406 12.57829,-11.48466 19.98489,-10.00394 7.65506,1.53039 11.35348,6.70589 11.98351,10.01381 l -7.81183,4.96076 c -1.9942,-2.90444 -5.94853,-4.57611 -8.20974,-2.88887 -3.19394,2.3832 -3.35152,5.79642 -1.85447,11.23056 2.83563,10.29304 9.65901,21.55416 13.69783,23.06476 2.94423,1.10121 6.73547,-1.88162 7.84388,-4.72576 1.14665,-2.94226 -1.83051,-9.50287 -2.66656,-9.09037 l -5.77778,2.85074 -4.33609,-9.10764 c 4.26316,-3.77009 9.01655,-6.73221 13.65378,-8.92122 9.54016,13.7147 14.80546,27.84656 1.31346,38.91688 -4.08418,2.6501 -10.23851,3.82246 -14.55543,2.3692 z"
       id="path100" /><path
       style="fill:#ff6600;fill-opacity:1;stroke-width:2.15847"
       d="m 390.97493,391.90482 c 2.79433,-10.01867 6.24399,-15.34763 11.67996,-19.38507 6.33885,-4.96036 14.11296,-2.17778 18.91832,4.45286 5.8021,8.00601 3.7433,17.17144 2.23207,21.47382 6.35927,0.89918 12.65985,2.28342 18.82233,4.07556 -1.11958,2.67664 -5.16833,8.71055 -6.35755,10.45007 -5.57699,-1.1873 -19.44839,-4.74219 -18.94555,-3.99871 3.12802,4.62527 8.31479,10.75737 11.37633,15.38193 -0.84609,1.7601 -7.49556,5.02192 -10.68439,5.23323 -8.50465,-11.13791 -20.09569,-25.36001 -27.04152,-37.68369 z m 25.54309,-1.83943 c -0.59675,-4.29629 -4.35944,-8.36174 -6.25866,-8.12667 -2.23567,0.0941 -5.28252,4.11898 -5.87228,8.39174 2.27464,3.37215 5.72426,9.17185 8.50401,12.16755 3.49163,-3.70335 3.93971,-8.3387 3.62693,-12.43262 z m 22.86958,5.96575 c -0.91271,-0.58748 -2.35099,-1.88042 -3.19498,-2.87483 -2.02334,-2.38391 -7.43884,-9.24907 -11.05901,-14.87414 -3.60937,-5.6083 -9.64303,-13.89337 -9.94109,-15.18449 -0.0261,-0.68074 5.63585,-7.41599 6.40925,-7.64644 1.62186,1.70667 15.61671,25.98845 19.25033,28.54327 0.74346,0.52273 1.60802,0.45559 2.16544,-0.003 0.15727,-0.12939 1.50351,-1.84916 -0.186,-5.84202 -1.0002,-2.36381 -2.86524,-5.54312 -7.48351,-13.61253 -4.30932,-7.52958 -8.61257,-14.66841 -8.37003,-15.02737 1.51819,-2.24692 5.38456,-8.61336 5.84466,-8.39237 0.11338,0.0545 0.80295,1.08237 1.49903,2.39034 1.57782,2.96485 3.92654,6.69204 10.32255,17.49639 5.19154,8.76974 7.15253,13.48596 7.74102,17.70882 0.66973,4.80572 0.47199,9.14684 -2.96855,13.33322 -2.56039,3.11538 -4.05626,4.69956 -6.63952,4.91173 -1.48253,0.12172 -1.96642,-0.0107 -3.38959,-0.927 z m -2.11247,-55.78697 c -0.5913,-1.09025 -1.15189,-2.25626 -1.16562,-2.94579 1.75785,-2.2684 3.35067,-3.98956 5.47118,-6.8051 5.61625,3.40177 10.48563,6.80574 15.33,10.60958 0.62403,0.49897 0.90199,0.60429 0.70863,0.26442 -2.89041,-5.08052 -10.0475,-17.24187 -10.44163,-17.95046 -0.56367,-1.0134 -1.08199,-2.11695 -0.3494,-3.13517 1.86529,-2.59254 3.99672,-5.54734 5.42346,-7.89538 0.0367,0.0654 2.82592,4.31176 5.48093,8.91143 5.93505,11.07865 11.04102,21.75551 16.25562,33.60671 -1.70617,1.24864 -4.15255,2.95793 -6.20958,5.49788 -4.03522,-1.98643 -9.89289,-6.166 -14.01239,-9.18344 2.45607,4.02926 8.96736,16.04877 8.96736,16.04877 -1.84718,2.05146 -3.53597,5.41946 -5.73551,8.7042 -7.06019,-11.34859 -13.37118,-23.96686 -19.72305,-35.72765 z m 18.21486,-32.86543 c 0.15389,-0.39749 6.12746,-8.56109 7.89581,-9.51193 l 18.33276,16.4645 c 0.22699,-0.24277 -12.25015,-23.67365 -12.31959,-23.8748 2.55162,-4.56357 4.37287,-6.67801 7.98577,-10.62585 9.01239,17.03472 17.14896,35.85843 25.38209,53.82107 0.55326,1.18551 0.98418,2.35024 0.96775,2.59871 -0.0284,0.42863 -6.54081,3.06955 -10.19212,5.16481 -1.56208,-0.29592 -10.11795,-9.60523 -16.00269,-14.85574 -10e-4,-10e-4 -1.24336,-1.10565 -1.24487,-1.10698 2.4131,4.601 4.80381,9.21399 7.16369,13.84252 1.95916,3.84259 2.81074,5.11633 2.88692,6.34139 -2.76653,1.68823 -5.39684,3.14078 -8.10765,5.14048 -1.09026,0.20324 -22.95621,-42.86005 -22.74787,-43.39818 z m 49.89719,21.80887 c -1.78435,-4.10196 -4.60209,-10.38417 -8.12826,-17.82298 -4.69554,-9.90576 -11.26285,-25.21545 -16.39264,-35.29826 4.64443,-4.35512 8.34685,-7.87375 8.96428,-7.79829 1.59095,0.19476 13.28945,26.10992 16.42665,32.71403 6.76435,14.23964 12.59659,27.93679 12.73102,28.51822 0.18275,0.7918 -5.13772,2.1677 -11.0835,5.56198 -0.82077,-1.94543 -1.66018,-3.90371 -2.51755,-5.8747 z m 0.82232,-36.97257 c -10.69437,-23.07583 -12.5877,-26.61225 -12.60378,-27.11943 -0.0242,-0.76293 5.92216,-4.69952 7.76389,-5.52605 2.86445,2.03629 16.82747,15.09589 20.65451,19.24666 0.71408,0.77451 1.42908,1.55358 2.14479,2.33681 -0.004,-0.0104 -0.78747,-1.67473 -0.79088,-1.68542 -1.82708,-5.73085 -10.50462,-22.53265 -11.93939,-25.50939 1.51491,-1.22136 7.47038,-4.28408 10.8866,-5.55816 3.52025,7.03238 5.99982,14.43804 9.16548,21.64135 3.17739,7.24628 7.31219,16.57229 10.48959,23.81856 4.06813,9.26271 4.65327,10.98019 7.02322,16.96383 -1.32466,1.30592 -3.38967,2.88947 -6.70688,4.9426 -1.51164,-1.30168 -23.51998,-25.18522 -24.06691,-24.66922 -0.081,0.0765 0.2974,1.01034 0.8395,2.07674 4.25177,9.76237 8.9577,18.60984 13.84727,28.83284 -1.89553,1.44219 -6.69974,4.10002 -9.82954,5.71093 -4.44071,-9.57402 -11.35193,-23.63299 -16.87747,-35.50265 z m 48.44756,5.83184 c -4.64671,-1.56428 -9.34232,-6.55038 -13.56253,-14.09258 -7.66071,-13.69078 -12.24699,-28.34634 -9.70292,-34.57633 3.76265,-9.21406 12.57829,-11.48466 19.98489,-10.00394 7.65506,1.53039 11.35348,6.70589 11.98351,10.01381 l -7.81183,4.96076 c -1.9942,-2.90444 -5.94853,-4.57611 -8.20974,-2.88887 -3.19394,2.3832 -3.35152,5.79642 -1.85447,11.23056 2.83563,10.29304 9.65901,21.55416 13.69783,23.06476 2.94423,1.10121 6.73547,-1.88162 7.84388,-4.72576 1.14665,-2.94226 -1.83051,-9.50287 -2.66656,-9.09037 l -5.77778,2.85074 -4.33609,-9.10764 c 4.26316,-3.77009 9.01655,-6.73221 13.65378,-8.92122 9.54016,13.7147 14.80546,27.84656 1.31346,38.91688 -4.08418,2.6501 -10.23851,3.82246 -14.55543,2.3692 z"
       id="path59" /><path
       style="fill:#214478;fill-opacity:1;stroke:none;stroke-width:0.571095px;stroke-linecap:butt;stroke-linejoin:miter;stroke-opacity:1"
       d="m 405.53743,424.02199 0.89256,-2.42664 c 0.23389,-0.31787 0.46777,-0.34936 0.70166,-0.41243 l 1.11776,0.22631 1.88515,2.24897 z"
       id="path69" /></g></svg>
