<?xml version="1.0" encoding="UTF-8" standalone="no"?>
<!-- Created with Inkscape (http://www.inkscape.org/) -->

<svg
   width="225.6086mm"
   height="224.29422mm"
   viewBox="0 0 225.60856 224.29423"
   version="1.1"
   id="svg1"
   xml:space="preserve"
   xmlns="http://www.w3.org/2000/svg"
   xmlns:svg="http://www.w3.org/2000/svg"><defs
     id="defs1" /><g
     id="g54"
     transform="translate(-129.15764,-247.46082)"><g
       id="g45"
       transform="rotate(7,121.88341,2185.0135)"><path
         style="fill:#214478;fill-opacity:1"
         d="m -52.388965,479.36913 c -0.129946,-0.34179 -0.324804,-2.0481 -0.433017,-3.79182 -0.108214,-1.74372 -0.275611,-3.38542 -0.371994,-3.64823 -0.131548,-0.35869 -0.587821,0.26803 -1.82995,2.51355 -2.154327,3.89458 -2.553085,4.42121 -3.004723,3.96829 -0.37884,-0.37992 -0.420865,-3.05733 -0.103039,-6.56466 0.21999,-2.42767 0.198029,-2.42116 -2.305039,0.68364 -1.685493,2.09067 -2.44885,2.91972 -2.688373,2.91972 -0.364447,0 -0.0637,-2.31313 0.756802,-5.82083 0.493573,-2.11005 0.870179,-3.86603 0.836901,-3.90217 -0.03328,-0.0361 -1.479526,1.00261 -3.213886,2.30835 -1.734359,1.30574 -3.242677,2.37711 -3.351818,2.38082 -0.451843,0.0154 -0.136763,-1.57403 0.680517,-3.43283 0.479872,-1.09141 1.987743,-3.79404 3.350824,-6.00585 l 2.47833,-4.02148 2.409095,2.30311 c 3.889537,3.71842 6.900528,4.87243 12.816804,4.91225 l 3.280883,0.0221 -0.168525,4.76838 c -0.157695,4.46194 -0.530756,8.62597 -0.874306,9.75883 -0.257549,0.84926 -0.814046,-0.0212 -2.327971,-3.64148 -0.772991,-1.84845 -1.509526,-3.36529 -1.636743,-3.37074 -0.127217,-0.005 -0.707554,1.40152 -1.289637,3.12661 -1.516271,4.49368 -2.476734,5.94004 -3.011135,4.53446 z m 17.322788,-1.86899 c -1.636558,-2.53107 -2.951993,-9.80396 -2.279927,-12.60544 0.448193,-1.86828 1.37829,-2.58245 5.536296,-4.251 5.181129,-2.07912 8.688934,-4.42063 11.411549,-7.61738 0.65061,-0.76392 1.313349,-1.38899 1.472751,-1.38906 0.306404,-1.4e-4 3.907679,7.35454 5.409166,11.04684 1.228248,3.02037 0.985319,3.18093 -2.15949,1.42723 -1.343033,-0.74894 -2.531704,-1.36171 -2.64149,-1.36171 -0.109786,0 -0.08815,0.38696 0.04808,0.8599 0.357373,1.24065 1.036446,5.23006 1.037438,6.09473 7.48e-4,0.65245 -0.05918,0.70478 -0.522881,0.45662 -0.288049,-0.15416 -1.329846,-1.00075 -2.315104,-1.88132 -0.985258,-0.88057 -2.138045,-1.852 -2.561749,-2.15874 l -0.770371,-0.55771 0.166588,0.83295 c 0.313154,1.56576 0.533627,7.73066 0.27647,7.73066 -0.245502,0 -0.726264,-0.60784 -3.550372,-4.48881 l -1.437361,-1.97526 -0.197189,3.95964 c -0.108455,2.1778 -0.265786,4.13823 -0.349626,4.35651 -0.206889,0.53865 -0.516632,0.0952 -2.551037,-3.65257 -1.237246,-2.27922 -1.677398,-2.89282 -1.810318,-2.52368 -0.09659,0.26824 -0.385202,1.97525 -0.641357,3.79335 -0.443494,3.14777 -0.759668,4.49957 -1.052408,4.49957 -0.07301,0 -0.305955,-0.26789 -0.517661,-0.59532 z m -40.486546,-17.10125 c -0.20555,-0.33258 0.52419,-1.80885 2.14094,-4.33114 l 1.19459,-1.86368 -1.5449,0.18043 c -3.48969,0.40756 -5.64595,0.49837 -5.64595,0.23777 0,-0.37414 1.08753,-1.93224 2.69137,-3.85593 l 1.36961,-1.64276 -0.74299,-0.0871 c -0.40865,-0.0479 -1.48095,0.0414 -2.38289,0.19844 -2.13849,0.3724 -4.37468,0.3702 -4.37468,-0.004 0,-0.43195 0.97601,-1.75252 2.69837,-3.65098 0.84423,-0.93055 1.53496,-1.77557 1.53496,-1.87781 0,-0.10224 -1.32777,-0.26186 -2.95061,-0.35471 -1.62285,-0.0928 -3.01238,-0.23058 -3.08785,-0.30605 -0.2587,-0.2587 1.12391,-1.47929 3.14216,-2.77395 2.63055,-1.68742 7.66026,-4.42882 8.52292,-4.64534 0.66424,-0.16671 0.67967,-0.13727 0.85946,1.63896 0.29174,2.88235 1.59946,6.44038 3.52397,9.58796 2.729455,4.46409 3.008486,5.06258 2.869613,6.15503 -0.267927,2.10765 -2.973017,4.84019 -6.397363,6.46229 -2.19788,1.04113 -3.18711,1.31092 -3.42073,0.93292 z m 25.513434,-1.30541 c 0,-0.11911 0.18592,-0.84262 0.413155,-1.6078 0.567144,-1.90978 0.700205,-1.95915 8.582678,-3.18446 5.00322,-0.77773 5.291667,-0.80527 5.291667,-0.50537 0,0.65524 -0.864916,3.16631 -1.209189,3.51058 -0.207895,0.2079 -1.062673,0.45674 -1.899506,0.55299 -0.836832,0.0962 -3.342418,0.46201 -5.567968,0.81281 -4.279798,0.67459 -5.610837,0.77452 -5.610837,0.42125 z m 40.005,-0.6301 c -0.174625,-0.17463 -0.3175,-0.41561 -0.3175,-0.53551 0,-0.11991 -1.257279,-2.76164 -2.793952,-5.87051 l -2.793952,-5.65251 0.805191,-1.3086 c 0.857901,-1.39427 2.802242,-5.67646 3.586179,-7.89816 1.065661,-3.02012 1.534524,-2.92177 3.3568655,0.7041 2.591856,5.15696 3.925084,8.6208 3.925084,10.1977 0,2.90469 -3.856933,10.68099 -5.297621,10.68099 -0.08404,0 -0.29567,-0.14288 -0.4702945,-0.3175 z m -46.13367,-2.26422 c -0.894319,-0.97208 -6.131896,-7.97428 -6.552417,-8.76003 -0.275409,-0.51461 -0.259286,-0.8126 0.09295,-1.71803 0.234386,-0.60249 0.643236,-1.37685 0.908556,-1.7208 l 0.482401,-0.62536 0.937015,1.15453 c 1.715979,2.11432 6.301918,8.77718 6.451558,9.37339 0.165156,0.65804 -0.373544,1.8644 -1.143834,2.56151 -0.487051,0.44077 -0.537106,0.42948 -1.176231,-0.26521 z m 24.959424,-1.56224 c 1.434261,-2.16582 2.325642,-3.84738 2.887504,-5.44719 0.191654,-0.5457 0.429264,-0.99219 0.528021,-0.99219 0.228783,0 1.91177,2.05746 2.331073,2.84974 0.174873,0.33043 0.247717,0.71442 0.161874,0.85332 -0.443047,0.71687 -6.431021,4.76361 -7.048722,4.76361 -0.111254,0 0.401858,-0.91228 1.14025,-2.02729 z m -16.018734,-1.75167 c -0.441765,-0.32302 -0.440623,-0.40267 0.02371,-1.65364 0.580337,-1.5635 0.552111,-1.54786 5.763227,-3.19205 4.946667,-1.56075 7.541951,-2.25368 7.813129,-2.08608 0.275296,0.17014 -0.453078,3.26706 -0.944948,4.01775 -0.442198,0.67488 -0.757315,0.77308 -7.045656,2.19569 -5.339123,1.20786 -4.999476,1.16437 -5.609462,0.71833 z m -7.447622,-4.55118 c -2.266106,-3.06424 -5.150869,-7.62542 -5.152506,-8.14678 -0.0019,-0.59596 1.781606,-4.16058 2.081655,-4.16058 0.123416,0 0.61646,0.74414 1.095653,1.65365 0.479193,0.9095 1.552146,2.84427 2.384339,4.29947 2.38257,4.16626 3.180415,5.87486 2.989709,6.40252 -0.311905,0.86299 -1.173645,1.93186 -1.557498,1.93186 -0.207332,0 -1.03594,-0.89107 -1.841352,-1.98014 z m 30.755785,-2.05476 c -0.770147,-1.05502 -1.595344,-2.22758 -1.833771,-2.60569 l -0.433504,-0.68745 1.937258,-1.34679 c 1.065492,-0.74074 2.872103,-2.10006 4.014692,-3.02073 2.53054,-2.03903 3.795546,-2.9464 3.925935,-2.81601 0.191282,0.19128 -1.922019,5.42233 -3.297208,8.16157 -1.507016,3.00182 -2.283291,4.23333 -2.66846,4.23333 -0.134572,0 -0.874796,-0.8632 -1.644942,-1.91823 z m -20.525147,-1.75835 c -0.291757,-0.18326 -0.21824,-0.65527 0.396875,-2.54809 0.881705,-2.71316 0.287002,-2.32605 7.104964,-4.62485 5.352252,-1.80461 6.217708,-2.02158 6.217708,-1.55879 0,0.71744 -1.127519,4.4634 -1.415147,4.70156 -0.256883,0.2127 -9.798161,3.64257 -11.417144,4.1042 -0.291042,0.083 -0.690307,0.0497 -0.887256,-0.074 z m -22.006413,-2.0781 c -0.163168,-0.54571 -0.363471,-2.6799 -0.445119,-4.74266 l -0.148452,-3.75048 1.027995,-0.27247 c 0.565397,-0.14986 1.545366,-0.38681 2.177707,-0.52655 l 1.149713,-0.25408 -0.173143,0.92293 c -0.09523,0.50761 -0.761428,2.83335 -1.480442,5.1683 -0.719014,2.33494 -1.307298,4.29077 -1.307298,4.34627 0,0.0555 -0.113466,0.10092 -0.252147,0.10092 -0.138681,0 -0.385647,-0.44648 -0.548814,-0.99218 z m 63.4165765,-0.172 c -0.241194,-0.3681 -0.438534,-0.7495 -0.438534,-0.84755 0,-0.3886 -3.626531,-6.72305 -5.096013,-8.90119 -1.8127665,-2.68698 -1.8093135,-2.34252 -0.07096,-7.07874 1.471135,-4.00818 2.073089,-5.17918 2.424884,-4.71721 0.147253,0.19337 0.959388,1.95893 1.804743,3.92346 0.845356,1.96453 2.131659,4.88156 2.858451,6.48229 1.321426,2.91038 1.32144,2.91044 1.157974,5.02708 -0.201577,2.61012 -1.001673,5.58081 -1.687903,6.26704 -0.50909,0.50909 -0.518391,0.50758 -0.952642,-0.15518 z m -49.9070505,-6.178 -2.93845,-5.75469 1.131193,-2.19006 c 0.749154,-1.4504 1.26625,-2.16527 1.531088,-2.11666 0.522876,0.096 5.795537,10.4326 5.811565,11.39312 0.01912,1.14579 -1.752979,4.42297 -2.39167,4.42297 -0.112902,0 -1.527579,-2.58961 -3.143726,-5.75468 z m -31.673723,-0.75584 c -0.24838,-0.64729 0.12305,-6.28517 0.5908,-8.9676 1.08975,-6.24943 2.14116,-7.7163 8.0041,-11.16682 2.7794,-1.63577 6.33174,-3.25297 7.145452,-3.25297 0.625973,0 0.620253,0.0308 -1.398552,7.54062 -0.66503,2.47386 -1.44525,5.80761 -1.73382,7.40834 -0.36057,2.00004 -0.66909,3.02016 -0.98636,3.26127 -0.50318,0.3824 -11.02644,5.60227 -11.29418,5.60227 -0.0904,0 -0.23772,-0.1913 -0.32744,-0.42511 z m 43.571407,-1.09535 c 0,-0.31503 1.309318,-4.13362 1.544364,-4.50409 0.233772,-0.36846 6.512121,-2.257 9.397691,-2.82685 l 1.813929,-0.35821 -0.163584,0.81792 c -0.08997,0.44986 -0.443337,1.42898 -0.785258,2.17583 l -0.621673,1.35792 -5.16149,1.76751 c -5.016533,1.71787 -6.023979,1.98043 -6.023979,1.56997 z m 19.224759,-0.26548 c -0.06658,-0.10914 -0.162311,-2.81675 -0.212737,-6.0169 l -0.09168,-5.81846 0.792435,-0.16951 c 1.769932,-0.37859 1.677285,-0.47967 4.531046,4.94353 2.026737,3.85155 2.25066,3.18521 -1.904745,5.66803 -2.770902,1.65559 -2.91499,1.72005 -3.114315,1.39331 z m -26.242158,-6.86198 c -1.256249,-2.59245 -2.344803,-5.07073 -2.419009,-5.50729 -0.09698,-0.57052 0.113434,-1.27157 0.74814,-2.49271 0.485683,-0.93442 1.026773,-1.74631 1.202423,-1.8042 0.364772,-0.1202 4.81812,8.86154 5.016602,10.11774 0.13465,0.85221 -1.346873,4.12715 -1.947933,4.30595 -0.185378,0.0552 -1.260858,-1.85552 -2.600223,-4.61949 z m -19.17635,2.01786 c 0,-0.15404 0.349018,-1.67208 0.775596,-3.37344 0.426578,-1.70136 1.016318,-4.37565 1.310534,-5.94288 0.294216,-1.56722 0.607068,-2.96621 0.695227,-3.10885 0.08816,-0.14265 0.421153,-0.25843 0.739987,-0.25731 0.5354,0.002 0.655716,0.35066 1.574517,4.56407 0.547151,2.5091 0.993635,5.18482 0.992188,5.94603 -0.003,1.55377 0.299837,1.35476 -3.128784,2.05637 -2.290394,0.46868 -2.959265,0.49491 -2.959265,0.11601 z m 67.9013695,-5.60295 c -0.557103,-2.7812 -1.661911,-5.09832 -4.373366,-9.17231 -4.40967,-6.62558 -4.974895,-8.92371 -2.700926,-10.98163 0.540204,-0.48887 0.571756,-0.48937 1.093523,-0.0172 0.295497,0.26743 1.209279,1.47553 2.030626,2.68469 0.821347,1.20916 1.533348,2.15847 1.582223,2.1096 0.166172,-0.16617 -0.648927,-2.1501 -1.607317,-3.91217 -1.252705,-2.30319 -1.258942,-3.36817 -0.02954,-5.04366 0.501952,-0.68409 1.144821,-1.36806 1.428599,-1.51994 0.452416,-0.24212 0.555819,-0.15411 0.839615,0.71464 0.42598,1.30399 1.611173,3.42134 3.340288,5.96741 0.849612,1.25103 1.403239,2.35197 1.403239,2.79048 0,1.07128 -1.040316,13.77667 -1.216306,14.85475 -0.213223,1.30616 -0.655568,2.69732 -1.031846,3.24511 -0.272911,0.39731 -0.386135,0.1407 -0.75881,-1.71979 z m -37.6813055,0.88872 c -0.34721,-0.21826 0.633793,-3.46135 1.221133,-4.03694 0.441659,-0.43282 3.439841,-1.47539 6.080143,-2.11428 1.606767,-0.3888 1.981916,-0.24975 2.878914,1.06711 0.923255,1.35541 0.550753,1.87989 -1.926196,2.71209 -4.675632,1.57091 -8.005925,2.52796 -8.253994,2.37202 z m 20.482295,-2.97312 c -0.38286,-0.7683 -0.69611,-1.52924 -0.69611,-1.69098 0,-0.16174 1.105998,-1.83501 2.457773,-3.71837 1.351775,-1.88335 2.924519,-4.19819 3.494986,-5.14408 0.570468,-0.94588 1.079957,-1.77754 1.132198,-1.84813 0.1692495,-0.22868 1.0589285,1.13468 1.3848125,2.12212 0.275911,0.83602 0.247206,1.09799 -0.220843,2.01544 -0.295886,0.57999 -1.0248135,1.67042 -1.6198375,2.42318 -0.595025,0.75276 -1.871049,2.53045 -2.83561,3.95042 -2.478121,3.64814 -2.281307,3.52802 -3.097369,1.8904 z m -25.398032,-0.82551 c -0.208075,-0.32989 -1.298552,-2.52698 -2.423281,-4.88243 l -2.044961,-4.28265 0.916435,-1.67048 c 0.504039,-0.91876 1.091166,-1.70454 1.304726,-1.74617 0.399739,-0.0779 3.782188,6.11563 4.589464,8.40369 0.383324,1.08646 0.371333,1.19275 -0.304432,2.69856 -0.848259,1.89017 -1.486602,2.35359 -2.037951,1.47948 z m 8.122981,-4.90431 c -0.414055,-0.26345 0.416699,-2.68621 1.056455,-3.08097 0.389,-0.24004 0.669438,-0.0729 1.700922,1.01404 l 1.235125,1.30146 -1.710426,0.48344 c -1.951122,0.55147 -1.873648,0.5419 -2.282076,0.28203 z m 10.349296,-1.78424 c -1.470641,-2.51468 -4.085573,-5.90163 -10.799093,-13.98737 -7.261386,-8.74558 -7.865367,-9.57814 -8.030844,-11.07003 -0.158614,-1.43001 0.674407,-3.708 2.881535,-7.87988 2.412835,-4.56071 4.029316,-6.93615 5.929866,-8.71402 2.357484,-2.20531 3.521704,-2.77578 5.664848,-2.77578 2.144615,0 3.429896,0.62626 5.101889,2.48591 2.306096,2.56494 3.043442,4.87147 3.280092,10.26066 0.09106,2.07367 0.236662,3.77064 0.323561,3.77105 0.525875,0.002 14.3819795,2.39178 14.5799705,2.51415 0.319475,0.19745 -0.06511,1.17567 -1.243497,3.16298 -3.274921,5.52303 -3.790676,5.96985 -6.3304415,5.48428 -3.136199,-0.59959 -12.052012,-1.93096 -12.324,-1.8403 -0.154073,0.0514 1.550771,2.33081 3.788542,5.06544 2.237772,2.73463 4.15566,5.28941 4.261974,5.67728 0.129565,0.4727 0.03962,1.01588 -0.272791,1.6474 -0.629589,1.27268 -5.134437,7.61047 -5.518388,7.76372 -0.168418,0.0672 -0.750368,-0.63725 -1.293223,-1.56549 z m -4.387101,-26.43596 c 0.919224,-2.77213 1.057597,-4.75907 0.417615,-5.99666 -0.47234,-0.91341 -1.450901,-1.3728 -2.410951,-1.13184 -0.733969,0.18421 -2.503823,1.63077 -3.796347,3.10287 l -0.830543,0.94594 2.731507,2.73798 c 1.502329,1.50588 2.805768,2.76008 2.896531,2.7871 0.09076,0.027 0.537248,-1.07341 0.992188,-2.44539 z m -33.771685,25.97628 c 1.978931,-3.04405 3.401666,-5.54278 5.193882,-9.12194 2.210608,-4.41472 3.058284,-5.66367 4.268889,-6.2897 0.889027,-0.45973 4.54827,-1.49405 4.710778,-1.33154 0.06421,0.0642 -0.655678,1.0865 -1.59975,2.27176 -1.102934,1.38471 -2.590585,3.83879 -4.161846,6.86552 -1.344944,2.59078 -2.791373,5.1303 -3.214288,5.64337 -0.891154,1.08112 -3.663931,2.55784 -4.802756,2.55784 -0.749161,0 -0.765706,-0.0249 -0.394909,-0.59531 z m 23.118394,-1.5875 c -0.209084,-0.32742 -1.075032,-1.99966 -1.924328,-3.71608 l -1.544176,-3.12078 0.561391,-0.96896 c 0.308765,-0.53293 0.665953,-1.00214 0.79375,-1.04269 0.259908,-0.0825 3.330977,3.95552 4.16149,5.47173 0.475655,0.86838 0.496312,1.07225 0.18483,1.82424 -0.414986,1.00186 -1.275884,2.14785 -1.613524,2.14785 -0.131604,0 -0.410349,-0.26789 -0.619433,-0.59531 z m -39.84871,-0.23202 c 0,-0.164 1.02645,-2.15829 2.28101,-4.43177 5.61675,-10.17855 6.73331,-11.0216 16.484964,-12.44676 5.874381,-0.85851 5.999594,-0.79781 3.443995,1.66975 -1.964602,1.89691 -2.909955,3.16486 -6.188527,8.30029 -2.834969,4.44059 -2.431642,4.13842 -5.85431,4.38595 -0.961868,0.0696 -3.222952,0.65898 -5.633202,1.46846 -4.34424,1.459 -4.53393,1.5031 -4.53393,1.05408 z M 4.5611435,397.54103 c -1.344039,-0.9414 -2.343041,-5.15732 -1.690557,-7.13437 0.332201,-1.00658 3.59032,-4.65078 4.158056,-4.65078 0.169503,0 0.67114,0.94116 1.114748,2.09148 l 0.80656,2.09148 -1.416125,3.00175 c -0.778869,1.65096 -1.55912,3.44823 -1.73389,3.99393 -0.354852,1.108 -0.453713,1.1564 -1.238792,0.60651 z m -68.3476755,-7.75026 c 0.02947,-1.23057 2.396856,-4.25436 5.233537,-6.68465 0.931679,-0.79821 2.601122,-2.25779 3.709872,-3.24351 1.181241,-1.05018 2.407687,-1.89773 2.962138,-2.04703 0.751535,-0.20237 7.199497,-1.05553 7.977387,-1.05553 0.102194,0 -0.03101,0.62507 -0.296005,1.38906 -0.508673,1.4665 -3.969548,9.77462 -4.15329,9.97032 -0.05917,0.063 -1.683211,0.21162 -3.608971,0.33021 -4.454363,0.27432 -9.281405,0.93098 -10.45834,1.42273 -1.178945,0.4926 -1.379793,0.4806 -1.366328,-0.0816 z m 74.005943,-3.87595 c -0.5619895,-1.1785 -0.8259755,-2.64079 -0.6228485,-3.45011 0.252395,-1.00562 3.2470935,-4.81957 4.5886015,-5.84389 1.919537,-1.46567 2.070492,-1.35729 2.469416,1.77303 l 0.343084,2.69213 -1.173165,0.9319 c -0.64524,0.51254 -2.006601,1.8019 -3.025247,2.86523 -1.018646,1.06334 -1.919329,1.93284 -2.001517,1.93222 -0.08219,-6.1e-4 -0.342434,-0.40585 -0.578324,-0.90051 z m -17.7977815,-1.42481 c -0.875714,-0.42362 -2.253883,-1.35389 -3.0625985,-2.06728 -3.961989,-3.49495 -14.81844,-16.34495 -15.337107,-18.15344 -0.317682,-1.10769 0.540547,-2.95892 2.212906,-4.77331 1.763406,-1.91317 1.977124,-1.83015 5.085137,1.9752 7.191987,8.80565 12.0419545,14.19043 13.4499685,14.93311 1.320464,0.6965 2.815774,-0.0844 2.815774,-1.47039 0,-1.30217 -1.080509,-2.93609 -8.2689035,-12.50404 -3.971999,-5.28683 -7.076929,-9.66102 -7.076929,-9.96989 0,-0.95626 4.114295,-6.65617 4.804544,-6.65617 0.111552,0 0.702798,0.74414 1.313879,1.65364 1.100679,1.6382 3.7155965,5.05573 9.3823315,12.26208 4.934974,6.27578 6.94686,9.61343 7.678692,12.73868 0.824778,3.52218 -0.06968,6.12265 -3.173533,9.22651 -2.306482,2.30648 -4.176152,3.28531 -6.607635,3.45928 -1.393578,0.0997 -1.850501,0.007 -3.216526,-0.65398 z m 26.9900495,-5.9414 c -0.08768,-0.47439 -0.123059,-1.80502 -0.07863,-2.95696 l 0.08078,-2.09445 3.307291,-2.01195 c 1.819011,-1.10658 4.497917,-2.84807 5.953126,-3.86998 1.455208,-1.0219 2.976794,-2.06636 3.381302,-2.321 l 0.73547,-0.46298 -0.178899,0.73886 c -0.09839,0.40637 -0.278722,1.00975 -0.400729,1.34084 -0.122007,0.33109 -0.347371,1.38784 -0.500809,2.34832 -0.482246,3.01875 -0.993412,3.58071 -5.674343,6.23825 -1.313992,0.746 -3.043919,1.79341 -3.844284,2.32757 -2.555297,1.70539 -2.596807,1.7162 -2.780281,0.72348 z m -61.356259,-7.66494 c 0.351704,-0.59564 5.678884,-7.30066 6.035682,-7.59678 0.347108,-0.28807 3.074829,-0.89524 3.247259,-0.72281 0.180144,0.18015 -3.834362,5.35839 -4.901818,6.32277 -1.150135,1.03908 -2.617786,1.86528 -3.832897,2.15771 -0.572552,0.1378 -0.702134,0.0998 -0.548226,-0.16089 z m 49.9381095,-2.52415 c -4.610485,-5.71576 -11.006519,-14.49066 -17.378591,-23.84218 -1.4196345,-2.08343 -1.3292375,-2.50594 1.024436,-4.78817 1.92545,-1.86701 2.02616,-1.92603 3.051519,-1.7885 0.587768,0.0788 2.324081,0.84639 3.895814,1.72218 5.59379,3.11695 9.201096,5.14853 10.111502,5.69465 0.563891,0.33826 0.813344,0.40481 0.637867,0.17017 -2.628702,-3.51497 -8.851162,-11.92493 -9.186938,-12.4166 -0.919096,-1.34581 -0.493512,-2.46501 1.954631,-5.14029 1.178408,-1.28774 3.042513,-2.557 3.267269,-2.22467 0.03037,0.0449 1.903162,2.64149 4.161762,5.77019 4.8278585,6.68773 4.9254915,6.83185 10.6645275,15.7427 5.512481,8.55909 5.288049,8.13538 4.799933,9.06198 -0.210807,0.40019 -1.031327,1.36261 -1.823378,2.13872 -1.320565,1.29399 -1.541626,1.41111 -2.663439,1.41111 -1.225055,0 -3.202014,-0.91791 -8.637234,-4.0103 -0.945885,-0.53817 -2.6650625,-1.49406 -3.8203935,-2.1242 l -2.100602,-1.1457 3.417498,4.21336 c 1.8796255,2.31735 4.0452865,4.95911 4.8125815,5.87058 1.489619,1.7695 1.611627,2.20714 1.014048,3.63735 -0.455082,1.08917 -2.617988,3.46439 -3.632393,3.98896 -1.277086,0.6604 -1.6238895,0.47184 -3.5704195,-1.94134 z m 26.7629885,0.18852 c -0.226782,-0.71453 0.266794,-2.1202 1.564418,-4.45537 1.047541,-1.88513 1.197464,-2.02616 4.391857,-4.13129 3.492691,-2.3017 4.482769,-2.88384 4.639001,-2.72761 0.168107,0.16811 -1.431764,6.51717 -1.785457,7.08556 -0.286841,0.46096 -5.442843,3.35245 -7.90174,4.4313 -0.661556,0.29026 -0.75852,0.26863 -0.908079,-0.20259 z m 19.73212,-5.74477 c -0.485587,-0.39425 -0.642673,-1.03204 -1.057771,-4.29468 -0.27831,-2.18749 -0.396973,-4.06975 -0.276539,-4.38651 0.119213,-0.31356 1.026731,-0.98353 2.086793,-1.54058 1.031711,-0.54215 1.875839,-1.03703 1.875839,-1.09973 0,-0.0627 -0.611339,0.12697 -1.358532,0.42148 -1.415019,0.55775 -1.932845,0.58723 -1.609552,0.0916 0.3182,-0.48779 9.997699,-5.91691 10.854775,-6.08833 0.981845,-0.19637 0.920108,-0.30392 3.43406,5.98265 2.278839,5.69864 2.271035,5.67244 1.89777,6.36989 -0.612573,1.14461 -8.080706,4.10512 -11.931839,4.73002 -2.380806,0.38632 -3.261812,0.34449 -3.915004,-0.18585 z m 7.312881,-4.96659 c 1.688191,-0.70537 1.696332,-0.73289 0.879477,-2.97343 -0.406487,-1.11494 -0.84242,-2.06115 -0.968739,-2.10268 -0.342821,-0.11271 -1.944862,0.92545 -2.11589,1.37115 -0.08176,0.21306 -0.0075,1.22441 0.165082,2.24744 0.344875,2.04465 0.451885,2.12111 2.04007,1.45752 z m -95.106549,2.46553 c 0.317367,-0.82704 2.587845,-4.17966 2.830574,-4.17966 0.139545,0 0.869091,-0.61538 1.621212,-1.3675 1.481837,-1.48183 1.526242,-1.33543 0.374639,1.2352 -1.158022,2.58497 -2.587978,4.12087 -4.207834,4.5196 -0.623216,0.15341 -0.741857,0.11359 -0.618591,-0.20764 z m 65.021989,-2.08722 c 0.654844,-0.583 2.046465,-1.71016 3.092492,-2.50479 l 1.901868,-1.4448 0.723867,0.67086 c 0.436408,0.40445 0.626779,0.7645 0.479383,0.90666 -0.677454,0.65338 -6.141971,3.45312 -6.720689,3.44334 -0.629694,-0.0106 -0.600035,-0.0714 0.523079,-1.07127 z m 6.337301,-3.5633 -0.648759,-0.6927 0.79375,-0.64423 c 1.061971,-0.86193 5.326692,-3.51833 6.152678,-3.83237 1.506806,-0.57289 1.925651,1.189 0.528052,2.22126 -0.965105,0.71283 -5.194676,3.2638 -5.790612,3.49249 -0.219255,0.0841 -0.666938,-0.15134 -1.035109,-0.54445 z m 39.253646,-0.44737 c -0.904507,-0.99939 -4.603051,-7.80513 -4.756911,-8.75325 -0.136914,-0.8437 -0.04274,-0.97391 1.801896,-2.49156 1.070498,-0.88073 2.42261,-2.10919 3.004693,-2.72991 0.842709,-0.89864 0.49232,-0.69647 -1.719791,0.9923 -3.771591,2.87931 -3.801923,2.89307 -4.47925,2.03199 -0.301308,-0.38305 -0.547834,-0.846 -0.547834,-1.02877 0,-0.18277 1.16086,-1.26038 2.579688,-2.3947 3.036061,-2.42725 5.488846,-4.5029 7.392495,-6.25585 0.755273,-0.69549 1.596201,-1.26452 1.868728,-1.26452 0.272527,0 0.803175,0.32742 1.179218,0.7276 1.656734,1.76309 7.352788,11.62509 7.352788,12.73043 0,0.72368 -0.592021,1.28111 -4.625804,4.35558 -3.63243,2.76856 -6.823658,4.67597 -7.823231,4.67597 -0.37834,0 -0.930348,-0.26789 -1.226685,-0.59531 z m 5.044308,-6.79069 c 1.91356,-1.31657 1.940067,-1.40519 0.924688,-3.09141 -0.490729,-0.81495 -1.276329,-1.91631 -1.745778,-2.44747 l -0.853544,-0.96575 -0.530028,0.66146 c -1.125888,1.40508 -1.170149,2.13909 -0.269769,4.47385 0.454056,1.1774 0.944278,2.14074 1.089382,2.14074 0.145105,0 0.768377,-0.34714 1.385049,-0.77142 z m -112.628691,6.95228 c -0.08154,-0.0815 -0.04527,-0.40425 0.08059,-0.71716 0.125862,-0.3129 0.428632,-1.46188 0.672825,-2.55329 1.491141,-6.66458 2.963955,-10.64208 4.652912,-12.56569 0.862395,-0.98222 5.974197,-4.53333 6.200265,-4.30726 0.316748,0.31675 -8.079536,17.78686 -8.838012,18.38922 -1.321782,1.04972 -2.638667,1.8841 -2.768582,1.75418 z m 57.675141,-3.03927 c -1.359588,-1.41207 -4.980855,-6.06719 -7.48652,-9.62389 -2.855254,-4.05292 -12.0076845,-19.09454 -12.0076845,-19.7341 0,-0.57222 5.0707185,-5.36846 6.2847395,-5.94455 1.077988,-0.51154 0.331943,-0.92653 9.193385,5.1138 3.638021,2.47982 6.650775,4.47363 6.69501,4.43069 0.04424,-0.0429 -2.19768,-3.55931 -4.982033,-7.81414 -2.784352,-4.25484 -5.119635,-7.88507 -5.189518,-8.06718 -0.07111,-0.18532 1.132274,-1.41463 2.733074,-2.79193 1.573073,-1.35346 3.140429,-2.7075 3.483011,-3.009 l 0.622878,-0.54817 0.632187,0.81372 c 1.189268,1.53075 11.160198,17.34026 16.500846,26.16309 1.493917,2.46797 3.119291,5.08575 3.611942,5.8173 0.492651,0.73154 0.895729,1.47377 0.895729,1.6494 0,0.3732 -1.087766,1.2914 -4.336787,3.66077 -1.767936,1.28928 -2.569378,1.71551 -3.225666,1.71551 -0.687858,0 -2.175948,-0.87466 -7.009125,-4.1198 -3.374727,-2.26589 -6.614102,-4.42169 -7.19861,-4.79068 l -1.062743,-0.67088 1.815376,2.60787 c 0.998457,1.43433 3.040241,4.32228 4.537298,6.41767 3.223284,4.51155 3.378574,5.11913 1.764917,6.90526 -1.226128,1.35717 -3.218483,2.81997 -4.164104,3.05731 -0.64917,0.16293 -0.901231,0.0149 -2.107602,-1.23807 z m 21.160344,-3.09628 c -0.240835,-0.26612 -0.437882,-0.61552 -0.437882,-0.77645 0,-0.16093 2.359384,-1.89188 5.243076,-3.84655 2.883692,-1.95467 5.992415,-4.10558 6.908273,-4.7798 1.882781,-1.38602 2.668147,-1.51165 3.603386,-0.57641 0.772219,0.77221 0.798651,0.98902 0.186411,1.52901 -0.515442,0.45461 -4.151121,2.92887 -5.685863,3.86951 l -0.989509,0.60647 -0.771127,-0.54909 c -0.424119,-0.302 -0.990871,-0.54588 -1.259449,-0.54197 -0.379108,0.006 -0.28454,0.17609 0.422835,0.76263 l 0.911158,0.75551 -1.896463,1.2156 c -4.492663,2.87972 -5.423671,3.22788 -6.234846,2.33154 z m 46.998326,-10.05851 c -3.270587,-3.99401 -5.632042,-7.27974 -5.632042,-7.83644 0,-0.48298 1.139487,-2.55139 3.6129,-6.55818 0.06737,-0.10914 0.06579,-0.19843 -0.0035,-0.19843 -0.06931,0 -1.092911,1.30968 -2.274671,2.91041 -1.18176,1.60073 -2.254038,2.91042 -2.38284,2.91042 -0.310192,0 -1.862286,-1.31278 -1.862286,-1.57515 0,-0.11285 1.044655,-1.50125 2.321457,-3.08533 1.276801,-1.58408 2.904628,-3.71358 3.617394,-4.73223 2.702329,-3.86202 3.223041,-4.05769 5.456609,-2.05052 3.400825,3.05612 8.712875,9.46461 8.712875,10.51127 0,0.78054 -4.97607,7.5334 -7.169388,9.72936 -2.074963,2.07745 -2.677524,2.074 -4.396489,-0.0252 z m 4.579796,-7.56746 0.95682,-1.44108 -0.53985,-0.75815 c -0.659679,-0.92643 -2.671031,-2.80321 -3.45235,-3.22136 -0.755132,-0.40413 -0.961826,-0.24125 -1.507728,1.18818 -0.453132,1.18651 -0.451323,1.20988 0.158473,2.04778 1.108013,1.52249 2.96316,3.6257 3.198068,3.6257 0.126357,0 0.660311,-0.64848 1.186567,-1.44107 z m -33.911424,5.4962 c -0.360563,-0.38905 -0.622768,-0.80242 -0.582678,-0.91859 0.04009,-0.11618 1.382577,-1.29066 2.983306,-2.60996 1.60073,-1.31931 3.148542,-2.61096 3.439584,-2.87035 0.291041,-0.25938 1.816544,-1.62751 3.390006,-3.04029 l 2.860839,-2.56867 1.041765,0.5855 c 1.793205,1.00784 1.511414,1.59143 -2.439457,5.05213 -0.955262,0.83674 -1.888175,1.52135 -2.073141,1.52135 -0.184967,0 -0.743572,-0.2517 -1.241345,-0.55934 -1.202704,-0.74332 -1.490722,-0.38862 -0.386297,0.47572 l 0.87165,0.68217 -1.01201,1.04197 c -0.556606,0.57308 -1.853666,1.68856 -2.882355,2.47885 -2.154035,1.65483 -2.972863,1.8053 -3.969867,0.72951 z m -16.853037,-3.48153 c -1.232202,-1.98897 -4.256857,-6.83099 -6.721456,-10.76005 -4.209423,-6.71066 -7.085428,-11.39744 -11.201491,-18.25411 l -1.745838,-2.90827 3.584755,-2.84642 c 1.971616,-1.56552 3.79002,-2.84641 4.0409,-2.84641 0.250879,0 0.914716,0.62508 1.475191,1.38906 1.330261,1.81328 20.836789,33.13964 21.09422,33.8761 0.06372,0.18229 -1.229236,1.17983 -2.988487,2.30567 -1.705437,1.09141 -3.595037,2.36155 -4.199111,2.82255 l -1.098316,0.83818 z m -60.095097,0.81547 c 1.4180205,-2.13187 3.2500375,-5.42214 5.1498155,-9.24899 1.310061,-2.63895 2.425309,-4.53761 2.899899,-4.93695 0.786564,-0.66185 3.352813,-1.65943 3.609225,-1.40302 0.225607,0.22561 -0.447305,2.01741 -1.303435,3.47072 -0.433012,0.73506 -2.826983,3.76416 -5.319935,6.73133 -2.492952,2.96718 -4.6648275,5.55679 -4.8263905,5.75469 -0.537435,0.65831 -0.700726,0.37121 -0.209179,-0.36778 z m -12.774203,-4.72595 c -0.236053,-0.61514 1.008973,-4.82154 3.006269,-10.15687 2.252386,-6.01674 3.765107,-9.04423 4.741294,-9.48901 1.054714,-0.48056 8.8778065,-1.61484 11.1697955,-1.61953 2.260046,-0.005 2.212882,-0.3392 0.521587,3.70021 -1.673133,3.99604 -4.212815,8.70151 -5.431189,10.06281 -0.8365605,0.9347 -2.4296845,2.00224 -6.2710935,4.20223 -6.665995,3.81764 -7.415417,4.13731 -7.736663,3.30016 z m 12.098029,-11.00522 c 0.892669,-0.88972 2.8303215,-4.60008 2.5491325,-4.88127 -0.294434,-0.29443 -3.6229365,0.62593 -4.2386935,1.17204 -0.396784,0.3519 -3.08446,5.60049 -3.08446,6.02344 0,0.30101 4.186052,-1.72818 4.774021,-2.31421 z m 71.908867,6.60304 c -3.212782,-4.29393 -6.994367,-10.04723 -10.651855,-16.20573 -7.486235,-12.60536 -9.145617,-15.4819 -9.145617,-15.85397 0,-0.48275 2.812889,-2.86824 4.241591,-3.59711 1.39003,-0.70914 2.215259,-0.66175 4.113443,0.23625 1.535661,0.7265 9.880024,5.82203 13.190048,8.05457 l 1.56904,1.05829 -0.559228,-0.90485 c -1.776147,-2.87387 -7.278937,-12.70637 -7.639418,-13.65027 -0.527321,-1.38077 -0.327011,-2.3018 0.711614,-3.27202 1.09334,-1.02134 3.468927,-2.56532 4.247782,-2.7608 1.428381,-0.3585 2.467237,1.05061 8.971554,12.16908 2.383636,4.07458 5.716824,9.73005 7.407086,12.56771 5.753631,9.65935 5.645934,9.36145 4.030773,11.14924 -1.90739,2.11126 -3.839145,2.92195 -5.398023,2.26538 -0.488017,-0.20554 -3.447148,-2.03272 -6.575846,-4.06039 -7.464975,-4.83795 -9.785451,-6.27156 -9.925161,-6.13185 -0.06324,0.0633 0.205391,0.58447 0.596967,1.15828 0.391576,0.57381 2.65061,4.07133 5.020075,7.77226 5.016092,7.83476 5.053938,7.95187 3.214625,9.94728 -1.168534,1.26771 -4.017585,3.2998 -4.626424,3.2998 -0.202374,0 -1.459236,-1.45852 -2.793026,-3.24115 z m 20.958668,-1.83583 c -0.296711,-0.31848 -0.539474,-0.64825 -0.539474,-0.73283 0,-0.0846 1.120568,-1.26968 2.490152,-2.63357 l 2.490151,-2.47979 1.004261,0.40055 c 0.552344,0.2203 1.044646,0.5217 1.094004,0.66978 0.09141,0.27424 -2.701832,3.67036 -3.903568,4.7461 -0.848215,0.75927 -1.94435,0.77165 -2.635526,0.0298 z m 28.348137,-1.89436 c -0.58321,-0.48725 -2.23158,-2.02166 -3.66306,-3.40979 -1.43147,-1.38813 -3.24764,-3.0707 -4.03593,-3.73904 -1.75237,-1.48574 -2.399176,-2.42744 -2.401461,-3.49632 -0.0025,-1.14749 2.017521,-6.67936 2.826231,-7.73989 0.82547,-1.0825 2.10814,-1.8934 2.99706,-1.89472 1.26854,-0.002 5.83098,3.06471 7.8714,5.29068 0.33348,0.3638 1.31208,1.63777 2.17466,2.83105 l 1.56834,2.16958 -0.89403,2.75833 c -1.47365,4.54658 -3.63285,8.11604 -4.90949,8.11604 -0.26034,0 -0.95052,-0.39866 -1.53372,-0.88592 z m 1.80065,-9.47846 c 0.004,-0.56392 -2.31941,-2.60488 -4.01902,-3.52992 -0.71773,-0.39064 -1.34715,-0.66806 -1.39872,-0.6165 -0.19905,0.19905 -0.35511,3.04232 -0.18233,3.32188 0.10028,0.16226 1.1342,1.08708 2.29759,2.05516 l 2.11526,1.76013 0.59191,-1.27412 c 0.32555,-0.70077 0.59344,-1.47325 0.59531,-1.71663 z m -8.81169,-6.35398 c -0.0845,-0.21106 -0.14715,-0.14837 -0.15985,0.15985 -0.0115,0.27892 0.0511,0.43519 0.13896,0.34727 0.0879,-0.0879 0.0973,-0.31612 0.0209,-0.50712 z m -15.460425,12.15516 c -0.472943,-0.15172 -0.859896,-0.36189 -0.859896,-0.46705 0,-0.34055 4.164533,-4.181 5.005259,-4.61575 0.448566,-0.23197 0.815129,-0.3294 0.814585,-0.21652 -0.0026,0.53224 -3.592635,5.65421 -3.92666,5.60218 -0.09537,-0.0149 -0.560345,-0.15115 -1.033288,-0.30286 z m -87.9078115,-2.08987 c 0,-0.67232 3.509119,-7.04899 5.584479,-10.14797 2.922911,-4.36456 3.641671,-5.06395 5.6106055,-5.45936 0.834638,-0.16762 1.595558,-0.22673 1.690931,-0.13136 0.29791,0.29791 -0.68429,2.02927 -2.9444235,5.19023 -1.197993,1.67548 -2.928735,4.17742 -3.846094,5.55986 -1.934432,2.91517 -2.75215,3.85907 -3.831083,4.42226 -1.152624,0.60165 -2.264415,0.87972 -2.264415,0.56634 z m 7.92207,-10.14025 c 1.771716,-2.64712 1.817154,-2.84521 0.27488,-1.19834 -1.190695,1.27144 -2.376117,3.06432 -2.376117,3.59373 0,0.41003 0.943331,-0.66536 2.101237,-2.39539 z m 3.1904295,5.3069 c 0,-0.28645 4.980221,-7.00588 6.827011,-9.21116 1.856032,-2.21631 3.269082,-3.11492 4.898191,-3.11492 0.536138,0 0.974797,0.0911 0.974797,0.20241 0,0.11132 -1.458515,1.63771 -3.241145,3.39196 -3.936931,3.87426 -9.458854,8.97169 -9.458854,8.73171 z m 76.199999,-6.51698 c -3.172146,-0.64816 -7.222784,-3.52163 -10.240238,-7.26431 -5.346814,-6.63187 -8.476824,-15.2587 -7.218677,-19.89587 1.453626,-5.35765 6.656051,-9.46643 13.871802,-10.95569 5.483749,-1.13179 9.937113,-0.0736 9.937113,2.36115 0,1.32579 -0.91236,2.05805 -5.368406,4.30869 -8.444455,4.26507 -9.398279,5.48341 -7.740663,9.88729 2.226897,5.91632 7.05784,11.25173 10.187872,11.25173 2.243282,0 4.517984,-1.96483 4.502887,-3.88947 -0.0077,-0.98629 -0.920027,-2.95547 -1.466344,-3.16511 -0.239846,-0.092 -0.962414,0.0884 -1.605709,0.40091 -1.318909,0.64078 -2.431581,0.72655 -3.081087,0.23752 -0.674388,-0.50777 -3.101466,-4.70569 -3.101466,-5.36436 0,-0.32095 0.226667,-0.87171 0.503705,-1.2239 0.596051,-0.75776 4.695198,-3.3613 8.22383,-5.2233 l 2.509828,-1.32439 1.6737,2.55612 c 2.331421,3.5606 3.934701,6.92947 4.607511,9.68146 0.51592,2.11026 0.54238,2.55127 0.26658,4.44356 -0.42034,2.88395 -1.69246,5.24023 -4.181881,7.74585 -4.212789,4.24021 -8.605043,6.18309 -12.280357,5.43212 z m -98.917928,-2.19356 c -0.482455,-0.58132 -0.104387,-1.62442 1.68838,-4.65829 1.7396895,-2.94405 5.7450255,-8.85036 6.7098105,-9.89436 0.68577,-0.74207 0.719398,-0.74874 2.942655,-0.58355 5.27059,0.3916 12.1708335,1.5864 12.1708335,2.10741 0,0.57621 -9.1404675,11.47737 -10.2375275,12.20955 -0.597281,0.39862 -1.46787,0.52992 -4.446847,0.67068 -2.037292,0.0963 -4.778434,0.26358 -6.091427,0.37182 -2.0199935,0.16652 -2.4408935,0.13217 -2.7358775,-0.22326 z m 11.2085545,-4.92769 c 1.046623,-0.23853 2.30374,-1.37679 4.053144,-3.66994 0.528485,-0.69274 0.596741,-0.92764 0.319366,-1.09907 -0.515396,-0.31853 -3.089166,-0.59851 -3.705043,-0.40304 -0.496878,0.15771 -3.054725,3.09326 -4.093757,4.69826 l -0.471028,0.72761 1.419492,-0.006 c 0.780721,-0.003 1.895742,-0.11485 2.477826,-0.24751 z m 118.6656215,3.75361 c -0.50933,-0.24911 -2.78125,-2.29933 -5.04872,-4.55605 -3.4006,-3.38446 -4.17934,-4.30225 -4.44612,-5.24003 -0.39125,-1.37529 -0.14143,-3.4672 0.44074,-3.6906 0.85644,-0.32865 5.50373,2.7391 8.45847,5.58355 1.05485,1.01548 1.98633,1.77791 2.06995,1.6943 0.29522,-0.29522 -1.24909,-3.09833 -2.4315,-4.41345 -0.65878,-0.73273 -2.52863,-2.27206 -4.1552,-3.42073 -4.08339,-2.88366 -3.99704,-2.76219 -4.10823,-5.77931 l -0.0925,-2.5097 0.59392,0.31786 c 0.32665,0.17481 2.25061,1.55518 4.27546,3.06748 3.72819,2.78446 5.16969,3.69662 5.43019,3.43611 0.49465,-0.49465 -2.36681,-3.29508 -6.71938,-6.57606 -2.66955,-2.01232 -4.19475,-3.38851 -5.48843,-4.9522 -0.98534,-1.191 -1.71112,-2.24578 -1.61285,-2.34394 0.0983,-0.0982 1.23112,-0.16161 2.51746,-0.14098 2.93552,0.0471 4.29363,0.62347 7.41497,3.1471 2.77282,2.24185 3.92377,3.03311 4.4119,3.03311 0.50283,0 -0.22602,-1.01336 -3.04477,-4.23333 -4.09768,-4.68096 -5.53952,-5.47623 -11.24962,-6.20492 -3.66609,-0.46785 -4.85658,-1.06301 -8.235852,-4.11735 -3.300208,-2.98288 -4.532311,-3.52623 -7.951777,-3.50664 -2.032668,0.0116 -2.807294,0.15834 -5.291666,1.00214 -3.369467,1.14442 -4.265157,1.18473 -5.838309,0.26281 -2.014417,-1.18053 -1.956144,-1.29857 1.864627,-3.77715 3.357349,-2.17796 8.60389,-6.07045 8.60389,-6.38336 0,-0.4563 -2.144926,0.24424 -4.709868,1.53826 -1.411395,0.71205 -4.352111,2.25773 -6.534923,3.43484 -2.442982,1.31742 -4.273713,2.14035 -4.762004,2.14058 -0.947449,4.4e-4 -6.482788,-1.80222 -6.482788,-2.11122 0,-0.11866 2.027411,-1.25723 4.505357,-2.53014 5.211332,-2.67705 8.313915,-4.53575 9.252976,-5.54328 l 0.661459,-0.70969 -1.058334,0.17441 c -2.017536,0.33248 -4.746865,1.24853 -10.429323,3.50041 -7.221043,2.8616 -9.141167,3.51571 -10.320276,3.51571 -0.93127,0 -7.331909,-1.97244 -7.802339,-2.4044 -0.271854,-0.24962 0.59446,-0.62565 2.720489,-1.18084 1.135348,-0.29649 1.772937,-0.31134 3.175,-0.0739 1.676585,0.2839 1.864437,0.25909 4.237048,-0.55946 1.365475,-0.4711 3.330006,-1.26302 4.365625,-1.75983 l 1.882943,-0.9033 -2.014973,0.1414 c -1.108235,0.0778 -3.489485,0.55625 -5.291666,1.06327 -1.802182,0.50703 -4.884038,1.33867 -6.848569,1.84809 l -3.571875,0.92621 -2.454264,-0.8431 c -1.349846,-0.46371 -2.413259,-0.96612 -2.363141,-1.11647 0.378962,-1.13689 17.405665,-7.40277 23.448884,-8.62927 16.378438,-3.32407 33.528999,2.41894 44.215549,14.80596 2.29342,2.65836 4.65442,6.18673 6.21846,9.29311 4.57189,9.08037 6.06454,22.28168 3.64701,32.25506 -0.91247,3.76436 -2.12657,4.97123 -4.05312,4.02896 z m -104.928237,-5.3862 c 2.131018,-2.56413 10.346639,-11.12107 11.160263,-11.62391 0.781689,-0.48311 1.190822,-0.55653 2.403693,-0.43135 0.803913,0.083 1.519528,0.20872 1.590255,0.27945 0.406349,0.40635 -0.742553,1.81562 -5.030478,6.17054 -5.270722,5.35307 -6.203204,5.99574 -9.160887,6.31376 l -1.703937,0.18322 z m 8.03131,-5.6698 c 2.553803,-2.38301 3.763807,-3.82087 3.215384,-3.82087 -0.357805,0 -5.441011,4.89914 -5.833635,5.62239 -0.504341,0.92905 0.243204,0.4147 2.618251,-1.80152 z m 3.499013,4.8457 c 0,-0.1811 2.132238,-2.43585 4.738307,-5.01056 5.245473,-5.18236 5.350677,-5.24387 8.099523,-4.73572 0.850771,0.15728 1.58452,0.28596 1.630554,0.28596 0.04603,0 0.0837,0.16143 0.0837,0.35875 0,0.62661 -9.237577,8.39691 -10.773273,9.06206 -1.08763,0.47109 -3.77881,0.49922 -3.77881,0.0395 z m -13.361458,-12.555 c -2.0372915,-0.5055 -4.3168795,-1.01607 -5.0657515,-1.13461 -2.25186,-0.35645 -2.474873,-0.4794 -2.474873,-1.36444 0,-0.60688 0.36081,-1.17447 1.521354,-2.39324 1.788849,-1.87859 7.9431625,-7.48029 9.2077495,-8.38096 l 0.87784,-0.62521 3.126215,0.72189 c 5.864541,1.35421 9.745994,2.75399 10.018651,3.61305 0.211508,0.66641 -0.374388,1.53656 -1.787315,2.65445 -0.625004,0.49449 -2.875688,2.29182 -5.001519,3.99406 -3.729278,2.98617 -5.24866,3.92591 -6.246665,3.86356 -0.259335,-0.0162 -2.138394,-0.44305 -4.175686,-0.94855 z m -2.9104165,-1.93241 c 0.263389,-0.29104 0.419358,-0.52916 0.346597,-0.52916 -0.07276,0 -0.347791,0.23812 -0.611181,0.52916 -0.263389,0.29104 -0.419357,0.52917 -0.346597,0.52917 0.07276,0 0.347792,-0.23813 0.611181,-0.52917 z m 1.322916,-1.05833 c 0.26339,-0.29104 0.419358,-0.52917 0.346598,-0.52917 -0.07276,0 -0.347792,0.23813 -0.611181,0.52917 -0.263389,0.29104 -0.419358,0.52917 -0.346597,0.52917 0.07276,0 0.347791,-0.23813 0.61118,-0.52917 z m 9.3559165,-2.92918 c 1.183784,-0.93557 2.152587,-1.77196 2.152897,-1.85865 3.09e-4,-0.0867 -0.89894,-0.35528 -1.998333,-0.59686 -2.36114,-0.51882 -2.379344,-0.51242 -5.012563,1.76106 -2.702552,2.33334 -2.72744,2.35759 -2.248958,2.19175 0.218281,-0.0757 0.813593,-0.0285 1.322916,0.10469 0.509323,0.13323 1.534816,0.21002 2.278874,0.17064 1.217209,-0.0644 1.568605,-0.24213 3.505167,-1.77263 z m 21.644082,5.96993 c -0.703543,-0.19333 -1.348934,-0.42128 -1.434203,-0.50655 -0.259817,-0.25982 0.970775,-1.42498 4.433163,-4.19746 3.624442,-2.90224 4.701172,-3.49252 5.934763,-3.25351 1.4079,0.27279 3.590237,1.01233 3.590237,1.21665 0,0.20496 -1.17225,1.11611 -5.159375,4.01022 -4.751358,3.44883 -4.75126,3.44879 -7.364585,2.73065 z m 5.00178,-2.84341 c 0.571939,-0.3648 1.490858,-1.02525 2.042042,-1.46765 0.919897,-0.73835 0.957572,-0.81852 0.459012,-0.97676 -0.347221,-0.1102 -0.894076,0.0445 -1.516026,0.42889 -1.061412,0.65599 -3.592986,2.82002 -3.742443,3.1991 -0.126374,0.32054 1.480835,-0.36934 2.757415,-1.18358 z m -17.028583,0.90088 c -0.350061,-0.22209 2.706745,-2.75717 7.220071,-5.98779 3.066328,-2.19486 3.402889,-2.33633 5.064466,-2.12873 0.780071,0.0975 1.41831,0.30664 1.41831,0.46483 0,0.61492 -6.995567,6.39487 -8.939031,7.38571 -1.009223,0.51453 -4.100046,0.6871 -4.763816,0.26598 z m 26.058888,-8.02473 c -0.844021,-0.29411 -1.493463,-0.6581 -1.443204,-0.80888 0.05026,-0.15077 1.931446,-1.32548 4.180416,-2.61045 3.038921,-1.73633 4.336042,-2.33861 5.050842,-2.34524 1.243478,-0.0115 3.71204,0.78508 3.5893,1.15827 -0.112104,0.34086 -4.928618,3.28685 -7.196937,4.40197 -1.843803,0.90642 -2.125969,0.92021 -4.180417,0.20433 z m -10.107083,-2.55347 c -0.436562,-0.10038 -0.78661,-0.3004 -0.777883,-0.44449 0.0087,-0.14409 1.854196,-1.3747 4.101042,-2.73468 4.029079,-2.43873 4.104068,-2.47081 5.461157,-2.33557 2.601076,0.2592 2.582358,0.47349 -0.198604,2.27368 -4.55657,2.9496 -6.561568,3.70647 -8.585712,3.24106 z M 33.965917,266.5069 c -2.141553,-0.45233 -6.782154,-2.18821 -6.607089,-2.47147 0.08034,-0.12999 1.136736,-0.77636 2.347556,-1.43638 2.195523,-1.19678 2.206074,-1.19939 3.891971,-0.96377 1.840948,0.2573 1.865188,0.25145 5.791521,-1.39707 1.430048,-0.60043 2.008103,-0.94712 1.5875,-0.95212 -0.363803,-0.004 -1.412565,-0.24332 -2.330583,-0.5311 -1.912975,-0.59968 -1.696526,-0.66431 -5.690615,1.69925 -3.03076,1.79349 -6.173907,3.32873 -6.81502,3.32873 -0.657064,0 -3.123948,-0.69797 -3.65428,-1.03393 -0.243115,-0.15401 -0.308026,-0.46533 -0.192767,-0.92456 0.128448,-0.51177 0.948667,-1.20103 3.144664,-2.64255 4.090266,-2.68499 8.937396,-5.61765 9.639216,-5.83203 1.40221,-0.42831 8.730895,1.58426 14.070999,3.86412 1.154391,0.49285 1.157678,0.49808 0.661459,1.05283 -0.794584,0.8883 -5.704048,4.09346 -8.647506,5.64555 -3.920756,2.06742 -6.0531,2.83612 -7.197026,2.5945 z m 34.395834,-2.55145 c -2.801925,-1.04787 -2.807386,-1.05612 -1.322595,-1.99775 1.512608,-0.95926 1.929537,-0.99288 3.901153,-0.31455 2.32873,0.80121 2.680105,1.03968 2.267171,1.53874 -0.401921,0.48575 -2.277039,1.38697 -2.861354,1.37523 -0.218281,-0.004 -1.11125,-0.27514 -1.984375,-0.60167 z M 58.23396,261.15706 c -1.059139,-0.26172 -1.99122,-0.54137 -2.071292,-0.62144 -0.168071,-0.16807 1.692299,-1.29835 3.114481,-1.89223 0.901943,-0.37663 1.111105,-0.36376 2.998953,0.18454 1.116163,0.32418 2.049077,0.70847 2.073143,0.854 0.0558,0.33742 -2.351133,1.61853 -3.395827,1.80745 -0.436563,0.0789 -1.660319,-0.0706 -2.719458,-0.33232 z"
         id="path42" /><path
         style="fill:#ff6600;fill-opacity:1"
         d="m -25.035753,413.55703 c -1.47064,-2.51468 -4.08557,-5.90163 -10.79909,-13.98737 -7.26138,-8.74558 -7.86537,-9.57814 -8.03084,-11.07003 -0.15862,-1.43001 0.6744,-3.708 2.88153,-7.87988 2.41284,-4.56071 4.02932,-6.93615 5.92987,-8.71402 2.35748,-2.20531 3.5217,-2.77578 5.66485,-2.77578 2.14461,0 3.42989,0.62626 5.10189,2.48591 2.30609,2.56494 3.04344,4.87147 3.28009,10.26066 0.0911,2.07367 0.23666,3.77064 0.32356,3.77105 0.52587,0.002 14.3819823,2.39178 14.5799723,2.51415 0.31947,0.19745 0.11485,1.03254 -1.0450696,3.03069 -1.45048,2.49871 -2.32974,3.91959 -3.0830697,4.77184 -1.259199,1.42453 -2.625762,0.99473 -3.445803,0.84473 -3.140892,-0.57453 -12.05201,-1.93096 -12.324,-1.8403 -0.15407,0.0514 1.55077,2.33081 3.78854,5.06544 2.23777,2.73463 4.15566,5.28941 4.26198,5.67728 0.12956,0.4727 0.0396,1.01588 -0.27279,1.6474 -0.62959,1.27268 -5.13444,7.61047 -5.51839,7.76372 -0.16842,0.0672 -0.75037,-0.63725 -1.29323,-1.56549 z m -4.3871,-26.43596 c 0.91923,-2.77213 1.0576,-4.75907 0.41762,-5.99666 -0.47234,-0.91341 -1.4509,-1.3728 -2.41095,-1.13184 -0.73397,0.18421 -2.50383,1.63077 -3.79635,3.10287 l -0.83054,0.94594 2.7315,2.73798 c 1.50233,1.50588 2.80577,2.76008 2.89654,2.7871 0.0908,0.027 0.53724,-1.07341 0.99218,-2.44539 z m 20.2693327,-3.00469 c -0.8757097,-0.42362 -2.2538837,-1.35389 -3.0625927,-2.06728 -3.96199,-3.49495 -14.81844,-16.34495 -15.33711,-18.15344 -0.31768,-1.10769 0.54055,-2.95892 2.21291,-4.77331 1.7634,-1.91317 1.97712,-1.83015 5.08513,1.9752 7.19199,8.80565 12.0419627,14.19043 13.4499723,14.93311 1.32046,0.6965 2.81577,-0.0844 2.81577,-1.47039 0,-1.30217 -1.0805,-2.93609 -8.2689023,-12.50404 -3.972,-5.28683 -7.07693,-9.66102 -7.07693,-9.96989 0,-0.95626 4.1143,-6.65617 4.80455,-6.65617 0.11155,0 0.70279,0.74414 1.31388,1.65364 1.10067,1.6382 3.7155927,5.05573 9.3823323,12.26208 4.93497,6.27578 6.94686,9.61343 7.67869,12.73868 0.82478,3.52218 -0.0697,6.12265 -3.17353,9.22651 -2.30649,2.30648 -4.17616,3.28531 -6.60764,3.45928 -1.3935796,0.0997 -1.8504996,0.007 -3.2165296,-0.65398 z M 6.4183793,367.98589 c -4.61048,-5.71576 -11.00651,-14.49066 -17.3785893,-23.84218 -1.419633,-2.08343 -1.329233,-2.50594 1.0244397,-4.78817 1.92545,-1.86701 2.02616,-1.92603 3.0515196,-1.7885 0.58777,0.0788 2.32408,0.84639 3.89581,1.72218 5.59379,3.11695 9.2011,5.14853 10.1115,5.69465 0.5639,0.33826 0.81335,0.40481 0.63787,0.17017 -2.6287,-3.51497 -8.85116,-11.92493 -9.18694,-12.4166 -0.91909,-1.34581 -0.49351,-2.46501 1.95463,-5.14029 1.17841,-1.28774 3.04252,-2.557 3.26727,-2.22467 0.0304,0.0449 1.90317,2.64149 4.16177,5.77019 4.8278497,6.68773 4.9254897,6.83185 10.6645207,15.7427 5.51248,8.55909 5.28805,8.13538 4.79994,9.06198 -0.21081,0.40019 -1.03133,1.36261 -1.82338,2.13872 -1.32057,1.29399 -1.54163,1.41111 -2.66344,1.41111 -1.22506,0 -3.20201,-0.91791 -8.637231,-4.0103 -0.9458897,-0.53817 -2.6650697,-1.49406 -3.8203997,-2.1242 l -2.1006,-1.1457 3.4175,4.21336 c 1.87962,2.31735 4.0452797,4.95911 4.8125797,5.87058 1.489621,1.7695 1.611631,2.20714 1.014051,3.63735 -0.45508,1.08917 -2.617991,3.46439 -3.6324007,3.98896 -1.27708,0.6604 -1.62389,0.47184 -3.57042,-1.94134 z M 25.82352,350.95301 c -1.35959,-1.41207 -4.98086,-6.06719 -7.48652,-9.62389 -2.85525,-4.05292 -12.0076907,-19.09454 -12.0076907,-19.7341 0,-0.57222 5.0707197,-5.36846 6.2847397,-5.94455 1.077991,-0.51154 0.33195,-0.92653 9.193391,5.1138 3.63802,2.47982 6.65077,4.47363 6.69501,4.43069 0.0442,-0.0429 -2.19768,-3.55931 -4.98203,-7.81414 -2.78436,-4.25484 -5.11964,-7.88507 -5.18952,-8.06718 -0.0711,-0.18532 1.13227,-1.41463 2.73307,-2.79193 1.57308,-1.35346 3.14043,-2.7075 3.48301,-3.009 l 0.62288,-0.54817 0.63219,0.81372 c 1.18927,1.53075 11.16019,17.34026 16.50084,26.16309 1.49392,2.46797 3.11929,5.08575 3.61194,5.8173 0.49265,0.73154 0.89573,1.47377 0.89573,1.6494 0,0.3732 -1.08776,1.2914 -4.33679,3.66077 -1.76793,1.28928 -2.56937,1.71551 -3.22566,1.71551 -0.68786,0 -2.17595,-0.87466 -7.00913,-4.1198 -3.37472,-2.26589 -6.61409,-4.42169 -7.1986,-4.79068 l -1.06275,-0.67088 1.81538,2.60787 c 0.99846,1.43433 3.04024,4.32228 4.5373,6.41767 3.22328,4.51155 3.37857,5.11913 1.76491,6.90526 -1.22612,1.35717 -3.21848,2.81997 -4.1641,3.05731 -0.64917,0.16293 -0.90123,0.0149 -2.1076,-1.23807 z m 21.974,-18.70758 c -1.2322,-1.98897 -4.25686,-6.83099 -6.72146,-10.76005 -4.20942,-6.71066 -7.08542,-11.39744 -11.20148,-18.25411 l -1.74584,-2.90827 3.58475,-2.84642 c 1.97162,-1.56552 3.79002,-2.84641 4.0409,-2.84641 0.25088,0 0.91472,0.62508 1.47519,1.38906 1.33026,1.81328 20.83679,33.13964 21.09422,33.8761 0.0637,0.18229 -1.22923,1.17983 -2.98849,2.30567 -1.70543,1.09141 -3.59503,2.36155 -4.19911,2.82255 l -1.09831,0.83818 z m 11.1376,-8.31266 c -3.21279,-4.29393 -6.99437,-10.04723 -10.65186,-16.20573 -7.48623,-12.60536 -9.14562,-15.4819 -9.14562,-15.85397 0,-0.48275 2.81289,-2.86824 4.2416,-3.59711 1.39003,-0.70914 2.21525,-0.66175 4.11344,0.23625 1.53566,0.7265 9.88002,5.82203 13.19005,8.05457 l 1.56904,1.05829 -0.55923,-0.90485 c -1.77615,-2.87387 -7.27894,-12.70637 -7.63942,-13.65027 -0.52732,-1.38077 -0.32701,-2.3018 0.71161,-3.27202 1.09334,-1.02134 3.46893,-2.56532 4.24779,-2.7608 1.42838,-0.3585 2.46723,1.05061 8.97155,12.16908 2.38364,4.07458 5.71682,9.73005 7.40709,12.56771 5.75363,9.65935 5.64593,9.36145 4.03077,11.14924 -1.90739,2.11126 -3.83915,2.92195 -5.39802,2.26538 -0.48802,-0.20554 -3.44715,-2.03272 -6.57585,-4.06039 -7.46497,-4.83795 -9.78545,-6.27156 -9.92516,-6.13185 -0.0632,0.0633 0.20539,0.58447 0.59697,1.15828 0.39157,0.57381 2.65061,4.07133 5.02007,7.77226 5.01609,7.83476 5.05394,7.95187 3.21463,9.94728 -1.16854,1.26771 -4.01759,3.2998 -4.62643,3.2998 -0.20237,0 -1.45923,-1.45852 -2.79302,-3.24115 z M 85.17514,303.0851 c -3.17214,-0.64816 -7.22278,-3.52163 -10.24023,-7.26431 -5.34682,-6.63187 -8.47683,-15.2587 -7.21868,-19.89587 1.45362,-5.35765 6.65605,-9.46643 13.8718,-10.95569 5.48375,-1.13179 9.93711,-0.0736 9.93711,2.36115 0,1.32579 -0.91236,2.05805 -5.3684,4.30869 -8.44446,4.26507 -9.39828,5.48341 -7.74067,9.88729 2.2269,5.91632 7.05784,11.25173 10.18788,11.25173 2.24328,0 4.51798,-1.96483 4.50288,-3.88947 -0.008,-0.98629 -0.92002,-2.95547 -1.46634,-3.16511 -0.23985,-0.092 -0.96241,0.0884 -1.60571,0.40091 -1.31891,0.64078 -2.43158,0.72655 -3.08109,0.23752 -0.67438,-0.50777 -3.10146,-4.70569 -3.10146,-5.36436 0,-0.32095 0.22666,-0.87171 0.5037,-1.2239 0.59605,-0.75776 4.6952,-3.3613 8.22383,-5.2233 l 2.50983,-1.32439 1.6737,2.55612 c 2.33143,3.5606 3.93471,6.92947 4.60752,9.68146 0.51592,2.11026 0.54238,2.55127 0.26658,4.44356 -0.42034,2.88395 -1.69246,5.24023 -4.18189,7.74585 -4.21279,4.24021 -8.60504,6.18309 -12.28036,5.43212 z"
         id="path44" /></g><text
       xml:space="preserve"
       style="font-weight:bold;font-size:18.2231px;line-height:1.25;font-family:'Arial Black';-inkscape-font-specification:'Arial Black,  Bold';text-align:center;text-anchor:middle;fill:#214478;fill-opacity:1;stroke-width:0.264583"
       x="294.16608"
       y="447.81375"
       id="text47"><tspan
         id="tspan47"
         style="fill:#214478;fill-opacity:1;stroke-width:0.264583"
         x="294.16608"
         y="447.81375">Image</tspan><tspan
         style="fill:#214478;fill-opacity:1;stroke-width:0.264583"
         x="294.16608"
         y="470.59262"
         id="tspan48">Placeholder</tspan></text></g></svg>
