<?xml version="1.0" encoding="UTF-8" standalone="no"?>
<!-- Created with Inkscape (http://www.inkscape.org/) -->

<svg
   width="249.08983mm"
   height="249.08989mm"
   viewBox="0 0 249.08979 249.0899"
   version="1.1"
   id="svg1"
   xml:space="preserve"
   xmlns="http://www.w3.org/2000/svg"
   xmlns:svg="http://www.w3.org/2000/svg"><path
     id="rect86"
     style="opacity:1;fill:#7f0308;fill-opacity:1;stroke-width:0.264999;stroke-linecap:round;paint-order:markers fill stroke"
     d="M -3.6489002e-6,-8.3025245e-6 H 249.08985 V 249.08987 H -3.6489002e-6 Z" /><path
     id="path86"
     style="opacity:1;fill:#000000;stroke-width:0.264999;stroke-linecap:round;paint-order:markers fill stroke"
     d="M -3.6489002e-6,92.592422 H 249.08985 V 156.09031 H -3.6489002e-6 Z" /><defs
     id="defs1" /><path
     id="path74"
     style="opacity:1;fill:#ffffff;fill-opacity:1;stroke:none;stroke-width:0.264999;stroke-linecap:round;stroke-dasharray:none;stroke-opacity:1;paint-order:markers fill stroke"
     d="m 163.28371,104.25913 v 5.2e-4 c -0.0372,-0.008 -0.0847,-0.007 -0.14521,0.007 h -17.14624 v 0.21033 c -0.11382,0.69526 -0.28118,1.38286 -0.39223,2.07946 -0.17888,0.57108 -0.20041,1.17999 -0.37207,1.75751 -0.10171,0.78476 -0.29757,1.5557 -0.43666,2.33526 -0.1559,0.57995 -0.18575,1.18609 -0.35709,1.76578 -0.0931,0.76004 -0.29552,1.50289 -0.41599,2.25981 -0.17965,0.58224 -0.19036,1.19727 -0.36742,1.77974 -0.10199,0.7587 -0.30997,1.49251 -0.42478,2.24948 -0.1787,0.61257 -0.20351,1.25665 -0.38396,1.87172 -0.0919,0.75564 -0.29473,1.49403 -0.41548,2.24637 -0.17706,0.61503 -0.1961,1.26173 -0.37517,1.87947 -0.0508,0.61912 -0.31177,1.19006 -0.33693,1.81126 -0.18706,0.75251 -0.27265,1.5254 -0.47645,2.27325 -0.0757,0.7025 -0.27798,1.38672 -0.37052,2.08876 -0.19275,0.58395 -0.18403,1.20491 -0.37052,1.79214 -0.10139,0.77324 -0.33609,1.51401 -0.42944,2.28926 -0.18119,0.62359 -0.21335,1.27424 -0.38395,1.90221 -0.0719,0.67133 -0.31061,1.30706 -0.36794,1.97921 -0.1855,0.72601 -0.25255,1.4759 -0.4594,2.19625 -0.0124,0.67376 -0.39013,1.34418 -0.25477,2.01073 0.66149,0.12847 1.36829,0.0245 2.04536,0.063 2.68133,-0.002 5.3673,0.0245 8.04602,-0.0253 0.19431,-0.26848 0.11717,-0.67648 0.26045,-0.98288 0.13721,-0.84139 0.32639,-1.67138 0.47077,-2.51148 0.18172,-0.65045 0.22336,-1.32996 0.40256,-1.98179 0.0683,-0.68949 0.30869,-1.34227 0.37259,-2.03347 0.19651,-0.75402 0.29938,-1.52993 0.45475,-2.2934 0.12345,-0.6266 0.26549,-1.24751 0.35812,-1.8805 0.19132,-0.62922 0.22486,-1.29456 0.40255,-1.92857 0.0688,-0.68492 0.29615,-1.33701 0.37156,-2.02106 0.0599,-0.30551 0.22677,-0.69756 0.61546,-0.59583 1.9313,-0.079 3.87806,0.0323 5.80172,-0.0822 0.19941,-0.31481 0.16885,-0.73543 0.31161,-1.08158 0.21572,-1.22858 0.4879,-2.44654 0.69401,-3.67678 0.17555,-0.6359 0.22738,-1.29763 0.39274,-1.93528 0.04,-0.33727 0.10256,-0.75809 -0.38137,-0.59738 -1.83623,-0.0268 -3.67746,0.0575 -5.51077,-0.0522 -0.24326,0.0224 -0.40302,-0.20245 -0.25787,-0.41858 0.13075,-0.83075 0.33199,-1.64686 0.45475,-2.47892 0.20339,-0.67971 0.24985,-1.39405 0.42685,-2.08152 0.0687,-0.66383 0.29984,-1.29478 0.3576,-1.96112 0.0412,-0.47371 0.59383,-0.30356 0.90641,-0.34003 2.01907,-0.0551 4.04394,0.055 6.06009,-0.0661 0.36373,-0.0242 0.37553,-0.41807 0.40514,-0.69195 0.31284,-1.51926 0.59503,-3.04523 0.89711,-4.56613 0.13726,-0.57021 0.18818,-1.15853 0.3545,-1.72289 -0.025,-0.25098 0.22966,-0.78545 -0.0305,-0.84129 z m -132.537654,0.008 v 5.2e-4 c -2.46827,0.0227 -4.93976,-0.0426 -7.40575,0.0651 -0.24625,0.0141 -0.0997,0.38241 -0.21549,0.53123 -0.14901,0.68345 -0.25576,1.37562 -0.42064,2.05466 -0.0521,0.70023 -0.30739,1.36784 -0.37621,2.06809 -0.20728,0.61942 -0.19016,1.28521 -0.39481,1.90531 -0.0331,0.33523 -0.12506,0.67004 -0.25063,0.97203 0.32162,0.43476 0.96858,0.20106 1.42679,0.27182 1.45449,0.03 2.91552,-0.071 4.36562,0.0491 0.37119,0.076 0.0692,0.51831 0.0398,0.73846 -0.0796,0.72699 -0.31448,1.42024 -0.38809,2.14664 -0.17407,0.70822 -0.26147,1.43335 -0.44906,2.13682 -0.0417,0.65169 -0.28527,1.26997 -0.33848,1.92081 -0.17897,0.743 -0.28753,1.50144 -0.46509,2.24328 -0.12007,0.87312 -0.34544,1.73305 -0.49816,2.60294 -0.24164,1.27249 -0.48321,2.54563 -0.74518,3.81269 -0.20097,1.06521 -0.41637,2.12902 -0.61185,3.19515 -0.0685,0.55406 -0.29541,1.07052 -0.31006,1.63297 -0.19946,0.9103 -0.35331,1.82925 -0.55087,2.73989 -0.26766,1.49586 -0.59329,2.98123 -0.86351,4.47518 -0.17439,0.60489 -0.17376,1.24587 -0.3669,1.85053 -0.005,0.43565 -0.28199,0.78764 -0.35502,1.19889 -0.0447,0.44608 0.69405,0.11061 0.99219,0.21446 2.89472,-0.0247 5.79158,0.0508 8.68474,-0.0388 0.27528,0.008 0.68799,-0.0905 0.59531,-0.4594 0.0816,-0.64777 0.28593,-1.27259 0.35089,-1.92495 0.20227,-0.65327 0.23801,-1.34346 0.42116,-2.00246 0.0865,-0.72002 0.28941,-1.41753 0.39326,-2.13475 0.2223,-0.97864 0.38207,-1.9731 0.59014,-2.95641 0.12862,-0.84776 0.34839,-1.67429 0.48473,-2.51974 0.15327,-0.64424 0.21974,-1.30446 0.3886,-1.94562 0.0725,-0.67192 0.30251,-1.3107 0.36122,-1.98593 0.19492,-0.68775 0.24304,-1.40525 0.43667,-2.09341 0.0873,-0.70455 0.29604,-1.38496 0.37827,-2.09134 0.17849,-0.61342 0.20084,-1.25742 0.39377,-1.86707 0.20765,-1.22205 0.472,-2.43427 0.69092,-3.65404 0.18002,-0.58567 0.192,-1.21142 0.36793,-1.80144 0.11186,-0.75976 0.29793,-1.50497 0.42427,-2.26188 0.17322,-0.36431 0.0687,-0.84241 0.30695,-1.16531 1.90473,-0.14883 3.82788,0.0261 5.7335,-0.10593 0.36272,-0.1633 0.30888,-0.70102 0.42789,-1.02526 0.0964,-0.71869 0.29091,-1.41681 0.39015,-2.13527 0.19476,-0.61487 0.20855,-1.27021 0.39688,-1.88826 0.0809,-0.73068 0.30231,-1.43181 0.39584,-2.16059 0.0114,-0.16086 0.19657,-0.40744 0.0806,-0.53537 -2.89739,-0.11617 -5.80131,-0.0496 -8.70127,-0.0734 -1.93701,-8.2e-4 -3.87403,-2.5e-4 -5.81102,0 z m 57.74686,8.95139 c -1.1227,0.001 -2.24168,0.13075 -3.32382,0.42943 -2.51185,0.70972 -4.77603,2.40281 -5.97587,4.74597 -0.48339,0.84667 -0.66271,1.81231 -0.93224,2.73471 -0.1642,0.79355 -0.37931,1.58212 -0.51211,2.3859 -0.22233,0.86785 -0.30962,1.76283 -0.54054,2.62723 -0.0799,0.71099 -0.27585,1.40584 -0.38189,2.1146 -0.18738,0.62475 -0.21089,1.28273 -0.39481,1.911 -0.0927,0.74847 -0.28709,1.48169 -0.41341,2.2257 -0.19563,0.61304 -0.18783,1.26962 -0.36638,1.89084 -0.13644,1.24868 -0.37163,2.49281 -0.31316,3.75636 -0.0362,1.11198 0.19706,2.24742 0.84801,3.16777 0.48813,0.7127 1.21942,1.23274 1.97094,1.62832 0.32253,0.0701 0.55333,0.33248 0.90072,0.34623 0.44533,0.25795 1.03273,0.14526 1.44849,0.43822 1.15975,0.11507 2.36608,0.0527 3.54293,0.06 0.37378,-0.0303 0.81087,0.0317 1.15549,-0.0656 0.36158,-0.26557 0.89578,-0.20121 1.31155,-0.37362 0.43894,-0.12939 0.85966,-0.33135 1.28881,-0.46923 0.28266,-0.23596 0.68105,-0.28645 0.96325,-0.54053 1.01682,-0.57762 1.94355,-1.33042 2.70267,-2.22622 0.30924,-0.40934 0.62776,-0.82551 0.80926,-1.30587 0.21646,-0.2379 0.19797,-0.60552 0.37878,-0.87643 0.28284,-0.72813 0.49224,-1.47922 0.69454,-2.23087 0.1661,-0.47644 0.20571,-0.98776 0.37155,-1.46658 0.0909,-0.66941 0.3145,-1.30792 0.38499,-1.98179 0.004,-0.19665 0.32844,-0.56022 -0.0181,-0.61856 -1.54183,-0.15423 -3.10049,-0.0434 -4.64881,-0.078 -0.88725,-3e-5 -1.77459,1e-5 -2.66185,0 -0.43926,0.4974 -0.28965,1.23158 -0.51987,1.82211 -0.16541,1.06888 -0.41403,2.1228 -0.63768,3.18069 -0.19912,0.6048 -0.23623,1.27035 -0.6625,1.78025 -0.37915,0.64613 -1.30359,0.67031 -1.90634,0.36122 -0.47469,-0.4343 -0.36098,-1.11958 -0.24546,-1.68052 0.0954,-0.95307 0.34083,-1.8786 0.48989,-2.82205 0.15838,-0.5871 0.18541,-1.20108 0.37052,-1.78232 0.0924,-0.75498 0.30686,-1.48514 0.40153,-2.24017 0.17232,-0.64194 0.23896,-1.30606 0.40824,-1.94924 0.0833,-0.71488 0.29823,-1.40341 0.38964,-2.1177 0.17082,-0.64716 0.2297,-1.31663 0.40824,-1.96215 0.0984,-0.72108 0.26777,-1.42994 0.39791,-2.14612 0.16285,-0.56136 0.1998,-1.14996 0.39223,-1.70429 0.0534,-0.44138 0.25459,-0.83656 0.41702,-1.24127 0.2037,-0.5004 0.70072,-0.76359 1.2206,-0.80305 0.40799,-0.0206 1.09339,0.0388 1.1157,0.57361 0.039,0.8591 0.006,1.73232 -0.23513,2.56057 -0.0697,0.74318 -0.27584,1.46815 -0.39636,2.204 -0.20085,0.56921 -0.16693,1.19028 -0.35605,1.76733 -0.0514,0.3692 -0.12688,0.74939 -0.19895,1.10536 0.201,0.30209 0.6714,0.12235 0.97255,0.1912 2.06652,-0.004 4.13749,0.0657 6.20168,-0.0351 0.31067,0.0183 0.5999,-0.2043 0.53176,-0.53898 0.0583,-0.68337 0.28447,-1.33673 0.35501,-2.01952 0.21947,-0.71987 0.24969,-1.48102 0.40463,-2.21588 0.14409,-1.69268 0.47608,-3.4951 -0.21136,-5.11494 -0.6,-1.26173 -1.77579,-2.17769 -3.02669,-2.74402 -0.42579,-0.15528 -0.84677,-0.31151 -1.29759,-0.38499 -0.99674,-0.26912 -2.04659,-0.26374 -3.07217,-0.27285 z m 142.051284,0.36691 -5.1e-4,5.1e-4 c -1.05005,-0.006 -2.03747,0.55256 -2.68046,1.37201 -0.63804,0.64531 -1.07023,1.50589 -1.82315,2.02675 -0.40775,0.12999 -0.94835,0.20662 -1.31619,-0.0558 -0.26763,-0.40805 0.29941,-0.74851 0.65887,-0.74362 0.26908,-0.0832 0.75238,0.11714 0.90124,-0.20102 0.0159,-0.7115 0.3894,-1.40655 0.27957,-2.11667 -0.52226,-0.14306 -1.10928,0.005 -1.64125,0.0832 -1.08744,0.29827 -1.57648,1.47022 -1.87689,2.44946 -0.11258,0.81805 -0.29063,1.75729 0.16382,2.50217 0.45537,0.67307 1.33561,0.66696 2.05827,0.61495 0.81534,0.0415 1.65328,-0.19768 2.21589,-0.81442 0.81047,-0.79512 1.41088,-1.81215 2.33112,-2.48822 0.50573,-0.15243 1.15312,-0.28916 1.62109,0.0227 0.21518,0.31144 -0.0389,0.82662 -0.447,0.77308 -0.51641,0.0814 -1.09089,-0.0725 -1.57717,0.11575 -0.11827,0.45897 -0.19119,0.92993 -0.30385,1.39113 0.0119,0.29056 -0.18332,0.68937 0.015,0.93483 0.79499,0.0237 1.64961,0.007 2.389,-0.32556 0.3833,-0.2347 0.73866,-0.53939 0.97462,-0.91312 0.29805,-0.35387 0.38937,-0.824 0.59273,-1.21853 0.289,-0.35746 0.0967,-0.8911 0.15916,-1.31362 -0.0366,-0.39966 0.0692,-0.85286 -0.0806,-1.22525 -0.23058,-0.0708 -0.21562,-0.4264 -0.45785,-0.52038 -0.53017,-0.49013 -1.29446,-0.30001 -1.94459,-0.34106 -0.0705,-0.006 -0.14083,-0.008 -0.21084,-0.009 z m -189.249434,0.20412 c -0.14822,0.005 -0.28798,0.035 -0.40462,0.1297 -0.28213,0.5395 -0.18996,1.19901 -0.42117,1.76476 -0.10475,0.82187 -0.29771,1.6321 -0.45268,2.44584 -0.15523,0.54746 -0.17473,1.12332 -0.33642,1.67277 -0.093,0.71588 -0.31724,1.40175 -0.39119,2.11925 -0.17442,0.68879 -0.24628,1.39779 -0.4408,2.08049 -0.0543,0.65526 -0.2756,1.28371 -0.33796,1.93838 -0.17989,0.72282 -0.26812,1.46328 -0.4501,2.18385 -0.0717,0.64171 -0.29656,1.25009 -0.34003,1.89497 -0.17558,0.732 -0.28571,1.47803 -0.46923,2.20659 -0.10194,0.74258 -0.28178,1.47584 -0.40669,2.2164 -0.25394,1.13488 -0.43277,2.28738 -0.66869,3.42666 -0.0732,0.55147 -0.26828,1.07462 -0.31161,1.63091 -0.19863,0.86263 -0.32275,1.73955 -0.52452,2.60191 0.014,0.29477 -0.22945,0.65711 -0.0801,0.92087 1.51185,0.13417 3.04093,0.0413 4.55942,0.0708 h 2.83807 c 0.38857,-0.57335 0.29565,-1.32046 0.52089,-1.95802 0.0954,-0.75314 0.31185,-1.48058 0.40411,-2.23449 0.18587,-0.67112 0.25997,-1.36663 0.4129,-2.04535 0.12198,-0.70235 0.28754,-1.39537 0.40928,-2.09755 0.16327,-0.63566 0.2166,-1.29449 0.38654,-1.9296 0.10996,-0.8277 0.34023,-1.63315 0.47387,-2.45773 0.0395,-0.22631 0.10537,-0.51884 0.40721,-0.46508 0.54948,-0.012 1.32342,0.0363 1.57768,0.6134 0.12171,0.90072 -0.0102,1.82177 -0.20826,2.70216 -0.0658,0.62248 -0.26799,1.22328 -0.32866,1.84743 -0.18166,0.72305 -0.26134,1.46663 -0.45888,2.18539 -0.0784,0.73647 -0.28364,1.45596 -0.40411,2.18643 -0.18158,0.53506 -0.15533,1.11484 -0.33073,1.65623 -0.0491,0.59341 -0.27492,1.15732 -0.31988,1.74667 -0.004,0.44827 0.70354,0.11717 1.01337,0.22169 1.97374,0.01 3.94736,0.0198 5.92109,0.0294 0.34574,-0.82458 0.3585,-1.73265 0.601,-2.58433 0.0873,-0.70455 0.29655,-1.38497 0.37878,-2.09135 0.17841,-0.61528 0.20481,-1.26182 0.3974,-1.87379 0.0894,-0.75708 0.30472,-1.48877 0.39997,-2.24534 0.18746,-0.69698 0.22239,-1.42547 0.38654,-2.12803 0.0414,-0.81964 0.18735,-1.72208 -0.31988,-2.43861 -0.40221,-0.92028 -1.36375,-1.42286 -2.27841,-1.69912 -0.21288,-0.21103 0.19148,-0.40899 0.3669,-0.4222 0.51755,-0.0836 1.02145,-0.25011 1.49087,-0.46561 0.61588,-0.33811 1.16867,-0.83888 1.54461,-1.43763 0.46064,-0.80707 0.71775,-1.70098 0.9648,-2.59003 0.15748,-0.50033 0.20628,-1.03123 0.3545,-1.53634 0.14542,-1.04609 0.3359,-2.09025 0.27026,-3.15278 -0.0101,-1.23824 -0.44834,-2.53116 -1.4211,-3.34294 -0.81217,-0.87162 -2.08281,-0.96259 -3.18843,-1.12862 -1.80708,-0.17949 -3.63175,-0.097 -5.44618,-0.14262 -1.53059,-0.0118 -3.06146,-0.0207 -4.59197,-0.0155 -0.22918,0.046 -0.5002,-0.0179 -0.74724,-0.0103 z m 162.700154,0.003 -5.2e-4,5.1e-4 c -0.20084,-0.0108 -0.396,-0.003 -0.55655,0.10439 -0.17785,0.72299 -0.26959,1.47745 -0.44959,2.20348 -0.15337,0.4957 -0.13664,1.02813 -0.30076,1.52601 -0.14808,0.9649 -0.38473,1.91175 -0.55758,2.87217 -0.20527,1.22063 -0.48383,2.4274 -0.69764,3.64526 -0.17851,0.59783 -0.19718,1.22998 -0.37723,1.8309 -0.10171,0.78477 -0.2981,1.5557 -0.43719,2.33525 -0.15322,0.5539 -0.17763,1.133 -0.33538,1.68879 -0.0806,0.7313 -0.32458,1.42445 -0.40152,2.15697 -0.191,0.67353 -0.24898,1.37969 -0.43512,2.05569 -0.0826,0.72987 -0.28359,1.4438 -0.39842,2.17041 -0.1773,0.61428 -0.19517,1.26067 -0.37569,1.87741 -0.0686,0.63762 -0.29721,1.23927 -0.34933,1.87844 -0.19077,0.75011 -0.27266,1.51765 -0.45372,2.27014 -0.0103,0.2006 -0.099,0.44218 -0.0351,0.62994 3.96316,0.0874 7.92973,0.053 11.89384,0.0109 1.29437,-0.0707 2.62732,-0.24984 3.80701,-0.81752 0.76253,-0.40434 1.50405,-0.92412 1.97094,-1.6769 0.57174,-0.79262 0.93276,-1.7097 1.16065,-2.65307 0.34324,-1.16911 0.54547,-2.37783 0.8077,-3.56567 0.14097,-0.57878 0.1967,-1.17828 0.3514,-1.75649 0.0683,-0.68948 0.30874,-1.34223 0.37259,-2.03346 0.18446,-0.62504 0.21208,-1.28145 0.39377,-1.90635 0.11044,-0.76309 0.3146,-1.50708 0.42065,-2.27066 0.19021,-0.62747 0.22242,-1.29044 0.40049,-1.92236 0.0842,-0.73169 0.30806,-1.43578 0.37569,-2.17093 0.20257,-0.75749 0.23335,-1.5484 0.39842,-2.31407 0.0298,-0.89782 0.12854,-1.81788 -0.0341,-2.70578 -0.28729,-0.77863 -0.69566,-1.59998 -1.39578,-2.07481 -0.54358,-0.41867 -1.20218,-0.73183 -1.88257,-0.87126 -0.82267,-0.25204 -1.69324,-0.29971 -2.54197,-0.41341 -3.24715,-0.10201 -6.49863,-0.089 -9.74721,-0.0966 -0.18296,0.0335 -0.38932,0.004 -0.59014,-0.007 z m -90.18364,0.002 v 5.2e-4 c -0.76488,0.0269 -1.54982,-0.0411 -2.30426,0.0584 -0.33586,0.34893 -0.4453,0.86765 -0.70176,1.27537 -1.37562,2.85763 -2.81808,5.68351 -4.18838,8.54366 -0.0609,0.21965 -0.1532,0.40122 -0.33848,0.5302 -0.0775,0.0505 -0.0794,0.39643 -0.20154,0.27647 -0.0553,-0.9631 0.3556,-1.88647 0.4377,-2.84168 0.18118,-0.76783 0.30847,-1.54623 0.47129,-2.31769 0.0852,-0.65452 0.28396,-1.28621 0.36897,-1.942 0.17391,-0.69927 0.2551,-1.41694 0.42168,-2.11822 1.4e-4,-0.4909 0.31278,-0.94208 0.21394,-1.43454 -2.46783,0.0134 -4.93899,-0.0774 -7.40471,0.0222 -0.26516,0.0987 -0.22725,0.51968 -0.32557,0.74673 -0.0622,0.66807 -0.291084,1.301 -0.356564,1.9668 -0.19497,0.77663 -0.28553,1.56947 -0.46767,2.34921 -0.0884,0.6234 -0.28721,1.22043 -0.34314,1.84847 -0.17291,0.68703 -0.24322,1.39291 -0.43925,2.07171 -0.0549,0.64147 -0.29767,1.24534 -0.33021,1.88877 -0.21884,0.86952 -0.33733,1.75986 -0.54518,2.6324 -0.14692,1.06344 -0.42511,2.1023 -0.59997,3.1595 -0.18442,0.56688 -0.16968,1.17796 -0.35708,1.74924 -0.10623,0.8026 -0.30177,1.59121 -0.44494,2.38849 -0.16211,0.54636 -0.17316,1.12239 -0.34674,1.66553 -0.0813,0.76851 -0.31276,1.50343 -0.42065,2.26808 -0.18474,0.6209 -0.20864,1.27299 -0.38189,1.89911 -0.08,0.85358 -0.44844,1.68767 -0.39584,2.54558 2.17379,0.1262 4.35933,0.0403 6.537584,0.0667 0.36515,-0.0325 0.89337,0.15091 1.03818,-0.30127 0.10578,-0.52215 0.19387,-1.0484 0.32918,-1.56528 0.10229,-0.75449 0.27727,-1.4972 0.41083,-2.24586 0.16192,-0.603 0.21045,-1.23044 0.37775,-1.83348 0.0904,-0.73354 0.29516,-1.44423 0.39171,-2.17713 0.1865,-0.5908 0.20696,-1.21749 0.37982,-1.81229 0.0722,-0.63609 0.23181,-1.25894 0.46096,-1.84898 0.14539,-0.15378 0.13577,0.42052 0.15606,0.56534 0.0812,1.94282 0.17034,3.88468 0.28991,5.82548 0.0566,1.7606 0.11686,3.52237 0.33176,5.271 0.067,0.18234 0.38752,0.0321 0.53537,0.092 2.40371,0.0386 4.80804,6.7e-4 7.21196,-0.003 0.0828,-0.98827 -0.22939,-1.95559 -0.23048,-2.944 -0.14829,-1.04184 -0.23593,-2.08906 -0.32711,-3.13728 -0.17854,-1.17878 -0.2028,-2.37423 -0.39584,-3.55121 -0.066,-1.33954 -0.29902,-2.66121 -0.38551,-3.99975 -0.0943,-0.84547 -0.2819,-1.70785 -0.17001,-2.55747 0.34798,-0.76954 0.81109,-1.49586 1.15497,-2.25774 0.19682,-0.14568 0.17855,-0.44659 0.36431,-0.6134 0.15952,-0.52728 0.53562,-0.95663 0.74414,-1.47019 1.45712,-2.77945 2.92566,-5.55343 4.37131,-8.33645 0.11202,-0.14146 0.15766,-0.45248 -0.13539,-0.36122 -1.48662,-0.041 -2.97414,-0.0357 -4.46122,-0.0367 z m -46.263334,5.2e-4 c -1.48365,0.0178 -2.97512,-0.025 -4.45451,0.0506 -0.26125,0.18641 -0.20341,0.59104 -0.36277,0.85318 -0.14705,0.53949 -0.3517,1.05385 -0.51418,1.58699 -0.21633,0.6888 -0.44835,1.38153 -0.68058,2.07119 -0.19053,0.4773 -0.26267,0.98447 -0.47129,1.45469 -0.095,0.4002 -0.28634,0.77174 -0.36535,1.17874 -0.28466,0.65422 -0.41397,1.36515 -0.69453,2.01331 -0.1483,0.74931 -0.50737,1.44655 -0.69401,2.19005 -0.20058,0.47518 -0.31833,0.9755 -0.47181,1.46141 -0.2091,0.47248 -0.27193,0.99561 -0.49558,1.46916 -0.25045,0.84297 -0.58946,1.66198 -0.80253,2.51147 -0.20206,0.41832 -0.26455,0.88096 -0.4532,1.30845 -0.19333,0.67295 -0.46142,1.32251 -0.63097,1.99885 -0.31448,0.86953 -0.5754,1.76545 -0.88677,2.64221 -0.44016,1.39695 -0.9144,2.78079 -1.35909,4.17597 -0.0711,0.39361 -0.30868,0.72258 -0.34985,1.1219 -0.1991,0.37236 -0.25575,0.79517 -0.29094,1.21026 2.45669,-0.0233 4.91546,0.0484 7.37061,-0.0398 0.29416,0.0193 0.6121,-0.14461 0.54984,-0.48886 0.12089,-0.45564 0.26621,-0.90369 0.38447,-1.36064 0.15259,-0.47464 0.26303,-0.96626 0.40463,-1.44901 0.13576,-0.45158 0.26832,-0.89608 0.37982,-1.35547 0.10549,-0.23382 0.16783,-0.65975 0.52555,-0.57464 0.75745,0.002 1.54171,-0.0992 2.2841,0.0548 0.17145,0.39867 0.0259,0.89445 -0.0284,1.31464 -0.1778,0.98404 -0.22129,1.99061 -0.38033,2.97915 0.0452,0.27328 -0.19929,0.92965 0.20153,0.88729 2.45679,0.0111 4.91332,0.0225 7.3701,0.0336 0.30808,-0.49349 0.14206,-1.13261 0.21807,-1.68413 0.0478,-2.63692 0.28012,-5.2655 0.33383,-7.90236 0.16785,-2.34389 0.20208,-4.69392 0.3266,-7.03988 0.17018,-2.43397 0.16713,-4.87629 0.34261,-7.31015 0.0687,-1.74673 0.15605,-3.49904 0.22169,-5.24206 -0.24672,-0.21037 -0.6668,-0.036 -0.96893,-0.1018 -1.85261,-0.0195 -3.70511,-0.0197 -5.5578,-0.0191 z m 128.849504,0.005 -5.2e-4,5.2e-4 c -0.0864,-0.006 -0.18798,0.002 -0.30024,0.0212 -1.71638,-0.007 -3.43264,-0.0209 -5.14904,-0.0191 h -5.1e-4 c -0.30311,0.0169 -0.61222,0.003 -0.91984,-0.002 -0.30764,-0.004 -0.61339,9.1e-4 -0.91054,0.0563 -0.35259,0.34581 -0.20422,0.93979 -0.36897,1.37563 -0.19278,0.62412 -0.20947,1.291 -0.40566,1.91668 -0.0771,0.73757 -0.28406,1.45642 -0.40463,2.1885 -0.18859,0.60685 -0.17693,1.25369 -0.36639,1.86396 -0.0848,0.71047 -0.31422,1.38602 -0.39635,2.09807 -0.19643,0.61759 -0.19526,1.27161 -0.39791,1.8898 -0.10792,0.80969 -0.30261,1.60697 -0.45165,2.41071 -0.15192,0.5585 -0.17374,1.14314 -0.33487,1.70274 -0.24424,1.42247 -0.58188,2.82778 -0.81804,4.25297 -0.22114,0.87589 -0.3009,1.7795 -0.5426,2.64893 -0.0569,0.64366 -0.27362,1.26195 -0.33434,1.90583 -0.17915,0.74334 -0.28845,1.502 -0.46561,2.24431 -0.0855,0.70697 -0.27142,1.40099 -0.38757,2.10374 -0.11247,0.22917 -0.23071,0.76393 0.20257,0.63407 4.0624,-0.0109 8.12496,-0.022 12.18737,-0.0331 0.12052,-0.75905 0.31769,-1.50143 0.42685,-2.26188 0.19241,-0.60879 0.20416,-1.25779 0.3886,-1.87017 0.0145,-0.49363 0.21709,-0.95407 0.27027,-1.43453 -0.0254,-0.35003 -0.50701,-0.13809 -0.72244,-0.20671 -1.25543,-0.0223 -2.51122,-0.01 -3.76669,-0.0134 -0.38188,-0.33168 0.0378,-0.76105 0.0181,-1.15393 0.094,-0.67209 0.28544,-1.3247 0.36535,-2.00039 0.1747,-0.64783 0.24162,-1.31812 0.41238,-1.96733 0.0833,-0.71489 0.29823,-1.40341 0.38964,-2.1177 0.1727,-0.65304 0.23361,-1.32901 0.40411,-1.98282 0.0724,-0.67833 0.30847,-1.32173 0.36742,-2.0035 0.18603,-0.66071 0.22717,-1.35008 0.42116,-2.00866 0.0909,-0.73265 0.3001,-1.44172 0.39067,-2.17506 0.17391,-0.64996 0.23936,-1.3217 0.41083,-1.97301 0.21363,-1.2054 0.4638,-2.40511 0.68936,-3.60805 0.14472,-0.64305 0.25788,-1.29704 0.36691,-1.94768 0.11669,-0.36894 -0.008,-0.5164 -0.26717,-0.53485 z m -28.84889,0.005 c -1.52997,0.005 -3.05992,0.0136 -4.5899,0.0202 -0.28956,0.74539 -0.30958,1.55499 -0.53123,2.31666 -0.077,0.72125 -0.31032,1.40628 -0.39067,2.12752 -0.20016,0.66968 -0.22693,1.37309 -0.416,2.04793 -0.0662,0.62099 -0.29182,1.20632 -0.34003,1.82935 -0.19209,0.76679 -0.28183,1.54959 -0.45992,2.31975 -0.0748,0.60265 -0.3036,1.1682 -0.33176,1.77767 -0.1738,0.75396 -0.29663,1.51845 -0.47181,2.27015 -0.092,0.70904 -0.27762,1.40634 -0.39274,2.11357 -0.17028,0.56983 -0.18322,1.1699 -0.35295,1.74253 -0.0826,0.69601 -0.31561,1.35934 -0.37879,2.05672 -0.19579,0.87893 -0.33614,1.7683 -0.53485,2.64686 -0.34419,1.8587 -0.73876,3.70943 -1.06092,5.57176 0.007,0.15266 -0.1463,0.50292 0.16123,0.41031 2.47742,0.0625 4.95622,0.0287 7.43418,0.0377 0.27926,-0.7807 0.34572,-1.6106 0.55035,-2.40915 0.0809,-0.70128 0.28842,-1.3778 0.3824,-2.0774 0.18537,-0.65961 0.22639,-1.34909 0.41342,-2.00918 0.1002,-0.70564 0.29521,-1.39136 0.38395,-2.09961 0.17574,-0.61049 0.20362,-1.25159 0.39378,-1.8588 0.0464,-0.63683 0.28964,-1.22916 0.33848,-1.86397 0.1628,-0.84523 0.3431,-1.68635 0.50074,-2.53059 0.13814,-0.64588 0.2518,-1.29557 0.36949,-1.94511 0.16253,-0.59017 0.19464,-1.20771 0.37879,-1.79317 0.0905,-0.75373 0.29932,-1.48324 0.39997,-2.23552 0.19135,-0.62878 0.22458,-1.29402 0.40256,-1.92753 0.10377,-0.81456 0.32501,-1.60666 0.45579,-2.41794 0.24752,-1.03067 0.36137,-2.08984 0.6196,-3.11506 -0.006,-0.29993 0.13676,-0.60357 0.12816,-0.89038 -0.28049,-0.195 -0.69329,-0.0472 -1.01751,-0.10594 -0.68114,-0.009 -1.36261,-0.0103 -2.04381,-0.009 z m 5.73764,0.0202 c -0.0394,0.15417 -0.0784,0.30834 -0.11782,0.46251 -0.14989,0.73052 -0.28263,1.46466 -0.45114,2.18953 -0.0631,0.62595 -0.26793,1.22951 -0.32866,1.85673 -0.1801,0.69978 -0.24228,1.42281 -0.44545,2.11512 -0.068,0.66574 -0.29691,1.29674 -0.35502,1.96319 -0.18748,0.71356 -0.23629,1.45521 -0.45268,2.15955 -0.0412,0.64377 -0.282,1.25481 -0.33383,1.89808 -0.17886,0.7434 -0.28853,1.50199 -0.46561,2.24431 -0.0789,0.69608 -0.27533,1.37593 -0.3731,2.07016 -0.19193,0.60628 -0.21053,1.25646 -0.40566,1.86448 -0.0887,0.87799 -0.34317,1.73174 -0.48628,2.60243 -0.24093,1.27311 -0.48494,2.54746 -0.73587,3.81733 -0.15243,0.57406 -0.19388,1.17316 -0.3576,1.74822 -0.0502,0.73759 -0.37828,1.45254 -0.32195,2.1947 1.56332,0.1327 3.14575,0.0516 4.716,0.0811 2.88844,0.002 5.77683,5.4e-4 8.6651,10e-4 0.11338,-0.68762 0.30878,-1.358 0.39016,-2.05155 0.18243,-0.66764 0.25175,-1.36412 0.42323,-2.03657 0.0188,-0.5759 0.33076,-1.11649 0.22376,-1.69861 -1.77432,-0.0365 -3.55464,0.0302 -5.32526,-0.0801 -0.31869,-0.11235 -0.14,-0.58428 -0.14159,-0.83406 0.20778,-0.73124 0.2652,-1.49262 0.46147,-2.22674 0.0642,-0.70447 0.315,-1.36924 0.3762,-2.07481 0.16875,-0.39884 0.093,-0.90714 0.36174,-1.25263 1.08298,-0.17096 2.19879,-0.0755 3.29437,-0.12609 l 1.50223,-0.0212 c 0.0919,-0.72105 0.33725,-1.4048 0.40515,-2.12959 0.192,-0.68546 0.23492,-1.39984 0.42994,-2.08514 0.0707,-0.39971 0.14522,-0.80143 0.1571,-1.2082 -1.55128,-0.0508 -3.1204,0.0195 -4.6607,-0.13694 -0.0687,-0.87333 0.2948,-1.70765 0.36639,-2.57194 0.19437,-0.6585 0.24003,-1.34794 0.42323,-2.00969 0.0651,-0.31213 -0.036,-0.86081 0.41961,-0.89142 1.61222,-0.14104 3.24864,0.0324 4.85707,-0.10542 0.38336,-0.60008 0.2808,-1.36653 0.51676,-2.02417 0.0737,-0.7392 0.31635,-1.44118 0.40101,-2.17867 0.15415,-0.49318 0.1915,-1.01054 0.19017,-1.52498 z m -43.37358,3.99718 c -0.14359,-3.4e-4 -0.28762,0.002 -0.43098,0.007 -1.56532,-0.0264 -3.10571,0.48408 -4.41575,1.32653 -1.54041,1.0042 -2.60627,2.69052 -2.84014,4.51704 -0.19407,1.24737 0.0713,2.67285 1.10949,3.49385 0.30707,0.30339 0.65952,0.5587 1.07487,0.6692 0.29271,0.0894 0.0719,0.37821 -0.12299,0.41393 -0.78557,0.22906 -1.5836,0.44704 -2.30012,0.85835 -1.19989,0.56973 -2.23618,1.45872 -3.12642,2.43654 -1.00409,1.09139 -1.73149,2.42425 -2.12649,3.84938 -0.16775,0.48789 -0.16027,1.02347 -0.2837,1.52756 -0.18333,1.69693 0.28527,3.53392 1.45883,4.80177 0.5769,0.65448 1.31416,1.15812 2.1549,1.40353 0.43395,0.19561 0.89918,0.26817 1.3653,0.35295 0.22774,0.0389 0.33286,0.2509 0.58911,0.18139 1.30519,0.0163 2.62334,0.0881 3.92224,-0.0393 0.52593,-0.26345 1.15481,-0.22569 1.69964,-0.45785 0.40994,-0.0877 0.7575,-0.29837 1.15186,-0.42788 1.62954,-0.76343 3.13689,-1.89627 4.06487,-3.46491 0.35401,-0.53297 0.64786,-1.11581 0.86093,-1.70945 0.16068,-0.42001 0.27937,-0.84865 0.36639,-1.29191 0.22772,-0.41421 -0.004,-1.19764 0.60719,-1.31724 1.50008,-0.39715 2.48989,-1.79249 2.95641,-3.1967 0.0357,-0.37515 0.22666,-0.81194 0.0837,-1.17254 -0.33911,-0.18189 -0.6467,0.25138 -1.00304,0.20671 -1.15427,0.43573 -2.4258,0.28774 -3.63285,0.23616 -0.99661,-0.0538 -2.01497,-0.37949 -2.9993,-0.0424 -0.90673,0.24627 -1.68721,0.88311 -2.1053,1.73271 -0.38002,0.73605 -0.6466,1.6269 -0.43977,2.4443 0.36681,0.0635 0.5575,-0.37383 0.88677,-0.47387 0.48816,-0.24281 1.09563,-0.416 1.61024,-0.12919 0.75271,0.43486 0.89086,1.44368 0.60254,2.20089 -0.0981,0.76343 -0.73592,1.33463 -1.29501,1.8061 -0.82629,0.59437 -2.0482,0.67542 -2.92437,0.14676 -0.43846,-0.34509 -0.85061,-0.78331 -1.0082,-1.32395 -0.32361,-0.5518 -0.22234,-1.25472 -0.23927,-1.87121 0.0602,-1.472 0.68129,-2.91947 1.69086,-3.99045 0.57126,-0.54239 1.1486,-1.15031 1.87999,-1.45676 0.25138,-0.22098 0.62442,-0.22989 0.91932,-0.37827 0.81651,-0.19258 1.66979,-0.0787 2.48667,-0.22118 0.37142,-0.20904 0.19715,-0.75156 0.37879,-1.0852 0.10287,-0.32696 0.0917,-0.67388 0.0899,-1.01234 -0.95221,-0.0575 -1.93572,0.0236 -2.84996,-0.28474 -0.92617,-0.21286 -1.6673,-0.95179 -2.0066,-1.82728 -0.21106,-0.66035 -0.16772,-1.40281 -0.0387,-2.07894 0.1914,-0.57547 0.33468,-1.18655 0.74724,-1.65881 0.47223,-0.60571 1.12474,-1.25954 1.96577,-1.14412 0.68511,-0.10104 1.40242,0.51792 1.28881,1.23041 0.0952,0.43535 -0.22738,0.97793 -0.69608,0.96997 -0.2398,-0.0345 -0.4697,-0.43452 -0.68885,-0.13229 -0.59831,0.45149 -1.07409,1.17785 -0.98702,1.95027 0.18892,0.85608 1.0703,1.42255 1.92908,1.29759 0.97589,0.0349 1.88944,-0.46179 2.48099,-1.22111 0.75679,-0.80009 1.06992,-1.92036 0.9865,-3.00602 0.0124,-1.28826 -0.8349,-2.43603 -1.93787,-3.03392 -0.90108,-0.46849 -1.90517,-0.6085 -2.91041,-0.61082 z m -82.176904,0.93482 h 5.2e-4 c 0.0362,-0.006 0.0749,-0.006 0.11575,0.003 0.61851,0.0349 1.51245,0.17938 1.61696,0.93121 0.13991,0.67861 -0.0819,1.36333 -0.16071,2.03657 -0.18338,0.59933 -0.20169,1.24094 -0.416,1.83348 -0.0792,0.39383 -0.25879,0.78169 -0.4563,1.12965 -0.47659,0.52218 -1.26982,0.58743 -1.92443,0.58549 -0.36004,-0.17904 -0.0535,-0.67054 -0.0775,-0.96428 0.15303,-0.6209 0.22032,-1.25812 0.36949,-1.87844 0.14983,-0.60481 0.20345,-1.23019 0.36845,-1.83296 0.0607,-0.55454 0.23275,-1.08893 0.32866,-1.63298 0.0419,-0.1118 0.12638,-0.19213 0.23513,-0.21084 z m 162.822104,0.003 c 0.68218,0.0103 1.65077,0.13302 1.8092,0.94567 0.12922,0.8731 -0.23347,1.72507 -0.3111,2.58951 -0.19664,0.67094 -0.23319,1.37026 -0.41237,2.0469 -0.23968,1.37834 -0.56471,2.74139 -0.7891,4.12378 -0.28189,1.22635 -0.45466,2.47305 -0.73898,3.69952 -0.17024,1.09026 -0.43308,2.16195 -0.65319,3.2427 -0.15658,0.51296 -0.25945,1.04706 -0.49919,1.52445 -0.17716,0.61481 -0.7752,0.98605 -1.38131,1.08882 -0.32731,0.0457 -0.72538,0.2075 -1.0356,0.0522 -0.0972,-0.51245 0.23342,-1.00471 0.21808,-1.52498 0.13348,-0.57099 0.2538,-1.14264 0.34106,-1.72392 0.18415,-0.65521 0.22348,-1.33952 0.40876,-1.99523 0.21744,-1.19886 0.46698,-2.39233 0.68265,-3.59151 0.16237,-0.56688 0.18078,-1.16717 0.36122,-1.73219 0.0904,-0.74212 0.30671,-1.45875 0.39791,-2.20142 0.17598,-0.6094 0.20209,-1.24976 0.39325,-1.8557 0.0902,-0.75324 0.30018,-1.48261 0.39998,-2.23449 0.18399,-0.60326 0.22352,-1.24024 0.39584,-1.84743 0.004,-0.24739 0.0758,-0.65972 0.41289,-0.60668 z m 12.07575,1.52032 c -0.26808,0.0609 -0.14711,0.49439 -0.26355,0.68574 -0.11126,0.57318 -0.28418,1.17357 -0.26871,1.74977 1.07593,0.3418 2.22657,0.30727 3.33054,0.51314 0.67892,0.0531 1.40998,0.0121 2.05104,0.23048 -1.07648,0.29644 -2.22446,0.33189 -3.33726,0.43873 -0.80586,0.0765 -1.66006,0.0486 -2.41846,0.35089 -0.099,0.48046 -0.1454,0.98934 -0.27957,1.47122 -0.0188,0.35264 -0.19617,0.78822 -0.031,1.11467 0.84166,0.19861 1.72288,0.20557 2.57452,0.36483 0.73811,0.0959 1.53022,0.01 2.23346,0.26458 -0.0728,0.33725 -0.57248,0.26267 -0.83251,0.32505 -1.43642,0.066 -2.87398,0.18037 -4.29586,0.38499 -0.32056,0.16323 -0.14978,0.64781 -0.29249,0.92604 -0.0741,0.49053 -0.31219,1.03833 -0.14211,1.5229 0.41526,0.11017 0.85654,-0.1515 1.28416,-0.14572 1.12839,-0.0837 2.23775,-0.31056 3.36672,-0.39068 1.07503,-0.1809 2.16617,-0.2314 3.23908,-0.42581 0.63892,-0.0835 1.33995,-0.047 1.92185,-0.3421 0.28989,-0.83691 0.33148,-1.74284 0.56534,-2.59674 0.0558,-0.24234 0.0442,-0.60282 -0.28784,-0.59996 -0.8981,-0.1011 -1.78504,-0.28301 -2.68304,-0.37982 -0.36214,-0.0356 -0.74379,-0.031 -1.07952,-0.18604 0.69866,-0.55474 1.67192,-0.31799 2.4784,-0.58084 0.62904,-0.16949 1.38896,-0.0594 1.92184,-0.48059 0.27895,-0.58125 0.2196,-1.27245 0.44701,-1.87741 0.0494,-0.40649 0.18192,-0.85535 0.0739,-1.25419 -0.7261,-0.18235 -1.49865,-0.12574 -2.23345,-0.29352 -1.57226,-0.13946 -3.13469,-0.37116 -4.70256,-0.54983 -0.77761,-0.0991 -1.55884,-0.17756 -2.33991,-0.23978 z m -155.293364,1.18494 c 0.17401,0.1987 0.0123,0.56602 0.0522,0.81287 -0.0587,1.08114 -0.25828,2.14747 -0.31729,3.22977 -0.2137,1.28057 -0.22871,2.58433 -0.41238,3.86954 -0.10555,1.0682 -0.0747,2.17878 -0.38964,3.2091 -0.75488,0.0687 -1.54148,0.10665 -2.29443,-0.007 -0.28784,-0.16774 -0.0413,-0.59016 0.0134,-0.83405 0.14901,-0.46005 0.25449,-0.93714 0.39843,-1.40353 0.26511,-0.82746 0.50154,-1.66517 0.76274,-2.49649 0.0597,-0.38391 0.30651,-0.68739 0.339,-1.07539 0.2857,-0.90308 0.583,-1.80829 0.8723,-2.70629 0.23794,-0.65672 0.4113,-1.3425 0.66094,-1.99782 0.066,-0.17722 0.0456,-0.59155 0.31471,-0.60099 z m 162.159094,9.72033 c -0.17973,0.003 -0.36243,0.02 -0.52761,0.004 -0.27726,0.0319 -0.7516,-0.0899 -0.79168,0.32091 -0.26199,0.49262 -0.0254,1.1827 -0.47233,1.57458 -0.60616,0.12812 -1.27256,0.15433 -1.87223,-0.005 -0.1588,-0.46644 0.0375,-0.97787 0.1049,-1.44177 -0.20649,-0.21861 -0.60712,-0.065 -0.8785,-0.10904 -0.30245,0.0482 -0.70269,-0.0401 -0.95653,0.13746 -0.13282,0.48113 -0.0639,1.08096 -0.43202,1.46348 -0.51546,0.0598 -1.07834,0.0895 -1.57768,-0.0532 -0.16407,-0.34502 0.0385,-0.77232 0.0656,-1.13688 0.1425,-0.23693 0.0269,-0.60536 -0.30179,-0.5426 -0.48225,-0.0189 -0.9655,-0.006 -1.44797,-0.0103 -0.16409,0.57431 -0.35023,1.14338 -0.38034,1.74357 -0.1883,0.76443 -0.28173,1.54872 -0.47956,2.30942 -0.0573,0.20136 0.0566,0.35984 0.27854,0.28267 3.12853,0.0344 6.25864,0.033 9.38599,-0.0703 0.30466,-0.68149 0.27475,-1.44657 0.50591,-2.14923 0.0283,-0.75057 0.42979,-1.4834 0.28525,-2.23397 -0.15174,-0.0748 -0.32825,-0.0866 -0.50798,-0.0837 z m -0.5612,5.95571 c -1.60382,0.006 -3.20777,0.0109 -4.81159,0.0165 -1.60387,0.006 -3.20772,0.0113 -4.8116,0.017 -0.19883,0.69096 -0.47098,1.43328 -0.35605,2.15439 1.12369,0.13869 2.27929,-0.0338 3.39928,0.13178 0.19801,0.18108 -0.20627,0.30542 -0.33745,0.31057 -0.70935,0.11311 -1.34781,0.48444 -2.05155,0.60255 -0.45532,0.23432 -0.98621,0.28487 -1.44333,0.52917 -0.06,0.70249 -0.4218,1.39716 -0.28422,2.10271 0.84381,0.12942 1.72183,0.006 2.57762,0.0331 2.28756,-0.0502 4.57978,0.018 6.8647,-0.0878 0.38859,-0.078 0.19679,-0.63087 0.38499,-0.88263 0.10427,-0.39935 0.11967,-0.81373 0.15865,-1.22266 -1.18555,-0.0358 -2.3906,0.0809 -3.56464,-0.092 -0.25027,-0.0652 0.0279,-0.25045 0.16071,-0.23461 1.07802,-0.2995 2.144,-0.65189 3.22048,-0.94464 0.30186,-0.13441 0.72168,-0.28128 0.6413,-0.70435 0.0175,-0.58905 0.31403,-1.13391 0.2527,-1.7291 z" /><path
     id="path87"
     style="opacity:1;fill:#000000;stroke-width:0.264999;stroke-linecap:round;paint-order:markers fill stroke"
     d="M -3.6489002e-6,177.80119 H 249.08985 v 20.09329 H -3.6489002e-6 Z" /><path
     id="path88"
     style="opacity:1;fill:#000000;stroke-width:0.264999;stroke-linecap:round;paint-order:markers fill stroke"
     d="M -3.6489002e-6,50.271982 H 249.08985 v 20.0933 H -3.6489002e-6 Z" /></svg>
