<?xml version="1.0" encoding="UTF-8" standalone="no"?>
<!-- Created with Inkscape (http://www.inkscape.org/) -->

<svg
   width="112.05266mm"
   height="112.05272mm"
   viewBox="0 0 112.05264 112.05272"
   version="1.1"
   id="svg1"
   xml:space="preserve"
   xmlns="http://www.w3.org/2000/svg"
   xmlns:svg="http://www.w3.org/2000/svg"><defs
     id="defs1" /><g
     id="g8"
     transform="translate(-1002.1973,121.96289)"><path
       id="path7"
       style="opacity:1;fill:#afc6e9;fill-opacity:1;stroke:none;stroke-width:5.96005;stroke-linecap:round;stroke-dasharray:none;stroke-opacity:1;paint-order:markers stroke fill"
       d="m 3996.3008,-453.21485 c -16.6838,0.0117 -33.9688,1.71585 -49.6133,7.04688 12.4745,1.92294 23.9984,8.16715 34.0547,15.625 0.1782,-5.81388 -1.5891,-11.27602 -5.6406,-15.4375 0.3705,-2.3383 5.2974,0.0314 7.0215,-0.25196 12.0145,0.99668 20.5473,12.95572 18.8027,24.64844 0.3584,5.11209 -2.5359,13.29982 5.6426,10.94531 18.3453,-1.16678 33.4373,13.64389 39.4668,29.84375 6.4137,9.97598 16.3219,17.45757 20.9746,28.68946 14.3344,25.60898 18.7087,55.2738 18.8906,84.25195 23.0512,-7.76463 45.7901,-19.71935 70.8086,-18.26172 11.1162,0.73291 25.1483,-2.93371 33.1836,7.14649 5.6928,8.31296 3.3907,19.35749 4.4434,28.88086 -0.3916,17.80114 2.924,36.39661 -3.0117,53.58398 -6.8636,17.90767 -19.3204,35.01608 -37.4512,42.5625 -14.8172,3.93213 -31.0076,0.8398 -45.0117,8.20508 -9.2145,4.08827 -19.2875,5.81195 -28.6504,9.20117 -7.5742,8.53538 -7.4621,21.06652 -12.2168,31.12891 -3.5233,10.461818 -10.0609,19.684528 -18.6563,26.591796 10.4174,5.727512 20.2338,13.05188 31.3536,17.244141 68.9965,-28.597296 118.6492,-98.496867 122.7871,-173.099607 2.3441,-34.71581 -3.6448,-70.04123 -18.8496,-101.43946 -24.4609,-53.09586 -72.9445,-94.16621 -129.293,-109.68164 -19.1543,-5.83777 -39.0789,-7.70963 -59.0352,-7.42383 z m -52.7207,7.25195 c -34.4833,10.08903 -66.3453,28.99222 -90.9804,55.24805 -25.4775,25.70904 -35.5131,46.156 -45.942,73.37839 1.787,0.50655 8.0032,2.76268 10.705,2.34512 3.6424,-5.52838 5.0977,-12.82563 11.7877,-24.42859 8.5508,-18.94446 22.505,-35.05444 39.7539,-46.60156 20.4652,-14.52923 44.5224,-23.14296 69.1407,-27.29687 8.2622,-1.30242 18.7428,-8.62294 14.9238,-18.12305 -2.3247,-5.18445 -5.7373,-10.38437 -9.3887,-14.52149 z m -121.206,200.51981 -26.5117,12.54573 c 0.082,7.16249 1.7996,15.45491 2.208,20.61611 5.5165,25.19218 13.5994,47.95559 26.289,68.57422 -1.0038,-12.99528 4.8819,-24.86786 11.5625,-35.58399 5.6264,-8.95707 -3.5478,-17.84423 -6.8086,-25.82617 -7.2953,-11.98624 -7.0952,-26.76989 -6.7392,-40.3259 z m 14.6455,100.92942 c -2.3578,2.9596 -4.5251,7.40165 -7.0899,8.90908 1.491,2.97891 4.9887,9.65525 7.6121,11.20312 -0.4815,-6.72232 0.7973,-14.43177 -0.5222,-20.1122 z m 29.2988,23.45507 c -7.2973,0.32217 -13.3417,4.99218 -19.5937,8.22071 7.7292,8.19882 16.0625,15.792542 24.5332,23.210936 20.5006,-2.202696 41.3416,-2.852101 61.5996,-6.44336 1.2009,-2.754787 -4.1286,-4.866256 -5.3477,-7.017576 -16.4504,-15.2963 -40.2936,-15.23387 -61.1914,-17.97071 z"
       transform="scale(0.26458333)" /><g
       id="g7"
       transform="translate(128.72775,-128.72775)"><path
         id="path1"
         style="opacity:1;fill:#ffffff;fill-opacity:1;stroke:none;stroke-width:1.00768;stroke-linecap:round;paint-order:markers fill stroke"
         d="m 926.22303,12.306523 c -0.43157,1.50068 0.12737,3.31255 -0.76843,4.75268 -0.49934,0.75291 -1.0051,1.81596 -1.88567,2.10892 -0.24255,-1.36173 -0.0744,-2.97762 -1.2268,-4.0194 -0.87179,-0.7636 -1.89335,-1.67783 -3.01532,-1.92649 0.53868,1.9182 0.57619,4.0838 -0.65681,5.76967 -1.64532,2.71569 -5.11368,2.9691 -7.85636,3.85248 -5.60637,1.59039 -11.69582,3.1537 -15.78405,7.60574 -4.37511,4.3205 -8.35923,9.33065 -10.3756,15.201135 0.10437,1.112597 1.60574,1.251333 2.38022,1.78232 1.03207,0.31696 2.34952,1.307345 3.37654,0.533818 0.47325,-0.582683 0.91186,-1.193421 1.35754,-1.79834 -2.1114,6.143973 -14.05647,27.216121 -2.41433,25.308016 -0.82761,2.610321 0.56209,5.177895 0.8723,7.736479 -0.57003,2.797281 -2.96688,4.847633 -3.71812,7.572664 1.334,-0.14484 2.33093,-1.458878 3.59255,-1.945618 0.6863,-0.362457 1.42181,-0.639863 2.19728,-0.721403 -1.54145,3.352061 -3.32499,6.915181 -3.04943,10.700639 0.0974,1.119157 1.4529,0.252676 2.00557,0.06511 1.84062,-0.699037 3.61173,-1.919234 5.60585,-2.035534 0.47836,0.473207 -1.16781,1.215921 -0.12247,1.523421 3.40086,0.46387 6.93662,0.549768 10.13995,1.949235 3.44666,1.344027 6.29646,4.065685 7.66827,7.518405 0.26339,0.43342 0.43255,1.10314 0.79168,1.41232 l 3.28145,-1.48208 c -1.69092,1.21237 -2.79197,2.07644 -2.70319,2.18591 l -0.0775,2.23345 c -0.40851,1.95594 1.74824,3.0332 3.39876,3.09801 3.03993,0.32346 6.15355,-0.16499 8.86975,-1.59836 3.83587,-1.73331 7.6319,-3.81286 10.38541,-7.0776 1.47381,-1.3413 2.3833,-3.245457 2.1854,-5.265311 0.0358,-1.144182 -0.40903,-2.209569 -1.1374,-3.025139 l 11.03705,-4.984708 c 8.16242,-0.0667 15.84127,-5.422076 19.12338,-12.830225 0.5831,-0.944047 1.10165,-2.377744 -0.1018,-3.094901 -4.62118,-3.504961 -8.97748,-8.254474 -9.68417,-14.243576 0.60739,-1.061487 -0.0613,-2.733303 -1.82919,-1.564725 -4.51042,1.214707 -8.00623,3.565803 -12.69395,3.98835 -0.44734,0.13384 -0.70551,-0.359395 -0.13849,-0.430465 1.65989,-0.0135 1.03388,-1.106063 0.57102,-2.17351 -2.27395,-6.270952 -4.87096,-12.841233 -4.04936,-19.636007 0.57577,-1.70891 2.43306,-2.4017 4.0845,-2.53835 -1.07567,-1.0312 -2.41742,-2.99874 -4.1367,-2.07377 -0.52905,0.42964 -1.78954,0.95555 -1.87947,-0.14366 -0.05,-1.69317 2.09306,-2.12436 3.41065,-2.31356 1.39833,-0.0289 -0.74603,-0.9741 -1.28675,-1.12758 0.28274,-0.69507 0.49792,-1.33819 0.65423,-1.93528 1.43213,0.68454 2.74702,1.63405 3.10317,3.27887 -6.1725,-2.625286 -5.86844,-5.409334 -8.46357,-11.49029 0.22699,0.3303 0.45998,0.66542 0.69195,0.99839 -3.52001,-0.86593 -8.24536,-0.79792 -11.98325,-1.495 1.52297,-0.24094 2.40751,-1.72378 2.17919,-3.19618 -0.12512,-1.76342 -0.6903,-3.742 -1.92546,-5.009 z m -42.67905,47.348531 c 2.3843,-1.250784 3.03903,-4.136356 4.32997,-6.29729 0.25466,-0.919187 1.45941,-1.848915 0.94361,-2.834452 -3.74514,6.075287 -4.83395,5.201319 -5.27358,9.131742 z M 944.5599,38.760723 c -1.87931,0.52703 -2.25699,3.016574 -1.8986,4.682918 0.28781,1.385127 0.35178,2.96999 0.99994,4.199227 0.56149,-0.31858 0.78684,-1.606041 1.64435,-0.952914 2.52128,1.187037 2.97398,4.331021 3.45508,6.778915 0.32812,1.761994 0.35844,3.602977 0.61392,5.347994 0.67833,-0.7054 0.84607,-1.931713 1.00252,-2.91145 0.4096,-3.480211 0.008,-7.003889 -1.12086,-10.3172 -0.8684,-2.548294 -1.72728,-5.72192 -4.48913,-6.81354 -0.0685,-0.0123 -0.13766,-0.0174 -0.20722,-0.014 z m 27.35812,15.962288 c -3.42257,0.429083 -5.61834,0.146862 -8.04647,2.10027 -0.60057,0.668867 1.21612,2.454052 2.11443,2.485562 2.32975,0.42658 5.11084,0.119449 6.85384,-1.611788 1.19662,-4.199995 -0.37361,-2.51032 -0.9218,-2.974044 z m 7.65059,10.418444 c -0.23667,0.20864 -1.66498,1.338248 -1.95332,1.718988 -1.90619,2.841391 -6.14164,3.814187 -8.62554,6.128991 -1.36252,2.227201 -2.1581,4.601071 -3.64836,6.771485 -0.80569,1.402247 -0.20475,4.485738 -1.05673,5.803665 4.5446,0.29184 9.54329,-3.031641 11.82887,-6.698299 2.54815,-3.822358 3.93868,-9.119465 3.45508,-13.72483 z m -32.03163,26.692514 c -0.0556,0.003 -0.11136,0.005 -0.16795,0.01085 -1.74758,-0.0874 -2.06161,1.96906 -2.44223,3.245797 -1.26631,3.497018 -2.69818,7.203674 -5.66012,9.631454 2.11571,0.0449 4.19754,-0.96593 5.33869,-2.77606 1.92592,-2.6014 2.83034,-5.788128 3.95842,-8.782409 0.49137,-0.903977 -0.19318,-1.351184 -1.02681,-1.329634 z m -34.79013,13.099971 c -1.0246,0.10331 -2.70449,0.30067 -3.66799,0.62391 1.61517,2.05643 4.21983,4.19237 5.29735,6.64387 0.80408,1.62307 1.02672,2.21671 1.27618,3.98168 l 10.19547,1.13583 c -1.96118,-1.16821 -3.79854,-2.5502 -5.5485,-4.00492 -2.00276,-0.509 -4.48641,-0.36112 -5.91798,-2.15542 -1.46075,-1.58652 0.55084,-4.47894 -0.87179,-6.03994 -0.20806,-0.18483 -0.50025,-0.19163 -0.76274,-0.18501 z m -6.91379,0.69919 6.65851,7.73234 c -1.42097,-2.51178 -3.19378,-6.04947 -5.6162,-7.66155 -0.3387,-0.09 -0.69555,-0.0685 -1.04231,-0.0708 z m 33.75298,3.17086 c -0.5356,-0.0483 -1.11706,0.14111 -1.55443,0.50488 -1.25385,0.47058 -0.6444,1.65043 -0.46095,2.64738 0.27356,1.68868 0.84385,3.64719 0.45837,5.36298 l 6.29173,-1.38824 c -1.34583,-2.6141 -1.82205,-3.76915 -3.4547,-6.20664 -0.25464,-0.58651 -0.74442,-0.87206 -1.28002,-0.92036 z m -6.93963,0.46612 c -0.056,0.003 -0.11203,0.01 -0.1695,0.0238 -0.3087,0.15539 -0.61785,0.31071 -0.92656,0.46612 -2.53244,1.26954 -5.15196,2.36056 -7.82846,3.28766 2.27687,1.62892 4.70726,3.46055 7.42797,4.27157 h 3.93775 c 0.92752,-0.76293 1.07242,-2.38341 1.02681,-3.53208 0.0898,-1.17239 0.0423,-2.28659 -1.15446,-2.84634 -0.78574,-0.40933 -1.47293,-1.69769 -2.31355,-1.6707 z" /><g
         id="g5"
         transform="translate(53.178767,10.190113)"><g
           id="g4"
           transform="matrix(0.94533525,0,0,0.94533525,1410.9335,-697.21298)"><path
             id="path4"
             style="fill:#214478;fill-opacity:1;stroke:none;stroke-width:3.95658;stroke-linecap:round;stroke-opacity:1;paint-order:stroke fill markers"
             d="m -565.50843,734.03971 c -25.71396,0 -47.59833,16.42506 -55.75139,39.34871 l -0.98233,3.04865 c -0.42101,1.42552 -0.79921,2.86959 -1.11352,4.33764 -0.24631,1.20151 -0.39455,2.05938 -0.55539,2.96173 -0.49701,3.0852 -0.7653,6.24682 -0.7653,9.47175 0,0.26895 0.0251,0.53173 0.029,0.79974 l 0.23342,4.38083 c 0.0857,0.95305 0.16742,1.9071 0.29519,2.84748 0.27584,1.8503 0.55174,3.17828 0.82762,4.68422 2.8131,12.83265 9.7902,24.10313 19.44695,32.33087 l 0.0148,0.012 2.8606,2.30302 c 5.47666,4.10806 11.69142,7.281 18.40505,9.30065 l 0.006,0.002 2.58459,0.7172 c 4.63034,1.1646 9.47418,1.78972 14.46481,1.78972 5.5297,0 10.87622,-0.77522 15.95388,-2.19534 l 0.002,-5.4e-4 1.7859,-0.51549 c 1.27384,-0.40019 2.52252,-0.85513 3.75764,-1.33764 l 3.27278,-1.39177 0.009,-0.004 c 20.29242,-9.38099 34.38681,-29.90702 34.38681,-53.72334 0,-32.66642 -26.50145,-59.16793 -59.16794,-59.16793 z m 0,1.82252 h 5.5e-4 0.002 c 31.68037,0.001 57.34378,25.66483 57.34378,57.34541 0,23.62873 -14.27976,43.90379 -34.68036,52.68745 -1.87683,-0.94105 -3.72621,-1.9328 -5.53644,-2.9918 -1.01463,-0.59595 -2.01938,-1.20821 -3.00218,-1.85805 -0.10913,-0.0721 -0.2215,-0.1387 -0.33017,-0.21156 0.1141,-0.0926 0.20937,-0.20365 0.32143,-0.29846 0.48002,-0.40622 0.93989,-0.83269 1.377,-1.27916 2.02947,-2.07378 3.56762,-4.56222 4.13647,-7.47867 0.0423,-0.0991 0.0643,-0.21721 0.10332,-0.31924 0.16342,-0.42656 0.30453,-0.8736 0.43076,-1.33546 0.58724,-2.14982 0.96193,-4.529 2.7294,-5.87426 1.26771,-0.0993 2.48735,-0.38755 3.68987,-0.7418 0.63833,-0.18818 1.27068,-0.39781 1.89796,-0.62646 2.17707,-0.79331 4.30902,-1.74407 6.48924,-2.44078 1.11349,-0.0506 2.26367,-0.0408 3.4149,-0.0486 0.63196,-0.005 1.26097,-0.0268 1.88484,-0.0716 2.10732,-0.15081 4.13533,-0.61335 5.80702,-2.16144 0.1232,-0.0889 0.2288,-0.19819 0.34986,-0.28972 0.49374,-0.37329 0.96907,-0.76834 1.42565,-1.18349 0.22087,-0.20088 0.43601,-0.40444 0.64778,-0.61443 0.43748,-0.43366 0.85489,-0.88599 1.25182,-1.35569 0.18991,-0.22481 0.37407,-0.45145 0.5543,-0.68385 0.38077,-0.49074 0.73888,-0.99747 1.07471,-1.51913 0.15591,-0.24234 0.30568,-0.48578 0.45153,-0.73415 0.32154,-0.54716 0.61862,-1.10759 0.88939,-1.68094 0.11112,-0.23551 0.21808,-0.47068 0.32033,-0.71009 0.25944,-0.60674 0.4889,-1.22524 0.68933,-1.85368 0.0724,-0.22729 0.14168,-0.45361 0.20608,-0.68331 0.18584,-0.66151 0.3379,-1.33224 0.45536,-2.01002 0.0348,-0.20171 0.0676,-0.40231 0.0962,-0.60514 0.10199,-0.72018 0.16397,-1.44652 0.18476,-2.17674 0.005,-0.16445 0.008,-0.32778 0.009,-0.49253 0.002,-0.77311 -0.0427,-1.54854 -0.13666,-2.3238 -0.008,-0.068 -0.003,-0.13589 -0.012,-0.2039 -0.59193,-4.20503 0.26157,-8.49472 -0.42529,-12.65869 -0.0917,-0.26138 -0.19947,-0.50361 -0.31979,-0.72978 -0.11494,-0.21772 -0.2432,-0.41875 -0.3821,-0.60623 -3.2e-4,-4.2e-4 -3.3e-4,-8.5e-4 -5.5e-4,-0.001 -1.9887,-2.68231 -6.30554,-2.38012 -9.38592,-2.30084 -0.81732,-0.0278 -1.64431,0.004 -2.47686,0.0782 -0.27812,0.0249 -0.55925,0.0788 -0.83855,0.11371 -0.58742,0.071 -1.17476,0.14193 -1.75529,0.25255 -0.21076,0.0401 -0.42201,0.0992 -0.63301,0.14377 -0.5809,0.12404 -1.16196,0.24792 -1.7367,0.40287 -3.98358,1.04295 -7.91328,2.66806 -11.49926,3.95554 -0.48142,-4.58546 -1.43333,-9.13059 -2.07015,-13.68585 3.61399,0.77222 7.38064,1.8506 11.18931,1.46392 5.17533,0 10.94689,-2.56754 12.79809,-7.69241 1.07685,-3.0311 0.43503,-6.65586 -2.43367,-8.45443 -6.38549,-3.62881 -14.2129,-3.86057 -20.39156,-8.01767 -4.60264,-2.56342 -9.28152,-7.41751 -15.00763,-5.88848 -2.16029,0.36624 -3.95563,1.65267 -5.84038,2.56432 -0.008,-7.5e-4 -0.0165,-0.004 -0.024,-0.004 -0.89648,0.0204 -2.93739,0.22552 -3.24161,-0.0765 -0.0352,-0.0429 -0.0431,-0.0936 -0.005,-0.15744 0.66171,-3.20246 0.33306,-5.40142 -0.52424,-6.88993 -3.4e-4,-5.9e-4 -9.4e-4,-10e-4 -10e-4,-0.002 -0.13944,-0.24348 -0.29406,-0.46717 -0.45973,-0.67402 l -5.5e-4,-5.4e-4 c -1.52219,-1.89991 -4.06647,-2.30798 -6.08253,-2.20463 0.005,0.005 0.007,0.008 0.012,0.0126 -10e-4,5e-5 -0.002,-6e-5 -0.003,0 0.44949,0.42154 0.78355,0.77493 1.03152,1.10477 l 5.5e-4,5.4e-4 c 2.6e-4,3.5e-4 2.9e-4,9.5e-4 5.5e-4,10e-4 0.2408,0.32061 0.39503,0.61925 0.49908,0.93531 0.21263,0.65609 0.19061,1.3915 0.16782,2.56651 -0.79314,-1.1025 -6.60642,-4.48333 -10.22393,-4.50547 0.003,0.004 0.006,0.008 0.009,0.0126 0.38712,0.61852 0.84425,1.21089 1.27696,1.79683 0.003,0.004 0.006,0.009 0.009,0.0126 0.21597,0.29243 0.42503,0.58336 0.61662,0.87518 0.60253,0.92036 1.01514,1.85184 0.8801,2.86989 -0.0304,0.23814 -0.0965,0.48213 -0.19242,0.73087 -0.0407,0.10406 -0.0899,0.20924 -0.14322,0.31542 -0.11387,0.22924 -0.26371,0.46447 -0.4417,0.70462 -0.046,0.0617 -0.0812,0.12179 -0.13174,0.18422 -0.93485,1.00827 -2.4789,1.69266 -4.9138,2.11771 -6.18949,0.52104 -15.67697,4.62931 -21.94021,10.24416 -5.10793,4.45262 -7.74223,10.84867 -10.45189,16.85476 -0.002,0.004 -0.004,0.007 -0.005,0.0109 -1.05375,-0.0542 -2.07548,-0.36303 -3.08691,-0.73961 7.87456,-22.26108 29.07662,-38.20943 54.04203,-38.2106 z m -3.87299,4.14576 c 0.27274,0.30265 0.53759,0.65826 0.78444,1.04957 0.76978,1.22475 1.35274,2.79756 1.43276,4.22175 0.0209,0.36243 0.006,0.71314 -0.0443,1.04792 -0.20077,1.31661 -0.98868,2.35747 -2.70973,2.61188 -15.49209,3.08651 -27.29159,13.825 -35.59817,26.89064 -0.56655,0.75108 -0.83433,1.55967 -1.48032,1.9477 -0.13757,0.0829 -0.29532,0.14438 -0.47449,0.18367 -0.0433,0.009 -0.0795,0.0263 -0.12573,0.0328 -0.0567,-10e-4 -0.11463,-0.0127 -0.17164,-0.0159 -0.3666,-0.021 -0.73745,-0.0807 -1.1097,-0.17547 -1.51738,-0.38453 -3.03915,-1.29162 -4.22339,-2.05321 2.46091,-7.04908 7.72163,-13.54946 13.24306,-18.39685 5.43672,-3.98291 12.78699,-5.44233 19.11787,-7.18293 3.80588,-1.22233 5.89431,-5.27343 4.29774,-8.96391 2.06287,0.83842 3.15042,1.85119 3.71282,2.83381 0.93185,1.64077 0.39901,3.19421 0.48051,3.70244 0.003,-10e-4 0.006,-0.004 0.01,-0.005 5e-4,0.004 -0.002,0.0145 -10e-4,0.018 2.27545,-0.97698 3.63122,-4.13258 2.85951,-7.74708 z m 15.79918,8.34074 c 5.49325,1.23488 9.4388,5.92611 14.79827,7.62845 5.37442,2.23684 11.51726,2.87477 16.35239,6.25145 2.41774,2.5299 0.20188,6.2522 -2.60422,7.31796 -4.22821,2.14531 -9.32348,2.24827 -13.91599,1.51203 -2.75958,-0.68383 -4.97243,-2.37538 -6.67893,-4.52405 -0.58671,-1.26326 -1.22171,-2.51429 -1.95754,-3.73414 -0.27113,-0.43159 -0.55538,-0.84187 -0.84019,-1.25019 -0.13367,-0.35028 -0.27738,-0.69846 -0.3914,-1.05174 -0.43624,-1.28368 -1.47591,-1.88157 -2.58509,-2.36862 -0.30345,-0.26427 -0.60657,-0.53241 -0.91728,-0.74672 -0.82534,-3.07974 -2.4462,-5.32195 -4.26384,-6.85167 -0.29957,-0.39798 -0.60133,-0.79768 -0.89267,-1.18841 1.17561,-0.4202 2.77665,-1.09099 3.89649,-0.99435 z m -7.77933,2.78243 c 2.06387,0.14299 3.97315,1.55754 5.0707,3.33946 0.36439,0.59431 0.63828,1.22913 0.79756,1.87118 -6.10863,0.97209 -12.65406,0.41901 -18.30829,3.4559 -10.17398,5.06875 -18.10584,13.62047 -25.34418,22.18893 -5.14602,6.13042 -8.71976,13.31582 -12.28534,20.41452 -0.19364,0.13859 -0.35334,0.10484 -0.48815,-0.0284 -0.40058,-0.41459 -0.57653,-1.7206 -0.74399,-2.05648 -0.6829,-3.38822 0.97555,-6.55513 2.37846,-9.65269 0.28273,-0.62394 0.54639,-1.24534 0.78553,-1.86461 0.0659,-0.17103 0.15656,-0.34415 0.21702,-0.51494 7.25586,-16.28188 20.73001,-30.69134 38.10674,-35.94912 3.18763,-0.89812 6.51111,-1.21057 9.81394,-1.20372 z m 0.17329,8.35495 v 5.4e-4 c 0.84479,-0.0359 1.69484,-0.0349 2.54737,0.009 2.61083,0.25236 5.91907,-0.14094 7.95207,1.69515 -1.66278,-0.0394 -4.3323,0.44002 -4.30757,2.59111 0.0957,0.22238 0.19724,0.38859 0.30339,0.51002 0.73847,0.86476 1.71202,-0.49107 2.65506,-0.64122 1.54208,-0.0219 2.47905,1.4895 3.51002,2.40579 -2.24598,-0.0717 -4.45353,1.1747 -4.51804,3.65051 -0.49246,7.50642 2.61839,14.64796 5.14176,21.55701 -1.38732,0.26593 -1.95328,0.61287 -1.74763,0.81614 0.10002,0.11985 0.51037,0.17021 1.11352,0.15525 0.36759,-0.0113 0.82339,-0.0574 1.36662,-0.14213 0.13998,-0.0213 0.20461,-0.0101 0.35641,-0.0372 0.18439,-0.0334 0.36592,-0.0934 0.54993,-0.13065 0.73156,-0.14824 1.46015,-0.32349 2.18604,-0.52095 3.48935,-0.94858 6.91859,-2.33019 10.30647,-3.10113 -0.0291,3.46106 1.25085,6.60301 3.19351,9.36679 1.94449,2.77053 4.55427,5.16124 7.18021,7.11187 0.25102,0.13695 0.4319,0.28936 0.55812,0.45317 0.86697,1.15596 -1.01966,2.89544 -1.2786,4.14686 -1.51878,2.93494 -3.71037,5.43971 -6.31213,7.40215 -0.57777,0.43581 -1.17523,0.84395 -1.79136,1.22394 -0.26614,0.16413 -0.53484,0.32279 -0.8074,0.47613 -0.63354,0.35635 -1.28287,0.68309 -1.94716,0.97904 -2.97749,1.32684 -6.23197,2.04221 -9.52258,1.99635 -0.16321,0.009 -0.32739,0.007 -0.49089,0.0131 -0.83144,0.0312 -1.66565,0.0322 -2.50091,0.002 -0.31649,-0.0114 -0.63253,-0.0268 -0.94898,-0.047 -0.8604,-0.0551 -1.71928,-0.1414 -2.5747,-0.26184 -0.28451,-0.04 -0.56821,-0.0829 -0.85168,-0.13011 -0.88614,-0.14791 -1.76603,-0.33059 -2.63702,-0.54938 -0.24129,-0.0605 -0.48181,-0.12261 -0.72157,-0.18859 -0.90526,-0.24946 -1.79892,-0.53749 -2.67693,-0.86479 -0.1954,-0.0728 -0.39003,-0.14643 -0.58382,-0.22304 -0.90923,-0.3599 -1.80031,-0.76083 -2.66818,-1.2059 -3.18481,-1.63149 -6.06227,-3.83115 -8.38392,-6.61716 l -5.5e-4,-5.4e-4 c -0.22668,-0.31824 -0.5256,-0.73149 -0.80958,-1.1824 -0.86008,-1.36971 -1.5775,-3.09687 0.25856,-3.68166 1.1307,-0.58387 3.76274,-0.86609 3.39468,-1.12992 -0.0954,-0.0919 -0.53639,-0.18106 -1.52843,-0.27934 -3.97811,-0.17706 -8.591,0.44932 -10.91161,4.12008 -0.36945,0.26938 -0.64019,0.99863 -0.49089,1.24088 0.0806,0.15653 0.31031,0.14368 0.76421,-0.25036 1.55951,-0.8319 3.9762,-2.89831 5.65452,-1.43331 1.28273,5.39024 2.90562,11.17779 5.82615,16.02276 0.0862,0.14323 0.18699,0.27554 0.27551,0.41709 0.33714,0.5384 0.67697,1.07473 1.04902,1.58637 -2.1592,2.09167 -6.16701,4.5926 -10.254,6.64996 -1.46585,0.84611 -3.53721,2.7695 -4.34037,4.68421 -0.47152,-0.77005 -0.88334,-1.58282 -1.20098,-2.45663 -0.18489,-0.40572 -0.38827,-0.79401 -0.60788,-1.16654 l -5.4e-4,-5.5e-4 c -0.21424,-0.36439 -0.44505,-0.71256 -0.68987,-1.04628 -3.47152,-4.73193 -9.88925,-6.43277 -15.59692,-6.55211 -0.44507,0.015 -1.40414,-0.0315 -1.73123,-0.31104 -0.18311,-0.16863 -0.14508,-0.41789 0.35915,-0.78553 0.30126,-0.3564 0.35796,-0.57066 0.27059,-0.69041 -0.22847,-0.37416 -1.77584,0.11014 -2.23087,0.33782 -2.01329,0.61027 -3.93372,1.93904 -5.88738,2.42056 -0.71023,-4.27109 1.38706,-8.14795 3.09456,-11.89012 -0.004,-0.001 -0.009,-8e-4 -0.0137,-0.002 0.002,-0.004 0.003,-0.007 0.005,-0.0109 -1.26246,-0.35997 -2.9993,0.96411 -4.20262,1.62573 -0.23663,0.22971 -1.59122,1.24097 -1.8586,1.06596 -0.0754,-0.0693 -0.0379,-0.26112 0.20007,-0.65597 0.57793,-1.42213 1.55959,-2.73564 2.39158,-4.09165 0.26306,-0.42831 0.50385,-0.86301 0.71447,-1.30594 0.35613,-0.75098 0.6346,-1.52381 0.69424,-2.3566 -0.81148,-2.85974 -2.30954,-5.98136 -0.46684,-8.81249 6.71173,-14.28194 17.93001,-25.91104 30.01582,-35.80316 4.62546,-3.76966 10.29186,-5.92518 16.20534,-6.17656 z m -9.1115,6.0306 c -5.74611,0.49299 -8.83013,6.93785 -8.22594,12.17109 0.0989,6.21218 3.34556,11.79546 6.66198,16.82086 -4.92062,1.26443 -11.07968,2.00416 -14.06959,6.50838 0.009,-0.005 0.0183,-0.008 0.0273,-0.0126 -0.006,0.009 -0.0127,0.0163 -0.0186,0.0252 5.95945,-2.99556 12.66683,-4.12943 19.29608,-4.50601 1.16472,-0.25705 2.49115,-0.2072 3.7582,-0.30667 0.38646,-0.0304 0.76449,-0.0809 1.13156,-0.15688 0.64816,-0.13397 1.2661,-0.33639 1.79573,-0.7336 1.33246,-3.83059 0.65735,-8.12983 0.29246,-12.10112 -0.0205,-0.1124 -0.0523,-0.2299 -0.0732,-0.34275 -0.24461,-1.31693 -0.52209,-2.66026 -0.85496,-4.0009 -0.80286,-3.23046 -1.92957,-6.42766 -3.78553,-9.11424 -0.89724,-1.30122 -1.96197,-2.48288 -3.23833,-3.4898 -0.79346,-0.52625 -1.74622,-0.79234 -2.69715,-0.76093 z m 0.31213,1.9242 c 1.96383,0.57007 3.3224,1.99829 4.37317,3.709 1.05034,1.7139 1.79212,3.70981 2.52278,5.41016 0.0181,0.0539 0.037,0.128 0.0552,0.18367 0.28838,0.88068 0.58421,1.98519 0.86534,3.20936 0.0411,0.17968 0.0805,0.3604 0.12081,0.54501 0.2658,1.21518 0.50917,2.52403 0.71173,3.85331 0.48771,3.20831 0.72477,6.48815 0.36462,8.61297 -0.63646,0.0437 -1.94145,-0.30624 -3.47558,0.0186 0.0109,-1.23341 -0.0373,-2.39642 -0.13721,-3.51548 -0.08,-0.90213 -0.20168,-1.7707 -0.37227,-2.61024 -0.40967,-2.0077 -1.09185,-3.85878 -2.1833,-5.61023 -0.0614,-0.19644 -0.16735,-0.4035 -0.30613,-0.61061 -0.95104,-1.43357 -3.53114,-2.89308 -4.51147,-1.06596 -0.9635,3.93411 -0.41844,8.01201 0.52861,11.91416 -0.14394,-0.2467 -0.27685,-0.49783 -0.47832,-0.72321 -0.49398,-0.7109 -0.96007,-1.45817 -1.39067,-2.23414 -3.01421,-5.43203 -4.2954,-12.2716 -1.32179,-17.8912 1.03904,-1.54147 2.70487,-3.04357 4.63447,-3.19515 z m 20.31776,0.73961 h 5.5e-4 c 1.17401,0.40997 2.02092,1.22422 2.67802,2.22759 0.23803,0.36496 0.44778,0.75717 0.64231,1.16162 0.32839,0.68078 0.60453,1.40132 0.85878,2.11662 0.28847,0.81234 0.551,1.61496 0.83036,2.33582 0.97664,3.86858 2.04139,8.79709 -0.0312,13.21737 -0.17996,-2.50213 -0.38809,-6.44128 -1.45135,-9.35969 -0.1996,-0.55015 -0.42939,-1.06367 -0.69533,-1.5246 -0.007,-0.0129 -0.0138,-0.0276 -0.0213,-0.0404 -2.9e-4,-4.9e-4 -2.6e-4,-10e-4 -5.5e-4,-0.002 -0.13915,-0.23769 -0.28885,-0.46028 -0.44825,-0.66691 -3.2e-4,-4.1e-4 -9.5e-4,-2.2e-4 -10e-4,-5.5e-4 -0.49018,-0.63503 -1.07923,-1.11276 -1.79082,-1.36498 -1.14086,-0.40893 -1.30852,0.60649 -1.47539,1.04191 -0.0334,0.0847 -0.0684,0.149 -0.11043,0.16837 -0.0107,0.006 -0.0198,0.0236 -0.0317,0.024 -0.12381,-0.0303 -0.644,-1.97 -0.63903,-2.47576 -0.3266,-1.79117 -1.32904,-4.19391 0.66253,-6.46519 0.27601,-0.25187 0.64512,-0.41722 1.02387,-0.39304 z m -70.83392,8.82124 c 0.87649,0.1956 8.05328,2.57288 11.16744,3.35149 0.048,0.0127 0.0953,0.0278 0.14322,0.0404 0.22546,0.0364 0.38545,0.0993 0.49363,0.18258 0.72455,0.59357 -1.06863,2.18814 -1.05121,2.97813 -1.52346,2.57982 -2.63157,5.32242 -5.84365,6.96811 -0.0289,0.0171 -0.0548,0.0285 -0.0836,0.0454 -2.4198,0.8238 -4.80548,1.73753 -7.17419,2.69442 4e-5,-0.0315 5.4e-4,-0.0216 5.4e-4,-0.0547 0.32369,-5.65692 0.89954,-11.17375 2.34785,-16.20588 z m 98.99388,9.13556 c 0.56424,0.0286 1.16737,0.29809 1.49835,0.69041 0.32251,0.39168 0.37588,0.90289 -0.14814,1.42019 -2.10028,1.70447 -5.42811,2.08437 -7.90451,1.17146 -0.67261,-2.28652 2.74373,-2.77385 4.31195,-3.1383 0.5877,-0.0825 1.18137,-0.12516 1.77496,-0.10659 0.14768,-0.0339 0.30598,-0.0453 0.46739,-0.0372 z m -93.45908,7.91653 c -0.38017,2.32987 -0.25587,4.98318 0.46246,8.95899 1.19683,2.50055 3.46372,5.57734 4.03753,8.42766 -2.00796,3.5558 -5.49105,8.29613 -3.37663,12.34984 -4.35463,-5.61288 -8.3572,-15.9284 -8.75291,-26.01765 -0.003,-0.0747 0.0759,-0.11633 0.11316,-0.17875 3.29987,-1.40507 6.48835,-2.87418 7.51639,-3.54009 z m 102.09664,2.69552 c 0.59434,6.06886 -2.08221,12.22433 -6.07816,16.70224 -2.25285,2.32163 -5.60889,4.22574 -8.8524,3.98669 0.11883,-0.1389 0.21875,-0.29543 0.33509,-0.43677 0.43828,-0.53231 0.85952,-1.08054 1.26331,-1.64431 1.97774,-2.76207 3.56705,-5.85654 4.81049,-9.02678 1.46348,-1.61239 3.45422,-2.89534 4.82142,-4.71209 0.81352,-0.88096 1.56259,-1.81371 2.27186,-2.77587 0.40334,-0.54695 0.78692,-1.10804 1.1496,-1.68422 0.088,-0.13986 0.19338,-0.26724 0.27879,-0.40889 z m -25.75744,4.60549 c -0.70965,3e-5 -1.28478,0.3981 -1.28462,0.8894 -4e-5,0.12571 0.0398,0.24414 0.10769,0.35259 0.19303,0.32231 0.65037,0.5499 1.18567,0.54992 0.70965,-3e-5 1.28533,-0.39864 1.28517,-0.88994 4e-5,-0.12571 -0.0397,-0.24474 -0.10769,-0.35313 -0.19319,-0.32216 -0.65092,-0.54881 -1.18622,-0.54884 z m 4.24963,3.16236 c -0.54583,0 -0.98835,0.4425 -0.98834,0.98833 0,0.14213 0.0323,0.27528 0.0864,0.39741 0.0497,0.11238 0.11764,0.2155 0.20335,0.30121 0.17963,0.18514 0.42904,0.30229 0.70736,0.30229 0.54583,1e-5 0.98834,-0.4425 0.98834,-0.98833 0,-0.14198 -0.0325,-0.2754 -0.0864,-0.39742 -0.024,-0.0568 -0.0679,-0.1001 -0.10167,-0.15087 -0.0345,-0.0502 -0.0588,-0.10797 -0.10168,-0.15088 -0.17962,-0.18513 -0.42904,-0.30175 -0.70736,-0.30174 z m -4.64486,3.6423 c -0.57484,0 -1.04093,0.53775 -1.04081,1.20098 5e-5,0.33263 0.11777,0.63265 0.30721,0.85004 0.18899,0.22298 0.45072,0.36297 0.74235,0.36297 0.57467,-1e-5 1.0407,-0.53736 1.04081,-1.20043 6e-5,-0.33241 -0.11752,-0.63313 -0.30667,-0.85058 -0.18899,-0.2231 -0.45117,-0.36297 -0.74289,-0.36298 z m -28.10693,13.55247 c 2.77989,-0.0128 6.67622,1.82274 7.76238,3.41052 2.48067,0.0503 3.95223,0.95732 4.72194,2.26749 0.76634,1.3152 0.82834,3.03413 0.49198,4.7028 -0.008,0.0431 -0.0274,0.0966 -0.0377,0.14213 -0.0481,0.22131 -0.14196,0.47982 -0.27332,0.76585 -0.0556,0.11893 -0.12323,0.24503 -0.19679,0.3761 -0.16982,0.306 -0.40662,0.65454 -0.69479,1.03316 -0.13605,0.17741 -0.29013,0.3647 -0.45645,0.55922 -0.34142,0.40151 -0.76664,0.84742 -1.2562,1.3278 -0.25194,0.24623 -0.52873,0.5047 -0.82434,0.77296 -0.56035,0.5101 -1.21941,1.06861 -1.9559,1.66399 -0.19918,0.16063 -0.36753,0.30683 -0.58054,0.47395 -0.0717,0.0563 -0.21408,0.14017 -0.30722,0.20499 -0.35987,0.25481 -0.9028,0.57917 -1.53717,0.93641 -3.04148,1.70297 -8.36447,4.16322 -9.55538,4.15178 -4.44056,0.42222 -6.73905,-0.11879 -7.69897,-1.13758 -0.18674,-0.20107 -0.32483,-0.41955 -0.41436,-0.65378 -0.91085,-2.38325 2.89467,-6.29221 4.98597,-7.84712 1.33954,-0.99863 7.72926,-3.79694 10.22557,-6.54008 0.24844,-0.27165 0.45581,-0.54242 0.6188,-0.81122 0.0309,-0.0515 0.0912,-0.10397 0.11862,-0.15525 0.12584,-0.24181 -0.0715,-0.78045 -0.52478,-1.52022 -0.026,-0.0426 -0.0718,-0.0999 -0.0995,-0.14377 -0.44874,-0.71101 -1.10161,-1.58103 -1.94278,-2.56213 -0.3419,-0.54885 -0.46269,-0.98696 -0.56906,-1.418 z m -43.54149,0.62208 c -0.0889,0.72007 -0.16001,1.49536 -0.20554,2.28225 -0.007,0.1134 -0.0136,0.2222 -0.0186,0.33619 -0.0115,0.2696 -0.0159,0.53534 -0.0159,0.8063 -5.2e-4,0.26896 0.0117,0.53479 0.0251,0.80248 0.0108,0.2056 0.0162,0.4099 0.0366,0.61333 0.0466,0.47484 0.11707,0.94265 0.2274,1.39505 0.002,0.009 0.002,0.0181 0.004,0.0268 -0.96561,-1.22946 -1.92931,-2.68871 -2.88028,-4.23268 0.10469,0.15732 0.19995,0.31587 0.32361,0.47066 0.003,0.004 0.005,0.008 0.009,0.0126 1.2688,0.0393 1.32351,-2.63747 2.49435,-2.51293 z m 64.26979,1.87937 c 0.35531,0.0274 0.66355,0.12156 0.82489,0.32034 0.15497,0.20225 0.16244,0.5085 -0.0847,0.96209 -1.53728,3.95021 -2.6555,8.63887 -6.21428,11.2888 -0.0992,0.046 -0.19986,0.0789 -0.29957,0.12081 -0.35959,0.15082 -0.72162,0.27866 -1.08618,0.38265 -0.65619,0.18766 -1.31894,0.31484 -1.98488,0.39578 0.71956,-0.50692 1.31598,-1.13144 1.85587,-1.80066 0.3274,-0.40539 0.62793,-0.82966 0.90525,-1.26767 0.86302,-1.36431 1.53209,-2.82501 2.14996,-4.09712 0.0508,-0.1046 0.0701,-0.19954 0.11589,-0.30284 0.17442,-0.39149 0.31899,-0.7739 0.43841,-1.14686 0.5582,-1.75138 0.68747,-3.30653 1.77386,-4.65361 0.2173,-0.0718 0.52836,-0.14144 0.85933,-0.17984 0.24824,-0.0288 0.50737,-0.0403 0.74618,-0.0219 z m -56.66375,4.71264 c 0.24855,-0.0177 0.50058,-0.0143 0.75601,0.0142 0.34472,0.0385 0.69587,0.12228 1.05448,0.26021 6.09345,0.41641 12.98418,1.14207 17.09255,6.25254 1.01639,1.18517 -1.71979,0.92861 -2.32489,1.15616 -3.0363,0.27297 -6.09571,0.52185 -9.15743,0.78881 -0.86351,0.0752 -1.72403,0.16216 -2.58727,0.24435 -1.04922,0.0999 -2.09991,0.18187 -3.14705,0.29738 -2.49085,-1.99997 -4.81166,-4.20094 -6.93585,-6.58327 0.99073,-0.57689 1.99225,-1.26461 3.04263,-1.77605 0.0162,-0.008 0.0325,-0.0147 0.0487,-0.0224 0.69636,-0.3344 1.41249,-0.57872 2.15816,-0.63192 z m 20.26583,9.55593 c 0.1899,0.21755 0.32123,0.38446 0.41709,0.53462 0.28607,0.45429 0.2287,0.74343 0.35805,1.71483 -0.54651,1.49961 -0.57469,2.94852 0.35095,4.03753 0.0105,0.0125 0.0253,0.0231 0.0361,0.0355 0.21494,0.24514 0.47879,0.47207 0.79756,0.6762 0.0484,0.0313 0.10263,0.06 0.1536,0.0902 0.29902,0.17578 0.64283,0.3327 1.03316,0.46957 1.01399,0.35901 2.33,0.58627 4.05339,0.61826 1.47883,1.32216 3.02305,2.53634 4.6372,3.62919 -3.2283,-0.30457 -6.37657,-0.87815 -9.42637,-1.69515 -0.0617,-0.22812 -0.15207,-0.44684 -0.22249,-0.67238 -0.13457,-0.43286 -0.27725,-0.86263 -0.44442,-1.28462 -0.10447,-0.26239 -0.22198,-0.51869 -0.33947,-0.77624 -0.19124,-0.42137 -0.40174,-0.83411 -0.62864,-1.24088 -0.11828,-0.21114 -0.23158,-0.4235 -0.3597,-0.63029 -0.37357,-0.6054 -0.77727,-1.19695 -1.23815,-1.7602 -0.003,-0.004 -0.005,-0.009 -0.009,-0.0126 -1.53534,-1.73879 -2.32579,-2.53325 -2.84092,-3.02296 0.98718,-0.17756 3.46442,-0.72549 3.67183,-0.71064 z m -6.91672,1.32015 c 0.41009,0.29517 0.81202,0.61696 1.20699,0.95499 0.0683,0.0586 0.13511,0.12009 0.20281,0.17985 0.24271,0.21373 0.47746,0.44225 0.71228,0.67074 0.53701,0.52409 1.06139,1.07169 1.54537,1.66399 0.30823,0.37597 0.5995,0.76833 0.88119,1.16764 0.12995,0.18484 0.25191,0.37537 0.37555,0.56468 0.14834,0.22636 0.29209,0.45543 0.43076,0.68768 0.13512,0.2271 0.26831,0.45496 0.39358,0.68714 0.11131,0.20565 0.21235,0.41554 0.31542,0.62481 0.1176,0.23948 0.23978,0.47735 0.34603,0.72103 -5.32681,-1.7372 -10.30811,-4.23051 -14.82069,-7.35732 2.78255,-0.20199 5.55841,-0.39168 8.41071,-0.56523 z m 34.60874,2.24891 c 0.1591,-4.7e-4 0.3133,0.0282 0.46082,0.0836 0.0152,0.006 0.0298,0.0137 0.0448,0.0202 0.12362,0.0524 0.23953,0.13357 0.34985,0.23396 0.0261,0.0242 0.0535,0.0445 0.0787,0.0716 0.11843,0.12539 0.22819,0.27933 0.32362,0.47449 5e-4,10e-4 10e-4,0.002 0.002,0.003 0.0265,0.0387 0.0496,0.0798 0.076,0.11862 0.65107,0.95494 1.25743,1.94133 1.8575,2.93167 0.50205,0.84333 0.99195,1.69465 1.46665,2.55557 -1.94597,0.52799 -3.93049,0.96102 -5.95298,1.28352 0.0139,-0.45829 -0.0382,-0.9172 -0.0946,-1.37591 -0.0336,-0.27687 -0.076,-0.55349 -0.12627,-0.83035 -0.26121,-1.42745 -0.67448,-2.85317 -0.82599,-4.26658 0.45619,-0.4889 1.14535,-1.02309 1.8258,-1.22175 0.0277,-0.008 0.0543,-0.008 0.082,-0.0153 0.14529,-0.0364 0.29065,-0.0657 0.43185,-0.0661 z m -7.0911,0.43677 c 0.2454,0.22347 0.51239,0.42502 0.75164,0.65488 0.63472,0.51952 1.04743,0.91094 1.44424,1.25893 0.33074,0.28927 0.66606,0.55006 1.11516,0.82051 0.0331,0.02 0.0481,0.041 0.0825,0.0612 -0.0343,0.20561 -0.039,0.83888 -0.10222,1.71264 0.037,0.20013 0.0554,0.41306 0.0722,0.62591 0.006,0.0688 0.0168,0.13421 0.0208,0.2039 0.0117,0.2599 0.006,0.52392 -0.0175,0.78499 -10e-4,0.0186 -0.002,0.0371 -0.004,0.0557 -0.0557,0.55496 -0.19632,1.09422 -0.44661,1.54537 -1.83856,0.19834 -3.70404,0.30531 -5.59055,0.32581 -2.41987,-0.9289 -4.62388,-2.47556 -6.74125,-4.07799 0.98018,-0.18553 2.87003,-0.94675 4.92419,-1.85696 1.22599,-0.54323 2.46857,-1.12913 3.65871,-1.72303 0.27078,-0.13512 0.57356,-0.25912 0.83254,-0.39194 z m 12.08691,2.52168 c 1.31912,0.73764 2.65194,1.4597 3.9845,2.18112 -0.81475,0.29239 -1.63617,0.57101 -2.46756,0.82707 -0.50579,-1.00273 -1.01222,-2.00556 -1.51694,-3.00819 z" /><path
             id="path3"
             style="fill:#d38d5f;fill-opacity:1;stroke:none;stroke-width:16.9607;stroke-linecap:round;stroke-opacity:1;paint-order:stroke fill markers"
             d="m -2450.5321,3146.1265 c 0.3486,4.3794 0.6113,8.8773 -0.1157,13.2559 -1.3921,6.15 -4.7816,12.5651 -10.8034,15.2207 -0.7631,0.2955 -0.071,-1.1944 -0.248,-1.5083 0.7646,-5.3068 -0.1164,-11.2699 -4.0825,-15.1773 -3.0644,-3.5591 -7.1954,-5.9978 -11.5142,-7.7023 1.1378,3.7016 2.1169,7.6166 1.6549,11.5452 -0.8048,10.8714 -9.5498,20.2418 -20.0532,22.6338 -18.2735,5.0534 -36.9861,9.1547 -54.2528,17.202 -7.7593,3.6726 -15.2379,8.1387 -21.3549,14.2311 -18.0476,17.0724 -33.851,37.1441 -43.1581,60.3518 -0.4654,1.4253 -1.2911,2.865 -1.5268,4.3099 4.0274,2.93 8.5602,5.2152 13.2084,7.006 3.0401,0.9006 6.5863,2.3972 9.634,0.7727 2.831,-1.8376 4.0291,-5.2564 5.9834,-7.88 11.5051,-17.8325 24.623,-34.6914 39.8709,-49.4905 22.0672,-21.6285 48.8643,-38.8542 78.5994,-47.7138 6.2302,-1.9896 12.671,-3.1812 18.9995,-4.7767 4.0577,-1.4291 6.8426,-5.4366 7.0412,-9.7022 0.612,-8.1068 -2.6848,-16.1601 -7.6651,-22.4313 -0.065,-0.047 -0.1271,-0.1494 -0.217,-0.1467 z m 58.6474,30.9393 h -0.1777 -0.015 c -4.5899,0.197 -8.9131,1.999 -13.1505,3.6135 -0.9311,0.1839 -0.016,0.8013 0.2087,1.188 3.5087,4.8754 8.4715,8.5244 11.6567,13.6609 3.0783,4.677 5.3141,9.8643 6.9317,15.2103 0.5677,1.1991 1.9544,1.7343 2.8574,2.6508 2.1263,1.4778 4.6633,2.3152 6.5886,4.1073 2.4369,1.8717 3.6877,4.7481 4.6466,7.5742 1.2505,3.275 3.6921,5.9002 5.2623,9.0143 2.3554,3.9532 4.1096,8.235 6.4771,12.1753 6.0606,7.5689 14.2852,13.7266 23.7474,16.231 5.2085,1.18 10.574,1.5427 15.8963,1.8161 11.2543,0.3156 22.7407,-0.8583 33.2141,-5.2148 4.7113,-1.9373 9.6198,-4.0183 12.9872,-8.008 3.9827,-4.3374 6.5024,-10.7581 4.4028,-16.5492 -0.923,-2.6825 -2.7019,-5.0984 -5.254,-6.4214 -10.9604,-7.1103 -23.6883,-10.6431 -36.0673,-14.3984 -10.7265,-3.105 -21.4083,-6.4966 -31.6191,-11.0493 -13.944,-6.658 -25.6104,-17.3865 -40.0445,-23.1131 -2.7797,-1.0043 -5.5868,-2.1946 -8.5493,-2.4896 z m -15.4811,42.0403 c -2.2931,-0.1725 -1.4317,2.8733 -1.4503,5.0226 2.5645,26.4797 6.0495,43.9637 10.6051,57.9511 2.4952,8.2543 12.1686,40.8019 18.0243,46.6725 2.6406,2.9288 5.0986,6.6812 8.973,7.9998 1.1051,-0.089 -0.6004,-1.9822 -0.4504,-2.595 -8.693,-23.7761 -18.4322,-48.1674 -17.6236,-73.9383 0,-5.0793 1.6173,-10.6042 6.2478,-13.3323 3.0957,-2.3224 7.0662,-2.414 10.6526,-3.1673 -2.687,-3.0916 -5.8249,-6.133 -9.4419,-8.1527 -4.1711,-2.2559 -7.8141,2.2679 -11.7043,2.8243 -3.5112,-1.2443 -3.4482,-5.8903 -1.0867,-8.1816 3.601,-3.8338 9.2047,-4.455 14.1649,-4.8615 -7.6898,-6.5456 -17.821,-4.4915 -26.9105,-6.2416 z m -43.5402,6.5908 c -30.46,12.4869 -53.9649,37.152 -77.242,59.7196 -27.6065,29.204 -53.6083,61.4955 -68.7545,99.0266 -3.3036,12.9947 8.6966,26.814 -0.6984,38.8751 -2.1297,5.7357 -10.7605,13.3386 -9.8096,19.2102 6.9771,-1.9106 14.7388,-10.6205 22.018,-10.2167 -5.2986,14.1257 -13.6689,29.7924 -10.4625,44.8791 9.6719,-2.4376 19.229,-10.4645 29.2141,-9.1485 -2.4681,2.9339 -2.0384,6.6424 3.1053,5.8056 10.2712,-0.3915 18.9851,1.3048 29.9063,4.2355 1.5897,-5.6875 -16.1686,-21.7852 -9.9811,-35.15 11.3159,-30.0013 41.9101,-46.0655 69.4405,-58.5193 20.9305,-8.0989 44.7147,-8.4169 64.4839,-19.2888 4.6049,-5.2356 11.8067,-11.7098 13.1299,-17.8942 7.9202,-16.87 -4.0496,-33.6161 -6.8986,-50.2549 -2.8483,-7.0785 -6.4386,-29.0689 -13.3613,-39.1665 -6.1429,-14.9765 -19.8025,-25.752 -34.09,-32.1128 z m -2.064,16.5368 c 16.409,2.5748 23.7526,20.8374 30.1707,34.1541 8.7095,23.6513 13.108,50.11 8.2994,75.0416 -3.2905,9.0625 -16.3196,5.572 -23.7288,7.694 -25.1866,0.8509 -50.5867,6.8731 -73.6759,15.3695 11.7159,-15.9719 33.4973,-17.4826 50.9967,-23.0532 -15.7893,-25.411 -32.0423,-56.6398 -20.9705,-87.0123 4.6743,-11.7193 15.4943,-22.6362 28.9084,-22.1937 z m -190.3178,43.565 c -0.6954,-0.057 -0.9764,0.063 -0.7334,0.4029 0,0 -3.7498,15.4754 -5.6053,23.1792 -2.1774,17.1473 -4.9553,15.3173 -2.5613,37.036 l 32.2073,-11.9106 c 7.508,-3.9473 10.2462,-12.7404 13.9873,-19.7784 1.8658,-4.6236 4.9072,-8.7535 6.5618,-13.4212 0.8536,-3.3304 -3.6285,-3.2332 -5.6383,-4.1362 -8.1575,-1.965 -33.3499,-10.9737 -38.2181,-11.3717 z m 114.8692,236.8518 c -0.1248,0.01 -0.2554,0.034 -0.3885,0.078 -3.2299,0.2017 -28.0441,2.0069 -31.274,2.2086 24.1355,16.7328 36.9794,21.2253 57.7839,32.7236 -5.605,-16.2881 -14.2217,-26.4067 -25.357,-34.4756 0.4887,0.2144 0.955,0.6821 1.4111,0.7149 -0.6234,-0.5678 -1.302,-1.3107 -2.1755,-1.25 z m 104.7412,10.3902 c -5.1898,2.0493 -10.0595,4.8617 -15.2103,7.0247 -6.5491,2.8937 -13.1668,5.8657 -20.0739,7.7229 0.6767,1.0195 2.1097,1.7115 3.066,2.564 7.7671,5.7725 16.1816,11.1924 25.4643,14.0885 h 15.9376 c 0.6261,-0.52 1.1857,-1.1314 1.6115,-1.8946 2.7256,-4.2426 1.6943,-9.4093 1.6674,-14.1319 0.042,-1.6636 0.1325,-3.3247 0.2045,-4.9875 -4.5389,-3.0457 -8.3782,-7.0804 -12.6671,-10.3861 z m 45.6828,9.38 v 0 c 3.1435,6.3318 3.8406,7.2878 7.0391,13.5926 l 7.2746,-5.6672 c 0.074,0.028 0.1916,0.099 0.2521,0.099 -4.8722,-2.6449 -9.6781,-5.4126 -14.5658,-8.0287 z"
             transform="matrix(0.26458333,0,0,0.26458333,79.07817,-92.243366)" /></g><path
           id="path5"
           style="fill:#ff6600;fill-opacity:1;stroke:none;stroke-width:16.3793;stroke-linecap:round;stroke-dasharray:none;stroke-opacity:1;paint-order:normal"
           d="m 880.02794,12.981154 v 0 c -0.14197,0.0086 -0.28488,0.01796 -0.4289,0.03763 h -1.1018 v -5.13e-4 c -6.61385,-0.137351 -12.86285,2.636935 -18.48566,5.86475 -12.00899,7.162222 -20.89185,18.814068 -26.13741,31.650239 -1.3812,3.027519 -2.92592,6.413381 -1.83191,9.787013 0.041,0.377328 0.56462,1.552331 0.89705,0.692994 3.40571,-6.179219 6.39645,-12.667604 10.92593,-18.143053 7.17223,-8.682995 15.11374,-17.256606 25.41868,-22.20489 5.06955,-2.395761 10.82868,-1.984993 16.22434,-2.928484 0.49176,-0.387677 -0.34149,-1.128649 -0.43001,-1.57662 -1.04287,-1.780592 -2.92053,-3.264419 -5.05031,-3.181205 z" /></g></g></g><path
     style="color:#000000;fill:#afc6e9;fill-opacity:1;stroke-linecap:round;-inkscape-stroke:none;paint-order:markers stroke fill"
     d="M 56.025347,-2.5645229e-6 C 25.094247,-2.5645229e-6 -3.265766e-5,25.094301 -3.265766e-5,56.025387 c 0,30.931085 25.09427965766,56.027343 56.02537965766,56.027343 30.931,0 56.027303,-25.096258 56.027303,-56.027343 C 112.05265,25.094301 86.956347,-2.5645229e-6 56.025347,-2.5645229e-6 Z m 0,1.9414099645229 c 29.881,0 54.083903,24.2029676 54.083903,54.0839796 0,29.881015 -24.202903,54.083983 -54.083903,54.083983 -29.8811,0 -54.0839797,-24.202968 -54.0839797,-54.083983 0,-29.881012 24.2028797,-54.0839796 54.0839797,-54.0839796 z"
     id="path8" /></svg>
