<?xml version="1.0" encoding="UTF-8" standalone="no"?>
<!-- Created with Inkscape (http://www.inkscape.org/) -->

<svg
   width="61.261837"
   height="61.261997"
   viewBox="0 0 16.208858 16.208904"
   version="1.1"
   id="svg1"
   xml:space="preserve"
   sodipodi:docname="shoe.svg"
   inkscape:version="1.3.2 (091e20e, 2023-11-25)"
   inkscape:export-filename="favicon.png"
   inkscape:export-xdpi="802.3266"
   inkscape:export-ydpi="802.3266"
   xmlns:inkscape="http://www.inkscape.org/namespaces/inkscape"
   xmlns:sodipodi="http://sodipodi.sourceforge.net/DTD/sodipodi-0.dtd"
   xmlns="http://www.w3.org/2000/svg"
   xmlns:svg="http://www.w3.org/2000/svg"><sodipodi:namedview
     id="namedview1"
     pagecolor="#ffffff"
     bordercolor="#666666"
     borderopacity="1.0"
     inkscape:showpageshadow="2"
     inkscape:pageopacity="0.0"
     inkscape:pagecheckerboard="0"
     inkscape:deskcolor="#d1d1d1"
     inkscape:document-units="mm"
     inkscape:zoom="8.1117155"
     inkscape:cx="7.1501521"
     inkscape:cy="42.407799"
     inkscape:window-width="1920"
     inkscape:window-height="889"
     inkscape:window-x="0"
     inkscape:window-y="25"
     inkscape:window-maximized="0"
     inkscape:current-layer="svg1" /><defs
     id="defs1" /><path
     style="opacity:1;fill:#ff6600;fill-opacity:1;stroke-width:2.86501;stroke-linecap:round;paint-order:markers fill stroke"
     d="m 2.5762548,4.9073348 c 1.8639909,1.726127 6.2606189,5.4869712 8.2188112,6.8728342 1.345692,-0.01676 3.070093,0.0291 4.415348,-0.01281 -0.02432,-0.395063 -0.197703,-1.074116 -0.562429,-1.274023 C 13.112415,9.9426308 12.285786,9.4329738 11.048282,8.4027618 L 10.420556,7.5257828 9.4548698,5.2235468 C 9.4003478,4.7938728 9.1499954,4.1641288 9.0266378,3.7386248 8.6267721,3.8185948 7.181458,4.2051218 6.6539841,4.2559168 5.7180449,4.0840048 4.773427,3.5283168 3.9980743,2.9942168 3.4380345,3.5094348 2.8536205,4.1813038 2.5762548,4.9073348 Z"
     id="path1"
     sodipodi:nodetypes="ccccccccccc" /><path
     style="opacity:1;fill:#234577;fill-opacity:1;stroke:none;stroke-width:0.399;stroke-linecap:round;stroke-dasharray:none;stroke-opacity:1;paint-order:markers fill stroke"
     d="m 3.9563562,1.6871217 c -0.41253,0.0221 -0.55857,0.4802401 -0.77416,0.7592401 -0.49592,0.364277 -1.4812572,1.474461 -1.8467772,2.528511 -0.39284623,0.325444 -0.93598526,0.742716 -1.20544112,1.19897 -0.21392416,0.362226 -0.20652021,0.787569 0.35066152,1.341397 2.3439101,1.98928 5.4620801,4.2200312 7.8953001,6.1874112 0.66138,0.53475 1.10553,0.67459 1.5769398,0.68009 1.6291997,0.019 2.2005097,-0.005 3.8298397,0.006 0.90957,0.006 2.140276,-0.575296 2.333326,-1.517952 0.126982,-0.620049 0.103824,-0.944407 0.04762,-1.654839 -0.12488,-0.94695 -0.92228,-1.7666902 -1.87585,-1.8858902 -1.711469,-0.137563 -2.226519,-1.00495 -3.062426,-2.268918 -0.20909,-0.3936 -0.36335,-0.814821 -0.51542,-1.233191 -1.0266379,-3.27376 -0.8196204,-2.75173 -1.0135694,-3.25105 -0.19885,-0.29055 -0.65271,-0.30526 -0.88308,-0.0418 -1.201,1.1084 -3.1052858,0.683943 -4.2197674,-0.4965291 -0.2117766,-0.117274 -0.2315358,-0.357758 -0.6372,-0.35145 z m 4.7998374,2.2540591 c 0.14835,-0.12585 0.23244,-0.0758 0.24176,0.1124 0.11028,0.39246 0.24456,0.7856 0.33722,1.17855 -0.31714,0.26594 -0.76056,0.35191 -1.06706,0.63302 -0.22793,0.27654 -0.1267,0.747991 0.22693,0.863451 0.35501,0.13909 0.67284,-0.16318 0.98768,-0.280861 0.1023,-0.0364 0.2656,-0.19317 0.27443,0.0203 0.15278,0.377641 0.3037394,0.756421 0.4775894,1.124941 -0.2867497,0.17337 -0.6423594,0.26074 -0.8748694,0.50939 -0.23791,0.29749 -0.0569,0.78464 0.30819,0.86573 0.4318294,0.0611 0.7632694,-0.29437 1.1585394,-0.38872 0.53127,0.72005 1.000506,1.175068 1.847166,1.4790082 0.55733,0.23493 1.16509,0.28844 1.74036,0.45642 0.45427,0.151449 0.65813,0.65654 0.66833,1.10172 -1.40189,0.0386 -2.36026,0.0385 -3.71456,0.0138 -0.37635,0.006 -0.61783,-0.0854 -0.92817,-0.34095 C 7.8608195,9.1656898 5.2819295,7.0420098 2.7030595,4.9182888 c 0.121983,-0.609268 0.9883919,-1.522297 1.3933367,-1.848477 0.787803,0.982522 2.8082013,1.851963 4.6597974,0.871369 z m -6.4171041,2.114018 c 2.57703,2.111811 5.12903,4.2545812 7.7301395,6.3367722 0.2854,0.22036 0.72233,0.33295 1.15823,0.33453 1.29092,0.005 2.5819,0.0101 3.87278,0.015 -0.13362,0.21943 -0.2565,0.52024 -0.64539,0.53603 -1.40669,5.5e-4 -2.77583,0.0119 -4.26799,-0.004 -0.4529395,-0.005 -0.6771095,-0.0882 -1.0138295,-0.35596 -2.8111,-2.234252 -7.87951,-6.1943612 -7.87951,-6.1943612 -0.12654,-0.0253 0.32275,-0.685491 0.79428,-0.874251 0.002,0.002 0.25129,0.20696 0.25129,0.2071 z"
     id="path23"
     sodipodi:nodetypes="cccsccscscccccccccccccccccccccccscccscscccsccss"
     inkscape:export-filename="../shoe.svg"
     inkscape:export-xdpi="66.666702"
     inkscape:export-ydpi="66.666702" /></svg>
