<?xml version="1.0" encoding="UTF-8" standalone="no"?>
<!-- Created with Inkscape (http://www.inkscape.org/) -->

<svg
   width="163.5596mm"
   height="106.7297mm"
   viewBox="0 0 163.55958 106.7297"
   version="1.1"
   id="svg1"
   xml:space="preserve"
   xmlns="http://www.w3.org/2000/svg"
   xmlns:svg="http://www.w3.org/2000/svg"><defs
     id="defs1" /><path
     id="path92"
     style="opacity:1;fill:#ffffff;fill-opacity:1;stroke:none;stroke-width:1.00768;stroke-linecap:round;paint-order:markers fill stroke"
     d="m 108.56313,1.7170009 c -0.43157,1.50068 0.12737,3.31255 -0.76843,4.75268 -0.49934,0.75291 -1.0051,1.81596 -1.88567,2.10892 -0.24255,-1.36173 -0.0744,-2.97762 -1.2268,-4.0194 -0.87179,-0.7636 -1.89335,-1.67783 -3.01532,-1.92649 0.53868,1.9182 0.57619,4.0838 -0.65681,5.76967 -1.645323,2.7156901 -5.113683,2.9691001 -7.856363,3.8524801 -5.60637,1.59039 -11.69582,3.1537 -15.78405,7.60574 -4.37511,4.3205 -8.35923,9.33065 -10.3756,15.201135 0.10437,1.112597 1.60574,1.251333 2.38022,1.78232 1.03207,0.31696 2.34952,1.307345 3.37654,0.533818 0.47325,-0.582683 0.91186,-1.193421 1.35754,-1.79834 -2.1114,6.143973 -14.05647,27.216121 -2.41433,25.308016 -0.82761,2.610321 0.56209,5.177895 0.8723,7.736479 -0.57003,2.797281 -2.96688,4.847633 -3.71812,7.572664 1.334,-0.14484 2.33093,-1.458878 3.59255,-1.945618 0.6863,-0.362457 1.42181,-0.639863 2.19728,-0.721403 -1.54145,3.352061 -3.32499,6.915181 -3.04943,10.700639 0.0974,1.119157 1.4529,0.252676 2.00557,0.06511 1.84062,-0.699037 3.61173,-1.919234 5.60585,-2.035534 0.47836,0.473207 -1.16781,1.215921 -0.12247,1.523421 3.40086,0.46387 6.93662,0.549768 10.13995,1.949235 3.44666,1.344027 6.29646,4.065686 7.66827,7.518404 0.26339,0.43342 0.43255,1.103137 0.79168,1.412317 l 3.281453,-1.48208 c -1.690923,1.212371 -2.791973,2.07644 -2.703193,2.185913 l -0.0775,2.233455 c -0.40851,1.955934 1.74824,3.033188 3.398763,3.097998 3.03993,0.32347 6.15355,-0.16498 8.86975,-1.598347 3.83587,-1.733317 7.6319,-3.812864 10.38541,-7.077605 1.47381,-1.341304 2.3833,-3.245457 2.1854,-5.265311 0.0358,-1.144182 -0.40903,-2.209569 -1.1374,-3.025139 l 11.03705,-4.984708 c 8.16242,-0.0667 15.84127,-5.422076 19.12338,-12.830225 0.5831,-0.944047 1.10165,-2.377744 -0.1018,-3.094901 -4.62118,-3.504961 -8.97748,-8.254474 -9.68417,-14.243576 0.60739,-1.061487 -0.0613,-2.733303 -1.82919,-1.564725 -4.51042,1.214707 -8.00623,3.565803 -12.69395,3.98835 -0.44734,0.13384 -0.70551,-0.359395 -0.13849,-0.430465 1.65989,-0.0135 1.03388,-1.106063 0.57102,-2.17351 -2.27395,-6.270952 -4.87096,-12.841233 -4.04936,-19.636007 0.57577,-1.70891 2.43306,-2.4017 4.0845,-2.53835 -1.07567,-1.0312 -2.41742,-2.99874 -4.1367,-2.07377 -0.52905,0.42964 -1.78954,0.95555 -1.87947,-0.14366 -0.05,-1.69317 2.09306,-2.12436 3.41065,-2.31356 1.39833,-0.0289 -0.74603,-0.9741 -1.28675,-1.12758 0.28274,-0.69507 0.49792,-1.33819 0.65423,-1.93528 1.43213,0.68454 2.74702,1.63405 3.10317,3.27887 1.70773,4.56962 5.51457,9.019223 10.6779,9.351881 4.45132,0.406299 9.3513,0.100349 13.12736,-2.534731 2.20373,-1.41323 2.88517,-5.28468 0.32246,-6.68848 -6.3299,-3.62649 -14.04969,-3.98907 -20.11505,-8.18606 -2.8704,-1.71664 -5.67247,-3.9209701 -9.04544,-4.4870601 l -0.12403,-0.003 -0.12454,0.004 c -1.08095,0.19523 -2.27351,0.48544 -3.18223,1.0531601 0.22699,0.3303 0.45998,0.66542 0.69195,0.99839 -3.52001,-0.86593 -8.24536,-0.79792 -11.98325,-1.4950001 1.52297,-0.24094 2.40751,-1.72378 2.17919,-3.19618 -0.12512,-1.76342 -0.6903,-3.742 -1.92546,-5.009 z M 29.704377,24.991031 c -4.88412,0.27571 -9.0675,3.34977 -12.61422,6.471958 -4.21112,3.930208 -8.2991201,8.084991 -11.5610501,12.853996 -1.20309,2.105544 -2.75027,4.38034 -2.49907,6.914824 0.66047,2.944641 3.625,4.509009 6.08128,5.818766 5.5077401,2.537291 11.4521501,4.310863 17.5177901,4.742863 4.26589,0.19217 8.59816,-0.304572 12.54601,-2.006596 8.95588,-3.439631 17.62481,-7.619449 26.70896,-10.72131 2.3843,-1.250784 3.03903,-4.136356 4.32997,-6.29729 0.25466,-0.919187 1.45941,-1.848915 0.94361,-2.834452 -4.67472,-1.439514 -9.45877,-2.670656 -14.0534,-4.40955 -7.17613,-2.548231 -13.99388,-5.959382 -20.94446,-9.038729 -2.05277,-0.82131 -4.2174,-1.53935 -6.45542,-1.49448 z M 126.9,28.171201 c -1.87931,0.52703 -2.25699,3.016574 -1.8986,4.682918 0.28781,1.385127 0.35178,2.96999 0.99994,4.199227 0.56149,-0.31858 0.78684,-1.606041 1.64435,-0.952914 2.52128,1.187037 2.97398,4.331021 3.45508,6.778915 0.32812,1.761994 0.35844,3.602977 0.61392,5.347994 0.67833,-0.7054 0.84607,-1.931713 1.00252,-2.91145 0.4096,-3.480211 0.008,-7.003889 -1.12086,-10.3172 -0.8684,-2.548294 -1.72728,-5.72192 -4.48913,-6.81354 -0.0685,-0.0123 -0.13766,-0.0174 -0.20722,-0.014 z m 27.35812,15.962288 c -3.42257,0.429083 -5.61834,0.146862 -8.04647,2.10027 -0.60057,0.668867 1.21612,2.454052 2.11443,2.485562 2.32975,0.42658 5.11084,0.119449 6.85384,-1.611788 1.19662,-4.199995 -0.37361,-2.51032 -0.9218,-2.974044 z m 7.65059,10.418444 c -0.23667,0.20864 -1.66498,1.338248 -1.95332,1.718988 -1.90619,2.841391 -6.14164,3.814187 -8.62554,6.128991 -1.36252,2.227201 -2.1581,4.601071 -3.64836,6.771485 -0.80569,1.402247 -0.20475,4.485738 -1.05673,5.803665 4.5446,0.29184 9.54329,-3.031641 11.82887,-6.698299 2.54815,-3.822358 3.93868,-9.119465 3.45508,-13.72483 z m -32.03163,26.692514 c -0.0556,0.003 -0.11136,0.005 -0.16795,0.01085 -1.74758,-0.0874 -2.06161,1.96906 -2.44223,3.245797 -1.26631,3.497018 -2.69818,7.203672 -5.66012,9.631453 2.11571,0.0449 4.19754,-0.965924 5.33869,-2.776058 1.92592,-2.601401 2.83034,-5.788129 3.95842,-8.78241 0.49137,-0.903977 -0.19318,-1.351184 -1.02681,-1.329634 z M 95.086947,94.344422 c -1.0246,0.10331 -2.70449,0.300665 -3.66799,0.623905 1.61517,2.056434 4.21983,4.192375 5.29735,6.643873 0.80408,1.62307 1.27913,3.35254 1.52859,5.11751 h 9.943063 c -1.96118,-1.16821 -3.79854,-2.5502 -5.5485,-4.00492 -2.00276,-0.509 -4.486413,-0.36112 -5.917983,-2.15543 -1.46075,-1.586509 0.55084,-4.478932 -0.87179,-6.039936 -0.20806,-0.18483 -0.50025,-0.191622 -0.76274,-0.185002 z m -6.91379,0.699183 c -8.39677,0.544087 -16.91658,1.920583 -25.0734,4.165637 -3.21166,1.010828 -6.48921,2.175758 -9.22735,4.171838 -1.00576,1.05779 -1.92399,2.18314 -2.78898,3.34863 h 45.09751 c -0.22867,-1.37217 -0.65552,-2.70795 -1.34927,-3.95376 -1.42097,-2.51178 -3.19378,-6.049474 -5.6162,-7.661548 -0.3387,-0.09 -0.69555,-0.0685 -1.04231,-0.0708 z m 33.752983,3.170865 c -0.5356,-0.0483 -1.11706,0.141112 -1.55443,0.504879 -1.25385,0.47058 -0.6444,1.650431 -0.46095,2.647381 0.27356,1.68868 0.84385,3.64719 0.45837,5.36298 h 7.30136 c -1.34583,-2.6141 -2.83168,-5.15739 -4.46433,-7.594882 -0.25464,-0.58651 -0.74442,-0.872058 -1.28002,-0.920358 z m -6.93963,0.466122 c -0.056,0.003 -0.11203,0.01 -0.1695,0.02377 -0.3087,0.15539 -0.61785,0.310704 -0.92656,0.466121 -2.53244,1.269537 -5.15196,2.360557 -7.82846,3.287657 2.27687,1.62892 4.70726,3.46054 7.42797,4.27157 h 3.93775 c 0.92752,-0.76294 1.07242,-2.38342 1.02681,-3.53208 0.0898,-1.17239 0.0423,-2.28659 -1.15446,-2.84634 -0.78574,-0.40933 -1.47293,-1.697691 -2.31355,-1.670698 z m 11.66027,2.370398 c 0.84605,1.91239 1.77262,3.79214 2.68511,5.67872 h 8.33076 c -3.71777,-1.80514 -7.35835,-3.78505 -11.01587,-5.67872 z" /><g
     id="g1"
     transform="translate(-764.48113,-0.39940914)"><g
       id="g140"
       transform="matrix(0.94533525,0,0,0.94533525,1410.9335,-697.21298)"><path
         id="path140"
         style="fill:#d38d5f;fill-opacity:1;stroke:none;stroke-width:16.9607;stroke-linecap:round;stroke-opacity:1;paint-order:stroke fill markers"
         d="m -2450.5329,3146.1258 c 0.3486,4.3794 0.6113,8.8773 -0.1157,13.2559 -1.3921,6.15 -4.7817,12.5651 -10.8035,15.2207 -0.7631,0.2955 -0.071,-1.1943 -0.2479,-1.5082 0.7646,-5.3068 -0.1165,-11.27 -4.0826,-15.1774 -3.0644,-3.5591 -7.1953,-5.9978 -11.5141,-7.7023 1.1378,3.7016 2.1169,7.6166 1.6549,11.5452 -0.8048,10.8714 -9.5499,20.2418 -20.0533,22.6338 -18.2735,5.0534 -36.986,9.1547 -54.2528,17.202 -7.7593,3.6726 -15.2378,8.1387 -21.3548,14.2311 -18.0476,17.0724 -33.851,37.1441 -43.1581,60.3519 -0.4654,1.4253 -1.2911,2.8649 -1.5268,4.3098 4.0274,2.9301 8.5601,5.2152 13.2083,7.006 3.0401,0.9006 6.5864,2.3972 9.6341,0.7727 2.831,-1.8376 4.029,-5.2564 5.9833,-7.88 11.5051,-17.8325 24.6231,-34.6914 39.871,-49.4905 22.0672,-21.6285 48.8642,-38.8541 78.5993,-47.7137 6.2302,-1.9896 12.6711,-3.1813 18.9996,-4.7768 4.0577,-1.4291 6.8425,-5.4365 7.0411,-9.7022 0.612,-8.1068 -2.6848,-16.1601 -7.6651,-22.4313 -0.065,-0.047 -0.127,-0.1494 -0.2169,-0.1467 z m 58.2259,30.991 c -4.7113,0.1115 -9.129,2.0598 -13.4563,3.7106 5.5194,7.592 11.8775,15.0758 14.1133,24.4292 0.6417,1.6636 0.2179,3.6752 1.1115,5.2106 5.1632,2.8027 11.5208,4.0772 15.4129,8.8056 2.5741,3.9296 3.424,8.6925 5.6403,12.8158 4.5967,9.7556 11.205,18.8334 20.3342,24.7866 5.6207,3.8376 12.1993,6.2083 18.9996,6.6817 7.778,0.9336 15.6472,1.0944 23.4354,0.1776 9.8456,-1.0096 19.5534,-4.0535 28.0303,-9.1857 5.8732,-4.0933 10.3289,-11.491 8.6403,-18.8074 -0.7232,-3.2733 -2.7467,-6.246 -5.7705,-7.7911 -14.1281,-9.0008 -30.7458,-12.4489 -46.4907,-17.5037 -7.422,-2.4128 -14.8584,-4.9112 -21.9085,-8.2808 -13.8983,-6.9887 -25.8325,-17.5482 -40.4288,-23.1937 -2.477,-0.801 -5.0206,-1.8713 -7.663,-1.8553 z m -15.0596,41.9887 c -2.2931,-0.1725 -1.4318,2.8733 -1.4504,5.0226 2.5645,26.4797 6.0495,43.9636 10.6051,57.951 2.4952,8.2543 12.1687,40.8019 18.0244,46.6725 2.6406,2.9288 5.0985,6.6812 8.9729,7.9998 1.1051,-0.089 -0.6004,-1.9822 -0.4504,-2.595 -8.693,-23.7761 -18.4321,-48.1674 -17.6235,-73.9383 0,-5.0793 1.6173,-10.6042 6.2478,-13.3323 3.0957,-2.3224 7.0662,-2.414 10.6526,-3.1673 -2.687,-3.0916 -5.8249,-6.133 -9.4419,-8.1527 -4.1711,-2.2559 -7.8141,2.2679 -11.7043,2.8243 -3.5113,-1.2443 -3.4482,-5.8903 -1.0867,-8.1816 3.601,-3.8338 9.2046,-4.455 14.1649,-4.8615 -7.6899,-6.5456 -17.821,-4.4914 -26.9105,-6.2415 z m -43.5403,6.5907 c -30.46,12.4869 -53.9648,37.152 -77.2419,59.7196 -27.6065,29.204 -53.6084,61.4955 -68.7546,99.0266 -3.3036,12.9948 8.6967,26.814 -0.6983,38.8751 -2.1297,5.7357 -9.2461,12.0784 -8.2952,17.95 6.9771,-1.9106 13.2244,-9.3602 20.5036,-8.9564 -5.2986,14.1257 -13.669,29.7924 -10.4626,44.8791 9.6719,-2.4376 19.229,-10.4646 29.2142,-9.1486 -2.4681,2.9339 -2.0384,6.6425 3.1053,5.8057 10.2712,-0.3915 18.985,1.3047 29.9063,4.2354 1.5897,-5.6875 -16.1687,-21.7852 -9.9812,-35.15 11.3159,-30.0013 41.9101,-46.0654 69.4405,-58.5192 20.9306,-8.0989 44.7147,-8.4169 64.484,-19.2888 4.6049,-5.2357 11.8067,-11.7098 13.1299,-17.8942 7.9202,-16.8701 -4.0496,-33.6161 -6.8986,-50.255 -2.8483,-7.0785 -6.4386,-29.0688 -13.3613,-39.1664 -6.143,-14.9766 -19.8025,-25.7521 -34.0901,-32.1129 z m -310.4119,13.7538 c -0.7681,-0.017 -1.5407,-0.01 -2.314,0.037 -19.5244,0.6122 -36.3707,12.4673 -50.3046,25.1523 -16.0312,14.841 -31.5424,30.4991 -44.3068,48.2901 -5.4136,7.9829 -10.306,16.6253 -12.5865,26.0552 -0.817,9.816 7.3224,17.2223 14.8798,22.0429 13.3077,8.5335 28.5241,13.5087 43.563,18.0408 21.9196,6.3834 45.322,8.4309 67.8228,4.0351 16.9343,-4.4951 32.8777,-12.0009 49.0815,-18.5388 24.9628,-10.5104 49.7713,-21.5496 75.5023,-30.0592 7.508,-3.9474 10.2461,-12.7405 13.9872,-19.7785 1.8658,-4.6236 4.9073,-8.7534 6.5619,-13.4211 0.8536,-3.3304 -3.6285,-3.2333 -5.6383,-4.1363 -32.4316,-8.7499 -64.3353,-19.6462 -94.7953,-33.8711 -15.4206,-6.4647 -29.9379,-15.0347 -45.7406,-20.5677 -5.0896,-1.6787 -10.3356,-3.1637 -15.7124,-3.2809 z m 308.3479,2.783 c 16.4091,2.5748 23.7527,20.8374 30.1708,34.1541 8.7095,23.6513 13.108,50.11 8.2994,75.0416 -3.2905,9.0625 -16.3196,5.572 -23.7288,7.694 -25.1867,0.8509 -50.5867,6.8731 -73.6759,15.3695 11.7159,-15.9719 33.4972,-17.4826 50.9967,-23.0532 -15.7894,-25.411 -32.0424,-56.6397 -20.9706,-87.0123 4.6743,-11.7193 15.4943,-22.6362 28.9084,-22.1937 z m -75.4486,280.4168 c -0.1248,0.01 -0.2553,0.034 -0.3884,0.079 -3.2299,0.2017 -6.4579,0.4016 -9.6878,0.6033 -23.8502,1.5314 -47.7532,3.0467 -71.3826,6.7643 -8.7253,1.8552 -17.3562,4.1735 -25.894,6.7581 -11.2549,3.4909 -22.4013,7.8975 -32.0984,14.6959 -0.1503,0.359 0.6868,-0.2899 0.8058,-0.2851 0.2064,-0.1042 0.4173,-0.2004 0.624,-0.3037 -4.9695,2.3827 -20.4615,9.6837 -14.4545,13.3387 l 22.3613,0.1403 h 158.1987 c -3.2859,-16.4665 -13.8652,-33.0079 -27.3196,-41.2552 0.4887,0.2144 0.955,0.6821 1.4111,0.7149 -0.6234,-0.5678 -1.3021,-1.3107 -2.1756,-1.25 z m 104.7413,10.3903 c -5.1898,2.0493 -10.0596,4.8616 -15.2104,7.0246 -6.5491,2.8938 -13.1668,5.8657 -20.0739,7.7229 0.6767,1.0195 2.1098,1.7115 3.0661,2.564 7.7671,5.7725 16.1815,11.1924 25.4642,14.0885 h 15.9377 c 0.6261,-0.52 1.1857,-1.1314 1.6115,-1.8946 2.7256,-4.2426 1.6942,-9.4093 1.6673,-14.1319 0.042,-1.6636 0.1326,-3.3246 0.2046,-4.9874 -4.5389,-3.0457 -8.3782,-7.0804 -12.6671,-10.3861 z m 45.6828,9.384 v 0 c 3.1435,6.3318 6.3385,12.6409 9.537,18.9458 0.1862,0.3634 0.3685,0.7281 0.5599,1.0888 l 0.9607,1.9772 h 37.8152 l -34.5591,-14.0864 c 0.074,0.028 0.1916,0.099 0.2521,0.099 -4.8722,-2.6449 -9.6781,-5.4127 -14.5658,-8.0288 z"
         transform="matrix(0.26458333,0,0,0.26458333,79.07817,-92.243366)" /><path
         id="path12"
         style="fill:#214478;fill-opacity:1;stroke:none;stroke-width:3.95658;stroke-linecap:round;stroke-opacity:1;paint-order:stroke fill markers"
         d="m -572.52103,737.96718 c 1.79888,1.68715 1.75353,2.28727 1.70827,4.62081 -0.79314,-1.1025 -6.6064,-4.48332 -10.22393,-4.50546 1.55526,2.49277 4.2679,4.55597 1.8821,7.50217 -0.93485,1.00827 -2.47889,1.69266 -4.9138,2.11771 -6.18955,0.52104 -15.6769,4.62924 -21.94021,10.24416 -5.10799,4.45262 -7.74217,10.84867 -10.45189,16.85476 -3.03989,-0.15068 -5.85361,-2.13245 -8.72776,-3.14268 -8.25355,-3.33107 -15.91918,-8.45898 -24.76036,-10.12389 -7.6967,-0.67504 -13.99648,4.96236 -19.30919,9.77131 -5.34524,5.40307 -11.55101,10.69582 -14.16963,18.05246 -1.87343,5.52034 3.08468,10.10246 7.57871,12.29517 7.45659,3.34434 15.51815,5.78754 23.71681,6.16071 7.78914,-0.72003 14.76094,-4.76901 22.05391,-7.28953 3.44782,-1.04463 13.18096,-5.235 15.11095,-6.48925 -0.38361,2.33403 -0.25929,4.99136 0.46082,8.97703 1.19683,2.50058 3.46373,5.57734 4.03754,8.42766 -2.18283,3.86553 -6.12744,9.13299 -2.70754,13.39393 1.27298,0.0394 1.32263,-2.6581 2.50473,-2.51457 -0.38092,3.07958 -0.69484,7.09103 1.78863,9.3564 2.35065,-1.22349 4.7486,-3.59178 7.61752,-2.48833 6.09556,0.41655 12.98904,1.14224 17.09692,6.25746 1.03769,1.19532 -1.71391,0.93569 -2.32052,1.16381 -13.10393,1.17806 -26.65785,1.61691 -38.82995,7.19278 -2.76753,0.89804 -5.0405,2.7125 -6.3001,5.36752 -0.3504,0.53492 -0.66495,1.09448 -0.99927,1.64049 h 3.06997 c 0.8814,-1.19366 1.80054,-2.35902 2.82179,-3.4488 4.47518,-3.02166 9.91499,-4.34446 15.11041,-5.59985 7.38023,-1.11608 14.45144,-1.51918 21.88937,-1.97175 3.48076,2.50526 6.51648,6.63539 7.41416,11.0204 h 2.38065 c -0.45992,-3.10769 -1.63794,-6.07888 -3.70025,-8.59438 -1.54428,-1.74887 -2.3384,-2.54584 -2.85328,-3.03481 0.98511,-0.17698 3.46782,-0.72623 3.67544,-0.71136 0.77271,0.88521 0.61098,0.96347 0.78389,2.26202 -1.09245,2.99765 -0.11524,5.79348 6.41599,5.91472 1.71221,1.53081 3.49003,2.95537 5.39157,4.16381 h 6.01093 c -2.6968,-0.87961 -5.1051,-2.60643 -7.42291,-4.36115 1.69501,-0.31889 6.11422,-2.27745 9.42145,-3.97358 0.2454,0.22347 0.51239,0.42503 0.75164,0.65489 1.20759,0.98842 1.58684,1.52558 2.65124,2.14723 -0.0346,0.20329 -0.0393,0.84181 -0.10277,1.71865 0.23769,1.28585 0.12383,2.95254 -0.79319,3.81396 h 3.19078 c 0.45713,-2.48947 -0.68195,-4.99765 -0.94679,-7.46829 0.91588,-0.98156 2.77137,-2.15216 3.60841,-0.40397 1.71802,2.50877 3.25151,5.15134 4.63994,7.87226 h 2.01876 c -0.97753,-1.93778 -1.95574,-3.87558 -2.93112,-5.81304 3.60748,2.01723 7.25959,3.99675 10.98651,5.81304 h 6.71446 c -0.93124,-0.37362 -1.84684,-0.78441 -2.73214,-1.24909 -5.66472,-2.62168 -11.3746,-5.24967 -16.57105,-8.73541 2.87515,-2.333 5.1189,-5.36736 5.83928,-9.06067 1.04293,-2.44256 1.0254,-5.8255 3.26348,-7.52897 4.27624,-0.33507 8.08532,-2.53342 12.07707,-3.80903 3.78943,-0.17208 8.03838,0.55975 11.10676,-2.2817 5.96706,-4.30454 9.43573,-11.76623 8.45717,-19.12061 -0.59193,-4.20507 0.26157,-8.49468 -0.42529,-12.65869 -1.43714,-4.09797 -6.56436,-3.71586 -10.08016,-3.62537 -6.69016,-0.22762 -12.8699,2.95173 -18.93639,5.02806 -0.47816,-4.61743 -1.44099,-9.19341 -2.08218,-13.77987 3.614,0.77222 7.38061,1.8506 11.18931,1.46392 5.17534,0 10.9469,-2.56754 12.7981,-7.69241 1.07685,-3.03114 0.43503,-6.65583 -2.43368,-8.45444 -6.38552,-3.62881 -14.21288,-3.86056 -20.39155,-8.01766 -4.60267,-2.56342 -9.28149,-7.41751 -15.00764,-5.88848 -2.16618,0.36724 -3.9653,1.66044 -5.85568,2.57252 -1.02996,0.0235 -3.57534,0.29222 -3.25583,-0.24654 1.75996,-8.51765 -3.48219,-9.94157 -7.05939,-9.75819 z m 3.13119,2.02752 c 2.19767,2.4383 3.90554,8.28886 -0.52806,8.94423 -15.49223,3.08658 -27.29152,13.82493 -35.59817,26.89064 -0.71652,0.94989 -0.94495,2.00368 -2.08054,2.16417 -1.91237,-0.0371 -3.99485,-1.27258 -5.51567,-2.25109 2.46002,-7.05143 7.72222,-13.5541 13.24525,-18.40286 5.43672,-3.98295 12.78695,-5.44233 19.11787,-7.18293 3.80588,-1.22233 5.89431,-5.2734 4.29774,-8.96392 5.51717,2.24238 4.07157,5.73502 4.20207,6.54883 2.27545,-0.97698 3.63122,-4.13256 2.85951,-7.74707 z m 15.79918,8.34128 c 5.49325,1.23488 9.43876,5.92611 14.79827,7.62845 5.37442,2.23684 11.51726,2.87473 16.35239,6.25145 2.41774,2.5299 0.20191,6.2522 -2.60423,7.31796 -4.22821,2.14531 -9.32347,2.24826 -13.91598,1.51202 -5.05648,-1.25299 -8.34184,-5.83145 -9.86806,-10.56012 -0.72006,-2.11888 -3.06101,-2.40792 -4.69843,-3.32525 -0.14421,-3.08314 -2.22029,-5.49664 -3.96046,-7.83016 1.17565,-0.4202 2.77666,-1.09099 3.8965,-0.99435 z m -7.77933,2.78243 c 2.75645,0.19098 5.2385,2.64955 5.877,5.22321 -6.10866,0.97213 -12.65399,0.41901 -18.30829,3.4559 -10.17405,5.06882 -18.10577,13.6204 -25.34418,22.18893 -5.14602,6.13049 -8.71975,13.31582 -12.28533,20.41452 -0.7791,0.55761 -1.01623,-1.64686 -1.24089,-2.09749 -0.85844,-4.25915 2.01469,-8.17282 3.38101,-12.03223 7.2559,-16.28192 20.72997,-30.69131 38.10674,-35.94913 3.18767,-0.89812 6.51107,-1.21056 9.81394,-1.20371 z m 0.17329,8.35494 v 5.5e-4 c 0.84479,-0.0359 1.6948,-0.034 2.54737,0.009 2.61741,0.253 5.9368,-0.14484 7.96847,1.70717 -1.66231,-0.0409 -4.33999,0.43755 -4.31523,2.59166 0.76072,1.76719 1.87526,0.0273 2.94971,-0.14377 1.5483,-0.022 2.48669,1.50324 3.52259,2.41836 -2.2473,-0.0733 -4.45732,1.17329 -4.52186,3.65051 -0.49246,7.50649 2.61839,14.64792 5.14176,21.55701 -2.7552,0.52814 -2.2881,1.37947 1.08017,0.77952 4.44413,-0.80367 8.778,-2.78392 13.05064,-3.75492 -0.0659,6.93052 5.11925,12.58375 10.36551,16.48085 2.02228,1.10323 -0.415,3.17852 -0.71173,4.6126 -3.85811,7.45551 -12.01625,12.19417 -20.38063,12.07762 -9.25335,0.48365 -19.00896,-2.83695 -25.03914,-10.07361 -0.91643,-1.28657 -3.00786,-4.09687 -0.55977,-4.87663 1.50575,-0.77754 5.67734,-1.02003 1.875,-1.39669 -3.97818,-0.17706 -8.59101,0.44932 -10.91162,4.12008 -0.58503,0.42657 -0.9294,2.01445 0.26458,0.97795 1.56143,-0.83293 3.98251,-2.90501 5.66107,-1.42948 1.46519,6.15808 3.37257,12.83622 7.15288,18.03497 -2.1592,2.09167 -6.16701,4.59259 -10.254,6.64995 -1.4663,0.84637 -3.53884,2.77054 -4.34147,4.68586 -0.47504,-0.7741 -0.88911,-1.59185 -1.20864,-2.47085 -2.92527,-6.4193 -10.36885,-8.61659 -16.88646,-8.7529 -0.71363,0.0241 -2.75057,-0.11045 -1.38083,-1.10915 1.18288,-1.39926 -1.34801,-0.64201 -1.95152,-0.34001 -2.01594,0.61108 -3.93868,1.94337 -5.89504,2.42328 -0.71787,-4.2772 1.38391,-8.15872 3.09347,-11.90541 -1.26246,-0.36001 -2.99927,0.9641 -4.20262,1.62572 -0.31729,0.308 -2.64939,2.02685 -1.66727,0.39741 1.06998,-2.63293 3.59407,-4.87463 3.80029,-7.75418 -0.81148,-2.85978 -2.30954,-5.98136 -0.46684,-8.81249 6.71173,-14.28202 17.92997,-25.91101 30.01582,-35.80317 4.62546,-3.76966 10.29182,-5.92518 16.20534,-6.17656 z m -91.05383,5.35823 c 0.45173,-0.0194 0.91047,-0.0168 1.377,0.008 5.5895,0.83019 10.41714,4.24465 15.6166,6.29191 8.34968,3.96858 17.13231,6.89319 26.05536,9.2498 1.80956,0.29176 -0.56886,2.26482 -0.54883,3.17274 -1.52353,2.57982 -2.34837,6.45522 -5.84365,6.96811 -10.40641,3.53192 -20.194,8.68349 -30.59527,12.18639 -9.53307,2.26384 -19.38131,-0.34753 -28.09107,-4.28899 -2.7276,-1.54282 -6.67253,-3.73556 -6.25036,-7.38137 1.94035,-6.54811 7.12204,-11.49172 11.66981,-16.35293 4.68362,-4.43702 9.83437,-9.5631 16.61041,-9.85386 z m 81.95107,0.68495 c -5.74614,0.49299 -8.83013,6.93782 -8.22594,12.17109 0.0989,6.21225 3.34556,11.79539 6.66198,16.82086 -4.92062,1.26443 -11.07965,2.00416 -14.06959,6.50838 5.95945,-2.99556 12.66679,-4.12943 19.29608,-4.50601 2.14717,-0.47387 4.8724,0.16262 6.68549,-1.19716 1.33246,-3.83059 0.65735,-8.12982 0.29246,-12.10111 -1.11667,-6.11077 -2.846,-12.91385 -7.94332,-16.93511 -0.79346,-0.52625 -1.74619,-0.79235 -2.69716,-0.76094 z m 0.30339,1.91163 c 3.93466,1.14218 5.44231,5.72857 6.90469,9.13173 1.29373,3.85904 2.81411,12.29591 2.11771,16.40432 -0.63764,0.0438 -1.9459,-0.30819 -3.48378,0.0197 0.042,-4.61148 -0.57723,-8.35399 -2.69332,-11.74963 -0.48532,-1.55219 -3.68982,-3.74964 -4.80886,-1.66399 -0.96359,3.93446 -0.41859,8.01276 0.52861,11.91526 -0.14705,-0.25115 -0.28182,-0.50728 -0.48706,-0.73688 -3.95184,-5.68718 -6.11087,-13.7029 -2.71246,-20.12534 1.03904,-1.54147 2.70487,-3.04357 4.63447,-3.19515 z m 20.31776,0.73961 h 5.5e-4 c 3.1393,1.09626 3.94317,5.08013 5.01821,7.85422 0.97788,3.87354 2.04537,8.8097 -0.0377,13.23431 -0.28655,-3.97217 -0.62823,-11.63863 -4.40215,-12.9763 -1.43479,-0.51427 -1.33023,1.24145 -1.62081,1.23707 -0.11878,-0.002 -0.64949,-1.98161 -0.64449,-2.49107 -0.3266,-1.79117 -1.32904,-4.19391 0.66253,-6.46519 0.27601,-0.25187 0.64512,-0.41722 1.02387,-0.39304 z m 28.15996,17.95679 c 1.12984,0.0572 2.41697,1.07872 1.35896,2.12318 -2.10239,1.70616 -5.435,2.08566 -7.91216,1.16928 -0.68744,-2.29637 2.74001,-2.78364 4.31085,-3.14869 0.5877,-0.0825 1.18137,-0.12516 1.77496,-0.10659 0.14768,-0.0339 0.30598,-0.0453 0.46739,-0.0372 z m 8.64576,10.60058 c 0.60378,6.07671 -2.07636,12.24247 -6.07762,16.72629 -2.25717,2.32606 -5.62172,4.23439 -8.87098,3.98669 2.76425,-3.22748 4.85212,-7.12625 6.41872,-11.12043 1.46352,-1.61239 3.45423,-2.89534 4.82143,-4.71209 1.39147,-1.50683 2.65057,-3.12377 3.70845,-4.88046 z m -25.7569,4.62955 c -0.70965,3e-5 -1.28478,0.39809 -1.28462,0.88939 -1.6e-4,0.4913 0.57497,0.88991 1.28462,0.88994 0.70965,-3e-5 1.28533,-0.39864 1.28517,-0.88994 1.6e-4,-0.4913 -0.57552,-0.88936 -1.28517,-0.88939 z m 4.24963,3.16235 c -0.54583,0 -0.98834,0.4425 -0.98833,0.98833 0,0.54583 0.4425,0.98834 0.98833,0.98834 0.54583,1e-5 0.98834,-0.44251 0.98834,-0.98834 10e-6,-0.54584 -0.4425,-0.98834 -0.98834,-0.98833 z m -4.64485,3.6423 c -0.57484,0 -1.04094,0.53772 -1.04082,1.20099 1.1e-4,0.66308 0.46615,1.20043 1.04082,1.20043 0.57467,-10e-6 1.0407,-0.53736 1.04081,-1.20043 1.2e-4,-0.66327 -0.46598,-1.20098 -1.04081,-1.20099 z m -28.11568,13.53989 c 2.77989,-0.0128 6.67618,1.82271 7.76238,3.41053 4.97397,0.10087 5.89593,3.6428 5.22267,6.98287 -0.20777,1.18454 -1.40323,3.29216 -6.27605,7.11515 -1.72234,1.35127 -9.89436,5.30765 -11.39977,5.29318 -14.21598,1.35169 -6.48218,-7.16319 -3.13611,-9.65105 1.49762,-1.11646 9.34806,-4.48345 10.96299,-7.50655 0.25041,-0.48118 -0.77152,-2.13135 -2.56486,-4.22175 -0.34419,-0.55109 -0.46457,-0.99005 -0.57125,-1.42238 z m 20.72829,2.50146 c 0.71645,0.0552 1.2491,0.37741 0.74891,1.295 -1.53731,3.95021 -2.65543,8.6388 -6.21428,11.2888 -1.11165,0.51532 -2.25261,0.76714 -3.40178,0.9047 2.52956,-1.76835 3.78622,-4.82139 4.93349,-7.18348 1.14726,-2.36207 0.94952,-4.39392 2.32816,-6.10331 0.2173,-0.0718 0.52836,-0.14145 0.85933,-0.17985 0.24824,-0.0288 0.50736,-0.0403 0.74617,-0.0219 z m -46.82359,26.28003 c 0.004,0.13511 -0.0363,0.22345 -0.0601,0.32909 h 0.25802 c -0.0634,-0.11182 -0.14469,-0.20886 -0.19789,-0.32909 z" /></g><path
       id="path141"
       style="fill:#ff6600;fill-opacity:1;stroke:none;stroke-width:16.3793;stroke-linecap:round;stroke-dasharray:none;stroke-opacity:1;paint-order:normal"
       d="m 880.02794,12.981154 v 0 c -0.14197,0.0086 -0.28488,0.01796 -0.4289,0.03763 h -1.1018 v -5.13e-4 c -6.61385,-0.137351 -12.86285,2.636935 -18.48566,5.86475 -12.00899,7.162222 -20.89185,18.814068 -26.13741,31.650239 -1.3812,3.027519 -2.92592,6.413381 -1.83191,9.787013 0.041,0.377328 0.56462,1.552331 0.89705,0.692994 3.40571,-6.179219 6.39645,-12.667604 10.92593,-18.143053 7.17223,-8.682995 15.11374,-17.256606 25.41868,-22.20489 5.06955,-2.395761 10.82868,-1.984993 16.22434,-2.928484 0.49176,-0.387677 -0.34149,-1.128649 -0.43001,-1.57662 -1.04287,-1.780592 -2.92053,-3.264419 -5.05031,-3.181205 z" /></g></svg>
