<?xml version="1.0" encoding="UTF-8" standalone="no"?>
<!-- Created with Inkscape (http://www.inkscape.org/) -->

<svg
   width="36.270329mm"
   height="11.218227mm"
   viewBox="0 0 36.270324 11.218227"
   version="1.1"
   id="svg1"
   xml:space="preserve"
   xmlns="http://www.w3.org/2000/svg"
   xmlns:svg="http://www.w3.org/2000/svg"><defs
     id="defs1"><linearGradient
       id="swatch51"><stop
         style="stop-color:#000000;stop-opacity:1;"
         offset="0"
         id="stop51" /></linearGradient></defs><path
     style="-inkscape-font-specification:'Arial Black, ';fill:#ffffff;stroke:none;stroke-width:0.55125;stroke-dasharray:none;stroke-opacity:1;paint-order:stroke markers fill"
     d="M 3.6102135e-5,7.4192013e-6 H 6.9517861 V 2.3700574 h -4.1276 v 1.92613 h 2.61107 v 2.22709 h -2.61107 V 11.030127 H 3.6102135e-5 Z M 14.235836,7.7948274 H 9.1709761 c 0.0456,0.49157 0.15519,0.85773 0.32898,1.0985 0.24413,0.3461 0.5627599,0.51915 0.9558699,0.51915 0.24827,0 0.48414,-0.0752 0.70758,-0.22572 0.13655,-0.0953 0.28344,-0.26334 0.44068,-0.5041 l 2.48897,0.27838 c -0.38068,0.80256 -0.83999,1.3793896 -1.37793,1.7305096 -0.53792,0.34611 -1.30965,0.51916 -2.31519,0.51916 -0.8730899,0 -1.5599799,-0.14798 -2.0606799,-0.44392 -0.5007,-0.30096 -0.91655,-0.7749696 -1.24758,-1.4220196 -0.32691,-0.65208 -0.49035,-1.41702 -0.49035,-2.29481 0,-1.24898 0.32896,-2.25969 0.98689,-3.03215 0.66207,-0.77246 1.57449,-1.15869 2.7372599,-1.15869 0.94344,0 1.68827,0.17305 2.23448,0.51915 0.54621,0.3461 0.96208,0.8477 1.24759,1.50479 0.28552,0.65709 0.42829,1.51232 0.42829,2.56567 z m -2.56967,-1.46717 c -0.0496,-0.59188 -0.18208,-1.01573 -0.39725,-1.27155 -0.21104,-0.25581 -0.49034,-0.38372 -0.83793,-0.38372 -0.40137,0 -0.7220599,0.19311 -0.9620699,0.57935 -0.15309,0.24076 -0.25034,0.5994 -0.29173,1.07592 z M 18.444116,7.4192013e-6 V 3.0396874 h 1.39034 v 2.23462 h -1.39034 v 2.83653 c 0,0.34108 0.0269,0.5668 0.0808,0.67715 0.0826,0.17055 0.22758,0.25582 0.43447,0.25582 0.18621,0 0.44691,-0.0652 0.78208,-0.19563 l 0.18621,2.1142396 c -0.62483,0.16552 -1.20827,0.24829 -1.75035,0.24829 -0.62897,0 -1.09243,-0.0978 -1.39034,-0.29344 -0.29794,-0.19562 -0.51932,-0.49156 -0.66415,-0.88783 -0.14069,-0.4012696 -0.21103,-1.0483296 -0.21103,-1.9411696 v -2.81396 h -0.93104 v -2.23462 h 0.93104 v -1.46717 z M 25.954486,7.9076874 l 2.40205,0.33105 c -0.1324,0.60694 -0.34965,1.13361 -0.65171,1.58003 -0.30207,0.4414096 -0.68897,0.7849996 -1.16069,1.0307896 -0.4676,0.24578 -1.06346,0.36867 -1.7876,0.36867 -0.69932,0 -1.28276,-0.0778 -1.75035,-0.23324 -0.46344,-0.16051 -0.86275,-0.41633 -1.19793,-0.76745 -0.33516,-0.3561296 -0.59793,-0.7724596 -0.78828,-1.2489696 -0.19034,-0.47652 -0.28552,-1.10853 -0.28552,-1.89604 0,-0.82262 0.11586,-1.5073 0.3476,-2.05404 0.16966,-0.40128 0.40138,-0.75992 0.69516,-1.07592 0.29379,-0.32102 0.59586,-0.55928 0.90621,-0.71478 0.49242,-0.24578 1.12346,-0.36867 1.89311,-0.36867 1.07587,0 1.89518,0.23324 2.45795,0.69972 0.56688,0.46649 0.96413,1.14866 1.19171,2.04652 l -2.37724,0.38372 c -0.0746,-0.34108 -0.21104,-0.5969 -0.40966,-0.76744 -0.19449,-0.17556 -0.45725,-0.26334 -0.78827,-0.26334 -0.41794,0 -0.75725,0.18308 -1.01794,0.54925 -0.25655,0.36115 -0.38483,0.9104 -0.38483,1.64774 0,0.6571 0.12828,1.15619 0.38483,1.49727 0.25656,0.34109 0.58346,0.51163 0.98069,0.51163 0.33105,0 0.60828,-0.10283 0.83173,-0.30848 0.22758,-0.20566 0.39725,-0.52166 0.50898,-0.94802 z M 29.300006,7.4192013e-6 h 2.5262 V 4.0629474 c 0.34345,-0.43137 0.68483,-0.73986 1.02414,-0.92545 0.33931,-0.18559 0.7407,-0.27838 1.20414,-0.27838 0.68691,0 1.22689,0.2533 1.62,0.75992 0.39725,0.50661 0.59588,1.28408 0.59588,2.33242 v 5.0786696 h -2.53863 V 6.6361374 c 0,-0.50159 -0.0766,-0.85522 -0.22965,-1.06088 -0.1531,-0.21067 -0.36828,-0.316 -0.64552,-0.316 -0.30621,0 -0.55449,0.14045 -0.74483,0.42134 -0.19036,0.28089 -0.28553,0.785 -0.28553,1.51231 v 3.8372196 h -2.5262 z"
     id="path51"
     aria-label="Fetch" /></svg>
