<?xml version="1.0" encoding="UTF-8" standalone="no"?>
<!-- Created with Inkscape (http://www.inkscape.org/) -->

<svg
   width="35.92495mm"
   height="12.841775mm"
   viewBox="0 0 35.924945 12.841774"
   version="1.1"
   id="svg1"
   xml:space="preserve"
   xmlns="http://www.w3.org/2000/svg"
   xmlns:svg="http://www.w3.org/2000/svg"><defs
     id="defs1" /><path
     style="-inkscape-font-specification:'Arial Black, ';fill:#ffffff;stroke:none;stroke-width:0.55125;stroke-dasharray:none;stroke-opacity:1;paint-order:stroke markers fill"
     d="M 0,0.04711629 H 7.2318779 V 2.8882953 h -4.293926 v 2.554845 h 2.716287 l -0.09994,2.316836 H 2.9379549 V 12.646095 H 2.991796e-6 Z M 14.357834,9.2804253 H 9.0888809 c 0.04743,0.511378 0.161444,0.8922907 0.342235,1.1427637 0.253968,0.360046 0.5854371,0.540071 0.9943891,0.540071 0.258272,0 0.503649,-0.07822 0.736091,-0.234817 0.142053,-0.09914 0.294862,-0.273951 0.458438,-0.524414 l 2.589266,0.289598 c -0.39602,0.834901 -0.873838,1.434976 -1.433455,1.800243 -0.559596,0.360056 -1.362423,0.540079 -2.408482,0.540079 -0.9082721,0 -1.6228411,-0.153941 -2.1437181,-0.461807 -0.520877,-0.313086 -0.953483,-0.806197 -1.297851,-1.479323 -0.340084,-0.678354 -0.51011,-1.4741187 -0.51011,-2.3872807 0,-1.299309 0.342217,-2.350749 1.026659,-3.154335 0.688748,-0.803586 1.637934,-1.205381 2.8475601,-1.205381 0.981457,0 1.756299,0.180023 2.32452,0.540071 0.56822,0.360044 1.000847,0.881859 1.297863,1.565427 0.297025,0.683568 0.445548,1.573261 0.445548,2.669058 z m -2.673216,-1.526294 c -0.0516,-0.615731 -0.189419,-1.056661 -0.413258,-1.322789 -0.219544,-0.266119 -0.510099,-0.399181 -0.871696,-0.399181 -0.4175431,0 -0.7511571,0.200891 -1.0008381,0.602695 -0.159258,0.250461 -0.260427,0.623553 -0.303485,1.119275 z M 18.283718,-7.0517751e-7 V 3.6846583 h 1.644578 l -0.09961,2.324667 h -1.544968 v 3.599842 c 0,0.354825 0.02799,0.5896397 0.08406,0.7044377 0.08592,0.177422 0.236751,0.266128 0.451978,0.266128 0.193713,0 0.464918,-0.06782 0.813594,-0.203512 l 0.193715,2.199433 c -0.650009,0.17219 -1.25696,0.258296 -1.820883,0.258296 -0.654315,0 -1.13645,-0.101745 -1.446366,-0.305265 -0.309945,-0.203501 -0.540247,-0.511369 -0.690912,-0.923606 -0.146358,-0.417438 -0.219533,-1.090572 -0.219533,-2.0193897 v -3.576364 h -1.067686 l -0.100389,-2.324665 h 1.168075 V 0.56151229 Z M 25.645198,9.3978333 l 2.498843,0.344389 c -0.137735,0.6313977 -0.363739,1.1792887 -0.677971,1.6436997 -0.314242,0.459197 -0.716732,0.816631 -1.207461,1.072326 -0.486443,0.255683 -1.106312,0.383527 -1.859633,0.383527 -0.7275,0 -1.33445,-0.08094 -1.820882,-0.242641 -0.482114,-0.166977 -0.897516,-0.433105 -1.246202,-0.798374 -0.348665,-0.37048 -0.720987,-0.803586 -0.919008,-1.299299 -0.19801,-0.495722 -0.198061,-1.1531977 -0.198061,-1.9724407 0,-0.855771 0.120565,-1.56804 0.361644,-2.136812 0.176496,-0.417451 0.417517,-0.790543 0.723135,-1.119276 0.305628,-0.333955 0.61987,-0.581817 0.942726,-0.743583 0.512263,-0.255684 1.168731,-0.383527 1.969394,-0.383527 1.119225,0 1.97155,0.24264 2.556996,0.727917 0.589724,0.485289 1.002982,1.194946 1.239732,2.128986 l -2.473033,0.399185 c -0.07761,-0.354827 -0.219545,-0.620956 -0.426168,-0.798368 -0.202327,-0.182633 -0.475675,-0.273952 -0.820034,-0.273952 -0.434782,0 -0.787764,0.190459 -1.058959,0.571384 -0.266889,0.375704 -0.400337,0.947087 -0.400337,1.71414 0,0.683578 0.133448,1.20278 0.400337,1.5576027 0.266899,0.354835 0.606971,0.532247 1.020208,0.532247 0.344389,0 0.632791,-0.106973 0.865245,-0.320911 0.236751,-0.213947 0.413258,-0.5426787 0.529489,-0.9862197 z m 3.028514,-9.32731201 h 2.627995 V 5.3473033 c 0.35729,-0.448753 0.712426,-0.769675 1.065409,-0.962743 0.352983,-0.193068 0.770547,-0.289597 1.252661,-0.289597 0.714591,0 1.27633,0.263506 1.68528,0.790541 0.413258,0.527024 0.619892,1.335825 0.619892,2.426409 V 12.646095 H 33.284022 V 8.0241823 c 0,-0.521802 -0.07968,-0.889683 -0.238904,-1.103629 -0.159269,-0.219161 -0.383298,-0.338897 -0.671531,-0.328734 -0.521604,0.01839 -0.826542,0.461667 -1.07188,0.864605 v 5.1896707 h -2.627995 z"
     id="path4"
     aria-label="Fetch" /></svg>
