<?xml version="1.0" encoding="UTF-8" standalone="no"?>
<!-- Created with Inkscape (http://www.inkscape.org/) -->

<svg
   width="11.21822mm"
   height="34.153664mm"
   viewBox="0 0 11.218218 34.153662"
   version="1.1"
   id="svg1"
   xml:space="preserve"
   xmlns="http://www.w3.org/2000/svg"
   xmlns:svg="http://www.w3.org/2000/svg"><defs
     id="defs1" /><path
     style="-inkscape-font-specification:'Arial Black, ';fill:#ffffff;stroke:none;stroke-width:0.55125;stroke-dasharray:none;stroke-opacity:1;paint-order:stroke markers fill"
     d="m 3.061691e-8,34.153663 v -6.95175 H 2.3700501 v 4.1276 H 4.29618 v -2.61107 h 2.227091 v 2.61107 h 4.506849 v 2.82415 z M 7.794821,20.44703 v 5.06486 c 0.49157,-0.0456 0.85773,-0.15519 1.0985,-0.32898 0.3461,-0.24413 0.51915,-0.56276 0.51915,-0.95587 0,-0.24827 -0.0752,-0.48414 -0.22572,-0.70758 -0.0953,-0.13655 -0.26334,-0.28344 -0.5041,-0.44068 l 0.27838,-2.48897 c 0.80256,0.38068 1.379389,0.83999 1.730509,1.37793 0.34611,0.53792 0.51916,1.30965 0.51916,2.31519 0,0.87309 -0.14798,1.55998 -0.44392,2.06068 -0.30096,0.5007 -0.774969,0.91655 -1.422019,1.24758 -0.65208,0.32691 -1.41702,0.49035 -2.29481,0.49035 -1.248981,0 -2.259691,-0.32896 -3.032151,-0.98689 -0.77246,-0.66207 -1.15869,-1.57449 -1.15869,-2.73726 0,-0.94344 0.17305,-1.68827 0.51915,-2.23448 0.3461,-0.54621 0.8477,-0.96208 1.50479,-1.24759 0.65709,-0.28552 1.51232,-0.42829 2.565671,-0.42829 z M 6.32765,23.0167 c -0.59188,0.0496 -1.01573,0.18208 -1.27155,0.39725 -0.25581,0.21104 -0.38372,0.49034 -0.38372,0.83793 0,0.40137 0.19311,0.72206 0.57935,0.96207 0.24076,0.15309 0.5994,0.25034 1.07592,0.29173 z M 3.0616909e-8,16.767917 H 3.03968 v -1.39034 H 5.2743 v 1.39034 h 2.836531 c 0.34108,0 0.5668,-0.0269 0.67715,-0.0808 0.17055,-0.0826 0.25582,-0.22758 0.25582,-0.43447 0,-0.18621 -0.0652,-0.44691 -0.19563,-0.78208 l 2.114239,-0.18621 c 0.16552,0.62483 0.24829,1.20827 0.24829,1.75035 0,0.62897 -0.0978,1.09243 -0.29344,1.39034 -0.19562,0.29794 -0.49156,0.51932 -0.88783,0.66415 -0.401269,0.14069 -1.048329,0.21103 -1.941169,0.21103 H 5.2743 v 0.93104 H 3.03968 v -0.93104 H 1.5725101 Z M 7.907681,9.7867138 l 0.33105,-2.40205 c 0.60694,0.1324 1.13361,0.34965 1.58003,0.65171 0.441409,0.30207 0.784999,0.68897 1.030789,1.16069 0.24578,0.4676 0.36867,1.0634602 0.36867,1.7876002 0,0.69932 -0.0778,1.28276 -0.23324,1.75035 -0.16051,0.46344 -0.41633,0.86275 -0.76745,1.19793 -0.356129,0.33516 -0.772459,0.59793 -1.248969,0.78828 -0.47652,0.19034 -1.10853,0.28552 -1.89604,0.28552 -0.822621,0 -1.507301,-0.11586 -2.054041,-0.3476 -0.40128,-0.16966 -0.75992,-0.40138 -1.07592,-0.69516 -0.32102,-0.29379 -0.55928,-0.59586 -0.71478,-0.90621 -0.24578,-0.49242 -0.36867,-1.12346 -0.36867,-1.89311 0,-1.07587 0.23324,-1.8951802 0.69972,-2.4579502 0.46649,-0.56688 1.14866,-0.96413 2.04652,-1.19171 l 0.38372,2.37724 c -0.34108,0.0746 -0.5969,0.2110402 -0.76744,0.4096602 -0.17556,0.19449 -0.26334,0.45725 -0.26334,0.78827 0,0.41794 0.18308,0.75725 0.54925,1.01794 0.36115,0.25655 0.9104,0.38483 1.647741,0.38483 0.6571,0 1.15619,-0.12828 1.49727,-0.38483 0.34109,-0.25656 0.51163,-0.58346 0.51163,-0.98069 0,-0.33105 -0.10283,-0.60828 -0.30848,-0.83173 -0.20566,-0.22758 -0.52166,-0.3972502 -0.94802,-0.5089802 z M 3.0616909e-8,6.9703598 v -2.5262 H 4.06294 c -0.43137,-0.34345 -0.73986,-0.68483 -0.92545,-1.02414 -0.18559,-0.33931 -0.27838,-0.7407 -0.27838,-1.20414 0,-0.68691 0.2533,-1.22689004 0.75992,-1.62000004 C 4.12564,0.19862976 4.90311,-2.3876872e-7 5.95145,-2.3876872e-7 h 5.07867 V 2.5386298 H 6.636131 c -0.501591,0 -0.855221,0.0766 -1.060881,0.22965 -0.21067,0.1531 -0.316,0.36828 -0.316,0.64552 0,0.30621 0.14045,0.55449 0.42134,0.74483 0.28089,0.19036 0.785001,0.28553 1.512311,0.28553 h 3.837219 v 2.5262 z"
     id="path2"
     aria-label="Fetch" /></svg>
