<?xml version="1.0" encoding="UTF-8" standalone="no"?>
<!-- Created with Inkscape (http://www.inkscape.org/) -->

<svg
   width="21.316917mm"
   height="21.637875mm"
   viewBox="0 0 21.316915 21.637874"
   version="1.1"
   id="svg1"
   xml:space="preserve"
   sodipodi:docname="fetch_arrow.svg"
   inkscape:version="1.3.2 (091e20e, 2023-11-25)"
   xmlns:inkscape="http://www.inkscape.org/namespaces/inkscape"
   xmlns:sodipodi="http://sodipodi.sourceforge.net/DTD/sodipodi-0.dtd"
   xmlns="http://www.w3.org/2000/svg"
   xmlns:svg="http://www.w3.org/2000/svg"><sodipodi:namedview
     id="namedview1"
     pagecolor="#ffffff"
     bordercolor="#666666"
     borderopacity="1.0"
     inkscape:showpageshadow="2"
     inkscape:pageopacity="0.0"
     inkscape:pagecheckerboard="0"
     inkscape:deskcolor="#d1d1d1"
     inkscape:document-units="mm"
     inkscape:zoom="1.2473954"
     inkscape:cx="98.605461"
     inkscape:cy="-93.394603"
     inkscape:window-width="1920"
     inkscape:window-height="1028"
     inkscape:window-x="0"
     inkscape:window-y="52"
     inkscape:window-maximized="0"
     inkscape:current-layer="svg1" /><defs
     id="defs1"><linearGradient
       id="swatch51"><stop
         style="stop-color:#000000;stop-opacity:1;"
         offset="0"
         id="stop51" /></linearGradient></defs><path
     style="opacity:1;fill:#ffffff;fill-opacity:1;stroke:none;stroke-width:0.142451;stroke-linecap:round;stroke-dasharray:none;stroke-opacity:1;paint-order:markers fill stroke"
     d="m 0.96299011,21.637846 c -0.5478,-0.0207 -1.0294,-0.66198 -0.9555,-1.33791 0.054,-0.4183 0.2638,-0.77537 0.3932,-1.16185 l 2.87969999,-7.36189 c 2.3732,-0.0103 3.6881,0.0147 6.0611,-0.0147 0.2877,-0.0103 0.6295,0.009 0.8230999,-0.307 0.1624,-0.20416 0.2165,-0.49083 0.1863,-0.76782 -0.032,-0.49695 -0.4593999,-0.8548204 -0.8510999,-0.8102704 -2.4264,-0.0325 -3.7949,-0.0122 -6.2213,-0.0182 -1.0655,-2.72315 -2.1292,-5.44776 -3.19409999,-8.17091 -0.102,-0.30368 -0.1178,-0.66133 0.01,-0.95711003 0.1081,-0.34429 0.3808,-0.61014 0.6748,-0.68525 0.1938,-0.0939 0.40389999,-0.0245 0.59169999,0.0612 0.2223,0.0854 0.4305,0.22388 0.6529,0.30937 L 20.62909,9.6694756 c 0.3291,0.17177 0.6232,0.5100104 0.6738,0.9603804 0.086,0.57273 -0.2343,1.14833 -0.6716,1.33937 l -19.3243999,9.59235 c -0.1094,0.0537 -0.2239,0.0654 -0.33969999,0.0763 z"
     id="path57"
     inkscape:export-filename="fetch_arrow.svg"
     inkscape:export-xdpi="66.6667"
     inkscape:export-ydpi="66.6667" /></svg>
