<?xml version="1.0" encoding="UTF-8" standalone="no"?>
<!-- Created with Inkscape (http://www.inkscape.org/) -->

<svg
   width="12.841774mm"
   height="35.92495mm"
   viewBox="0 0 12.841772 35.924948"
   version="1.1"
   id="svg1"
   xml:space="preserve"
   xmlns="http://www.w3.org/2000/svg"
   xmlns:svg="http://www.w3.org/2000/svg"><defs
     id="defs1" /><rect
     style="fill:#ffffff;stroke-width:1.5;stroke-linecap:round;paint-order:markers fill stroke"
     id="rect7"
     width="285.30688"
     height="290.92114"
     x="-72.931923"
     y="-86.70636" /><path
     style="-inkscape-font-specification:'Arial Black, ';fill:#ffffff;stroke:none;stroke-width:0.55125;stroke-dasharray:none;stroke-opacity:1;paint-order:stroke markers fill"
     d="M 0.04711587,35.92495 V 28.693072 H 2.8882949 v 4.293926 h 2.554845 v -2.716287 l 2.316836,0.09994 v 2.616344 h 4.8861181 v 2.937952 z M 9.2804249,21.567116 v 5.268953 c 0.511378,-0.04743 0.8922911,-0.161444 1.1427641,-0.342235 0.360046,-0.253968 0.540071,-0.585437 0.540071,-0.994389 0,-0.258272 -0.07822,-0.503649 -0.234817,-0.736091 -0.09914,-0.142053 -0.273951,-0.294862 -0.524414,-0.458438 l 0.289598,-2.589266 c 0.8349,0.39602 1.434975,0.873838 1.800242,1.433455 0.360056,0.559596 0.540079,1.362423 0.540079,2.408482 0,0.908272 -0.153941,1.622841 -0.461807,2.143718 -0.313086,0.520877 -0.806197,0.953483 -1.479322,1.297851 -0.678354,0.340084 -1.4741191,0.51011 -2.3872811,0.51011 -1.299309,0 -2.350749,-0.342217 -3.154335,-1.026659 -0.803586,-0.688748 -1.205381,-1.637934 -1.205381,-2.84756 0,-0.981457 0.180023,-1.756299 0.540071,-2.32452 0.360044,-0.56822 0.881859,-1.000847 1.565427,-1.297863 0.683568,-0.297025 1.573261,-0.445548 2.669058,-0.445548 z m -1.526294,2.673216 c -0.615731,0.0516 -1.056661,0.189419 -1.322789,0.413258 -0.266119,0.219544 -0.399181,0.510099 -0.399181,0.871696 0,0.417543 0.200891,0.751157 0.602695,1.000838 0.250461,0.159258 0.623553,0.260427 1.119275,0.303485 z M -1.1261756e-6,17.641232 H 3.6846579 v -1.644578 l 2.324667,0.09961 v 1.544968 h 3.599842 c 0.354825,0 0.5896401,-0.02799 0.7044381,-0.08406 0.177422,-0.08592 0.266128,-0.236751 0.266128,-0.451978 0,-0.193713 -0.06782,-0.464918 -0.203512,-0.813594 l 2.199432,-0.193715 c 0.17219,0.650009 0.258296,1.25696 0.258296,1.820883 0,0.654315 -0.101745,1.13645 -0.305265,1.446366 -0.203501,0.309945 -0.511369,0.540247 -0.923606,0.690912 -0.417438,0.146358 -1.090571,0.219533 -2.0193891,0.219533 h -3.576364 v 1.067686 l -2.324665,0.100389 V 20.275579 H 0.56151187 Z M 9.3978329,10.279752 9.7422219,7.7809086 c 0.6313981,0.137735 1.1792891,0.363739 1.6436991,0.677971 0.459197,0.314242 0.816631,0.716732 1.072326,1.207461 0.255683,0.4864434 0.383527,1.1063124 0.383527,1.8596334 0,0.7275 -0.08094,1.33445 -0.242641,1.820882 -0.166977,0.482114 -0.433105,0.897516 -0.798374,1.246202 -0.37048,0.348665 -0.803585,0.720987 -1.299298,0.919008 -0.495722,0.19801 -1.1531981,0.198061 -1.9724411,0.198061 -0.855771,0 -1.56804,-0.120565 -2.136812,-0.361644 -0.417451,-0.176496 -0.790543,-0.417517 -1.119276,-0.723135 -0.333955,-0.305628 -0.581817,-0.61987 -0.743583,-0.942726 -0.255684,-0.512263 -0.383527,-1.168731 -0.383527,-1.969394 0,-1.119225 0.24264,-1.9715504 0.727917,-2.5569964 0.485289,-0.589724 1.194946,-1.002982 2.128986,-1.239732 l 0.399185,2.4730334 c -0.354827,0.07761 -0.620956,0.219545 -0.798368,0.426168 -0.182633,0.202327 -0.273952,0.475675 -0.273952,0.820034 0,0.434782 0.190459,0.787764 0.571384,1.058959 0.375704,0.266889 0.947087,0.400337 1.71414,0.400337 0.683578,0 1.20278,-0.133448 1.5576031,-0.400337 0.354835,-0.266899 0.532247,-0.606971 0.532247,-1.020208 0,-0.344389 -0.106973,-0.632791 -0.320911,-0.865245 C 10.170106,10.57249 9.8413739,10.395983 9.3978329,10.279752 Z M 0.07052087,7.2512376 V 4.6232426 H 5.3473029 c -0.448753,-0.35729 -0.769675,-0.712426 -0.962743,-1.065409 -0.193068,-0.352983 -0.289597,-0.770547 -0.289597,-1.252661 0,-0.714591 0.263506,-1.27633 0.790541,-1.68528004 C 5.4125279,0.20663456 6.2213289,5.6406289e-7 7.3119129,5.6406289e-7 H 12.646094 V 2.6409276 H 8.0241819 c -0.521802,0 -0.889683,0.07968 -1.103629,0.238904 -0.219161,0.159269 -0.338897,0.383298 -0.328734,0.671531 0.01839,0.521604 0.461667,0.826542 0.864605,1.07188 h 5.1896701 v 2.627995 z"
     id="path4"
     aria-label="Fetch" /></svg>
