<?xml version="1.0" encoding="UTF-8" standalone="no"?>
<!-- Created with Inkscape (http://www.inkscape.org/) -->

<svg
   width="1795.7388mm"
   height="156.50221mm"
   viewBox="0 0 1795.7386 156.50221"
   version="1.1"
   id="svg1"
   xml:space="preserve"
   xmlns="http://www.w3.org/2000/svg"
   xmlns:svg="http://www.w3.org/2000/svg"><defs
     id="defs1" /><g
     id="g118"
     transform="matrix(0.81,0,0,0.81,503.3634,-1724.2491)"
     style="stroke-width:1.23457"><g
       id="g106"
       transform="translate(541.04502,102.25285)"
       style="fill:#214478;fill-opacity:1;stroke-width:1.23457"><path
         id="path96"
         style="fill:#214478;fill-opacity:1;stroke:none;stroke-width:15.0101;stroke-linecap:round;paint-order:stroke fill markers"
         d="m 214.70649,2039.0352 c -3.13459,0.018 -5.53454,0.2199 -6.75872,0.6528 v -6e-4 c -19.20692,8.0229 -23.55303,29.997 -30.89064,48.1919 -4.3592,13.3429 -11.32842,34.8797 -14.82183,48.3495 -4.43532,14.5267 -7.33592,29.6188 -11.11201,44.3043 -0.75083,5.1861 -2.32242,10.9641 -2.3766,15.553 -0.0169,5.3958 0.31562,11.344 6.87608,13.578 12.12892,3.0931 24.73978,2.1186 37.14407,2.2485 1.43933,0.048 2.59751,-0.2795 3.01739,-1.5912 3.39688,-11.2533 2.40192,-20.954 6.36235,-32.1226 13.21295,0.037 26.39382,1.05 39.53614,2.3596 3.95761,10.8161 3.28938,20.3741 3.58417,31.7185 0,1.9253 0.68835,2.0329 1.21812,2.5668 10.25748,5.0579 22.54485,2.3137 33.60043,2.5914 7.91171,-0.2169 19.89908,-2.5299 19.24027,-13.0141 0.31407,-20.54 -3.01204,-41.0613 -6.55061,-61.206 -9.79286,-46.8962 -26.00885,-98.6174 -41.97718,-100.6022 -10.67708,-2.0234 -26.68763,-3.6308 -36.09143,-3.5776 z m 13.28922,58.9515 c 8.12432,4.3659 9.52354,19.3999 11.16563,27.8127 0.79233,3.4318 3.64045,16.2778 -3.15275,16.0858 -7.70754,-0.2344 -18.90116,0.039 -24.72459,-2.8116 -0.38878,-7.9439 8.21311,-39.6625 16.71171,-41.0869 z" /><path
         id="path97"
         style="fill:#214478;fill-opacity:1;stroke:none;stroke-width:15.0101;stroke-linecap:round;paint-order:stroke fill markers"
         d="m -57.559987,2038.5174 c -18.320998,0.017 -46.295263,1.901 -64.219753,5.4473 -6.23739,2.2531 -10.73449,3.9272 -9.73685,9.9254 0.0661,9.2272 2.98797,18.4206 3.84265,27.6076 0.09,0.9651 7.62704,1.9305 7.71991,2.8955 1.29904,13.4888 2.85417,26.9691 3.22254,40.5251 2.33861,27.4068 5.49656,59.223 8.56798,86.5447 1.18675,7.8771 11.639387,4.2884 17.021684,5.3878 12.281314,0.061 28.457742,0.8038 42.273776,0.042 9.886003,-0.5457 41.3688647,-4.2697 56.3919048,-29.4219 14.9145502,-30.8508 -1.6129601,-62.8815 -31.2673008,-65.4633 6.870307,-0.1013 22.3447474,-13.697 26.2660541,-22.6782 3.9212967,-8.9814 2.1522999,-23.3814 -1.13947,-31.4006 -8.1965034,-23.6318 -36.8249281,-29.8325 -58.9431251,-29.4106 z m 0.59999,36.8929 c 9.923283,-0.1494 19.763416,10.9297 13.901443,19.0862 -5.399186,8.1606 -16.89533,12.9529 -26.322334,8.7115 -1.86975,-7.9429 -3.25856,-17.0673 -3.1042,-25.0754 2.60454,-2.0133 10.934284,-2.4538 15.525091,-2.7223 z m 0.0155,66.3628 c 11.682583,0.2704 25.707143,12.798 20.306266,25.6604 -5.869567,8.4045 -19.634796,8.4456 -28.91195,8.4616 -3.227037,-8.3383 -4.424197,-20.0005 -4.916967,-27.5068 -0.43789,-4.6616 7.573574,-6.5287 12.399644,-6.6028 0.37133,-0.017 0.746187,-0.021 1.123007,-0.014 z" /><path
         id="path98"
         style="fill:#214478;fill-opacity:1;stroke:none;stroke-width:15.0101;stroke-linecap:round;paint-order:stroke fill markers"
         d="m -444.81396,2037.6601 c -26.14704,0.4746 -53.41821,14.5354 -64.60944,40.4006 -9.16502,19.3301 -12.25304,41.1068 -10.44689,62.5203 4.66525,90.2321 89.15971,85.1944 112.9172,69.6671 25.70113,-13.9838 35.43067,-46.0879 36.73773,-74.5558 0.66908,-18.6836 1.47689,-38.1711 -6.51587,-55.4058 -12.28483,-27.0182 -40.30275,-42.4525 -68.08273,-42.6264 z m -1.48196,52.219 c 5.98384,0 23.53096,2.4524 26.68314,23.7345 2.70882,16.733 -0.50768,40.3958 -16.74577,49.1102 -9.35159,4.6345 -23.04058,-2.2804 -28.3203,-12.3388 -8.31991,-16.64 -8.07944,-40.3675 5.19192,-54.1693 3.7284,-3.8166 8.07029,-6.3332 13.19101,-6.3366 z" /><path
         style="fill:#214478;fill-opacity:1;stroke:none;stroke-width:15.0101;stroke-linecap:round;paint-order:stroke fill markers"
         d="m 57.009147,2042.5735 c 0,0 -14.678024,0.1715 -21.890528,0.4784 -8.666327,0.7081 -9.251264,10.4736 -9.289254,17.2302 -0.88492,45.6787 -2.01243,95.1521 -0.48348,140.8172 -0.59548,11.2648 12.479001,13.1209 21.003358,13.3946 10.014044,0.3129 20.036108,0.089 30.052692,0.028 15.512421,-0.7629 31.578695,-0.645 46.799295,-3.8401 1.49153,-0.3121 2.2985,-1.2336 2.34071,-2.8336 1.43032,-10.7679 1.0656,-21.012 -0.12523,-31.8421 -0.10975,-1.9648 -1.50954,-3.2582 -5.31462,-3.2948 -13.08096,-0.5214 -40.354638,0.1583 -44.917585,-1.4535 -0.0943,-3.472 -0.87817,-13.5864 0.28072,-17.8484 15.708581,-0.8839 30.634105,2.392 45.557395,-0.3845 2.86795,-4.4017 2.21576,-37.9256 -4.24058,-37.7081 -13.85642,-0.6301 -33.560318,-0.6664 -41.866565,-1.0442 0.72395,-10.7077 -0.6771,-21.0819 1.98359,-31.5193 15.687611,-3.1637 33.869875,1.0285 49.697075,-1.412 3.43361,-7.7537 1.56301,-17.3431 2.08336,-25.7815 -0.53541,-4.1878 1.58439,-12.3927 -5.39975,-11.0998 z"
         id="path99" /><path
         style="fill:#214478;fill-opacity:1;stroke:none;stroke-width:15.0101;stroke-linecap:round;paint-order:stroke fill markers"
         d="m -322.20468,2041.855 c -7.66082,0.3981 -20.14997,0.7351 -20.86886,10.7821 -1.01846,12.0511 -5.14731,141.7624 -2.35154,154.445 1.65052,8.2362 19.91329,7.576 27.71271,7.4489 22.96697,0.051 45.93409,-0.1545 68.90078,-0.2487 1.65728,-0.045 3.09661,-0.5794 3.47934,-3.4918 v -29.7006 c -0.1182,-3.745 -2.49648,-3.9399 -4.80849,-4.2385 -14.85869,-0.4617 -29.92325,0.044 -44.53444,-2.0912 -2.44934,-10.4007 -0.73183,-21.452 -1.26597,-32.0989 13.2698,-4.1604 27.66106,-0.5505 41.35102,-0.8776 6.35897,0.2007 5.07485,-9.2775 5.82652,-13.9167 0.36599,-6.9664 0.46618,-13.9428 0.63629,-20.9163 0.12242,-3.3247 -2.3946,-4.1759 -5.89715,-4.1025 -13.27881,0.2796 -26.72323,1.8942 -39.78098,-0.1591 -1.60916,-4.301 -1.98078,-13.8804 -0.99257,-17.0842 3.42643,-1.0852 34.67771,0.2754 47.26408,-0.4152 2.15061,-0.1596 3.15725,-1.1367 3.7215,-2.4294 2.64127,-10.1646 1.29172,-21.5184 1.08417,-32.037 0.98061,-4.9704 -2.85557,-6.6248 -7.10487,-6.1545 -24.06944,-1.7597 -48.24216,-2.4805 -72.37154,-2.7138 z"
         id="path100" /><path
         style="fill:#214478;fill-opacity:1;stroke:none;stroke-width:15.0101;stroke-linecap:round;paint-order:stroke fill markers"
         d="m 616.7537,2040.9302 c -8.88936,-0.1295 -12.46508,4.3967 -12.22039,13.4535 -2.98727,41.7338 -1.7054,88.8799 -2.79576,130.6953 0.17011,9.6334 -3.00276,24.5929 9.10309,28.4028 10.50893,1.1819 79.56713,3.3121 90.21717,-0.1419 1.0376,-0.2613 1.3027,-0.6537 1.3787,-1.6149 0.851,-10.7906 1.63027,-22.7556 0.06,-33.3496 -0.1855,-1.5936 -1.4716,-1.597 -2.6447,-1.764 -14.28941,-2.1438 -29.38242,0.4915 -43.86503,-0.1731 -4.7991,-7.9583 -4.0841,-23.0966 -2.4563,-31.3339 13.92151,-2.7628 28.69055,1.2532 42.45386,-1.74 1.0145,-0.162 1.2007,-0.7 1.3473,-1.2564 2.73227,-10.354 3.03407,-21.7543 2.17707,-32.4995 -0.2136,-1.1295 -1.0136,-1.7312 -2.36537,-1.8362 -10.61314,-0.9414 -28.19655,-0.8586 -43.26736,-2.3667 -0.957,-3.397 -2.3554,-20.1259 1.0397,-20.6544 13.30951,-2.0717 30.51492,-0.2516 45.97973,0.3948 2.91897,0.107 4.56207,-1.1338 4.58457,-4.0851 -0.053,-10.6676 0.3343,-21.5552 -0.1557,-32.0661 0.014,-2.9041 -2.59467,-5.2087 -6.98264,-5.1089 l -79.73923,-2.8678 c -0.64023,-0.051 -1.25654,-0.079 -1.84907,-0.087 z"
         id="path101" /><path
         style="fill:#214478;fill-opacity:1;stroke:none;stroke-width:15.0101;stroke-linecap:round;paint-order:stroke fill markers"
         d="m -748.01624,2037.3271 c -26.3526,0.4179 -47.41717,6.5051 -59.77968,17.418 -11.43381,10.093 -14.82746,19.824 -13.1554,43.824 1.67206,23.9999 22.30099,41.3696 48.35121,47.9845 8.51619,2.806 20.4954,5.419 23.64294,15.15 1.26921,9.4718 -11.28959,10.0272 -17.63828,9.1306 -9.48273,-0.2987 -29.86121,-9.3257 -39.09967,-17.1386 -4.55112,5.2472 -14.24084,24.1874 -14.64313,49.8985 7.34535,4.2673 20.02178,11.9583 36.40268,14.6867 16.38104,2.7284 52.54957,2.8743 73.30078,-13.5378 15.29448,-13.3581 21.49388,-34.7305 16.83694,-55.9483 -4.65694,-21.218 -36.86603,-33.8792 -50.86049,-38.6612 -13.99431,-4.7818 -18.41852,-3.4401 -23.92943,-10.6687 -12.38909,-19.9183 42.45335,-12.0657 57.8134,-11.2721 2.79211,-14.912 2.36998,-31.5471 1.51685,-43.7148 -3.96099,-4.9634 -13.3092,-5.8455 -19.71207,-6.5239 -6.60268,-0.5177 -12.9653,-0.7233 -19.04665,-0.6269 z"
         id="path102" /><path
         style="fill:#214478;fill-opacity:1;stroke:none;stroke-width:15.0101;stroke-linecap:round;paint-order:stroke fill markers"
         d="m 394.84346,2036.2895 c -32.37231,2.3561 -51.55109,17.1965 -67.74611,44.2574 -9.62612,18.7073 -14.40885,43.4299 -11.47716,64.5183 3.62033,20.0497 13.79958,44.5784 30.73403,56.234 26.43759,15.4743 60.19801,16.1169 92.95671,15.4482 3.42179,-0.1014 5.24806,-1.0182 5.39904,-2.7872 1.85738,-17.5013 4.80722,-69.8789 4.85141,-88.9618 0.13367,-2.7869 0.1521,-5.5285 -5.28479,-6.1568 -18.18199,-1.7298 -35.43107,-3.6016 -53.85775,-3.6196 -5.5558,5.8854 -3.69308,15.7309 -4.34541,23.2692 -0.71636,5.0582 1.5471,8.5816 8.05959,9.7232 l 11.86185,1.927 -1.07319,12.293 c 0.50557,7.4834 -8.97153,4.925 -13.46229,4.5105 -23.88103,-3.6247 -32.0999,-24.3982 -31.56225,-42.7406 0.56087,-19.0197 18.02819,-38.1538 36.76852,-38.9005 12.41878,-0.6645 24.94029,2.1724 35.88429,8.389 4.40127,1.3208 14.39155,-27.257 17.2398,-37.2557 0.31913,-2.5157 -0.43226,-4.241 -1.97993,-5.3786 -12.33028,-9.8675 -27.57171,-14.4315 -52.96636,-14.769 z"
         id="path103" /><path
         style="fill:#214478;fill-opacity:1;stroke:none;stroke-width:15.0101;stroke-linecap:round;paint-order:stroke fill markers"
         d="m -640.94957,2031.1733 c -9.08227,0.1465 -19.18497,1.4391 -26.32319,1.8245 -5.59126,0.2046 -15.83523,-0.3543 -14.86194,8.0313 0.17195,6.8476 1.20349,19.6805 1.57272,27.8064 0.0267,0.5707 7.49843,1.1435 7.52517,1.719 2.54122,54.7191 8.64171,124.4308 8.48946,142.9229 0.0366,1.5457 0.39483,2.0304 1.27455,1.9778 27.13959,-0.035 41.31711,-2.1741 46.558,-3.1988 1.46099,-0.738 2.15722,-1.8586 2.00849,-3.4015 -1.41624,-11.0909 -3.09365,-30.9416 -3.17765,-40.6565 h 26.75869 c 0.20515,8.9797 1.88199,27.9953 2.17411,38.0628 0.0197,1.5678 1.21925,2.8878 2.31454,3.3485 10.25157,3.5833 48.70608,1.0822 48.16857,-3.9891 -6.17253,-52.8246 -4.28885,-109.0256 -8.51254,-161.9383 -0.30112,-0.9833 -0.40074,-2.0784 -2.68025,-1.9626 -6.07178,-0.2665 -17.06742,0.7839 -32.57803,0.8741 -3.99912,0.024 -7.79604,0.6171 -10.57478,3.4901 -2.59906,23.8339 2.35506,52.9277 -0.57874,75.0788 -8.39927,1.828 -18.39461,2.5649 -26.93472,1.7786 -6.08571,-19.1712 -1.50447,-70.1722 -6.23669,-90.35 -3.85433,-1.181 -8.93636,-1.5058 -14.38577,-1.418 z"
         id="path104" /><path
         style="fill:#214478;fill-opacity:1;stroke:none;stroke-width:15.0101;stroke-linecap:round;paint-order:stroke fill markers"
         d="m 516.53581,2030.6884 c -11.06347,0.048 -34.50801,0.5022 -45.04691,3.3703 -4.20681,4.975 -2.4492,13.809 -1.95897,19.9977 0.24709,4.8154 1.57694,8.5811 1.81643,13.8863 0.0464,1.0199 7.53742,2.0479 7.58329,3.0829 1.69063,38.2196 1.71581,86.4379 3.19003,120.6441 0.24991,6.7365 1.1178,15.1991 3.25899,22.1059 0.46111,1.4875 2.19085,3.5995 4.11774,3.4088 25.08395,0.629 49.51305,-1.2672 74.30067,-3.0489 5.78473,-1.0978 16.99003,-0.8607 14.95058,-9.9263 -0.0929,-12.1705 -0.32574,-29.4231 -1.77421,-41.2753 -14.84139,-1.8203 -32.85861,6.8509 -47.40578,2.3443 -2.56979,-13.1014 0.12101,-59.9175 -2.97616,-129.577 0.21079,-3.4893 -1.3722,-4.8864 -4.05526,-4.9997 0,0 -2.31257,-0.029 -6.00044,-0.014 z"
         id="path105" /><path
         style="fill:#214478;fill-opacity:1;stroke:none;stroke-width:6.60254;stroke-linecap:round;paint-order:markers fill stroke"
         d="m -61.377404,2038.7374 c -20.969868,0.6203 -42.255486,1.216 -62.725416,6.1142 -5.93529,1.3687 -9.17936,7.5948 -7.09897,13.2751 1.00453,7.9363 2.43387,15.8102 3.69758,23.7074 3.96479,0.56 8.37844,2.3856 7.97221,7.1762 3.77413,41.5674 6.01831,83.371 12.43947,124.6415 2.32369,3.5093 8.342137,2.1779 12.102467,2.9607 19.852488,0.3138 39.975136,1.6479 59.662993,-1.4269 21.377218,-4.6104 44.0194248,-18.9687 47.569391,-42.1534 4.413087,-21.2244 -8.5641629,-46.0048 -30.76271,-50.2146 -7.811798,-0.9267 4.770627,-3.9759 6.249637,-6.8707 7.7922334,-6.8736 17.294656,-14.7265 16.5120301,-26.2478 2.3512567,-18.6112 -8.1545667,-38.3646 -26.1026841,-44.9135 -12.454524,-5.1343 -26.184154,-6.1084 -39.515998,-6.0482 z m 4.838727,36.9883 c 9.104647,-0.2501 19.619476,11.1436 12.820513,19.6363 -5.641206,6.9931 -17.13791,12.3031 -25.437264,7.2347 -2.07252,-7.5966 -3.49848,-15.894 -3.16359,-23.798 3.60894,-3.7322 10.931054,-2.6373 15.780341,-3.073 z m -0.38864,66.2135 c 12.128493,0.22 25.443033,13.3944 19.800566,25.7466 -6.850323,8.2804 -18.742426,7.7192 -28.49911,8.2987 -2.756227,-9.5581 -5.006177,-19.8779 -3.921867,-29.7819 2.920437,-3.5623 8.281064,-4.2272 12.620411,-4.2634 z"
         id="path106" /></g><g
       id="g117"
       transform="translate(536.81169,98.019515)"
       style="stroke-width:1.23457"><path
         id="path107"
         style="fill:#ff6600;fill-opacity:1;stroke:none;stroke-width:15.0101;stroke-linecap:round;paint-order:stroke fill markers"
         d="m 214.70649,2039.0352 c -3.13459,0.018 -5.53454,0.2199 -6.75872,0.6528 v -6e-4 c -19.20692,8.0229 -23.55303,29.997 -30.89064,48.1919 -4.3592,13.3429 -11.32842,34.8797 -14.82183,48.3495 -4.43532,14.5267 -7.33592,29.6188 -11.11201,44.3043 -0.75083,5.1861 -2.32242,10.9641 -2.3766,15.553 -0.0169,5.3958 0.31562,11.344 6.87608,13.578 12.12892,3.0931 24.73978,2.1186 37.14407,2.2485 1.43933,0.048 2.59751,-0.2795 3.01739,-1.5912 3.39688,-11.2533 2.40192,-20.954 6.36235,-32.1226 13.21295,0.037 26.39382,1.05 39.53614,2.3596 3.95761,10.8161 3.28938,20.3741 3.58417,31.7185 0,1.9253 0.68835,2.0329 1.21812,2.5668 10.25748,5.0579 22.54485,2.3137 33.60043,2.5914 7.91171,-0.2169 19.89908,-2.5299 19.24027,-13.0141 0.31407,-20.54 -3.01204,-41.0613 -6.55061,-61.206 -9.79286,-46.8962 -26.00885,-98.6174 -41.97718,-100.6022 -10.67708,-2.0234 -26.68763,-3.6308 -36.09143,-3.5776 z m 13.28922,58.9515 c 8.12432,4.3659 9.52354,19.3999 11.16563,27.8127 0.79233,3.4318 3.64045,16.2778 -3.15275,16.0858 -7.70754,-0.2344 -18.90116,0.039 -24.72459,-2.8116 -0.38878,-7.9439 8.21311,-39.6625 16.71171,-41.0869 z" /><path
         id="path108"
         style="fill:#ff6600;fill-opacity:1;stroke:none;stroke-width:15.0101;stroke-linecap:round;paint-order:stroke fill markers"
         d="m -57.559987,2038.5174 c -18.320998,0.017 -46.295263,1.901 -64.219753,5.4473 -6.23739,2.2531 -10.73449,3.9272 -9.73685,9.9254 0.0661,9.2272 2.98797,18.4206 3.84265,27.6076 0.09,0.9651 7.62704,1.9305 7.71991,2.8955 1.29904,13.4888 2.85417,26.9691 3.22254,40.5251 2.33861,27.4068 5.49656,59.223 8.56798,86.5447 1.18675,7.8771 11.639387,4.2884 17.021684,5.3878 12.281314,0.061 28.457742,0.8038 42.273776,0.042 9.886003,-0.5457 41.3688647,-4.2697 56.3919048,-29.4219 14.9145502,-30.8508 -1.6129601,-62.8815 -31.2673008,-65.4633 6.870307,-0.1013 22.3447474,-13.697 26.2660541,-22.6782 3.9212967,-8.9814 2.1522999,-23.3814 -1.13947,-31.4006 -8.1965034,-23.6318 -36.8249281,-29.8325 -58.9431251,-29.4106 z m 0.59999,36.8929 c 9.923283,-0.1494 19.763416,10.9297 13.901443,19.0862 -5.399186,8.1606 -16.89533,12.9529 -26.322334,8.7115 -1.86975,-7.9429 -3.25856,-17.0673 -3.1042,-25.0754 2.60454,-2.0133 10.934284,-2.4538 15.525091,-2.7223 z m 0.0155,66.3628 c 11.682583,0.2704 25.707143,12.798 20.306266,25.6604 -5.869567,8.4045 -19.634796,8.4456 -28.91195,8.4616 -3.227037,-8.3383 -4.424197,-20.0005 -4.916967,-27.5068 -0.43789,-4.6616 7.573574,-6.5287 12.399644,-6.6028 0.37133,-0.017 0.746187,-0.021 1.123007,-0.014 z" /><path
         id="path109"
         style="fill:#ff6600;fill-opacity:1;stroke:none;stroke-width:15.0101;stroke-linecap:round;paint-order:stroke fill markers"
         d="m -444.81396,2037.6601 c -26.14704,0.4746 -53.41821,14.5354 -64.60944,40.4006 -9.16502,19.3301 -12.25304,41.1068 -10.44689,62.5203 4.66525,90.2321 89.15971,85.1944 112.9172,69.6671 25.70113,-13.9838 35.43067,-46.0879 36.73773,-74.5558 0.66908,-18.6836 1.47689,-38.1711 -6.51587,-55.4058 -12.28483,-27.0182 -40.30275,-42.4525 -68.08273,-42.6264 z m -1.48196,52.219 c 5.98384,0 23.53096,2.4524 26.68314,23.7345 2.70882,16.733 -0.50768,40.3958 -16.74577,49.1102 -9.35159,4.6345 -23.04058,-2.2804 -28.3203,-12.3388 -8.31991,-16.64 -8.07944,-40.3675 5.19192,-54.1693 3.7284,-3.8166 8.07029,-6.3332 13.19101,-6.3366 z" /><path
         style="fill:#ff6600;fill-opacity:1;stroke:none;stroke-width:15.0101;stroke-linecap:round;paint-order:stroke fill markers"
         d="m 57.009147,2042.5735 c 0,0 -14.678024,0.1715 -21.890528,0.4784 -8.666327,0.7081 -9.251264,10.4736 -9.289254,17.2302 -0.88492,45.6787 -2.01243,95.1521 -0.48348,140.8172 -0.59548,11.2648 12.479001,13.1209 21.003358,13.3946 10.014044,0.3129 20.036108,0.089 30.052692,0.028 15.512421,-0.7629 31.578695,-0.645 46.799295,-3.8401 1.49153,-0.3121 2.2985,-1.2336 2.34071,-2.8336 1.43032,-10.7679 1.0656,-21.012 -0.12523,-31.8421 -0.10975,-1.9648 -1.50954,-3.2582 -5.31462,-3.2948 -13.08096,-0.5214 -40.354638,0.1583 -44.917585,-1.4535 -0.0943,-3.472 -0.87817,-13.5864 0.28072,-17.8484 15.708581,-0.8839 30.634105,2.392 45.557395,-0.3845 2.86795,-4.4017 2.21576,-37.9256 -4.24058,-37.7081 -13.85642,-0.6301 -33.560318,-0.6664 -41.866565,-1.0442 0.72395,-10.7077 -0.6771,-21.0819 1.98359,-31.5193 15.687611,-3.1637 33.869875,1.0285 49.697075,-1.412 3.43361,-7.7537 1.56301,-17.3431 2.08336,-25.7815 -0.53541,-4.1878 1.58439,-12.3927 -5.39975,-11.0998 z"
         id="path110" /><path
         style="fill:#ff6600;fill-opacity:1;stroke:none;stroke-width:15.0101;stroke-linecap:round;paint-order:stroke fill markers"
         d="m -322.20468,2041.855 c -7.66082,0.3981 -20.14997,0.7351 -20.86886,10.7821 -1.01846,12.0511 -5.14731,141.7624 -2.35154,154.445 1.65052,8.2362 19.91329,7.576 27.71271,7.4489 22.96697,0.051 45.93409,-0.1545 68.90078,-0.2487 1.65728,-0.045 3.09661,-0.5794 3.47934,-3.4918 v -29.7006 c -0.1182,-3.745 -2.49648,-3.9399 -4.80849,-4.2385 -14.85869,-0.4617 -29.92325,0.044 -44.53444,-2.0912 -2.44934,-10.4007 -0.73183,-21.452 -1.26597,-32.0989 13.2698,-4.1604 27.66106,-0.5505 41.35102,-0.8776 6.35897,0.2007 5.07485,-9.2775 5.82652,-13.9167 0.36599,-6.9664 0.46618,-13.9428 0.63629,-20.9163 0.12242,-3.3247 -2.3946,-4.1759 -5.89715,-4.1025 -13.27881,0.2796 -26.72323,1.8942 -39.78098,-0.1591 -1.60916,-4.301 -1.98078,-13.8804 -0.99257,-17.0842 3.42643,-1.0852 34.67771,0.2754 47.26408,-0.4152 2.15061,-0.1596 3.15725,-1.1367 3.7215,-2.4294 2.64127,-10.1646 1.29172,-21.5184 1.08417,-32.037 0.98061,-4.9704 -2.85557,-6.6248 -7.10487,-6.1545 -24.06944,-1.7597 -48.24216,-2.4805 -72.37154,-2.7138 z"
         id="path111" /><path
         style="fill:#ff6600;fill-opacity:1;stroke:none;stroke-width:15.0101;stroke-linecap:round;paint-order:stroke fill markers"
         d="m 616.7537,2040.9302 c -8.88936,-0.1295 -12.46508,4.3967 -12.22039,13.4535 -2.98727,41.7338 -1.7054,88.8799 -2.79576,130.6953 0.17011,9.6334 -3.00276,24.5929 9.10309,28.4028 10.50893,1.1819 79.56713,3.3121 90.21717,-0.1419 1.0376,-0.2613 1.3027,-0.6537 1.3787,-1.6149 0.851,-10.7906 1.63027,-22.7556 0.06,-33.3496 -0.1855,-1.5936 -1.4716,-1.597 -2.6447,-1.764 -14.28941,-2.1438 -29.38242,0.4915 -43.86503,-0.1731 -4.7991,-7.9583 -4.0841,-23.0966 -2.4563,-31.3339 13.92151,-2.7628 28.69055,1.2532 42.45386,-1.74 1.0145,-0.162 1.2007,-0.7 1.3473,-1.2564 2.73227,-10.354 3.03407,-21.7543 2.17707,-32.4995 -0.2136,-1.1295 -1.0136,-1.7312 -2.36537,-1.8362 -10.61314,-0.9414 -28.19655,-0.8586 -43.26736,-2.3667 -0.957,-3.397 -2.3554,-20.1259 1.0397,-20.6544 13.30951,-2.0717 30.51492,-0.2516 45.97973,0.3948 2.91897,0.107 4.56207,-1.1338 4.58457,-4.0851 -0.053,-10.6676 0.3343,-21.5552 -0.1557,-32.0661 0.014,-2.9041 -2.59467,-5.2087 -6.98264,-5.1089 l -79.73923,-2.8678 c -0.64023,-0.051 -1.25654,-0.079 -1.84907,-0.087 z"
         id="path112" /><path
         style="fill:#ff6600;fill-opacity:1;stroke:none;stroke-width:15.0101;stroke-linecap:round;paint-order:stroke fill markers"
         d="m -748.01624,2037.3271 c -26.3526,0.4179 -47.41717,6.5051 -59.77968,17.418 -11.43381,10.093 -14.82746,19.824 -13.1554,43.824 1.67206,23.9999 22.30099,41.3696 48.35121,47.9845 8.51619,2.806 20.4954,5.419 23.64294,15.15 1.26921,9.4718 -11.28959,10.0272 -17.63828,9.1306 -9.48273,-0.2987 -29.86121,-9.3257 -39.09967,-17.1386 -4.55112,5.2472 -14.24084,24.1874 -14.64313,49.8985 7.34535,4.2673 20.02178,11.9583 36.40268,14.6867 16.38104,2.7284 52.54957,2.8743 73.30078,-13.5378 15.29448,-13.3581 21.49388,-34.7305 16.83694,-55.9483 -4.65694,-21.218 -36.86603,-33.8792 -50.86049,-38.6612 -13.99431,-4.7818 -18.41852,-3.4401 -23.92943,-10.6687 -12.38909,-19.9183 42.45335,-12.0657 57.8134,-11.2721 2.79211,-14.912 2.36998,-31.5471 1.51685,-43.7148 -3.96099,-4.9634 -13.3092,-5.8455 -19.71207,-6.5239 -6.60268,-0.5177 -12.9653,-0.7233 -19.04665,-0.6269 z"
         id="path113" /><path
         style="fill:#ff6600;fill-opacity:1;stroke:none;stroke-width:15.0101;stroke-linecap:round;paint-order:stroke fill markers"
         d="m 394.84346,2036.2895 c -32.37231,2.3561 -51.55109,17.1965 -67.74611,44.2574 -9.62612,18.7073 -14.40885,43.4299 -11.47716,64.5183 3.62033,20.0497 13.79958,44.5784 30.73403,56.234 26.43759,15.4743 60.19801,16.1169 92.95671,15.4482 3.42179,-0.1014 5.24806,-1.0182 5.39904,-2.7872 1.85738,-17.5013 4.80722,-69.8789 4.85141,-88.9618 0.13367,-2.7869 0.1521,-5.5285 -5.28479,-6.1568 -18.18199,-1.7298 -35.43107,-3.6016 -53.85775,-3.6196 -5.5558,5.8854 -3.69308,15.7309 -4.34541,23.2692 -0.71636,5.0582 1.5471,8.5816 8.05959,9.7232 l 11.86185,1.927 -1.07319,12.293 c 0.50557,7.4834 -8.97153,4.925 -13.46229,4.5105 -23.88103,-3.6247 -32.0999,-24.3982 -31.56225,-42.7406 0.56087,-19.0197 18.02819,-38.1538 36.76852,-38.9005 12.41878,-0.6645 24.94029,2.1724 35.88429,8.389 4.40127,1.3208 14.39155,-27.257 17.2398,-37.2557 0.31913,-2.5157 -0.43226,-4.241 -1.97993,-5.3786 -12.33028,-9.8675 -27.57171,-14.4315 -52.96636,-14.769 z"
         id="path114" /><path
         style="fill:#ff6600;fill-opacity:1;stroke:none;stroke-width:15.0101;stroke-linecap:round;paint-order:stroke fill markers"
         d="m -640.94957,2031.1733 c -9.08227,0.1465 -19.18497,1.4391 -26.32319,1.8245 -5.59126,0.2046 -15.83523,-0.3543 -14.86194,8.0313 0.17195,6.8476 1.20349,19.6805 1.57272,27.8064 0.0267,0.5707 7.49843,1.1435 7.52517,1.719 2.54122,54.7191 8.64171,124.4308 8.48946,142.9229 0.0366,1.5457 0.39483,2.0304 1.27455,1.9778 27.13959,-0.035 41.31711,-2.1741 46.558,-3.1988 1.46099,-0.738 2.15722,-1.8586 2.00849,-3.4015 -1.41624,-11.0909 -3.09365,-30.9416 -3.17765,-40.6565 h 26.75869 c 0.20515,8.9797 1.88199,27.9953 2.17411,38.0628 0.0197,1.5678 1.21925,2.8878 2.31454,3.3485 10.25157,3.5833 48.70608,1.0822 48.16857,-3.9891 -6.17253,-52.8246 -4.28885,-109.0256 -8.51254,-161.9383 -0.30112,-0.9833 -0.40074,-2.0784 -2.68025,-1.9626 -6.07178,-0.2665 -17.06742,0.7839 -32.57803,0.8741 -3.99912,0.024 -7.79604,0.6171 -10.57478,3.4901 -2.59906,23.8339 2.35506,52.9277 -0.57874,75.0788 -8.39927,1.828 -18.39461,2.5649 -26.93472,1.7786 -6.08571,-19.1712 -1.50447,-70.1722 -6.23669,-90.35 -3.85433,-1.181 -8.93636,-1.5058 -14.38577,-1.418 z"
         id="path115" /><path
         style="fill:#ff6600;fill-opacity:1;stroke:none;stroke-width:15.0101;stroke-linecap:round;paint-order:stroke fill markers"
         d="m 516.53581,2030.6884 c -11.06347,0.048 -34.50801,0.5022 -45.04691,3.3703 -4.20681,4.975 -2.4492,13.809 -1.95897,19.9977 0.24709,4.8154 1.57694,8.5811 1.81643,13.8863 0.0464,1.0199 7.53742,2.0479 7.58329,3.0829 1.69063,38.2196 1.71581,86.4379 3.19003,120.6441 0.24991,6.7365 1.1178,15.1991 3.25899,22.1059 0.46111,1.4875 2.19085,3.5995 4.11774,3.4088 25.08395,0.629 49.51305,-1.2672 74.30067,-3.0489 5.78473,-1.0978 16.99003,-0.8607 14.95058,-9.9263 -0.0929,-12.1705 -0.32574,-29.4231 -1.77421,-41.2753 -14.84139,-1.8203 -32.85861,6.8509 -47.40578,2.3443 -2.56979,-13.1014 0.12101,-59.9175 -2.97616,-129.577 0.21079,-3.4893 -1.3722,-4.8864 -4.05526,-4.9997 0,0 -2.31257,-0.029 -6.00044,-0.014 z"
         id="path116" /><path
         style="fill:#ffffff;fill-opacity:0;stroke:none;stroke-width:6.60254;stroke-linecap:round;paint-order:markers fill stroke"
         d="m -61.377404,2038.7374 c -20.969868,0.6203 -42.255486,1.216 -62.725416,6.1142 -5.93529,1.3687 -9.17936,7.5948 -7.09897,13.2751 1.00453,7.9363 2.43387,15.8102 3.69758,23.7074 3.96479,0.56 8.37844,2.3856 7.97221,7.1762 3.77413,41.5674 6.01831,83.371 12.43947,124.6415 2.32369,3.5093 8.342137,2.1779 12.102467,2.9607 19.852488,0.3138 39.975136,1.6479 59.662993,-1.4269 21.377218,-4.6104 44.0194248,-18.9687 47.569391,-42.1534 4.413087,-21.2244 -8.5641629,-46.0048 -30.76271,-50.2146 -7.811798,-0.9267 4.770627,-3.9759 6.249637,-6.8707 7.7922334,-6.8736 17.294656,-14.7265 16.5120301,-26.2478 2.3512567,-18.6112 -8.1545667,-38.3646 -26.1026841,-44.9135 -12.454524,-5.1343 -26.184154,-6.1084 -39.515998,-6.0482 z m 4.838727,36.9883 c 9.104647,-0.2501 19.619476,11.1436 12.820513,19.6363 -5.641206,6.9931 -17.13791,12.3031 -25.437264,7.2347 -2.07252,-7.5966 -3.49848,-15.894 -3.16359,-23.798 3.60894,-3.7322 10.931054,-2.6373 15.780341,-3.073 z m -0.38864,66.2135 c 12.128493,0.22 25.443033,13.3944 19.800566,25.7466 -6.850323,8.2804 -18.742426,7.7192 -28.49911,8.2987 -2.756227,-9.5581 -5.006177,-19.8779 -3.921867,-29.7819 2.920437,-3.5623 8.281064,-4.2272 12.620411,-4.2634 z"
         id="path117" /></g></g><path
     style="opacity:0.1;fill:#214478;fill-opacity:1;stroke:#dfddda;stroke-width:0.999999;stroke-opacity:1"
     d="m 39.946002,124.50446 c -0.5926,-0.465 -1.6463,-3.0331 -2.3416,-5.7064 -1.4847,-5.7085 -3.557,-9.5719 -6.7639,-12.6089 -2.1518,-2.0377 -19.7968,-15.202495 -27.2446996,-20.326695 -2.87079996,-1.9751 -3.24599996,-2.5183 -3.05909996,-4.4272 0.1706,-1.743 0.96249996,-2.6986 3.97719996,-4.8002 3.1257,-2.179 4.3494,-2.6241 7.2153996,-2.6241 3.1727,0 4.1305,0.4587 11.8594,5.6813 18.4351,12.4568 24.3896,17.0647 26.9824,20.880795 1.8396,2.7079 1.9095,3.1388 1.9095,11.7864 v 8.9757 l -2.0297,2.0298 c -1.7437,1.7437 -2.5507,2.0265 -5.7286,2.0076 -2.0344,0 -4.1837,-0.4029 -4.7763,-0.8681 z m 26.8586,-0.6721 c -0.7079,-1.1238 -1.0812,-4.8769 -1.3297,-13.3668 -0.2475,-8.457 -0.6477,-12.493495 -1.4112,-14.234595 -2.0651,-4.7094 -7.5401,-8.9457 -26.4725,-20.4828 -9.4893,-5.783 -11.4968,-7.3545 -11.4968,-9.001 0,-2.4622 7.5442,-7.0463 12.7771,-7.7635 4.0659,-0.5571 7.9779,1.2734 20.303,9.5003 20.4946,13.6803 22.3208,15.1664 25.1356,20.4559 1.732,3.2551 1.8462,4.0363 1.8261,12.498695 -0.024,10.4706 -0.7824,13.4362 -4.3996,17.2227 -5.9575,6.2361 -12.774,8.5968 -14.932,5.1711 z m 1654.027098,0.105 c 0,-4.9953 -9.2655,-7.535 -10.2855,-11.0412 -0.5348,-1.8387 -0.9187,-6.8399 -0.9325,-12.1514 -0.021,-8.460295 0.092,-9.244995 1.8209,-12.498795 1.0147,-1.9095 2.7332,-4.294 3.8191,-5.2989 3.7395,-3.4603 33.8108,-22.8351 36.6132,-23.5896 3.396,-0.9144 6.4789,-0.4835 10.5134,1.4696 4.5693,2.2118 6.5784,4.0374 6.5784,5.9768 0,1.4269 -1.2467,2.5095 -7.3392,6.3725 -26.4032,16.743 -29.3738,19.081 -30.8096,24.2511 -0.4006,1.4424 -0.7301,7.630995 -0.7322,13.751895 0,8.9442 -0.2159,11.4319 -1.0848,12.6721 -1.3728,1.9599 -8.1612,4.1728 -8.1612,0.086 z m 24.6191,-0.3003 -2.2829,-1.9208 0.223,-9.8184 c 0.2213,-9.7442 0.2388,-9.8373 2.3063,-12.340395 2.639,-3.1955 5.9634,-5.7404 21.8063,-16.6931 12.354,-8.5406 12.9325,-8.8531 16.386,-8.8531 3.0148,0 4.1743,0.4144 7.344,2.6242 3.0048,2.0945 3.8069,3.06 3.9762,4.7855 0.196,2.0003 -0.219,2.4623 -5.555,6.1852 -12.1962,8.5089 -23.2071,16.521895 -25.0978,18.264795 -2.86,2.6363 -4.9783,6.6967 -6.3825,12.2329 -0.678,2.6733 -1.6041,5.2686 -2.0579,5.7675 -0.4539,0.4987 -2.5257,1.0822 -4.6041,1.2969 -3.4085,0.3516 -4.0021,0.2017 -6.0616,-1.5312 z M 101.4834,106.94426 c -0.8897,-0.8896 -1.0911,-2.9154 -1.0911,-10.973595 0,-9.2474 -0.116,-10.115 -1.802898,-13.5004 -1.9968,-4.007 -3.5067,-5.2136 -17.9689,-14.3612 -24.4029,-15.435 -23.2793,-14.6314 -23.2793,-16.65 0,-3.2722 7.7789,-7.3059 14.0893,-7.3059 4.9343,0 4.7469,-0.1 29.446798,15.6234 15.2104,9.6821 17.0198,11.2135 19.711,16.68 2.8546,5.7985 3.5957,13.805 1.7301,18.69 -1.4864,3.8919 -6.1636,8.222995 -11.718,10.850795 -4.8251,2.2827 -7.5031,2.561 -9.117,0.9469 z m 1583.7503,-0.851 c -5.3936,-2.8717 -9.0509,-5.7748 -10.9457,-8.688095 -3.2602,-5.0132 -3.0423,-14.1912 0.5015,-21.1175 2.9034,-5.6745 7.0239,-8.9183 27.6626,-21.7766 17.3924,-10.8355 16.7292,-10.5106 21.5978,-10.5814 4.6099,-0.069 8.0251,1.2689 12.1804,4.7655 2.4471,2.0589 2.755,3.766 0.9609,5.3266 -0.6684,0.5812 -6.3708,4.2166 -12.6723,8.0787 -19.9983,12.2562 -24.4338,15.406 -26.9069,19.1066 l -2.2567,3.3768 v 10.5766 c 0,9.364695 -0.1458,10.708395 -1.2699,11.725895 -1.8102,1.6381 -4.7859,1.3715 -8.8517,-0.7931 z M 122.8435,59.009865 c -2.6096,-1.3762 -11.2284,-6.5553 -19.153,-11.5093 -10.244798,-6.4043 -14.408198,-9.3751 -14.408198,-10.2815 0,-1.5915 3.2868,-4.4012 7.8584,-6.7177 2.915198,-1.4774 4.193198,-1.7208 7.712698,-1.4704 3.923,0.2792 4.9482,0.7626 14.6341,6.8989 24.2908,15.3896 22.7853,14.2479 22.3471,16.9486 -0.2142,1.3188 -1.0579,3.337 -1.8752,4.4849 -3.5247,4.9502 -9.7225,5.5461 -17.1159,1.6465 z m 1536.7136,1.8794 c -3.9609,-1.7224 -7.8022,-8.9306 -5.7627,-10.8138 1.2302,-1.1359 28.7077,-18.5378 31.7773,-20.1247 4.5921,-2.3743 14.5246,0 19.5248,4.6491 2.8468,2.6522 1.7587,3.7332 -12.5187,12.4391 -20.9906,12.7995 -23.0866,13.876 -27.6386,14.1942 -2.1756,0.1521 -4.5975,0 -5.3821,-0.3439 z"
     id="path118" /></svg>
