<?xml version="1.0" encoding="UTF-8" standalone="no"?>
<!-- Created with Inkscape (http://www.inkscape.org/) -->

<svg
   width="14.914303mm"
   height="14.168344mm"
   viewBox="0 0 14.9143 14.168345"
   version="1.1"
   id="svg1"
   xml:space="preserve"
   xmlns="http://www.w3.org/2000/svg"
   xmlns:svg="http://www.w3.org/2000/svg"><defs
     id="defs1" /><path
     id="path66"
     style="fill:#ffffff;fill-opacity:1;stroke:none;stroke-width:2.465;stroke-linecap:square;stroke-dasharray:none;stroke-opacity:1;paint-order:stroke markers fill"
     d="M 4.9862465,3.0319023e-6 C 2.2409465,3.0319023e-6 -1.3488521e-5,2.243002 -1.3488521e-5,4.988329 c 0,0.713019 0.151749998521,1.39152 0.423749998521,2.006079 0.1525,0.36197 0.34802,0.706653 0.59271999,1.021643 0.3965,0.52716 0.90865,0.964284 1.48415,1.289844 0.049,0.0285 0.0989,0.05692 0.14883,0.08372 0.6979,0.372719 1.49331,0.584967 2.33681,0.584977 0.3667,0 0.72407,-0.0415 1.06867,-0.117306 1.39369,-0.245279 2.62174,-1.197785 3.30264,-2.438094 0.4721,-0.810019 0.6636305,-1.750627 0.60823,-2.678906 -0.01,-0.10986 -0.0149,-0.218665 -0.0269,-0.326595 0,-0.0218 -0.0103,-0.04341 -0.0103,-0.06511 -0.057,-0.44026 -0.17078,-0.863249 -0.33538,-1.260388 v -0.0098 c -7e-4,-0.002 0,-0.0032 0,-0.0052 -0.044,-0.105947 -0.093,-0.209466 -0.14418,-0.311606 -0.2549,-0.516539 -0.59564,-0.988451 -1.02164,-1.37976 C 7.5316865,0.52707803 6.3212165,-9.6809769e-7 4.9914265,-9.6809769e-7 Z M 4.9971465,1.568899 a 3.4769003,3.4769003 0 0 1 3.47679,3.476791 3.4769003,3.4769003 0 0 1 -3.47679,3.47679 3.4769003,3.4769003 0 0 1 -2.06912,-0.693498 c -0.0148,-0.01081 -0.0293,-0.02203 -0.0439,-0.03307 a 3.4769003,3.4769003 0 0 1 -0.2496,-0.208255 c -0.0742,-0.06799 -0.14532,-0.138482 -0.2129,-0.212907 a 3.4769003,3.4769003 0 0 1 -0.10026,-0.116789 c -0.0606,-0.07357 -0.11783,-0.149984 -0.17156,-0.228927 a 3.4769003,3.4769003 0 0 1 -0.51987,-1.146183 c -0.0108,-0.0425 -0.0189,-0.08528 -0.0279,-0.128158 a 3.4769003,3.4769003 0 0 1 -0.0822,-0.709 3.4769003,3.4769003 0 0 1 3.47731,-3.476791 z M 10.025777,7.99383 C 9.5952765,8.69699 9.0426665,9.278382 8.3793665,9.748762 l 4.6694805,4.245219 c 0.7187,0.582249 2.08633,-0.398512 1.83503,-1.397331 -0.036,-0.10226 -0.10548,-0.268646 -0.27388,-0.422196 z m 3.60133,4.478797 a 0.45102656,0.45102656 0 0 1 0.45062,0.451135 0.45102656,0.45102656 0 0 1 -0.45062,0.451135 0.45102656,0.45102656 0 0 1 -0.45113,-0.451135 0.45102656,0.45102656 0 0 1 0.45113,-0.451135 z" /></svg>
