<?xml version="1.0" encoding="UTF-8" standalone="no"?>
<!-- Created with Inkscape (http://www.inkscape.org/) -->

<svg
   width="14.938914mm"
   height="10.903935mm"
   viewBox="0 0 14.938912 10.903936"
   version="1.1"
   id="svg1"
   xml:space="preserve"
   xmlns="http://www.w3.org/2000/svg"
   xmlns:svg="http://www.w3.org/2000/svg"><defs
     id="defs1" /><g
     id="g24"
     style="fill:#ffffff;stroke-width:1.66525"
     transform="matrix(0.70311271,0,0,-0.51288026,-1079.0629,36.639094)"><path
       id="path24"
       style="fill:#ffffff;stroke-width:1.73657;stroke-linecap:round;paint-order:markers stroke fill"
       d="m 1536.326,50.177709 c -0.902,0.003 -1.6315,0.73382 -1.6319,1.63401 10e-5,0.90279 0.7335,1.63452 1.6381,1.63452 h 17.9706 c 0.9046,0 1.638,-0.73173 1.6381,-1.63452 -3e-4,-0.90019 -0.7299,-1.63071 -1.6319,-1.63401 z m 0,8.99583 c -0.902,0.003 -1.6315,0.733825 -1.6319,1.63401 10e-5,0.902797 0.7335,1.634525 1.6381,1.634525 h 17.9706 c 0.9046,0 1.638,-0.731728 1.6381,-1.634525 -3e-4,-0.900185 -0.7299,-1.63071 -1.6319,-1.63401 z m 0,8.995833 c -0.902,0.0033 -1.6315,0.733824 -1.6319,1.634009 10e-5,0.902796 0.7335,1.634525 1.6381,1.634525 h 17.9706 c 0.9046,0 1.638,-0.731729 1.6381,-1.634525 -3e-4,-0.900185 -0.7299,-1.630709 -1.6319,-1.634009 z" /></g></svg>
