<?xml version="1.0" encoding="UTF-8" standalone="no"?>
<!-- Created with Inkscape (http://www.inkscape.org/) -->

<svg
   width="21.246765mm"
   height="21.260201mm"
   viewBox="0 0 21.246763 21.2602"
   version="1.1"
   id="svg1"
   xml:space="preserve"
   sodipodi:docname="menu_burger.svg"
   inkscape:version="1.3.2 (091e20e, 2023-11-25)"
   xmlns:inkscape="http://www.inkscape.org/namespaces/inkscape"
   xmlns:sodipodi="http://sodipodi.sourceforge.net/DTD/sodipodi-0.dtd"
   xmlns="http://www.w3.org/2000/svg"
   xmlns:svg="http://www.w3.org/2000/svg"><sodipodi:namedview
     id="namedview1"
     pagecolor="#ffffff"
     bordercolor="#666666"
     borderopacity="1.0"
     inkscape:showpageshadow="2"
     inkscape:pageopacity="0.0"
     inkscape:pagecheckerboard="0"
     inkscape:deskcolor="#d1d1d1"
     inkscape:document-units="mm"
     inkscape:zoom="0.88495407"
     inkscape:cx="374.03071"
     inkscape:cy="16.385031"
     inkscape:window-width="1920"
     inkscape:window-height="1028"
     inkscape:window-x="0"
     inkscape:window-y="52"
     inkscape:window-maximized="0"
     inkscape:current-layer="svg1" /><defs
     id="defs1"><linearGradient
       id="swatch51"><stop
         style="stop-color:#000000;stop-opacity:1;"
         offset="0"
         id="stop51" /></linearGradient></defs><g
     id="g37"
     style="fill:#ffffff"
     transform="matrix(1,0,0,-1,-1397.3166,-31.653983)"
     inkscape:export-filename="menu_burger.svg"
     inkscape:export-xdpi="66.6667"
     inkscape:export-ydpi="66.6667"><path
       id="path35"
       style="fill:#ffffff;stroke-width:1.04283;stroke-linecap:round;paint-order:markers stroke fill"
       d="m 1398.9485,-52.914167 c -0.902,0.003 -1.6315,0.73382 -1.6319,1.63401 10e-5,0.90279 0.7335,1.63452 1.6381,1.63452 h 17.9706 c 0.9046,0 1.638,-0.73173 1.6381,-1.63452 -3e-4,-0.90019 -0.7299,-1.63071 -1.6319,-1.63401 z m 0,8.99583 c -0.902,0.003 -1.6315,0.733825 -1.6319,1.63401 10e-5,0.902797 0.7335,1.634525 1.6381,1.634525 h 17.9706 c 0.9046,0 1.638,-0.731728 1.6381,-1.634525 -3e-4,-0.900185 -0.7299,-1.63071 -1.6319,-1.63401 z m 0,8.995833 c -0.902,0.0033 -1.6315,0.733824 -1.6319,1.634009 10e-5,0.902796 0.7335,1.634525 1.6381,1.634525 h 17.9706 c 0.9046,0 1.638,-0.731729 1.6381,-1.634525 -3e-4,-0.900185 -0.7299,-1.630709 -1.6319,-1.634009 z" /></g></svg>
