<?xml version="1.0" encoding="UTF-8" standalone="no"?>
<!-- Created with Inkscape (http://www.inkscape.org/) -->

<svg
   width="21.054077mm"
   height="21.646902mm"
   viewBox="0 0 21.054075 21.646902"
   version="1.1"
   id="svg1"
   xml:space="preserve"
   xmlns="http://www.w3.org/2000/svg"
   xmlns:svg="http://www.w3.org/2000/svg"><defs
     id="defs1"><linearGradient
       id="swatch51"><stop
         style="stop-color:#000000;stop-opacity:1;"
         offset="0"
         id="stop51" /></linearGradient></defs><path
     id="path53"
     style="fill:#ffffff;fill-opacity:1;stroke:none;stroke-width:0.5;stroke-linecap:round;stroke-dasharray:none;stroke-opacity:1;paint-order:markers fill stroke"
     d="M 9.1495706,6.2506219e-6 C 8.3247906,0.00700625 7.7759606,0.36488625 7.3641506,0.82372625 c -0.46722,0.52059005 -0.72443,1.17149005 -0.88522,1.55908005 -0.40702,1.40878 -0.22595,2.99844 0.73484,4.10311 l 0.006,0.008 0.006,0.008 c 0.51938,0.69916 1.62869,0.74528 2.30838,0.22686 l 0.002,-0.002 0.004,-0.002 c 1.2735504,-0.91078 1.7271004,-2.65555 1.5585704,-4.19509 -0.12901,-1.03575 -0.70701,-2.41470005 -1.5782004,-2.50992005 l -5.2e-4,-5.2e-4 c -0.12949,-0.0142 -0.25269,-0.0200999994 -0.37052,-0.0190999994 z M 14.939911,2.7621063 c -0.54466,0.25042 -1.05731,0.67529 -1.52703,1.1405 -0.89895,1.09155 -1.45543,2.60817 -1.0294,3.95687 0.25179,0.64107 0.86124,1.32777 1.65055,1.26194 h 0.01 0.008 c 1.36336,-0.0219 2.53286,-1.04041 3.20084,-2.21899 0.44353,-0.96706 0.80248,-2.02179 0.48628,-2.99982 l -0.002,-0.004 -0.002,-0.006 c -0.15366,-0.56085 -0.52237,-1.05906 -1.04128,-1.26556 -0.6965,-0.2166 -1.27951,-0.0835 -1.75442,0.13487 z m -12.8627804,1.20097 c -0.43254,0.007 -0.91929,0.21309 -1.49034002,0.86506 -1.02041,1.69278 -0.70632,4.19664 0.91415002,5.3924297 l 0.004,0.002 0.004,0.004 c 0.67475,0.5454 1.78312,0.26849 2.2717,-0.4237497 l 0.002,-0.002 0.002,-0.004 c 1.17297,-1.582 0.90293,-4.03874 -0.48834,-5.41001 -0.43167,-0.26373 -0.80456,-0.42374 -1.21905,-0.42374 z M 19.815071,10.793666 c -1.01145,-0.004 -1.9553,0.30612 -2.85719,0.94257 -0.70055,0.68423 -1.24296,1.6326 -1.06247,2.57814 v 0.004 0.002 c 0.0871,0.53396 0.44548,1.01121 0.95912,1.1405 l 0.006,0.002 0.004,0.002 c 1.2007,0.35565 2.52628,-0.28234 3.33623,-1.22474 l 0.002,-0.002 0.002,-0.004 c 0.68051,-0.74772 1.09282,-1.86164 0.69143,-2.78897 -0.12741,-0.27828 -0.36553,-0.50174 -0.64233,-0.63097 h -5.2e-4 c -0.14732,-0.0133 -0.29321,-0.0201 -0.4377,-0.0207 z m -14.0973304,0.67334 c -0.87714,0.46516 -1.23133,0.99128 -1.25419,1.16014 l -0.0196,0.14262 -0.1328,0.0543 c -0.49183,0.20741 -1.03133,0.25418 -1.27538,0.47491 -0.75822,0.74081 -1.46758,1.55278 -1.8867,2.4939 -0.25998002,0.74773 0.0631,1.7389 0.7462,2.13321 0.65643,0.29691 1.35014,0.48023 2.05259,0.44493 h 0.008 0.006 c 0.85987,0.003 1.76483,-0.008 2.64842,0.1664 h 0.002 c -0.0389,-0.008 0.0309,-0.004 0.11524,-0.0274 0.21705,-0.0607 0.44238,-0.15622 0.64647,-0.20722 0.11244,-0.0282 0.21411,-0.0635 0.36742,-0.0134 h 0.002 c 0.25118,0.12741 0.27095,0.32929 0.27336,0.58188 -0.003,0.0752 -0.002,0.13871 0.002,0.16381 1.12819,0.60923 1.89332,1.60982 2.8318704,2.26395 0.3675,0.21356 0.8269,0.35178 1.25574,0.34778 0.4271,-0.003 0.81259,-0.14009 1.10174,-0.45527 0.55598,-0.7311 0.62644,-1.74926 0.48834,-2.68769 -0.45734,-3.52951 -1.34268,-4.49106 -2.13262,-6.02496 -0.43079,-0.41131 -0.82946,-0.84047 -1.26607,-1.13894 -0.4433404,-0.30308 -0.9109604,-0.48113 -1.5425404,-0.41393 l -0.0315,0.002 -0.0289,-0.004 h -5.2e-4 c -0.57131,-0.0775 -1.73516,-0.1152 -2.97656,0.54312 z" /></svg>
