<?xml version="1.0" encoding="UTF-8" standalone="no"?>
<!-- Created with Inkscape (http://www.inkscape.org/) -->

<svg
   width="14.914336mm"
   height="14.168386mm"
   viewBox="0 0 14.914334 14.168387"
   version="1.1"
   id="svg1"
   xml:space="preserve"
   xmlns="http://www.w3.org/2000/svg"
   xmlns:svg="http://www.w3.org/2000/svg"><defs
     id="defs1"><linearGradient
       id="swatch51"><stop
         style="stop-color:#000000;stop-opacity:1;"
         offset="0"
         id="stop51" /></linearGradient></defs><path
     id="path66"
     style="fill:#000000;fill-opacity:1;stroke:none;stroke-width:2.465;stroke-linecap:square;stroke-dasharray:none;stroke-opacity:1;paint-order:stroke markers fill"
     d="M 4.9862556,5.4005968e-5 C 2.2409556,5.4005968e-5 -4.4405882e-5,2.243054 -4.4405882e-5,4.988384 c 0,0.71302 0.151799995882,1.39152 0.423799995882,2.00608 0.1525,0.36197 0.348,0.70665 0.59270001,1.02164 0.3965,0.52716 0.9086,0.96428 1.4841,1.28984 0.049,0.0285 0.099,0.0569 0.1489,0.0837 0.6979,0.37272 1.4933,0.58497 2.3368,0.58498 0.3667,0 0.724,-0.0415 1.0686,-0.11731 1.3937,-0.24528 2.6218,-1.19778 3.3027,-2.43809 0.4721,-0.81002 0.6636004,-1.75063 0.6082,-2.67891 -0.01,-0.10986 -0.015,-0.21866 -0.027,-0.32659 0,-0.0218 -0.01,-0.0434 -0.01,-0.0651 -0.057,-0.44026 -0.1707,-0.86324 -0.3353,-1.26038 0,-0.003 0,-0.007 0,-0.01 -7e-4,-0.002 0,-0.003 0,-0.005 -0.044,-0.10595 -0.093,-0.20947 -0.1442,-0.31161 -0.2549,-0.51654 -0.5957,-0.98845 -1.0217,-1.37976 -0.8957,-0.85474999 -2.1061,-1.381829994032 -3.4359,-1.381829994032 z M 5.2192556,1.598924 c 1.9351,0.0547 3.5432,2.04619 3.1993,3.95635 -0.1617,1.11691 -0.9137,2.11313 -1.9141,2.61379 -0.4592,0.21825 -0.9734,0.34055 -1.5182,0.34055 -0.1791,0 -0.355,-0.0133 -0.5266,-0.0388 -1.1161,-0.18275 -2.1528,-0.90878 -2.5957,-1.9637 -0.87530001,-1.69552 0.053,-4.04554 1.8748,-4.64571 0.3824,-0.24371 0.8526,-0.26524 1.2924,-0.26148 0.063,-0.002 0.1257,-0.003 0.1881,-10e-4 z m 4.8065004,6.39496 c -0.4305004,0.70316 -0.9832004,1.28455 -1.6465004,1.75493 l 4.6695004,4.24522 c 0.7187,0.58225 2.0864,-0.39851 1.8351,-1.39733 -0.036,-0.10226 -0.1055,-0.26865 -0.2739,-0.4222 z m 3.6013,4.4788 a 0.45102656,0.45102656 0 0 1 0.4506,0.45113 0.45102656,0.45102656 0 0 1 -0.4506,0.45114 0.45102656,0.45102656 0 0 1 -0.4511,-0.45114 0.45102656,0.45102656 0 0 1 0.4511,-0.45113 z" /></svg>
