<?xml version="1.0" encoding="UTF-8" standalone="no"?>
<!-- Created with Inkscape (http://www.inkscape.org/) -->

<svg
   width="16.210461mm"
   height="12.177018mm"
   viewBox="0 0 16.210458 12.177019"
   version="1.1"
   id="svg1"
   xml:space="preserve"
   sodipodi:docname="Shoe Beagle Icons.svg"
   inkscape:version="1.3.2 (091e20e, 2023-11-25)"
   xmlns:inkscape="http://www.inkscape.org/namespaces/inkscape"
   xmlns:sodipodi="http://sodipodi.sourceforge.net/DTD/sodipodi-0.dtd"
   xmlns="http://www.w3.org/2000/svg"
   xmlns:svg="http://www.w3.org/2000/svg"><sodipodi:namedview
     id="namedview1"
     pagecolor="#ffffff"
     bordercolor="#666666"
     borderopacity="1.0"
     inkscape:showpageshadow="2"
     inkscape:pageopacity="0.0"
     inkscape:pagecheckerboard="0"
     inkscape:deskcolor="#d1d1d1"
     inkscape:document-units="mm"
     inkscape:zoom="0.25349111"
     inkscape:cx="1337.325"
     inkscape:cy="-55.228761"
     inkscape:window-width="1760"
     inkscape:window-height="813"
     inkscape:window-x="53"
     inkscape:window-y="25"
     inkscape:window-maximized="0"
     inkscape:current-layer="svg1" /><defs
     id="defs1" /><path
     style="opacity:1;fill:#234577;fill-opacity:1;stroke:none;stroke-width:0.399;stroke-linecap:round;stroke-dasharray:none;stroke-opacity:1;paint-order:markers fill stroke"
     d="m 3.4341143,0.00297013 c -0.41253,0.0221 -0.55857,0.48024 -0.77416,0.75924 -0.49592,0.44503997 -0.89501,0.91161997 -1.26053,1.91779997 -0.67177004,0.90962 -2.17086004,1.37049 -0.91186004,2.62191 2.34391004,1.98928 5.46208004,4.22003 7.89530004,6.1874099 0.66138,0.53475 1.10553,0.67459 1.57694,0.68009 1.6291997,0.019 2.2005097,-0.005 3.8298397,0.006 0.90957,0.006 2.40915,-0.85138 2.41405,-1.56408 0.005,-0.7130199 0.0231,-0.8982799 -0.0331,-1.6087099 -0.12488,-0.94695 -0.92228,-1.76669 -1.87585,-1.88589 -0.8478,-0.12742 -1.70458,-0.41181 -2.33309,-1.01919 -0.10335,-0.12877 -0.30182,-0.22079 -0.33097,-0.39059 l -0.65207,-0.98599 c -0.20909,-0.3936 -0.36335,-0.81482 -0.51542,-1.23319 l -0.35013,-1.1165 C 9.8700743,1.6671501 9.7189243,0.93004013 9.4496243,0.23673013 c -0.19885,-0.29055 -0.65271,-0.30526 -0.88308,-0.0418 -1.201,1.10839997 -3.23397,1.24210997 -4.49523,0.15949 -0.18425,-0.15601 -0.37222,-0.37013 -0.6371,-0.35351000331 z m 0.22039,1.43583997 c 1.413,0.98409 3.36718,0.98051 4.85491,0.1622 0.14835,-0.12585 0.23244,-0.0758 0.24176,0.1124 0.11028,0.39246 0.24456,0.7856 0.33722,1.17855 -0.31714,0.26594 -0.76056,0.35191 -1.06706,0.63302 -0.22793,0.27654 -0.1267,0.74799 0.22693,0.86345 0.35501,0.13909 0.67284,-0.16318 0.98768,-0.28086 0.1023,-0.0364 0.2656,-0.19317 0.27443,0.0203 0.15278,0.37764 0.30374,0.75642 0.47759,1.12494 -0.28675,0.17337 -0.64236,0.26074 -0.87487,0.50939 -0.23791,0.29749 -0.0569,0.78464 0.30819,0.86573 0.43183,0.0611 0.7632697,-0.29437 1.1585397,-0.38872 0.53127,0.72005 1.25421,1.30192 2.10087,1.60586 0.55733,0.23493 1.16509,0.28844 1.74036,0.45642 0.45427,0.15145 0.65813,0.65654 0.66833,1.10172 -1.40189,0.0386 -2.36026,0.0385 -3.71456,0.0138 -0.37635,0.006 -0.61783,-0.0854 -0.92817,-0.34095 -2.5789097,-2.12369 -5.1577997,-4.24737 -7.7366697,-6.37109 0.18058,-0.57411 0.50921,-0.96314 0.86417,-1.31931 0.0267,0.0177 0.0536,0.0353 0.0804,0.0531 z m -1.30849,2.40307 c 2.57703,2.11181 5.12903,4.25458 7.7301397,6.3367699 0.2854,0.22036 0.72233,0.33295 1.15823,0.33453 1.29092,0.005 2.5819,0.0101 3.87278,0.015 -0.13362,0.21943 -0.2565,0.52024 -0.64539,0.53603 -1.40669,5.5e-4 -2.77583,0.0119 -4.26799,-0.004 -0.4529397,-0.005 -0.6771097,-0.0882 -1.0138297,-0.35596 -2.8111,-2.2342499 -7.87951,-6.1943599 -7.87951,-6.1943599 -0.12654,-0.0253 0.32275,-0.68549 0.79428,-0.87425 0.002,0.002 0.25129,0.20696 0.25129,0.2071 z"
     id="path23"
     sodipodi:nodetypes="cccccscsccccccccccccccccccccccccccccsccccscscccsccss"
     inkscape:export-filename="../shoe2.svg"
     inkscape:export-xdpi="66.666702"
     inkscape:export-ydpi="66.666702" /><path
     style="fill:#ff6600;fill-opacity:1;stroke-width:2.86499;stroke-linecap:round;paint-order:markers fill stroke"
     d="M 3.4689041,1.5028833 C 3.1368547,1.8435688 2.8582564,2.2455926 2.714413,2.7027079 5.3161667,4.8435442 7.9149836,6.98818 10.519304,9.125754 c 0.217964,0.1755537 0.49149,0.2894435 0.774329,0.2824294 0.822325,0.020214 1.645127,0.00796 2.467637,0.00826 0.44233,-0.00304 0.884793,-0.00132 1.326938,-0.016775 C 15.070481,9.0635689 14.964066,8.7140253 14.707684,8.4825096 14.514618,8.2895648 14.227915,8.2615613 13.97627,8.1959208 13.418264,8.0780251 12.853246,7.95905 12.337335,7.7069708 11.652805,7.3903096 11.070643,6.8820132 10.609183,6.2901218 10.586429,6.2603086 10.557219,6.2287305 10.519066,6.262158 10.208656,6.3624245 9.9420623,6.5847274 9.6140054,6.6314026 9.4797823,6.6460076 9.3350817,6.6316671 9.2289044,6.5398858 8.9954361,6.3628055 8.9150557,5.9803344 9.1203723,5.7521763 9.3046017,5.556927 9.5689204,5.4707919 9.7983407,5.3425378 9.8550144,5.3088405 9.9221921,5.2857212 9.9699229,5.2402155 9.816835,4.8623984 9.6400404,4.4931988 9.5047325,4.1083439 9.5045473,4.0653597 9.4676115,3.9982137 9.4168379,4.0322603 9.1207163,4.139226 8.8616098,4.3352135 8.5553811,4.4150674 8.3033125,4.4746489 8.0161338,4.3296784 7.9332398,4.0800334 7.8455834,3.8514229 7.9168357,3.5586773 8.1347994,3.4294283 8.4285928,3.2296626 8.7756996,3.1194425 9.0613438,2.9074398 9.0989675,2.8728191 9.0520834,2.8149441 9.0531417,2.7738067 8.959585,2.4051046 8.8332465,2.0448294 8.7433146,1.6755875 8.7364355,1.6183369 8.7083896,1.5189488 8.6310784,1.5425417 8.5020411,1.5920082 8.3917628,1.6823793 8.2623021,1.733346 7.7398823,1.9702777 7.1789657,2.1328959 6.6062222,2.1806294 6.2815255,2.1925092 5.9548974,2.2012669 5.6308886,2.1729036 4.9375745,2.0893693 4.2585399,1.8568138 3.6803856,1.4612168 3.6182535,1.4115836 3.5568173,1.3679485 3.5109041,1.4588355 3.4968812,1.473467 3.4828847,1.4881116 3.4688777,1.502751 Z"
     id="path3" /></svg>
