<?xml version="1.0" encoding="UTF-8" standalone="no"?>
<!-- Created with Inkscape (http://www.inkscape.org/) -->

<svg
   width="61.261837"
   height="61.262001"
   viewBox="0 0 16.208858 16.208905"
   version="1.1"
   id="svg1"
   xml:space="preserve"
   xmlns="http://www.w3.org/2000/svg"
   xmlns:svg="http://www.w3.org/2000/svg"><defs
     id="defs1" /><g
     id="path5"
     transform="translate(-26.690858,0.19656015)"><path
       id="path8"
       style="color:#000000;fill:#234577;stroke-linecap:round;-inkscape-stroke:none;paint-order:markers fill stroke"
       d="m 30.667896,1.8184937 c -0.169167,0.00969 -0.278012,0.1030707 -0.384473,0.2439127 -0.106846,0.1413526 -0.197549,0.3247058 -0.31471,0.4764567 l -0.0098,0.011886 -0.0098,0.00775 c -0.468898,0.3444027 -1.457861,1.460354 -1.812329,2.4825369 l -0.0098,0.025321 -0.0217,0.01757 c -0.395364,0.3275306 -0.928131,0.745374 -1.181323,1.1740886 -0.09803,0.1659963 -0.143382,0.3321404 -0.10387,0.5270996 0.03951,0.1949593 0.167987,0.4233405 0.4377,0.6914306 2.338142,1.9838033 5.453529,4.2125792 7.888924,6.1815352 0.651037,0.526388 1.063205,0.653058 1.51567,0.658358 1.627946,0.01903 2.19773,-0.0053 3.82819,0.0057 0.433292,0.0029 0.955229,-0.137881 1.384411,-0.390674 0.429184,-0.252792 0.762638,-0.613964 0.851628,-1.048514 0.12498,-0.610305 0.100998,-0.916847 0.04496,-1.625224 -0.120587,-0.898058 -0.885886,-1.6838925 -1.789038,-1.7967902 h 0.0062 C 40.117127,9.3908659 39.532599,9.129659 39.070483,8.7245321 38.60837,8.3194051 38.26725,7.7794908 37.849886,7.1484009 l -0.0021,-0.00413 -0.0021,-0.00362 C 37.632377,6.738983 37.476462,6.3132513 37.324337,5.8947306 l -0.0021,-0.00207 v -0.00207 C 36.301562,2.6357317 36.504506,3.1497726 36.316646,2.6659871 36.154571,2.4377944 35.780793,2.4213035 35.59576,2.6329142 l -0.0041,0.00362 -0.0036,0.00413 C 34.963648,3.2169316 34.053785,3.658583 33.26417,3.5398341 32.475981,3.4212996 31.805029,2.7451138 31.23277,2.1404363 c -10e-4,-0.00109 -0.0031,-4.603e-4 -0.0041,-0.00155 -0.108878,-0.06978 -0.176556,-0.1575431 -0.240296,-0.2149739 -0.06901,-0.062177 -0.139613,-0.1072299 -0.318326,-0.1054199 z m 0.150378,1.1446329 0.06253,0.078031 c 0.376893,0.4700475 0.964872,1.1886005 1.779736,1.4009481 0.814865,0.2123475 1.855753,-0.077922 2.757455,-0.5555216 0.0364,-0.028785 0.07178,-0.05451 0.111104,-0.068213 0.04619,-0.016088 0.104106,-0.019963 0.152446,0.00413 0.04833,0.024097 0.07821,0.069076 0.0956,0.1131714 0.01464,0.037065 0.02007,0.079051 0.02377,0.1229899 0.109269,0.3888682 0.243257,0.7839704 0.337447,1.1833903 l 0.01602,0.058911 -0.04702,0.040824 C 35.766491,5.6276264 35.331736,5.7147975 35.052646,5.9650055 34.872904,6.188126 34.952513,6.5743399 35.23403,6.6662547 l 0.0021,0.00155 h 0.0021 c 0.14532,0.056935 0.278936,0.02732 0.431498,-0.040824 0.152564,-0.068145 0.313489,-0.1755176 0.486792,-0.2402954 0.0244,-0.00868 0.09188,-0.057583 0.1757,-0.083716 0.04191,-0.013067 0.110515,-0.022141 0.163815,0.021187 0.04704,0.038239 0.06029,0.092259 0.06511,0.1498616 0.151348,0.374168 0.301947,0.7488483 0.472322,1.1100098 l 0.03669,0.080099 -0.07597,0.047025 c -0.303375,0.1834227 -0.641212,0.272682 -0.847493,0.4898926 -0.183364,0.2360551 -0.03657,0.6317393 0.248047,0.6991821 0.183443,0.024052 0.350479,-0.035808 0.529166,-0.1250569 0.18071,-0.090258 0.369104,-0.2071469 0.588078,-0.2594157 l 0.06253,-0.015503 0.03876,0.05271 c 0.526539,0.713639 0.973026,1.1476497 1.800924,1.4448731 h 0.0036 l 0.0021,0.00207 c 0.538455,0.2269741 1.142778,0.2795561 1.730644,0.4511361 v 0.0021 h 0.0021 c 0.254383,0.08481 0.464762,0.258195 0.556555,0.488342 0.330222,0.82795 0.362695,1.384917 0.163871,1.861044 -0.216254,0.59348 -1.194601,0.628556 -1.769036,0.607599 -1.406174,0 -1.717865,0.01229 -3.211173,-0.0036 -0.464759,-0.0051 -0.728656,-0.104404 -1.074353,-0.379305 -2.810042,-2.233411 -7.877586,-6.1916028 -7.878589,-6.1923866 -0.01751,-0.01106 -0.03411,-0.025413 -0.04341,-0.041858 -0.01683,-0.029741 -0.0167,-0.057779 -0.0155,-0.080098 0.006,-0.1155407 0.138901,-0.3024879 0.214974,-0.3963583 0.189543,-0.2532449 0.457486,-0.493611 0.738745,-0.6242598 0.364028,-1.098882 1.08738,-2.0150674 1.983547,-2.7291327 z" /></g><path
     style="opacity:1;fill:#ff6600;fill-opacity:1;stroke:none;stroke-width:0.199001;stroke-linecap:round;stroke-dasharray:none;stroke-opacity:1;paint-order:markers fill stroke"
     d="m 2.1698997,5.8620552 c 2.6268626,2.1686403 5.1864682,4.1917468 7.8216543,6.3503738 0.261605,0.212119 0.60501,0.27807 0.934474,0.267786 1.228807,0.005 3.102833,0.0075 4.33146,-0.01368 0.08047,-0.390921 -0.03027,-1.300666 -0.523793,-1.656571 -0.244428,-0.197249 -0.575059,-0.220256 -0.868471,-0.29881 -0.73255,-0.150327 -1.488075,-0.350862 -2.08398,-0.8248966 C 11.431676,9.4054935 11.146553,9.0554511 10.876014,8.7005358 10.511413,8.7918557 10.205941,9.0463285 9.833405,9.1095914 9.5827652,9.1381114 9.3603432,8.9041798 9.3691777,8.6577572 9.3435396,8.4706896 9.4933969,8.3266071 9.6440745,8.2450961 9.8728226,8.1015205 10.133585,8.007233 10.356396,7.8583753 10.256887,7.570651 10.113125,7.2985172 10.004924,7.0132726 9.929769,6.8596386 9.8935422,6.68708 9.8088437,6.5392168 9.7271325,6.4526893 9.5980343,6.5384495 9.510063,6.5687125 9.2649901,6.6690952 9.0408033,6.8284103 8.7811095,6.8884525 8.5515226,6.9290628 8.3020576,6.7745425 8.2680533,6.537465 8.2321097,6.3649675 8.298864,6.174295 8.4560186,6.0845158 8.767756,5.8715577 9.0500637,5.8136406 9.465449,5.5128187 9.4421392,5.3614775 9.3891537,5.2727289 9.3691592,5.1564194 9.2690964,4.8106047 9.1673879,4.464091 9.0711616,4.1179139 9.029704,3.9964294 8.8736369,3.9810817 8.7814958,4.054143 7.8916809,4.5592886 6.6479567,4.9089424 5.7123821,4.5613471 4.928509,4.243115 4.2555122,3.342436 4.1290413,3.1637111 3.2393931,3.8295609 2.4345174,4.9367033 2.1698997,5.8620552 Z"
     id="path6" /></svg>
