<?xml version="1.0" encoding="UTF-8" standalone="no"?>
<!-- Created with Inkscape (http://www.inkscape.org/) -->

<svg
   width="16.210461mm"
   height="12.177018mm"
   viewBox="0 0 16.210458 12.177019"
   version="1.1"
   id="svg1"
   xml:space="preserve"
   xmlns="http://www.w3.org/2000/svg"
   xmlns:svg="http://www.w3.org/2000/svg"><defs
     id="defs1" /><path
     style="opacity:1;fill:#000000;fill-opacity:1;stroke:none;stroke-width:0.399;stroke-linecap:round;stroke-dasharray:none;stroke-opacity:1;paint-order:markers fill stroke"
     d="m 3.4341143,0.00297013 c -0.41253,0.0221 -0.55857,0.48024 -0.77416,0.75924 -0.49592,0.44503997 -0.89501,0.91161997 -1.26053,1.91779997 -0.67177004,0.90962 -2.17086004,1.37049 -0.91186004,2.62191 2.34391004,1.98928 5.46208004,4.22003 7.89530004,6.1874099 0.66138,0.53475 1.10553,0.67459 1.57694,0.68009 1.6291997,0.019 2.2005097,-0.005 3.8298397,0.006 0.90957,0.006 2.40915,-0.85138 2.41405,-1.56408 0.005,-0.7130199 0.0231,-0.8982799 -0.0331,-1.6087099 -0.12488,-0.94695 -0.92228,-1.76669 -1.87585,-1.88589 -0.8478,-0.12742 -1.70458,-0.41181 -2.33309,-1.01919 -0.10335,-0.12877 -0.30182,-0.22079 -0.33097,-0.39059 l -0.65207,-0.98599 c -0.20909,-0.3936 -0.36335,-0.81482 -0.51542,-1.23319 l -0.35013,-1.1165 C 9.8700743,1.6671501 9.7189243,0.93004013 9.4496243,0.23673013 c -0.19885,-0.29055 -0.65271,-0.30526 -0.88308,-0.0418 -1.201,1.10839997 -3.23397,1.24210997 -4.49523,0.15949 -0.18425,-0.15601 -0.37222,-0.37013 -0.6371,-0.35351000331 z m 0.22039,1.43583997 c 1.413,0.98409 3.36718,0.98051 4.85491,0.1622 0.14835,-0.12585 0.23244,-0.0758 0.24176,0.1124 0.11028,0.39246 0.24456,0.7856 0.33722,1.17855 -0.31714,0.26594 -0.76056,0.35191 -1.06706,0.63302 -0.22793,0.27654 -0.1267,0.74799 0.22693,0.86345 0.35501,0.13909 0.67284,-0.16318 0.98768,-0.28086 0.1023,-0.0364 0.2656,-0.19317 0.27443,0.0203 0.15278,0.37764 0.30374,0.75642 0.47759,1.12494 -0.28675,0.17337 -0.64236,0.26074 -0.87487,0.50939 -0.23791,0.29749 -0.0569,0.78464 0.30819,0.86573 0.43183,0.0611 0.7632697,-0.29437 1.1585397,-0.38872 0.53127,0.72005 1.25421,1.30192 2.10087,1.60586 0.55733,0.23493 1.16509,0.28844 1.74036,0.45642 0.45427,0.15145 0.65813,0.65654 0.66833,1.10172 -1.40189,0.0386 -2.36026,0.0385 -3.71456,0.0138 -0.37635,0.006 -0.61783,-0.0854 -0.92817,-0.34095 -2.5789097,-2.12369 -5.1577997,-4.24737 -7.7366697,-6.37109 0.18058,-0.57411 0.50921,-0.96314 0.86417,-1.31931 0.0267,0.0177 0.0536,0.0353 0.0804,0.0531 z m -1.30849,2.40307 c 2.57703,2.11181 5.12903,4.25458 7.7301397,6.3367699 0.2854,0.22036 0.72233,0.33295 1.15823,0.33453 1.29092,0.005 2.5819,0.0101 3.87278,0.015 -0.13362,0.21943 -0.2565,0.52024 -0.64539,0.53603 -1.40669,5.5e-4 -2.77583,0.0119 -4.26799,-0.004 -0.4529397,-0.005 -0.6771097,-0.0882 -1.0138297,-0.35596 -2.8111,-2.2342499 -7.87951,-6.1943599 -7.87951,-6.1943599 -0.12654,-0.0253 0.32275,-0.68549 0.79428,-0.87425 0.002,0.002 0.25129,0.20696 0.25129,0.2071 z"
     id="path23" /></svg>
