<?xml version="1.0" encoding="UTF-8" standalone="no"?>
<!-- Created with Inkscape (http://www.inkscape.org/) -->

<svg
   width="59.265629mm"
   height="59.265636mm"
   viewBox="0 0 59.265619 59.26564"
   version="1.1"
   id="svg1"
   xml:space="preserve"
   xmlns="http://www.w3.org/2000/svg"
   xmlns:svg="http://www.w3.org/2000/svg"><defs
     id="defs1" /><g
     id="g39"
     style="opacity:1"
     transform="translate(2.9098995,76.59636)"><path
       style="opacity:1;fill:#adff2e;fill-opacity:1;stroke:none;stroke-width:0.399;stroke-linecap:round;stroke-dasharray:none;stroke-opacity:1;paint-order:markers fill stroke"
       d="M -2.9098995,-17.330724 H 56.355734 V -76.596358 H -2.9098995 Z"
       id="path39" /><path
       id="path38"
       style="opacity:1;fill:#000000;fill-opacity:1;stroke:none;stroke-width:0.399;stroke-linecap:round;stroke-dasharray:none;stroke-opacity:1;paint-order:markers fill stroke"
       d="m 48.327283,-59.455802 c -0.194131,-0.0024 -0.387585,0.03973 -0.567924,0.11007 -0.231013,0.09139 -0.438407,0.238372 -0.603581,0.423747 -0.160288,0.175259 -0.273451,0.390875 -0.343132,0.617017 -0.04578,0.153214 -0.06514,0.313104 -0.06149,0.472839 5.42e-4,0.272346 0.0768,0.543518 0.21239,0.779281 0.198966,0.345889 0.532146,0.611652 0.913639,0.728637 0.175007,0.05465 0.358791,0.08045 0.542086,0.06976 0.48243,-0.01476 0.948273,-0.268091 1.229382,-0.659392 0.195015,-0.268079 0.305546,-0.597547 0.303341,-0.929659 0.01151,-0.467432 -0.204664,-0.930999 -0.56069,-1.231966 -0.250863,-0.217182 -0.572179,-0.349344 -0.90227,-0.377755 -0.05393,-0.0024 -0.107778,-0.0023 -0.161747,-0.0021 z m 0.04806,0.206705 c 0.276468,-0.0029 0.549747,0.09209 0.775663,0.249081 0.303004,0.210043 0.516794,0.543502 0.577743,0.907438 0.02426,0.127748 0.02291,0.259469 0.01292,0.388607 -0.04452,0.41345 -0.284121,0.801045 -0.63562,1.02371 -0.345474,0.223251 -0.791806,0.284608 -1.182874,0.153996 -0.231264,-0.07458 -0.441598,-0.211068 -0.605131,-0.390674 -0.132214,-0.143572 -0.23119,-0.316551 -0.293522,-0.501262 -0.123708,-0.368566 -0.08254,-0.787876 0.111104,-1.124996 0.205915,-0.364773 0.582735,-0.627596 0.996839,-0.692464 0.0802,-0.01406 0.161749,-0.01356 0.242879,-0.01344 z m -33.030025,0.05064 c -0.282212,0.0127 -0.581281,0.0446 -0.907955,0.104387 -1.818035,0.293663 -3.657901,0.98893 -4.4591597,1.58905 H 5.6244629 v 21.280355 c 2.7512672,-0.008 5.5024921,-0.01579 8.2537601,-0.02377 0.01577,-4.54737 0.03906,-8.654001 0.05529,-13.201262 0.03625,-0.827368 0.728027,-1.594736 1.749764,-1.604036 1.062396,-0.0097 1.78412,0.716755 1.79524,1.701705 0.0034,0.303892 -0.0015,0.625281 0.02842,0.923974 0.01314,0.3496 0.124695,0.25471 0.614433,0.274919 l 7.4967,-0.02222 c -0.07218,-0.957388 -0.02203,-1.925761 -0.136943,-2.877861 -0.03324,-1.783383 -1.364998,-4.153003 -3.231327,-5.773807 -1.535916,-1.304599 -3.575852,-2.00416 -4.555795,-2.2009 -0.809768,-0.07384 -1.50206,-0.20863 -2.348693,-0.170532 z m 23.997501,0.07183 c -0.229609,0.0054 -0.457851,0.0176 -0.684196,0.03669 -1.490458,0.142989 -2.952598,0.410574 -4.288627,1.232999 -0.11536,0.08219 -0.244043,0.130142 -0.333313,0.238746 l -4.715991,0.146244 0.01499,9.143628 c -0.0263,0.269802 0.317565,0.127988 0.468705,0.164331 2.549068,0.0136 5.098001,-0.006 7.647079,-0.01137 0.0404,-0.374126 0.03032,-0.63553 0.04702,-1.012341 0.0523,-1.180518 0.72049,-1.871584 1.863969,-1.863452 1.019239,0.007 1.703302,0.842837 1.703772,1.839164 0.008,4.47535 0.0053,8.50577 0.01344,12.98112 l 8.251693,-0.01757 v -13.70304 c -0.0205,-1.6845 -0.894852,-3.743341 -1.962671,-5.270479 -1.381869,-1.759371 -3.058478,-3.278134 -5.954675,-3.801319 -0.68301,-0.07748 -1.382363,-0.119558 -2.071192,-0.103353 z m 8.501807,0.382923 c -0.03414,-6.3e-5 -0.0682,9.34e-4 -0.101803,0.0057 2.9e-5,0.583636 5e-4,1.167164 5.17e-4,1.750798 h 0.296106 c 4e-6,-0.228952 -2e-5,-0.457832 0,-0.68678 0.07766,4.9e-4 0.156665,-0.0047 0.233577,0 0.07623,0.111338 0.146094,0.22705 0.220142,0.340031 0.07414,0.115516 0.148068,0.231238 0.222209,0.346749 0.110346,1.7e-5 0.220902,-1.5e-5 0.331246,0 -0.149603,-0.239027 -0.307206,-0.47352 -0.454753,-0.713652 0.05672,-0.02021 0.117521,-0.03405 0.169499,-0.06666 0.160913,-0.08857 0.269706,-0.266647 0.264583,-0.451652 -0.0011,-0.185013 -0.09485,-0.38079 -0.268717,-0.459921 -0.154496,-0.06642 -0.327213,-0.0595 -0.49196,-0.06305 -0.106052,-0.0014 -0.212268,-0.0016 -0.318327,-0.0016 -0.03395,0.0012 -0.06818,6.2e-5 -0.102319,0 z m 0.472322,0.260966 h 5.17e-4 c 0.116668,0.0014 0.247567,-0.0069 0.344682,0.06976 0.05895,0.04409 0.09241,0.115727 0.09043,0.189136 0.0065,0.113129 -0.07206,0.22407 -0.181901,0.253731 -0.12038,0.03867 -0.248744,0.02404 -0.373104,0.02894 -0.05085,-0.0017 -0.103974,0.0029 -0.153479,-0.0031 -0.0083,-0.122409 -0.0025,-0.245701 -0.0031,-0.368453 2.35e-4,-0.05605 9.41e-4,-0.111896 0.0016,-0.167948 0.09155,-4.89e-4 0.182847,-0.0021 0.274401,-0.0021 z m -22.541259,12.342916 -8.247559,0.02377 c 0.05572,0.723499 0.08333,1.26715 0.140043,2.544031 0.173335,4.424058 4.26025,8.214427 10.065019,8.144722 4.532435,0.0093 9.590019,-3.304453 9.747209,-8.056872 l -0.0052,-2.480469 c 0.0541,-0.244438 -0.252063,-0.118256 -0.382922,-0.153479 -2.561258,-0.0207 -5.124825,-0.04124 -7.684803,0.01447 v 1.18029 c 0,1.002685 -1.158439,1.467941 -1.916679,1.474328 -0.700119,0.0059 -1.612726,-0.567535 -1.655196,-1.368908 -0.0325,-0.634792 -0.03414,-0.815281 -0.05994,-1.321883 z" /></g></svg>
