<?xml version="1.0" encoding="UTF-8" standalone="no"?>
<!-- Created with Inkscape (http://www.inkscape.org/) -->

<svg
   width="238.97392mm"
   height="238.57707mm"
   viewBox="0 0 238.97388 238.57708"
   version="1.1"
   id="svg1"
   xml:space="preserve"
   xmlns:xlink="http://www.w3.org/1999/xlink"
   xmlns="http://www.w3.org/2000/svg"
   xmlns:svg="http://www.w3.org/2000/svg"><defs
     id="defs1"><linearGradient
       id="linearGradient96"><stop
         style="stop-color:#fe7b17;stop-opacity:1;"
         offset="0"
         id="stop96" /><stop
         style="stop-color:#fee5ca;stop-opacity:1;"
         offset="1"
         id="stop97" /></linearGradient><linearGradient
       id="linearGradient94"><stop
         style="stop-color:#feda66;stop-opacity:1;"
         offset="0"
         id="stop94" /><stop
         style="stop-color:#fee5ca;stop-opacity:0;"
         offset="1"
         id="stop95" /></linearGradient><linearGradient
       xlink:href="#linearGradient94"
       id="linearGradient95"
       x1="448.41565"
       y1="-441.52924"
       x2="576.38422"
       y2="-401.11807"
       gradientUnits="userSpaceOnUse"
       gradientTransform="rotate(180,674.54312,-388.09593)" /><linearGradient
       xlink:href="#linearGradient96"
       id="linearGradient97"
       x1="782.93011"
       y1="-26.940775"
       x2="865.24915"
       y2="-127.22031"
       gradientUnits="userSpaceOnUse"
       gradientTransform="translate(-62.861792,-298.59352)" /></defs><g
     id="g97"
     transform="translate(-678.90886,500.64928)"><path
       id="circle91"
       style="fill:url(#linearGradient97);stroke:none;stroke-width:0.264999;stroke-linecap:round;paint-order:markers fill stroke"
       d="M 916.8856,-381.66089 A 118.98839,118.98839 0 0 1 797.89726,-262.6725 118.98839,118.98839 0 0 1 678.90887,-381.66089 118.98839,118.98839 0 0 1 797.89726,-500.64928 118.98839,118.98839 0 0 1 916.8856,-381.66089 Z" /><path
       id="path90"
       style="fill:url(#linearGradient95);stroke:none;stroke-width:0.264999;stroke-linecap:round;paint-order:markers fill stroke"
       d="M 679.906,-381.06061 A 118.98839,118.98839 0 0 1 798.89439,-500.049 118.98839,118.98839 0 0 1 917.88278,-381.06061 118.98839,118.98839 0 0 1 798.89439,-262.07222 118.98839,118.98839 0 0 1 679.906,-381.06061 Z" /><path
       id="path89"
       style="opacity:1;fill:#000000;fill-opacity:1;stroke:none;stroke-width:0.264999;stroke-linecap:round;stroke-dasharray:none;stroke-opacity:1;paint-order:markers fill stroke"
       d="m 812.07418,-439.96206 c -0.12917,0.009 -0.26445,0.0318 -0.40669,0.0713 -4.08464,-10e-4 -8.1694,-0.0147 -12.25404,-0.003 -1.33721,0.11783 -2.84613,-0.19493 -4.09586,0.25941 0.57925,1.45695 1.79647,2.64948 2.58122,4.02508 11.92081,17.79794 23.94665,35.52679 35.79215,53.37452 0.50033,0.69378 -0.70824,1.32962 -0.86146,1.97301 -12.49394,18.65832 -25.0898,37.2736 -37.57133,55.92475 3.49072,0.37789 7.06556,0.12456 10.58796,0.20412 2.51185,-0.10191 5.08968,0.2014 7.56235,-0.24805 7.28493,-10.56972 14.32401,-21.33779 21.50514,-31.98977 5.70897,-8.53005 11.41934,-17.05884 17.14572,-25.57726 -12.77715,-18.80404 -25.29303,-37.78589 -38.05195,-56.60274 -0.43373,-0.81584 -1.02891,-1.47172 -1.93321,-1.41129 z m -55.41573,0.0243 c -6.32645,0.002 -12.65349,0.032 -18.9792,0.003 -2.52227,5.3e-4 -5.04476,0.002 -7.56698,0.004 -4.43126,0.0812 -8.88984,-0.14292 -13.30359,0.22686 -0.19791,0.62468 0.7384,1.21669 0.95239,1.78749 2.96101,4.267 5.72789,8.70147 8.78242,12.88293 3.93203,0.41188 7.92308,0.15603 11.87784,0.24701 9.94479,0.0681 19.89627,-0.12075 29.83693,0.18087 0.8527,0.15872 1.06267,1.35151 1.65311,1.89136 8.87664,13.24222 17.85187,26.42006 26.62267,39.73246 0.33787,0.55263 1.02611,1.22209 0.3085,1.81074 -9.2707,13.65983 -18.3793,27.43109 -27.69287,41.06106 -0.4512,1.10889 -1.43669,1.1365 -2.48563,1.01286 -7.06009,-0.0703 -14.13111,0.15146 -21.18424,-0.14211 -0.77853,-0.12318 0.20334,-1.04747 0.34108,-1.3472 9.15535,-13.63671 18.3253,-27.26584 27.3704,-40.97528 -0.38687,-0.30284 -1.59607,-0.0456 -2.24533,-0.14625 -5.23865,-0.0334 -10.47729,0.0286 -15.71583,0.0481 -12.60742,18.78244 -25.32745,37.49118 -37.87314,56.31388 -0.19722,0.40703 -1.09257,1.38557 0.0155,1.13275 17.53992,0.27069 35.0851,0.14754 52.62623,0.0258 2.25362,-0.0833 4.57666,0.056 6.7903,-0.21652 7.13102,-10.3451 13.99635,-20.87725 21.03281,-31.28956 5.76204,-8.63905 11.59245,-17.238 17.32555,-25.893 0.43072,-0.79408 -0.76972,-1.42303 -0.97253,-2.13062 -12.16631,-18.09275 -24.23459,-36.25184 -36.44741,-54.31296 -0.5946,-0.69532 -0.93525,-1.96014 -2.09238,-1.74873 -6.32431,-0.13615 -12.65015,-0.16102 -18.9766,-0.15865 z m 80.90048,0.006 c -1.85886,0.0689 -3.86374,-0.0986 -5.64512,0.18139 3.20566,5.32072 6.88395,10.35058 10.28464,15.55047 9.11238,13.62781 18.34639,27.17633 27.36681,40.86469 0.32689,0.71499 1.397,1.59278 0.43614,2.30063 -12.73019,18.94338 -25.49986,37.86511 -38.20388,56.82289 6.07714,0.11612 12.15993,-0.008 18.23921,-0.014 12.61086,-18.80914 25.1677,-37.65563 37.8292,-56.43015 0.45786,-0.72303 1.43611,-1.28227 0.40825,-1.97042 -9.76738,-14.28801 -19.30453,-28.73359 -28.97031,-43.09091 -3.1759,-4.65533 -6.19485,-9.44315 -9.51675,-13.98416 -4.06434,-0.28088 -8.15453,-0.19555 -12.22819,-0.23048 z" /></g></svg>
