<?xml version="1.0" encoding="UTF-8" standalone="no"?>
<!-- Created with Inkscape (http://www.inkscape.org/) -->

<svg
   width="270.93332mm"
   height="270.93332mm"
   viewBox="0 0 270.93327 270.93333"
   version="1.1"
   id="svg1"
   xml:space="preserve"
   xmlns="http://www.w3.org/2000/svg"
   xmlns:svg="http://www.w3.org/2000/svg"><defs
     id="defs1" /><g
     id="g102"
     transform="translate(-399.52085,313.79584)"><path
       id="rect102"
       style="opacity:1;fill:#516adf;stroke-width:0.264999;stroke-linecap:round;paint-order:markers fill stroke"
       d="M 399.52084,-313.79584 H 670.45416 V -42.862518 H 399.52084 Z" /><path
       id="path101"
       style="opacity:1;fill:#ffffff;fill-opacity:1;stroke:none;stroke-width:0.264999;stroke-linecap:round;stroke-dasharray:none;stroke-opacity:1;paint-order:markers fill stroke"
       d="m 602.72808,-231.49336 c -1.99126,-0.006 -3.98314,0.124 -5.94228,0.49196 -2.02782,0.35641 -4.0378,0.87583 -5.90764,1.75235 -3.36428,1.39504 -6.35423,3.6472 -8.6646,6.45955 -0.24802,0.19478 -0.36738,0.63586 -0.70125,0.68988 -0.19992,-0.16717 -0.0648,-0.53208 -0.11936,-0.76119 -0.0324,-2.38949 0.0192,-4.78458 -0.12144,-7.17011 -0.0464,-0.30389 -0.49319,-0.0736 -0.68525,-0.15555 -5.70894,-0.0425 -11.41902,-0.0531 -17.12764,0.0243 -0.31798,-0.0449 -0.14102,0.43451 -0.20669,0.60203 -0.0873,6.91086 -0.0353,13.82326 -0.0522,20.73466 0.009,11.77558 -0.0205,23.55349 0.0434,35.32807 0.81132,0.15065 1.67064,0.0527 2.49907,0.0899 5.17457,-0.0113 10.35061,0.0172 15.52411,-0.061 0.21963,-0.0259 0.67749,0.0573 0.58706,-0.32039 0.10239,-4.92755 0.0416,-9.85765 0.0625,-14.78618 0.022,-4.5049 -0.043,-9.012 0.0873,-13.51545 0.047,-0.77444 0.22619,-1.53197 0.3297,-2.30012 0.14671,-0.52756 0.16933,-1.07669 0.39634,-1.57923 0.34788,-1.31573 1.00645,-2.53474 1.75443,-3.66386 0.71882,-0.9815 1.5821,-1.88283 2.56315,-2.59726 0.86582,-0.67349 1.84444,-1.20653 2.87165,-1.58595 1.46955,-0.42959 2.969,-0.84615 4.50517,-0.93327 2.88782,-0.118 5.89664,0.22411 8.45995,1.64951 0.80494,0.46483 1.495,1.1068 2.16627,1.74098 1.21232,1.24337 1.99568,2.83309 2.56831,4.45347 0.0805,0.4163 0.3047,0.77346 0.32142,1.20768 0.44889,1.89903 0.57105,3.85498 0.54107,5.8012 0.0488,8.75495 0.0219,17.511 0.0294,26.26609 0.42421,0.28495 0.99428,0.10411 1.47537,0.17415 5.83541,0.0339 11.67262,0.0469 17.50796,0.006 0.26138,-0.0518 0.6306,0.0689 0.83613,-0.12557 0.12502,-2.28477 0.0556,-4.57915 0.0832,-6.8678 -0.0101,-8.21232 0.0479,-16.426 -0.0641,-24.63777 -0.0304,-1.89235 -0.16804,-3.79288 -0.50594,-5.65392 -0.19698,-1.10459 -0.43791,-2.20106 -0.68521,-3.29541 -0.0545,-0.35711 -0.24178,-0.65499 -0.24495,-1.02319 -0.14912,-0.48019 -0.2956,-0.96463 -0.47903,-1.42627 -0.35751,-1.07396 -0.89869,-2.08734 -1.39063,-3.10731 -1.30992,-2.68342 -3.29091,-5.01489 -5.61258,-6.87813 -1.54421,-1.23007 -3.31004,-2.14281 -5.11855,-2.913 -0.97816,-0.38668 -1.95847,-0.77168 -2.98225,-1.03301 -0.77888,-0.25987 -1.60062,-0.32487 -2.38641,-0.55242 -2.048,-0.35878 -4.13549,-0.54134 -6.21511,-0.52865 z M 484.28,-231.19881 c -3.29341,0.0114 -6.59842,0.49567 -9.73273,1.51567 -2.23078,0.79583 -4.42042,1.80858 -6.32105,3.23805 -1.56134,1.21152 -2.96193,2.64498 -4.13102,4.23747 -0.10642,0.10232 -0.20767,0.44176 -0.39585,0.37103 -0.0497,-2.76093 -0.056,-5.52291 -0.0837,-8.28425 -1.57178,-0.13606 -3.15743,-0.0504 -4.73461,-0.0858 -4.38219,0.002 -8.76697,-0.0339 -13.14855,0.046 -0.11189,2.41895 -0.051,4.8504 -0.077,7.27398 -0.005,15.96248 -0.0232,31.92567 0.046,47.88803 0.0233,0.49568 -0.0263,1.03614 0.045,1.50844 4.18941,0.11941 8.3838,0.0703 12.57546,0.0775 1.94424,-0.0254 3.90671,0.0213 5.84097,-0.0842 0.12446,-7.87298 0.0361,-15.74873 0.15504,-23.62182 0.0693,-1.64213 0.35698,-3.2794 0.80047,-4.86068 0.17526,-0.3413 0.11491,-0.75189 0.34312,-1.05989 0.34417,-1.05618 0.79171,-2.09551 1.37099,-3.03651 0.85227,-1.41433 1.91503,-2.70765 3.22821,-3.71915 0.87439,-0.67201 1.79866,-1.3131 2.82516,-1.72341 0.49424,-0.27819 1.07911,-0.37463 1.58441,-0.63562 0.85029,-0.19615 1.68846,-0.46693 2.55384,-0.60255 0.71228,-0.0874 1.40922,-0.29644 2.13579,-0.29248 1.72617,-0.0627 3.46025,-0.23495 5.18573,-0.0956 0.9765,0.10348 1.95003,0.21632 2.91248,0.40979 0.69133,0.0866 1.36845,0.26186 2.05414,0.37827 0.46895,0.15604 0.9606,0.27109 1.43868,0.37983 0.18991,-0.0798 0.0564,-0.4227 0.11522,-0.58188 0.0699,-6.01453 0.0188,-12.03054 0.0346,-18.04541 -0.62894,-0.21425 -1.31228,-0.17402 -1.96062,-0.31678 -1.55011,-0.16298 -3.09851,-0.32353 -4.66018,-0.27802 z m 68.81338,0.97617 c -1.92656,-0.003 -3.85344,0.007 -5.77897,0.002 -2.63906,0.0233 -5.28288,-0.0168 -7.9189,0.0894 -0.10068,3.98272 -0.0485,7.97105 -0.0687,11.95586 -0.0151,6.00749 0.0298,12.01643 -0.061,18.02319 -0.21577,1.68377 -0.47614,3.37836 -1.10741,4.96559 -0.73607,1.92919 -2.10918,3.61013 -3.80495,4.778 -1.01944,0.66666 -2.12524,1.20326 -3.3016,1.52291 -1.83041,0.48989 -3.7319,0.641 -5.62136,0.5674 -1.4581,-0.0393 -2.92238,-0.20022 -4.3062,-0.68161 -3.08468,-0.95417 -5.59933,-3.487 -6.628,-6.53655 -0.72094,-2.04554 -0.88281,-4.23461 -0.87437,-6.38876 -0.0723,-9.40651 0.0132,-18.81467 -0.0703,-28.22102 -6.17794,-0.0735 -12.35877,-0.0729 -18.53787,-0.0563 -0.46548,0.0369 -0.98055,-0.0471 -1.42058,0.0858 -0.1244,2.19125 -0.0533,4.39329 -0.0806,6.58875 0.0103,8.80408 -0.0361,17.60915 0.0568,26.41285 -0.004,1.29098 0.10451,2.5758 0.2894,3.85196 0.11282,1.51275 0.47538,2.9907 0.81957,4.46278 0.23527,0.95597 0.56552,1.89217 0.92036,2.805 0.97827,2.3583 2.24059,4.64246 4.0132,6.50348 1.56733,1.74514 3.45924,3.20958 5.55159,4.26899 1.40208,0.70283 2.83324,1.34838 4.33411,1.81023 1.72191,0.56278 3.52602,0.81911 5.30302,1.12964 2.28441,0.31956 4.59499,0.26044 6.8952,0.25218 1.77779,0.007 3.54483,-0.20945 5.28804,-0.54467 2.19009,-0.38738 4.33612,-1.04998 6.35053,-1.99471 2.33442,-1.14543 4.55332,-2.58775 6.35206,-4.4819 0.68673,-0.67444 1.31895,-1.41341 1.92083,-2.15542 0.30469,-0.0741 0.18073,0.43534 0.22891,0.59066 0.0827,2.35103 0.0238,4.71022 0.18759,7.05642 0.13915,0.22088 0.52393,0.0701 0.73949,0.13436 5.37334,0.0515 10.7474,0.01 16.12098,0.0207 0.10755,-1.04081 0.0249,-2.10517 0.0563,-3.15485 0.0259,-16.86474 0.0422,-33.7307 -0.003,-50.59536 -0.0241,-0.99445 0.0224,-2.00758 -0.0667,-2.99103 -1.92453,-0.0572 -3.85088,-0.0727 -5.77742,-0.0755 z m 43.34309,67.34731 c -0.0299,1.3e-4 -0.0601,0.001 -0.0904,0.004 -0.77304,0.008 -1.59764,0.64 -1.48778,1.47743 -0.0453,0.63244 0.38484,1.27216 0.96687,1.49397 0.65209,0.14106 1.44661,0.0841 1.84848,-0.524 0.44183,-0.54009 0.50152,-1.42748 -0.0842,-1.89291 -0.30356,-0.32135 -0.70411,-0.55997 -1.1529,-0.55811 z m -36.86029,0.16485 c -2.27029,-0.0203 -4.6337,0.93246 -5.93762,2.85254 -0.77949,1.06142 -1.12927,2.38834 -1.07537,3.69745 -0.035,1.02594 0.16441,2.05004 0.58187,2.98483 0.40574,0.95365 1.14257,1.74137 1.9177,2.41329 1.08122,0.80075 2.40146,1.23612 3.7388,1.32498 1.76837,0.14935 3.63537,-0.26882 5.09582,-1.30018 1.21213,-1.02937 2.27258,-2.38338 2.54196,-3.98942 0.26987,-1.25203 0.07,-2.56372 -0.28578,-3.776 -0.45757,-1.0108 -1.03494,-2.02016 -1.97869,-2.65151 -0.95371,-0.79407 -2.13812,-1.27928 -3.36362,-1.44488 -0.39655,-0.13187 -0.82306,-0.10776 -1.23507,-0.1111 z m -29.09589,0.0191 c -0.15245,0.006 -0.31699,0.0383 -0.43563,0.008 l -0.0661,5.2e-4 h -0.006 c -0.28464,0.0106 -0.79126,-0.0711 -0.76636,0.37 -0.13272,2.37315 -0.0351,4.7545 -0.0563,7.13083 0.0305,1.77731 -0.0434,3.56093 0.0786,5.33404 0.1011,0.22502 0.47369,0.071 0.66302,0.12971 0.2985,-0.0409 0.69503,0.0558 0.94824,-0.1111 0.10499,-0.32166 -0.10557,-0.74191 0.10647,-1.01648 0.42103,0.11312 0.63802,0.60996 1.02526,0.81184 0.62931,0.37027 1.35826,0.63638 2.0991,0.555 1.32755,0.0843 2.69399,-0.45572 3.51761,-1.5167 0.96237,-1.19808 1.23864,-2.85201 0.9865,-4.33979 -0.24935,-0.955 -0.61685,-1.92513 -1.4087,-2.56522 -1.07781,-1.09303 -2.80326,-1.31401 -4.23127,-0.90227 -0.74819,0.18012 -1.27495,0.74873 -1.84899,1.2113 -0.23288,0.12888 -0.0956,-0.33976 -0.14829,-0.43512 -0.0657,-1.50324 0.0508,-3.01948 -0.0935,-4.51548 -0.0708,-0.13544 -0.21135,-0.15502 -0.36381,-0.14883 z m -8.69354,0.0491 c -0.12523,0.0107 -0.23151,0.0697 -0.19119,0.2403 -0.0892,1.56671 -0.01,3.16405 -0.0822,4.71547 -0.52737,-0.19044 -0.82114,-0.76312 -1.36374,-0.95291 -1.06969,-0.54695 -2.35665,-0.40508 -3.46178,-0.046 -1.74184,0.61928 -2.87857,2.49422 -2.75231,4.32015 -0.031,1.33974 0.32465,2.77874 1.34462,3.70933 1.1608,0.97472 2.80685,1.49486 4.29588,1.08779 0.69794,-0.17334 1.20292,-0.71222 1.82417,-1.02423 0.2926,-0.0164 0.15065,0.43976 0.20359,0.60979 -0.003,0.32927 0.47244,0.14958 0.66355,0.22944 0.37621,0.005 0.76618,0.0731 1.13221,-0.0424 -0.0441,-4.19173 -0.0621,-8.38764 -0.11007,-12.57701 -0.15417,-0.36602 -0.68641,-0.2023 -0.99475,-0.26665 -0.12711,-0.003 -0.25427,-0.003 -0.38137,0 -0.0412,-0.005 -0.0849,-0.007 -0.12663,-0.003 z m 87.03087,0.005 c -0.20177,0.004 -0.42307,0.0433 -0.53745,0.007 -0.54737,0.0312 -1.14347,-0.0385 -1.66346,0.1018 -0.13578,1.48671 -0.006,2.99505 -0.13382,4.47777 -0.23149,0.0389 -0.39995,-0.30777 -0.61341,-0.37879 -0.658,-0.4385 -1.45093,-0.72536 -2.24274,-0.71934 -1.09268,0.1081 -2.20565,0.42001 -3.01326,1.20355 -1.39576,1.24459 -1.66164,3.32858 -1.24749,5.07204 0.34499,1.64862 1.7076,3.07485 3.38275,3.37602 0.737,0.11864 1.53112,0.14616 2.24896,-0.0801 0.542,-0.21191 0.98676,-0.60396 1.46503,-0.91106 0.35877,-0.0574 0.21844,0.39972 0.29609,0.60255 0.19852,0.26102 0.63386,0.0831 0.91313,0.1571 0.50819,-0.0192 1.07005,0.076 1.54927,-0.0615 0.13763,-1.54856 0.0497,-3.11509 0.0801,-4.67052 -0.0222,-2.65508 0.0516,-5.31384 -0.0646,-7.96644 -0.0351,-0.18096 -0.21733,-0.21345 -0.4191,-0.2098 z m -152.00209,0.22996 c -1.06227,0.006 -2.12463,0.0135 -3.18688,0.0202 0.004,4.19632 -0.0575,8.40116 0.005,12.59251 0.52409,0.0966 1.10887,0.1253 1.62573,-0.003 0.14878,-0.91493 0.0313,-1.86575 0.0599,-2.79363 -0.005,-0.60718 -0.0105,-1.21522 -0.0139,-1.82211 1.40538,-0.17641 2.84159,-2.7e-4 4.24624,-0.1943 1.27865,-0.35379 2.60535,-1.2145 2.85927,-2.61173 0.42117,-1.32443 0.10168,-2.87717 -0.79531,-3.93464 -0.79264,-0.76366 -1.86169,-1.2646 -2.97759,-1.233 -0.60696,-0.0252 -1.21478,-0.0216 -1.82211,-0.0207 z m 124.89934,1.20923 c -0.16528,-0.001 -0.33078,0.004 -0.49503,0.003 -0.48274,0.0302 -0.99531,-0.014 -1.45937,0.11214 -0.14843,0.70207 0.0794,1.46374 -0.14107,2.1456 -0.45678,0.24619 -1.05815,-0.007 -1.52652,0.20464 -0.0551,0.65316 -0.0828,1.34243 0.0202,1.98386 0.49949,0.12415 1.05977,-0.0228 1.53686,0.16536 0.1636,1.18446 0.064,2.39893 0.11317,3.59461 -0.033,0.93186 0.0655,2.00089 0.81338,2.65566 0.85725,0.7758 2.07597,0.90003 3.17862,0.76739 0.42482,-0.0677 0.93528,-0.0293 1.28725,-0.30179 -0.10506,-0.60089 -0.18153,-1.22372 -0.23513,-1.83503 -0.23228,-0.34192 -0.73443,-0.0668 -1.06762,-0.0858 -0.61799,0.0908 -1.38589,-0.30572 -1.32136,-1.0113 -0.0271,-1.2536 -0.10213,-2.51961 0.0134,-3.76774 0.18267,-0.26532 0.62791,-0.0989 0.89762,-0.16381 0.4164,-0.0307 0.88532,0.0563 1.27384,-0.0832 0.0236,-0.62308 0.10215,-1.28832 -0.0672,-1.89084 -0.65638,-0.24198 -1.42552,0.01 -2.06809,-0.26975 -0.28945,-0.38382 -0.0913,-0.93702 -0.15451,-1.38183 -0.0373,-0.2567 0.057,-0.58991 -0.10544,-0.80667 -0.16272,-0.0258 -0.32769,-0.033 -0.493,-0.0341 z m -125.97421,0.40463 c 0.16814,0.003 0.34756,0.0331 0.48678,0.005 0.1107,7.9e-4 0.22156,10e-4 0.33229,0.002 1.12861,0.0758 2.4374,-0.19837 3.38119,0.58962 1.05884,0.94858 1.08998,2.88373 -0.13385,3.71554 -0.41915,0.29129 -0.89117,0.53127 -1.41645,0.4439 -0.99819,-0.0274 -2.01472,0.10211 -3.00238,-0.0496 -0.24342,-0.172 -0.0501,-0.57705 -0.12557,-0.82682 0.01,-1.23812 -0.0825,-2.48943 0.0594,-3.71967 0.0937,-0.13834 0.25043,-0.16303 0.41857,-0.1602 z m 103.71048,0.59686 c 0.0833,-0.002 0.16658,-0.002 0.24958,0 1.45753,0.0361 2.87205,0.89904 3.48559,2.2381 0.31041,0.52242 0.38965,1.13804 0.47697,1.72806 0.023,1.54559 -0.79569,3.20654 -2.27894,3.81372 -1.03648,0.47771 -2.266,0.47857 -3.34605,0.15607 -0.85141,-0.26625 -1.53787,-0.92494 -1.98385,-1.67535 -0.31684,-0.54518 -0.62735,-1.14272 -0.55967,-1.80041 -0.0439,-0.99389 0.0369,-2.0649 0.70487,-2.86081 0.73377,-1.04456 2.0016,-1.56729 3.2515,-1.59938 z m 56.02602,1.10691 c -1.48643,0.0692 -3.05099,0.64665 -3.88969,1.94303 -0.63019,0.81603 -0.87776,1.84769 -0.8423,2.86598 -0.0409,0.89008 0.11668,1.78818 0.58599,2.55643 0.93716,1.66124 2.94828,2.45279 4.79611,2.3089 0.9794,0.012 1.91227,-0.32612 2.73624,-0.83716 0.3116,-0.22982 0.80393,-0.40751 0.90641,-0.81287 -0.19873,-0.41682 -0.61024,-0.72365 -0.77978,-1.16375 -0.17561,-0.23873 -0.50967,-0.48723 -0.7674,-0.19017 -0.97499,0.85251 -2.44943,1.09814 -3.64061,0.58705 -0.55931,-0.28316 -0.93417,-0.86027 -1.12086,-1.43661 0.17227,-0.25501 0.60008,-0.12386 0.85887,-0.18397 1.94037,-0.0436 3.89199,0.0298 5.82549,-0.0775 0.15851,-0.48374 0.0176,-1.04095 0.0382,-1.54926 -0.0726,-0.86672 -0.39635,-1.74555 -0.96068,-2.41225 -0.83037,-0.90215 -1.99448,-1.54615 -3.23805,-1.57665 -0.16891,-0.0142 -0.3384,-0.0248 -0.50797,-0.0212 z m -25.44908,0.0264 c -0.13478,-0.002 -0.26972,8.7e-4 -0.40413,0.008 -0.88598,-0.0147 -1.82424,0.12036 -2.58691,0.59118 -0.59266,0.48936 -1.22766,1.14323 -1.11207,1.98127 -0.0407,0.65156 0.0262,1.37712 0.57619,1.81591 0.87135,1.00017 2.25642,1.1432 3.45199,1.49862 0.52895,0.13751 1.20533,0.55835 1.05264,1.19372 -0.48159,0.6963 -1.47552,0.57887 -2.18231,0.3607 -0.76866,-0.18342 -1.33786,-0.75006 -1.98643,-1.14928 -0.38058,0.27425 -0.60556,0.74801 -0.9493,1.07694 -0.13383,0.18353 -0.53944,0.48504 -0.21291,0.69039 0.79435,0.7733 1.82041,1.23878 2.897,1.45935 0.81875,0.11084 1.66417,0.0581 2.48666,-0.0134 0.69043,-0.14404 1.3327,-0.47162 1.86655,-0.92708 0.60045,-0.57225 0.77791,-1.4671 0.67181,-2.26704 0.022,-0.97058 -0.78925,-1.7132 -1.61904,-2.0712 -0.9706,-0.49396 -2.11796,-0.50155 -3.0639,-1.03921 -0.37642,-0.18336 -0.41857,-0.69873 -0.0982,-0.95808 0.69199,-0.67873 1.7644,-0.32321 2.52648,0.0388 0.32634,0.0985 0.5383,0.47618 0.87643,0.49919 0.50149,-0.23629 0.60122,-0.83247 0.98597,-1.187 0.28673,-0.36317 -0.26072,-0.64225 -0.50538,-0.81132 -0.7861,-0.53678 -1.7277,-0.77821 -2.67115,-0.79065 z m -97.49793,0.0388 c -0.0423,-7.3e-4 -0.0846,1.1e-4 -0.12713,0.002 -1.41904,0.0298 -2.85327,0.71703 -3.5755,1.97352 -0.89053,1.3781 -0.95977,3.15407 -0.51056,4.69532 0.24799,0.58959 0.56141,1.14506 0.97877,1.63453 0.68567,0.63889 1.58546,1.09115 2.51611,1.2516 1.10664,0.1746 2.28123,0.0281 3.29178,-0.45165 0.52076,-0.36529 1.14967,-0.71818 1.41904,-1.31775 -0.0946,-0.37766 -0.54602,-0.54598 -0.78443,-0.83354 -0.26586,-0.3078 -0.48533,0.21483 -0.6961,0.32969 -0.39682,0.37225 -0.87579,0.66983 -1.41282,0.76223 -0.4609,0.26679 -1.0397,0.0512 -1.53789,0.016 -0.76994,-0.18715 -1.50923,-0.68655 -1.89756,-1.38028 -0.18381,-0.4154 -0.34095,-0.85206 -0.31782,-1.31413 2.25515,-0.0369 4.51522,0.0338 6.76703,-0.0946 0.26927,-0.11306 0.0872,-0.54065 0.13126,-0.76378 -0.006,-0.69153 -0.13766,-1.38074 -0.38809,-2.019 -0.60052,-1.15513 -1.64211,-2.17325 -2.97709,-2.36368 -0.29011,-0.0554 -0.58272,-0.12154 -0.879,-0.1266 z m -24.50446,0.0222 c -1.52596,0.007 -3.01662,0.75186 -3.95684,1.94665 -0.53843,0.85903 -0.81852,1.88796 -0.80823,2.90215 0.11327,1.04042 0.31933,2.1567 0.99425,2.98999 1.08419,1.32745 2.89468,1.92208 4.56975,1.71618 1.77676,-0.25573 3.54129,-1.49711 3.94653,-3.31763 0.24826,-1.17734 0.29273,-2.47003 -0.29147,-3.56205 -0.75041,-1.68254 -2.64935,-2.70815 -4.45399,-2.67529 z m 40.17946,0.0181 c -0.95829,0.002 -1.90515,0.32045 -2.6262,0.96583 -0.56702,0.50845 -1.06111,1.13797 -1.25677,1.88154 -0.49765,1.43828 -0.39888,3.09088 0.27856,4.45451 0.50323,0.85931 1.28915,1.60682 2.2262,1.96008 0.33986,0.14064 0.70435,0.26371 1.08728,0.27854 1.59612,0.21729 3.33759,-0.25989 4.39923,-1.52239 0.30784,-0.20885 0.0427,-0.53665 -0.16177,-0.70125 -0.24209,-0.17454 -0.48877,-0.73296 -0.84749,-0.50022 -0.58356,0.57791 -1.27071,1.1211 -2.12389,1.18907 -1.26156,0.23597 -2.74478,-0.42453 -3.16621,-1.69447 -0.0548,-0.3068 -0.3446,-0.68907 -0.16899,-0.99064 0.69535,-0.11071 1.42941,-0.008 2.13786,-0.0351 1.54773,-0.004 3.10652,0.0785 4.64777,-0.0145 0.20363,-0.36577 0.0555,-0.85309 0.0832,-1.2609 -0.0757,-1.25109 -0.70207,-2.49465 -1.69394,-3.2675 -0.76086,-0.57408 -1.68344,-0.77537 -2.62311,-0.73898 -0.0639,-0.003 -0.12782,-0.004 -0.19172,-0.004 z m 87.59209,0.0651 c -0.33981,-0.008 -0.77354,0.0481 -0.78962,0.45217 0.0396,2.84492 -0.0195,5.69329 0.0992,8.53591 0.006,0.32883 0.49111,0.12988 0.68521,0.20464 0.63606,-0.0125 1.3121,0.0578 1.92548,-0.0847 0.11465,-2.82111 0.085,-5.64946 0.047,-8.47287 0.0193,-0.23177 0.024,-0.54856 -0.28834,-0.55035 -0.50658,-0.0953 -1.02757,-0.0728 -1.54049,-0.0786 -0.0432,-0.003 -0.09,-0.005 -0.13848,-0.006 z m -92.58041,0.003 c -0.0182,4.6e-4 -0.0368,0.002 -0.0553,0.005 v -5.2e-4 c -1.0653,-0.0166 -2.09982,0.47114 -2.77297,1.29243 -0.21513,0.19961 -0.1351,-0.30281 -0.16121,-0.40308 0.0304,-0.27675 0.007,-0.72571 -0.38656,-0.68006 -0.411,-0.0142 -0.82198,0.0134 -1.23298,0.0191 -0.0114,2.96424 -0.0229,5.92877 -0.0341,8.893 0.49295,0.10248 1.01426,0.0969 1.51051,0.10904 0.43609,-0.21551 0.14264,-0.79174 0.18603,-1.16169 -0.0587,-1.59888 -0.0176,-3.19931 -0.007,-4.79867 0.38163,-0.77371 0.98877,-1.58836 1.92341,-1.65985 0.43133,-0.12027 0.88316,-0.0206 1.3131,-0.0589 0.18489,-0.41689 0.11393,-0.94103 0.0119,-1.37924 -0.0499,-0.12815 -0.16703,-0.18 -0.29456,-0.17674 z m 65.57534,0.10077 c -0.25244,0.0329 -0.59306,-0.0502 -0.80513,0.062 -0.0294,2.15048 -0.0663,4.30529 0.0233,6.45438 0.1197,1.15081 0.87503,2.24318 1.99316,2.62155 1.18324,0.45451 2.59114,0.35192 3.69692,-0.262 0.25434,-0.15922 0.47178,-0.4941 0.77361,-0.52193 0.10721,0.21021 -0.10662,0.72547 0.26665,0.7152 0.72528,0.003 1.48013,0.0981 2.18953,-0.0522 0.0719,-2.93327 0.0419,-5.87728 -0.003,-8.81394 0.0274,-0.27255 -0.40653,-0.0918 -0.55602,-0.16019 -0.67069,0.004 -1.3693,-0.0521 -2.02417,0.0568 -0.072,1.88361 -0.0468,3.77017 -0.0682,5.65495 -0.33856,0.67491 -0.99719,1.3443 -1.81229,1.25677 -0.68855,0.10997 -1.38004,-0.26642 -1.66296,-0.90227 -0.30239,-0.63797 -0.13327,-1.38597 -0.19791,-2.06912 -0.0337,-1.32491 0.0101,-2.67749 -0.0951,-3.98632 -0.56901,-0.0658 -1.14628,-0.0471 -1.71823,-0.0537 z m -88.17189,0.0243 c -0.27879,0.002 -0.56026,0.0315 -0.82735,0.0625 -0.34872,0.13675 -0.23853,0.62938 -0.42167,0.89917 -0.49506,1.6541 -1.00931,3.30195 -1.52601,4.94905 -0.11478,0.25142 -0.0807,0.61596 -0.26355,0.8201 -0.3991,-0.26401 -0.3461,-0.85052 -0.56171,-1.2423 -0.26789,-0.85523 -0.56526,-1.69927 -0.78806,-2.56573 -0.28888,-0.88547 -0.60873,-1.76422 -0.76327,-2.68408 -0.12386,-0.34409 -0.61569,-0.17184 -0.89038,-0.23254 -0.0781,-0.002 -0.15602,2.4e-4 -0.2341,0.001 -0.24657,0.0569 -0.7017,-0.0827 -0.81907,0.21084 0.53403,1.39891 1.03007,2.81965 1.40972,4.26899 0.30451,0.7418 0.54547,1.50956 0.76793,2.2779 0.25633,0.54282 0.29911,1.1721 0.6196,1.69292 0.11314,0.21172 -0.008,0.68378 0.37206,0.59428 0.55705,-0.0178 1.17528,0.1235 1.69603,-0.10697 0.1402,-0.25966 0.086,-0.6018 0.2563,-0.86558 0.55298,-1.85132 1.20962,-3.67197 1.7534,-5.52473 0.14901,-0.26528 0.2953,0.20631 0.31419,0.31833 0.61531,2.00498 1.27719,3.9969 2.0066,5.96397 0.0808,0.36698 0.58375,0.16994 0.8423,0.23203 0.28382,-0.0493 0.68561,0.0886 0.91469,-0.11317 0.7466,-1.98727 1.33175,-4.03326 2.06396,-6.02496 0.3138,-0.90045 0.6299,-1.807 0.87694,-2.72593 -0.0342,-0.25229 -0.4544,-0.0972 -0.62167,-0.15968 -0.36227,0.0361 -0.79827,-0.0904 -1.12085,0.0956 -0.35007,0.93967 -0.53195,1.93447 -0.86093,2.88303 -0.31599,1.20951 -0.7421,2.39578 -1.10641,3.58531 -0.19785,0.22255 -0.38806,-0.16392 -0.39791,-0.33383 -0.0669,-0.40487 -0.29908,-0.73439 -0.34364,-1.13895 -0.54067,-1.66875 -0.98279,-3.37128 -1.53582,-5.03432 -0.25628,-0.0786 -0.53253,-0.10424 -0.81132,-0.10232 z m 59.95707,0.009 c -0.19034,-0.001 -0.38238,0.0106 -0.56483,5.1e-4 -0.1896,0.0442 -0.6748,-0.097 -0.67541,0.21084 0.36314,0.83969 0.71157,1.68364 1.08263,2.52078 0.47469,1.13529 0.96416,2.26902 1.48775,3.38222 0.27382,0.78907 0.6532,1.55993 1.00616,2.32441 0.22756,0.22716 0.21772,0.52846 0.076,0.79685 -0.27972,0.73203 -0.55886,1.67025 -1.36427,1.97507 -0.50266,0.1353 -1.00666,-0.0827 -1.50379,-0.0501 -0.35832,0.18023 -0.11332,0.70295 -0.33279,0.99168 -0.17354,0.26309 0.0212,0.57658 0.33126,0.56223 0.77213,0.0123 1.58927,0.1186 2.33111,-0.13952 0.95747,-0.3271 1.38954,-1.29525 1.77612,-2.14561 0.19415,-0.4872 0.34314,-1.00448 0.58756,-1.47071 0.14846,-0.39687 0.2971,-0.82578 0.49869,-1.21336 0.71895,-1.66783 1.34749,-3.37126 2.09134,-5.02915 0.29361,-0.85849 0.75338,-1.65862 1.01389,-2.5244 -0.14963,-0.28162 -0.60931,-0.11726 -0.86559,-0.1788 -0.31594,0.042 -0.85484,-0.11312 -0.91829,0.34417 -0.38775,1.04696 -0.82164,2.07092 -1.2242,3.11144 -0.56234,1.09242 -0.86169,2.28974 -1.32964,3.41943 -0.123,0.25763 -0.24738,-0.11729 -0.27649,-0.23255 -0.35724,-0.97927 -0.67405,-1.9722 -1.15908,-2.89956 -0.56851,-1.19617 -0.98224,-2.47905 -1.51464,-3.67833 -0.17473,-0.0619 -0.36311,-0.0762 -0.55345,-0.0775 z m -47.90612,1.12086 c 0.79774,0.0765 1.52717,0.55356 2.00607,1.18494 0.19505,0.41932 0.46358,0.88512 0.4372,1.35289 -0.29017,0.27941 -0.77444,0.0928 -1.13689,0.16071 -1.34919,-0.0143 -2.71034,0.0293 -4.05093,-0.12247 -0.20902,-0.14541 0.0683,-0.48358 0.092,-0.66456 0.39034,-1.07341 1.50987,-1.8899 2.65255,-1.91151 z m 15.91064,0.0429 c 1.14972,0.0389 2.19572,0.96786 2.34714,2.11615 0.0756,0.1972 0.0755,0.49848 -0.2041,0.50436 -1.63023,0.0194 -3.27149,0.0201 -4.89532,-0.0749 0.0716,-0.84708 0.54547,-1.65184 1.25781,-2.127 0.42531,-0.31254 0.97477,-0.42411 1.49447,-0.41858 z m -40.48435,0.0274 c 1.37988,0.015 2.607,1.11042 2.96831,2.40554 0.24411,1.31655 -0.0396,2.85134 -1.1648,3.69435 -0.58126,0.38993 -1.31731,0.7048 -2.03036,0.59376 -0.9702,-0.17542 -1.94321,-0.66514 -2.39779,-1.58337 -0.97263,-1.69848 -0.27932,-4.27076 1.64383,-4.94492 0.3139,-0.11205 0.64736,-0.16984 0.98081,-0.16536 z m 65.858,0.0682 c 1.3485,-0.009 2.61313,1.0078 2.85564,2.34353 0.40336,1.49439 -0.27146,3.31479 -1.69859,4.00027 -0.62506,0.22784 -1.32313,0.42221 -1.95856,0.11679 -1.32622,-0.41463 -2.20003,-1.74754 -2.22673,-3.11144 -0.15155,-1.58123 1.06304,-3.23661 2.697,-3.33571 0.11015,-0.0108 0.22059,-0.0148 0.33124,-0.0134 z m -15.25125,0.015 c 1.38369,-0.021 2.62364,1.0852 2.83496,2.44016 0.29109,1.47556 -0.29223,3.29925 -1.76165,3.91552 -0.98549,0.36934 -2.18683,0.19057 -3.00704,-0.4687 -0.40619,-0.40315 -0.74446,-0.87242 -0.8935,-1.42679 -0.36065,-1.37012 -0.0808,-3.01259 1.08934,-3.9181 0.4898,-0.37656 1.12607,-0.54363 1.73789,-0.54209 z m 96.88348,0.39377 c 0.96748,0.0437 1.97795,0.75732 2.02674,1.78284 -0.0566,0.40333 -0.67815,0.0871 -0.97253,0.18707 -0.99272,-0.0348 -2.00284,0.0723 -2.98588,-0.0661 -0.31292,-0.23004 0.0754,-0.61404 0.18863,-0.85938 0.38531,-0.57808 1.02912,-1.03766 1.74304,-1.04438 z m -11.35901,0.25528 c 0.0663,-0.002 0.13214,-0.002 0.19794,5.2e-4 0.88789,0.0137 1.76874,0.59082 2.09238,1.41955 0.15607,0.98947 0.26397,2.18218 -0.50695,2.95899 -0.39563,0.50264 -1.02658,0.74031 -1.65727,0.68369 -0.96155,0.15586 -1.9686,-0.44241 -2.26599,-1.37305 -0.23519,-0.64488 -0.34862,-1.34921 -0.0904,-2.00814 0.21241,-1.02116 1.23624,-1.6455 2.23033,-1.68156 z" /></g></svg>
