<?xml version="1.0" encoding="UTF-8" standalone="no"?>
<!-- Created with Inkscape (http://www.inkscape.org/) -->

<svg
   width="68.109489mm"
   height="68.182373mm"
   viewBox="0 0 68.109478 68.182377"
   version="1.1"
   id="svg1"
   xml:space="preserve"
   xmlns:xlink="http://www.w3.org/1999/xlink"
   xmlns="http://www.w3.org/2000/svg"
   xmlns:svg="http://www.w3.org/2000/svg"><defs
     id="defs1"><linearGradient
       id="linearGradient33"><stop
         style="stop-color:#005ca9;stop-opacity:1;"
         offset="0"
         id="stop33" /><stop
         style="stop-color:#1f3c7e;stop-opacity:1;"
         offset="1"
         id="stop34" /></linearGradient><linearGradient
       id="linearGradient30"><stop
         style="stop-color:#d4d800;stop-opacity:1;"
         offset="0"
         id="stop30" /><stop
         style="stop-color:#5eb22d;stop-opacity:1;"
         offset="1"
         id="stop31" /></linearGradient><linearGradient
       xlink:href="#linearGradient30"
       id="linearGradient31"
       x1="-63.190659"
       y1="-83.261551"
       x2="-86.989784"
       y2="-28.070391"
       gradientUnits="userSpaceOnUse" /><linearGradient
       xlink:href="#linearGradient33"
       id="linearGradient34"
       x1="-48.65115"
       y1="-50.698898"
       x2="-42.695229"
       y2="-85.112473"
       gradientUnits="userSpaceOnUse" /></defs><g
     id="g34"
     transform="translate(98.269781,92.563488)"><path
       style="opacity:1;fill:url(#linearGradient34);fill-opacity:1;stroke:none;stroke-width:0.399;stroke-linecap:round;stroke-dasharray:none;stroke-opacity:1;paint-order:markers fill stroke"
       d="m -43.374424,-85.009693 c -2.379562,3.427201 -4.840769,6.802711 -7.374472,10.120364 -0.832278,1.004439 -1.500007,2.123174 -2.149877,3.245696 -0.286284,0.151238 -0.233585,0.612308 -0.443119,0.856243 -0.969388,1.921263 -1.798769,3.919866 -2.492017,5.949291 -0.190519,0.360044 -0.19493,0.829602 -0.398077,1.208054 -0.617386,1.972023 -1.210908,3.967806 -1.677984,5.972752 -0.425189,1.623066 -0.776928,3.280371 -1.029902,4.942137 -0.110148,0.569266 0.600856,0.458715 0.940192,0.398842 0.77488,0.04319 1.046469,1.01221 1.169852,1.647075 0.123302,0.96515 -0.241561,2.032955 -0.945491,2.706208 -0.420981,0.286247 -0.952796,0.556448 -0.947705,1.152061 -0.493851,3.083238 -0.325808,6.232892 -0.657347,9.334222 -0.06751,0.624184 -0.602134,1.130456 -0.427527,1.797624 0.524245,2.554312 1.932625,4.794594 3.253772,6.998285 0.516318,0.977897 0.849653,2.068116 0.814493,3.176487 0.329112,0.16102 0.779386,-0.192662 1.134957,-0.224359 5.739167,-1.63949 10.988711,-4.889312 15.063528,-9.246825 4.971467,-5.084304 8.134103,-11.829876 9.110905,-18.855898 0.393412,-2.569105 0.260858,-5.186251 0.191122,-7.774636 -0.534842,-5.616629 -2.426327,-11.136592 -5.62216,-15.793828 -1.559957,-2.489768 -3.6585,-4.624628 -5.796457,-6.636714 -0.477497,-0.438705 -0.9891,-0.837917 -1.503836,-1.231606 -0.07095,0.08618 -0.141899,0.17235 -0.21285,0.258525 z"
       id="path27" /><path
       style="opacity:1;fill:url(#linearGradient31);fill-opacity:1;stroke:none;stroke-width:0.399;stroke-linecap:round;stroke-dasharray:none;stroke-opacity:1;paint-order:markers fill stroke"
       d="m -64.835357,-92.562301 c -1.209064,-0.0024 -2.420472,0.0069 -3.604929,0.26218 -2.253208,0.236754 -4.488974,0.755598 -6.626117,1.48191 -1.513925,0.477193 -3.001915,1.117789 -4.426741,1.842121 -3.356557,1.59609 -6.367865,3.84654 -8.974534,6.487406 -1.931895,1.837366 -3.517368,3.988798 -4.950225,6.227031 -1.49666,2.547023 -2.766139,5.266225 -3.586839,8.105288 -0.558832,1.784134 -0.908564,3.64187 -1.152314,5.499018 -0.171743,2.582807 -0.108767,5.178468 -0.06026,7.764941 0.236527,2.603227 0.854998,5.172407 1.685046,7.642651 1.538777,4.385777 3.949396,8.479549 7.121848,11.88461 2.606474,2.833076 5.664375,5.250484 9.084122,7.028508 1.049205,0.539792 2.125432,1.134549 3.246501,1.464749 0.150643,0.02934 0.419513,0.282686 0.637638,0.315711 1.202883,0.471459 2.459728,0.815653 3.691623,1.170438 0.370033,0.03755 0.745423,0.07657 1.042413,0.266163 2.450378,0.523814 4.966517,0.784973 7.477516,0.731649 0.449006,-0.03651 1.081199,0.05729 1.444094,-0.07483 -2.289636,-1.754317 -4.270119,-3.88602 -6.117971,-6.093259 -2.169388,-2.698173 -3.575847,-5.925806 -4.399997,-9.271467 -0.67881,-2.716041 -1.81051,-5.320332 -3.320182,-7.675866 -0.920007,-1.217646 -1.874031,-2.421512 -2.504276,-3.825089 -0.804241,-1.625816 -1.451854,-3.351376 -1.777379,-5.136863 -0.05659,-0.87517 -0.102661,-1.784414 -0.01434,-2.645139 0.945168,-2.326473 3.125941,-3.82465 5.336466,-4.817793 0.810905,-0.399879 1.673524,-0.709428 2.534102,-0.951886 1.139841,-0.419845 2.354877,-0.606371 3.533124,-0.875151 0.659342,-0.344949 0.776867,-1.200728 1.200182,-1.764371 2.714051,-4.929026 5.265568,-9.954715 7.537005,-15.103387 0.897618,-2.18034 1.750344,-4.381069 2.316028,-6.674537 0.259773,-0.752233 0.32326,-1.543704 0.556149,-2.299876 0.1104,-0.579288 -0.712811,-0.439855 -1.051825,-0.567112 -1.253529,-0.118174 -2.478529,-0.433989 -3.74505,-0.385843 -0.710221,-0.01233 -1.420574,-0.015 -2.130885,-0.01191 z"
       id="path28" /></g></svg>
