<?xml version="1.0" encoding="UTF-8" standalone="no"?>
<!-- Created with Inkscape (http://www.inkscape.org/) -->

<svg
   width="141.78801mm"
   height="141.78804mm"
   viewBox="0 0 141.78799 141.78805"
   version="1.1"
   id="svg1"
   xml:space="preserve"
   xmlns="http://www.w3.org/2000/svg"
   xmlns:svg="http://www.w3.org/2000/svg"><defs
     id="defs1" /><g
     id="g68"
     transform="translate(-132.63807,-243.11971)"><rect
       style="opacity:1;fill:#022655;fill-opacity:1;stroke:none;stroke-width:0.399;stroke-linecap:round;stroke-dasharray:none;stroke-opacity:1;paint-order:markers fill stroke"
       id="rect68"
       width="141.78802"
       height="141.78802"
       x="132.63806"
       y="243.11971" /><path
       id="path65"
       style="opacity:1;fill:#ffffff;fill-opacity:1;stroke:none;stroke-width:0.399;stroke-linecap:round;stroke-dasharray:none;stroke-opacity:1;paint-order:markers fill stroke"
       d="m 151.9425,286.28028 c -0.67662,0.0582 -1.36357,0.0514 -2.03399,0.14573 -0.43238,0.215 -0.91968,0.23448 -1.34978,0.45992 -0.429,0.0527 -0.72989,0.42642 -1.12552,0.57877 -0.54133,0.46588 -1.12348,0.95585 -1.46554,1.5875 -0.0953,0.20604 -0.24506,0.37143 -0.25993,0.60979 -0.30937,0.40443 -0.28634,0.93764 -0.4191,1.41231 -0.1376,0.94415 -0.11859,1.92384 0.19276,2.83135 0.3614,1.26528 1.35237,2.22419 2.35024,3.02773 0.22582,0.13674 0.46585,0.21803 0.66404,0.40255 1.44681,0.82305 3.02371,1.43601 4.39973,2.36833 0.61322,0.46417 1.18276,1.16246 1.04438,1.98438 -0.0883,0.52019 -0.37118,1.10223 -0.85938,1.34617 -0.20812,0.0819 -0.35445,0.32345 -0.61908,0.27492 -0.85741,0.33451 -1.82036,0.25294 -2.71353,0.10852 -0.52616,-0.10156 -1.05129,-0.20076 -1.55391,-0.38034 -0.38794,-0.0502 -0.72149,-0.29433 -1.10639,-0.37207 -0.23857,-0.22145 -0.60305,-0.1549 -0.86196,-0.36018 -0.27983,-0.0629 -0.53046,-0.17998 -0.7767,-0.30748 -0.49471,-0.17933 -0.57108,0.14865 -0.4961,0.57464 0.0265,1.12772 -0.0603,2.27198 0.076,3.38998 0.19071,0.18457 0.50666,0.13946 0.7152,0.32091 0.46292,0.10236 0.87523,0.36057 1.35806,0.40411 0.54346,0.23958 1.15528,0.18476 1.71307,0.39326 1.22187,0.0637 2.45587,0.0652 3.67678,-0.0176 0.73613,-0.0955 1.43356,-0.3516 2.14302,-0.54002 0.48038,-0.16765 0.90013,-0.47258 1.3348,-0.71004 0.38746,-0.10015 0.59715,-0.54742 0.90537,-0.78341 0.31771,-0.29808 0.57334,-0.64796 0.74983,-1.03663 0.20657,-0.27545 0.25664,-0.6334 0.39274,-0.94878 0.25465,-0.90339 0.41164,-1.85896 0.16381,-2.78432 -0.0641,-0.50521 -0.17073,-1.00209 -0.39687,-1.45728 -0.23326,-0.70416 -0.83701,-1.22828 -1.32808,-1.76372 -0.54263,-0.51975 -1.20143,-0.89287 -1.84072,-1.27382 -1.32026,-0.75889 -2.76885,-1.30862 -4.04781,-2.14716 -0.412,-0.27909 -0.79847,-0.66034 -0.95912,-1.13378 -0.0357,-0.60412 -0.14278,-1.30527 0.33796,-1.77508 0.50736,-0.60529 1.33437,-0.84856 2.10479,-0.76947 0.64369,-0.0287 1.28522,0.0258 1.89549,0.2372 0.51537,0.0361 0.98137,0.28877 1.47381,0.41599 0.22871,0.20647 0.58651,0.13266 0.82475,0.34779 0.31972,0.1616 0.80048,-0.005 0.76792,-0.41083 0.20978,-0.32546 0.23101,-0.72014 0.46715,-1.02888 0.0836,-0.35545 0.27956,-0.67119 0.37776,-1.02112 0.20743,-0.27867 0.40977,-0.83681 -0.0403,-0.99426 -0.29095,-0.0543 -0.53111,-0.21994 -0.80357,-0.32246 -0.34976,-0.0509 -0.64092,-0.29646 -1.00511,-0.30283 -0.52986,-0.24949 -1.12281,-0.2806 -1.6769,-0.44596 -0.79195,-0.0997 -1.59219,-0.13612 -2.39003,-0.13436 z m 14.29112,1.67173 c -0.45312,0.006 -0.9065,0.0121 -1.35961,0.0181 -0.45312,0.006 -0.90597,0.0116 -1.35909,0.0176 -0.11198,0.43176 -0.30837,0.83458 -0.44235,1.25625 -0.19887,0.229 -0.12492,0.58586 -0.33435,0.82476 -0.0888,0.40689 -0.28752,0.77885 -0.43305,1.16634 -0.39504,0.28636 -0.83124,0.53338 -1.25935,0.77566 -0.16241,0.20636 -0.45688,0.1732 -0.60668,0.40308 -0.29067,0.0516 -0.44979,0.32981 -0.39533,0.6227 -0.003,0.47749 0.0157,0.95508 0.0233,1.43247 0.56861,0.0549 1.17499,-0.06 1.72237,0.11162 0.36163,0.35202 0.15122,0.94252 0.2248,1.38958 0.0536,2.59613 -0.0907,5.20425 0.17673,7.79125 0.0697,0.76827 0.43371,1.46583 0.94309,2.03399 0.11933,0.32662 0.49072,0.44304 0.75241,0.63717 0.39561,0.27244 0.83686,0.4459 1.30741,0.52193 0.96727,0.30482 2.01625,0.17627 3.01378,0.12816 0.60857,-0.1017 1.23569,-0.14429 1.82727,-0.31575 0.22759,-0.18475 0.71168,-0.0357 0.72502,-0.42995 0.0949,-0.99743 0.013,-2.00291 0.0217,-3.00343 -0.56826,-0.11919 -1.064,0.3209 -1.63711,0.23926 -0.67625,0.0985 -1.42733,0.17292 -2.05259,-0.15968 -0.45482,-0.29143 -0.72146,-0.78691 -0.69505,-1.32912 -0.0859,-2.42792 -0.0778,-4.86007 -0.0506,-7.28895 0.14321,-0.37688 0.69261,-0.22022 1.00304,-0.28267 1.09471,-0.0488 2.21008,0.0588 3.29282,-0.0915 0.20087,-0.34073 0.0552,-0.80441 0.10594,-1.18598 7.9e-4,-0.59264 4.5e-4,-1.18502 5.1e-4,-1.77767 -0.69645,-0.21012 -1.45531,-0.0815 -2.17557,-0.12867 -0.69799,-0.0421 -1.43188,0.0839 -2.10892,-0.10335 -0.26765,-0.2522 -0.0839,-0.71059 -0.14728,-1.03405 -0.0226,-0.74512 0.0474,-1.50235 -0.0832,-2.23914 z m 14.55931,3.1502 c -0.52361,0.004 -1.04843,0.0235 -1.56579,0.007 -0.50374,-0.0273 -1.00143,0.0343 -1.45573,0.25838 -0.37598,0.0378 -0.68527,0.27315 -1.0418,0.37207 -0.20597,0.19574 -0.5195,0.15387 -0.68574,0.40205 -0.74987,0.46024 -1.35323,1.10892 -1.834,1.84019 -0.18894,0.19044 -0.23901,0.46789 -0.39946,0.68575 -0.0462,0.31053 -0.31148,0.50892 -0.32142,0.82682 -0.26799,0.52171 -0.28533,1.11896 -0.44701,1.6769 -0.0768,1.304 -0.0781,2.61875 -0.002,3.92276 0.14863,0.56627 0.20445,1.15847 0.47698,1.6831 0.0874,0.32892 0.28208,0.62233 0.42685,0.92966 0.20462,0.22875 0.28463,0.54909 0.48265,0.76688 0.23475,0.15667 0.31994,0.46364 0.57568,0.62012 0.33009,0.32683 0.71429,0.61356 1.10433,0.84439 0.2833,0.27588 0.71232,0.35275 1.04076,0.5488 0.21691,0.19288 0.56359,0.10615 0.79892,0.29249 0.68097,0.15227 1.36091,0.34575 2.06602,0.34003 1.28311,0.016 2.58972,0.0974 3.84628,-0.20929 0.53702,-0.0534 1.0367,-0.27416 1.55804,-0.38499 0.29328,-0.21256 0.78735,-0.18158 0.94206,-0.53898 -0.03,-1.05498 0.0608,-2.12214 -0.0506,-3.17035 -0.24002,-0.16269 -0.51926,0.2437 -0.78393,0.21963 -0.24985,0.0655 -0.43956,0.28293 -0.72554,0.2775 -0.38803,0.18227 -0.80143,0.25197 -1.21543,0.33589 -1.05281,0.29912 -2.17817,0.23105 -3.2613,0.17364 -0.48295,-0.0388 -0.96021,-0.19748 -1.36632,-0.45217 -0.81452,-0.61816 -1.46815,-1.52834 -1.58182,-2.56264 -0.0879,-0.44829 0.0983,-0.63252 0.55191,-0.52038 3.04261,-0.01 6.08499,-0.02 9.1276,-0.03 0.39229,-0.4062 0.16182,-1.04278 0.22635,-1.54564 -0.0466,-1.13857 -0.0171,-2.31804 -0.38964,-3.40496 -0.0223,-0.33572 -0.24997,-0.61252 -0.33383,-0.92863 -0.46389,-0.61868 -0.85048,-1.29864 -1.46503,-1.79007 -0.55388,-0.46374 -1.18896,-0.84465 -1.87482,-1.06867 -0.24298,-0.19744 -0.6083,-0.13067 -0.86558,-0.33021 -0.51191,-0.0791 -1.03444,-0.0912 -1.55805,-0.0873 z m 31.23841,0 c -0.44046,-0.004 -0.86755,0.0845 -1.27124,0.2651 -0.27014,-0.009 -0.47015,0.14181 -0.69763,0.25166 -0.30485,0.0861 -0.56141,0.27834 -0.84801,0.39688 -0.75455,0.48325 -1.41809,1.10259 -1.9203,1.85053 -0.41832,0.6465 -0.76501,1.35351 -0.95808,2.09445 -0.12188,0.54702 -0.31391,1.08408 -0.31109,1.65674 -0.0586,1.38696 -0.13205,2.80777 0.17414,4.17029 0.14316,0.40397 0.19082,0.83006 0.39895,1.21285 0.077,0.24853 0.263,0.45254 0.32556,0.70848 0.19669,0.18686 0.25671,0.45002 0.46044,0.63355 0.38449,0.55123 0.93369,0.99989 1.43918,1.44591 0.42686,0.25603 0.85974,0.49755 1.3162,0.68575 0.34487,0.15578 0.71488,0.25095 1.07022,0.38912 0.72442,0.12146 1.44598,0.27961 2.18798,0.26148 1.15889,0.022 2.33562,0.0711 3.46801,-0.21446 0.52581,-0.0445 1.01166,-0.27906 1.52497,-0.36225 0.29404,-0.26634 0.84077,-0.22861 1.04025,-0.56999 2.6e-4,-1.06897 7.7e-4,-2.13807 0.001,-3.20704 -0.38625,-0.0362 -0.69223,0.25353 -1.05678,0.32298 -0.33336,0.26334 -0.78718,0.21282 -1.14774,0.43202 -0.63464,0.0953 -1.24416,0.33532 -1.89911,0.32091 -0.99684,0.0108 -2.05849,0.12728 -2.99361,-0.28216 -0.59673,-0.30192 -1.14802,-0.75714 -1.44849,-1.36374 -0.21854,-0.11801 -0.15515,-0.46133 -0.3359,-0.63148 -0.10513,-0.38794 -0.2176,-0.83939 -0.0987,-1.22939 1.36447,-0.14303 2.752,-0.0525 4.12533,-0.0832 1.85146,-0.0286 3.70976,0.0585 5.55676,-0.0656 0.21562,-0.10937 0.0349,-0.47659 0.10594,-0.66611 -0.0222,-1.12917 0.0714,-2.27493 -0.10749,-3.39307 -0.16506,-0.45679 -0.17958,-0.94858 -0.42529,-1.37717 -0.031,-0.24677 -0.26006,-0.40442 -0.31523,-0.65113 -0.51414,-0.59776 -0.87612,-1.39274 -1.61334,-1.75131 -0.41843,-0.39891 -0.9401,-0.6433 -1.48621,-0.79944 -0.39956,-0.16464 -0.81207,-0.31947 -1.23455,-0.41289 -0.94345,-0.0557 -1.89171,-0.0254 -2.83652,-0.031 -0.0634,-0.004 -0.12673,-0.007 -0.18965,-0.007 z m -21.30258,0.22066 c -0.7022,-0.004 -1.40411,0.005 -2.1022,0.0692 -0.28443,0.0503 0.0462,0.31645 -0.0155,0.48008 0.13682,0.34134 0.2726,0.67842 0.39481,1.02526 0.12145,0.34357 0.25372,0.67794 0.39584,1.01337 0.0873,0.32006 0.24569,0.62381 0.32505,0.94413 0.23664,0.28377 0.22453,0.69886 0.43356,1.00717 -0.005,0.32946 0.27428,0.53338 0.30024,0.8568 0.17182,0.33557 0.25039,0.69779 0.39739,1.03921 0.1443,0.34644 0.26911,0.70411 0.39688,1.05782 0.11695,0.32754 0.27627,0.63729 0.37052,0.97462 0.15803,0.25404 0.13216,0.56853 0.33796,0.79116 0.10252,0.41824 0.30047,0.80848 0.40928,1.21853 0.2374,0.28092 0.21938,0.6959 0.43356,0.99942 0.0602,0.3914 0.29926,0.71939 0.38189,1.10536 0.1671,0.36313 0.26703,0.74466 0.44494,1.1033 0.0896,0.34566 0.25904,0.66858 0.34881,1.01492 0.24496,0.23024 0.10497,0.83137 0.55604,0.82166 1.41681,0.0543 2.83624,0.0133 4.25401,0.0263 0.0173,-0.29762 0.31233,-0.4662 0.28835,-0.77308 0.18012,-0.32051 0.22743,-0.7025 0.41031,-1.01441 0.14953,-0.23171 0.11605,-0.54586 0.29817,-0.77514 0.0727,-0.26979 0.15818,-0.52911 0.31213,-0.75758 0.0236,-0.37336 0.29372,-0.66447 0.33951,-1.03405 0.17757,-0.36207 0.25981,-0.75094 0.45941,-1.10225 0.0703,-0.37364 0.2661,-0.71124 0.37517,-1.07332 0.17871,-0.30413 0.1992,-0.67365 0.41289,-0.95395 0.0468,-0.4104 0.30357,-0.7584 0.38706,-1.1622 0.22326,-0.23401 0.14195,-0.60104 0.36483,-0.84698 0.10903,-0.41541 0.28206,-0.81197 0.42944,-1.21336 0.19015,-0.32701 0.22498,-0.71389 0.41237,-1.04748 0.0848,-0.36494 0.30315,-0.68817 0.38086,-1.05937 0.22145,-0.23857 0.15437,-0.60304 0.35967,-0.86196 0.0739,-0.26804 0.15463,-0.52824 0.3116,-0.75396 0.003,-0.38182 0.37563,-0.68477 0.24857,-1.08107 -1.44022,-0.0116 -2.88045,-0.023 -4.32067,-0.0346 -0.0458,0.0583 -0.0916,0.11636 -0.13746,0.17467 -0.18902,0.31546 -0.18986,0.70491 -0.37982,1.02836 -0.0706,0.41156 -0.27559,0.78456 -0.36845,1.18959 -0.22324,0.34819 -0.21116,0.78035 -0.4253,1.13792 -0.063,0.42043 -0.29127,0.79072 -0.36794,1.20871 -0.19401,0.39143 -0.24105,0.82813 -0.43821,1.2206 -0.0482,0.38087 -0.27693,0.7097 -0.33383,1.08985 -0.22054,0.38418 -0.25919,0.82984 -0.46095,1.22473 -0.0654,0.41689 -0.30297,0.78882 -0.31058,1.2206 -0.23914,0.54553 -0.22673,1.15125 -0.38034,1.71462 -0.13666,0.10255 -0.1444,-0.28125 -0.1819,-0.34416 -0.12111,-0.51834 -0.34838,-1.00804 -0.3731,-1.54564 -0.19245,-0.46283 -0.25624,-0.96634 -0.47491,-1.42007 -0.0482,-0.38516 -0.28249,-0.71644 -0.33228,-1.10329 -0.19195,-0.41712 -0.30822,-0.85942 -0.47025,-1.28778 -0.0945,-0.36683 -0.27163,-0.70861 -0.34624,-1.08314 -0.19267,-0.39523 -0.24662,-0.83265 -0.43821,-1.23041 -0.0345,-0.37015 -0.3009,-0.66428 -0.3328,-1.0387 -0.19727,-0.42814 -0.28004,-0.89024 -0.46819,-1.3224 -0.062,-0.28907 -0.19409,-0.67294 -0.40618,-0.83251 -0.7007,0.0151 -1.4036,-10e-4 -2.10581,-0.005 z m 22.21518,2.84582 c 0.0506,-6.6e-4 0.10197,10e-4 0.15348,0.006 0.54175,0.0309 1.14194,-0.0663 1.603,0.27388 0.76011,0.33173 1.21672,1.12082 1.40405,1.89859 0.0257,0.28417 0.21043,0.85891 -0.23874,0.88625 -1.63843,0.0778 -3.28353,0.0604 -4.92322,0.0191 -0.24073,0.0139 -0.62011,-0.0881 -0.49712,-0.41186 0.0465,-0.43842 0.2619,-0.83382 0.3917,-1.24696 0.17219,-0.24023 0.30629,-0.51614 0.56224,-0.70021 0.16998,-0.17067 0.3899,-0.22694 0.55708,-0.39739 0.30095,-0.18805 0.63314,-0.32303 0.98753,-0.32763 z m -32.85277,0.006 c 0.5197,0.0381 1.10725,-0.0765 1.54977,0.25166 0.44131,0.0758 0.6674,0.55684 0.98289,0.83199 0.34604,0.53406 0.53299,1.18068 0.60048,1.80144 -0.44815,0.32969 -1.07805,0.1538 -1.59938,0.21343 -1.34106,-0.0162 -2.69304,0.0385 -4.02767,-0.0693 -0.38741,-0.23673 0.0325,-0.73599 0.0284,-1.06247 -0.001,-0.29358 0.25521,-0.48902 0.31265,-0.76378 0.47478,-0.57735 1.12339,-1.10168 1.88722,-1.1994 0.0885,-0.004 0.17703,-0.004 0.26562,-0.004 z" /><path
       id="path67"
       style="opacity:1;fill:#deb838;fill-opacity:1;stroke:none;stroke-width:0.399;stroke-linecap:round;stroke-dasharray:none;stroke-opacity:1;paint-order:markers fill stroke"
       d="m 163.68647,321.73252 c -0.9004,-0.003 -1.80066,0.0102 -2.69906,0.0558 -0.23289,-0.0147 -0.45434,0.14472 -0.38757,0.39739 -0.0956,0.37854 -0.26185,0.73274 -0.34262,1.11518 -0.19394,0.3915 -0.24113,0.82807 -0.43822,1.22059 -0.0491,0.38566 -0.28324,0.71744 -0.33331,1.10485 -0.22102,0.42204 -0.24332,0.90345 -0.46044,1.32912 -0.0583,0.38727 -0.28065,0.7279 -0.33331,1.11827 -0.20805,0.40862 -0.25593,0.86505 -0.46044,1.27641 -0.0499,0.38827 -0.28621,0.72248 -0.33331,1.11363 -0.20809,0.42689 -0.25576,0.90014 -0.46044,1.32963 -0.0471,0.38753 -0.28314,0.72023 -0.33331,1.10898 -0.20814,0.40873 -0.25641,0.86574 -0.46044,1.27744 -0.0597,0.40645 -0.27942,0.76758 -0.35553,1.1715 -0.25626,0.46263 -0.20278,1.13707 -0.66249,1.47123 -0.23842,-0.09 -0.13644,-0.47994 -0.26872,-0.66972 -0.16925,-0.43876 -0.23965,-0.90068 -0.43408,-1.33067 -0.0457,-0.4147 -0.28362,-0.77713 -0.33332,-1.19269 -0.22395,-0.41507 -0.22293,-0.89577 -0.44803,-1.31207 -0.0421,-0.44193 -0.29874,-0.82295 -0.34572,-1.26504 -0.22268,-0.41651 -0.22322,-0.89738 -0.44803,-1.31464 -0.0421,-0.44191 -0.29869,-0.82298 -0.34572,-1.26504 -0.21677,-0.39922 -0.21257,-0.85842 -0.43408,-1.25574 -0.22115,-0.94254 -0.59493,-1.84668 -0.83147,-2.78123 -0.12514,-0.37458 -0.26619,-0.74051 -0.34468,-1.12861 -0.20316,-0.35262 -0.1632,-0.77448 -0.38809,-1.11673 0.0306,-0.53624 -0.43275,-0.42391 -0.82682,-0.42323 -1.72844,-0.01 -3.45677,-0.0204 -5.18522,-0.0305 v 10.1539 10.15339 h 3.83543 c -0.0199,-4.40932 0.0443,-8.82061 -0.0693,-13.22865 -0.0363,-0.61245 -0.17539,-1.24269 -0.0708,-1.85053 0.15814,-0.21444 0.20218,0.25661 0.23203,0.33279 0.15086,0.3416 0.31345,0.6739 0.37,1.0511 0.20585,0.42801 0.22184,0.90637 0.44236,1.33015 0.0421,0.44192 0.29844,0.82301 0.34571,1.26504 0.22249,0.41658 0.22326,0.89735 0.44804,1.31465 0.0421,0.44192 0.29873,0.82294 0.34571,1.26504 0.22273,0.41651 0.22303,0.89742 0.44804,1.31465 0.0418,0.44197 0.29878,0.82295 0.34571,1.26504 0.22271,0.41649 0.22327,0.89735 0.44804,1.31465 0.0421,0.44192 0.29873,0.82294 0.34571,1.26503 0.2207,0.37684 0.18785,0.8236 0.40359,1.19993 0.0693,0.4837 0.3353,0.90492 0.39016,1.38958 0.20923,0.21062 0.10692,0.72714 0.33848,0.77101 1.3115,-0.002 2.62314,-0.003 3.93464,-0.005 0.27671,-0.47506 0.32017,-1.02495 0.55139,-1.51671 0.0472,-0.38753 0.28346,-0.72078 0.33383,-1.10949 0.20799,-0.40849 0.25548,-0.86466 0.45992,-1.27589 0.05,-0.38824 0.28675,-0.72248 0.33383,-1.11363 0.19808,-0.42198 0.2735,-0.87975 0.45992,-1.30689 0.0382,-0.39715 0.28255,-0.73636 0.33383,-1.13224 0.20822,-0.4084 0.25543,-0.86467 0.45992,-1.27589 0.0493,-0.38563 0.28348,-0.71804 0.33383,-1.10536 0.22077,-0.42212 0.24289,-0.90291 0.45992,-1.3286 0.0583,-0.38725 0.28118,-0.7279 0.33383,-1.11828 0.20871,-0.40674 0.2525,-0.86309 0.45992,-1.27175 0.0748,-0.43235 0.29154,-0.83083 0.39067,-1.25781 0.065,-0.18821 0.29429,-0.0623 0.20516,0.11679 0.0744,4.88884 0.0332,9.77909 0.0444,14.66836 1.3213,-0.0192 2.65415,0.0921 3.96875,-0.0357 0.13418,-0.97466 0.0548,-1.99276 0.0884,-2.98328 0.002,-5.54159 0.0414,-11.08365 -0.0253,-16.62483 -0.0181,-0.23158 0.055,-0.68594 -0.33125,-0.58962 -0.89919,-0.0221 -1.79968,-0.0419 -2.70009,-0.045 z m 14.02137,4.46432 c -1.09221,-0.004 -2.18635,0.0925 -3.24374,0.36742 -0.41513,0.0422 -0.77761,0.28481 -1.19527,0.32763 -0.41614,0.14708 -0.80472,0.3787 -1.21956,0.51263 -0.36818,0.29263 0.003,0.75842 0.17828,1.05834 0.031,0.28884 0.29778,0.4785 0.31988,0.77308 0.19497,0.23046 0.20527,0.53972 0.41134,0.75654 0.0332,0.27794 0.228,0.47253 0.524,0.39688 0.37268,-0.0672 0.70763,-0.25977 1.07229,-0.35761 0.35636,-0.15671 0.7307,-0.25856 1.09399,-0.40101 0.61884,-0.0499 1.20146,-0.33669 1.83606,-0.25735 0.98553,-0.0355 2.03692,0.47047 2.37866,1.44281 0.0671,0.48175 0.12209,1.01355 -0.0212,1.48105 -0.71148,0.17595 -1.4785,0.049 -2.2102,0.0951 -1.04703,-0.0257 -2.07711,0.18203 -3.10472,0.34623 -0.46861,0.14418 -0.95136,0.21086 -1.39268,0.43254 -0.31832,0.017 -0.51885,0.32113 -0.82838,0.39997 -0.52729,0.37036 -1.0045,0.84971 -1.36942,1.37925 -0.1392,0.50749 -0.48953,0.96614 -0.49351,1.51877 -0.0187,0.91688 -0.18196,1.87729 0.1726,2.7528 -0.005,0.32824 0.24671,0.53755 0.32401,0.84026 0.32812,0.484 0.5742,1.11877 1.15083,1.35186 0.35981,0.28252 0.76547,0.52354 1.20872,0.63355 0.49662,0.12728 0.98535,0.30752 1.51257,0.2527 0.8341,-0.0155 1.69848,0.0958 2.49648,-0.20154 0.40736,-0.0355 0.76829,-0.26756 1.14515,-0.36846 0.13213,-0.22413 0.47272,-0.24133 0.6289,-0.4625 0.47086,-0.25536 0.73674,-0.81466 1.21337,-1.05575 0.43585,0.0944 0.38129,0.64717 0.60771,0.94516 0.098,0.30293 0.19257,0.71206 0.43202,0.88677 h 2.94555 c -0.0234,-3.82895 0.0504,-7.66032 -0.0651,-11.48767 -0.18319,-1.1203 -0.65127,-2.23222 -1.54771,-2.96623 -0.23086,-0.25283 -0.53542,-0.41073 -0.81804,-0.57464 -0.25437,-0.21125 -0.6228,-0.22642 -0.88263,-0.43253 -0.70531,-0.14378 -1.40494,-0.34155 -2.13372,-0.35347 -0.37476,-0.0259 -0.75097,-0.034 -1.12654,-0.0326 z m 16.35507,0.015 c -0.90012,0.0922 -1.85205,-0.0315 -2.69699,0.3452 -0.38301,0.0323 -0.73002,0.23338 -1.09038,0.33745 -0.36573,0.32714 -0.88298,0.44577 -1.18029,0.86661 -0.34816,0.33831 -0.66854,0.71166 -0.89297,1.13482 -0.11726,0.252 -0.18394,0.53539 -0.31057,0.79271 -0.19613,0.94722 -0.46435,1.93592 -0.1509,2.89285 0.0426,0.4585 0.20749,0.88138 0.37776,1.29914 0.0459,0.27338 0.30369,0.46583 0.41083,0.72451 0.33273,0.46931 0.74421,0.87177 1.26659,1.11983 0.34841,0.16443 0.0207,0.5921 -0.23358,0.65215 -0.58562,0.48777 -1.29397,1.10413 -1.20923,1.94924 0.007,0.50521 -0.0886,1.07449 0.28319,1.48104 0.18468,0.4122 0.77532,0.6282 0.79736,1.11415 -0.1655,0.29721 -0.61886,0.12569 -0.83819,0.38085 -0.3616,0.10466 -0.67186,0.3236 -0.95239,0.56999 -0.40115,0.41129 -0.82595,0.83442 -0.98909,1.39734 -0.26386,0.65903 -0.0944,1.40544 -0.12764,2.09909 -0.003,0.38096 0.24418,0.69249 0.32814,1.04955 0.26184,0.35624 0.52964,0.71036 0.88419,0.99477 0.24727,0.25957 0.5398,0.44802 0.86144,0.58395 0.25002,0.15053 0.54825,0.18183 0.78135,0.37413 0.53531,0.13833 1.06397,0.31471 1.62316,0.33331 1.19849,0.33712 2.46061,0.15773 3.68711,0.14935 0.66694,-0.0434 1.31756,-0.20758 1.98645,-0.2527 0.46434,-0.12663 0.93276,-0.24699 1.38388,-0.42323 0.37274,-0.0422 0.67656,-0.26995 1.01391,-0.39429 0.21306,-0.24543 0.58515,-0.20238 0.78496,-0.48628 0.63923,-0.48266 1.22891,-1.07118 1.61695,-1.77198 0.0713,-0.31984 0.31028,-0.58761 0.30488,-0.93431 0.50882,-1.55936 0.195,-3.46059 -1.01648,-4.61574 -0.32906,-0.29114 -0.72742,-0.46816 -1.09087,-0.69815 -0.40998,-0.0859 -0.77865,-0.32185 -1.21233,-0.31316 -1.85824,-0.42402 -3.78018,-0.0977 -5.66064,-0.28215 -0.3271,-0.16121 -0.86772,-0.18768 -0.90279,-0.65474 -0.12493,-0.63353 0.51844,-1.38588 1.18081,-1.11983 1.05004,0.14633 2.10351,-0.0844 3.14142,-0.21239 0.54991,-0.14528 1.07069,-0.38444 1.59422,-0.58756 0.41667,-0.29618 0.8917,-0.48727 1.20457,-0.91364 0.66188,-0.59725 1.09212,-1.41958 1.2361,-2.29598 0.23022,-0.54277 0.16082,-1.17846 0.12661,-1.757 -0.0599,-0.55012 -0.29049,-1.06141 -0.45733,-1.57562 0.0752,-0.52348 0.76816,-0.40857 1.13789,-0.56585 0.30244,-0.17081 0.6691,-0.12996 0.97359,-0.25632 0.2894,-0.46315 0.11811,-1.07607 0.16692,-1.59577 0.01,-0.24805 0.0325,-0.68833 -0.34986,-0.60719 -1.76196,-0.10316 -3.53568,0.05 -5.29217,-0.12041 -0.81925,-0.15379 -1.66718,-0.18588 -2.49959,-0.20774 z m 65.2508,0.0243 c -0.91575,0.0178 -1.85532,0.0221 -2.72696,0.32866 -0.35541,0.0535 -0.68807,0.22789 -1.01184,0.37207 -0.24186,0.18903 -0.57809,0.18531 -0.75446,0.47904 -0.72147,0.60152 -1.38764,1.43617 -1.37253,2.42156 -0.15317,0.81945 -0.0748,1.68809 0.1669,2.48202 0.16306,0.47923 0.44336,0.92081 0.77618,1.29966 0.36949,0.30124 0.72634,0.63913 1.1493,0.84594 0.201,0.16054 0.47657,0.22441 0.64286,0.41445 0.25556,0.0233 0.43886,0.20258 0.66042,0.28525 0.27803,0.0965 0.50872,0.29511 0.81029,0.34055 1.09117,0.58086 2.43615,0.91242 3.17757,1.97766 0.26873,0.72089 -0.37063,1.43059 -1.07125,1.5198 -0.71504,0.20968 -1.4614,0.21308 -2.1854,0.0486 -0.52372,-0.0434 -1.0368,-0.14124 -1.53014,-0.31161 -0.36674,-0.0374 -0.6698,-0.28484 -1.03921,-0.32505 -0.39764,-0.20924 -0.84725,-0.24613 -1.24902,-0.44803 -0.49434,-0.19454 -0.33162,0.38279 -0.35139,0.70487 v 2.78019 c 0.39275,0.16073 0.7697,0.33782 1.18907,0.41031 0.54506,0.24317 1.15813,0.22685 1.7296,0.38137 1.34967,0.0823 2.70976,0.0788 4.05919,-0.002 1.30304,-0.25255 2.68811,-0.60137 3.62251,-1.61333 0.39635,-0.37662 0.64006,-0.88961 0.83045,-1.38597 0.26162,-0.39123 0.12372,-0.93221 0.30075,-1.3658 0.0633,-0.88002 -0.0522,-1.79797 -0.42116,-2.60088 -0.0857,-0.39918 -0.54393,-0.61328 -0.77515,-0.93069 -0.3906,-0.48303 -0.93713,-0.76748 -1.46968,-1.0542 -0.16068,-0.1624 -0.43402,-0.12897 -0.59944,-0.30954 -0.36248,-0.0902 -0.6368,-0.34042 -1.00357,-0.41445 -0.26918,-0.23518 -0.65386,-0.21021 -0.9472,-0.42374 -0.39775,-0.20054 -0.8214,-0.31439 -1.18806,-0.56896 -0.4998,-0.24217 -1.12337,-0.67236 -1.08056,-1.29863 0.16259,-0.71482 1.04299,-0.82773 1.65367,-0.88987 0.55854,-0.0393 1.10091,0.0936 1.63349,0.22169 0.4196,0.008 0.78266,0.25096 1.18493,0.33177 0.33295,0.19193 0.71702,0.26709 1.05471,0.44338 0.2645,0.0688 0.79722,0.12126 0.74414,-0.29869 0.15301,-0.33005 0.25424,-0.69414 0.43254,-1.00769 0.1424,-0.22983 0.1537,-0.52795 0.32142,-0.75809 0.0266,-0.28718 0.26151,-0.47953 0.30025,-0.75086 -0.0534,-0.3338 -0.50874,-0.39663 -0.77878,-0.48214 -0.39357,-0.25448 -0.86283,-0.27983 -1.28259,-0.47698 -0.77896,-0.17663 -1.56668,-0.32766 -2.37196,-0.34416 -0.40958,-0.0226 -0.81976,-0.0298 -1.22989,-0.0274 z m -14.06427,0.002 c -0.94978,0.009 -1.91432,0.0457 -2.82515,0.32659 -0.4056,0.13179 -0.80766,0.28032 -1.16787,0.5085 -0.32128,0.0102 -0.44413,0.38125 -0.71522,0.51883 -0.30877,0.2039 -0.5062,0.51945 -0.73536,0.78703 -0.14557,0.13642 -0.1126,0.39116 -0.27646,0.53485 -0.14181,0.47739 -0.19447,0.98683 -0.31988,1.47381 -0.0462,0.72488 0.18754,1.44862 0.38447,2.13993 0.0753,0.25389 0.20505,0.46021 0.38086,0.65319 0.33782,0.49128 0.82601,0.87107 1.31051,1.20457 0.42722,0.21095 0.8205,0.48681 1.25833,0.66715 0.19103,0.15262 0.46109,0.16266 0.65112,0.33744 0.33467,0.0483 0.57658,0.31412 0.91363,0.35967 0.76004,0.37722 1.56448,0.70986 2.24173,1.2237 0.39085,0.35474 0.62286,0.96594 0.26356,1.42627 -0.29933,0.42663 -0.78965,0.6591 -1.30379,0.66766 -0.92162,0.2664 -1.86362,-0.0584 -2.78588,-0.15245 -0.41095,-0.17092 -0.8777,-0.17741 -1.25317,-0.42374 -0.41878,-0.0587 -0.78817,-0.28749 -1.20404,-0.36329 -0.24805,-0.13994 -0.53171,-0.21217 -0.81701,-0.18397 v 3.49436 c 0.41045,0.11228 0.76049,0.36289 1.1896,0.40153 0.567,0.25836 1.20322,0.24823 1.79885,0.40876 1.38519,0.0687 2.77934,0.0519 4.16409,-0.0217 0.38806,-0.14247 0.80034,-0.16733 1.19372,-0.28783 0.33755,-0.15684 0.72281,-0.15763 1.01957,-0.40205 0.26485,-0.0264 0.42201,-0.27129 0.67749,-0.33693 0.39455,-0.38369 0.8885,-0.73635 1.13686,-1.23196 0.12444,-0.26171 0.27644,-0.50273 0.34986,-0.78704 0.35513,-0.60713 0.13669,-1.3605 0.2036,-2.02881 -0.0368,-0.51112 0.11906,-1.10663 -0.24855,-1.53014 -0.0593,-0.33688 -0.25638,-0.62186 -0.44186,-0.89917 -0.55157,-0.57227 -1.19832,-1.06118 -1.8996,-1.42472 -0.19058,-0.15976 -0.46659,-0.16539 -0.66042,-0.34107 -0.27096,-0.0366 -0.45966,-0.24587 -0.71107,-0.30489 -0.29266,-0.0746 -0.52626,-0.28618 -0.82995,-0.34106 -0.26252,-0.18268 -0.60989,-0.19131 -0.8387,-0.40204 -0.31369,-0.0417 -0.51125,-0.30193 -0.81079,-0.35398 -0.35195,-0.28634 -0.80724,-0.51907 -0.97771,-0.97514 -0.15542,-0.53385 0.35218,-0.97592 0.83714,-1.03921 0.63574,-0.2358 1.36816,-0.18731 2.02054,-0.0377 0.42143,0.13242 0.87834,0.11376 1.27125,0.34727 0.39147,0.0575 0.71768,0.31278 1.1095,0.38912 0.2934,0.18503 0.83484,0.38512 1.00563,-0.0512 0.0953,-0.29878 0.2541,-0.57249 0.35345,-0.8692 0.12071,-0.34205 0.26961,-0.68484 0.41498,-1.01699 0.17589,-0.19851 0.1143,-0.51147 0.31572,-0.71055 0.0536,-0.29907 -0.4141,-0.34607 -0.6015,-0.46612 -0.36362,-0.078 -0.66336,-0.32562 -1.04386,-0.3545 -0.50665,-0.2238 -1.06124,-0.29202 -1.59991,-0.40359 -0.79555,-0.0966 -1.59708,-0.13703 -2.39831,-0.12919 z m -30.87357,0.0341 c -0.30824,-0.003 -0.61823,0.009 -0.92345,0.003 -0.74959,0.0261 -1.54252,-0.0952 -2.23293,0.26561 -0.33533,0.0212 -0.58446,0.27231 -0.89918,0.34985 -0.23982,0.22175 -0.5919,0.27919 -0.78134,0.57516 -0.24972,0.18982 -0.41262,0.46648 -0.6258,0.6749 -0.17018,0.12168 -0.52395,0.23087 -0.50591,-0.11008 -0.0637,-0.47484 -0.29223,-0.90466 -0.35348,-1.37407 -0.20965,-0.24078 -0.62232,-0.0817 -0.90019,-0.15038 -0.80275,0.0115 -1.64253,-0.066 -2.42414,0.0847 -0.12081,2.45587 -0.0497,4.92052 -0.0739,7.37991 0.0132,2.66111 -0.0228,5.3303 0.0496,7.98659 0.58082,0.16066 1.2256,0.0379 1.8283,0.0734 0.79571,-0.006 1.59176,-0.0132 2.38747,-0.0196 0.0419,-2.85125 -0.003,-5.70923 0.12247,-8.55607 0.12766,-0.57854 0.0949,-1.20027 0.37153,-1.73529 0.19529,-0.89422 0.91641,-1.74203 1.84849,-1.89084 0.78345,-0.37521 1.78988,-0.21614 2.482,0.293 0.35764,0.24418 0.52816,0.6341 0.66146,1.02268 0.23407,0.42682 0.17923,0.95925 0.29765,1.42523 0.086,3.14613 0.0729,6.29431 0.10441,9.44129 h 4.16046 c 0.14351,-0.876 0.0447,-1.78367 0.0863,-2.67116 -0.0135,-2.97204 0.0796,-5.951 -0.12917,-8.9178 -0.0477,-0.47225 -0.18915,-0.93188 -0.3297,-1.37821 -0.21659,-0.33862 -0.3307,-0.73531 -0.63667,-1.02319 -0.32681,-0.38015 -0.66336,-0.78755 -1.1162,-1.00563 -0.25447,-0.26603 -0.66069,-0.27477 -0.97205,-0.46198 -0.47329,-0.23259 -0.98226,-0.27629 -1.49603,-0.28061 z m 15.93495,0.003 c -0.52361,0.004 -1.04844,0.0235 -1.5658,0.007 h -0.002 c -0.50374,-0.0273 -1.00144,0.0343 -1.45573,0.25838 -0.376,0.0378 -0.68527,0.27315 -1.0418,0.37207 -0.20598,0.19574 -0.51951,0.15387 -0.68575,0.40205 -0.74988,0.46024 -1.35271,1.10891 -1.83348,1.84019 -0.18897,0.19044 -0.23953,0.46789 -0.39997,0.68575 -0.0462,0.31053 -0.3115,0.50892 -0.32142,0.82682 -0.26799,0.52171 -0.28532,1.11896 -0.44701,1.6769 -0.0768,1.304 -0.0779,2.61875 0,3.92276 0.14864,0.56627 0.20444,1.15847 0.47699,1.6831 0.0874,0.32892 0.28154,0.62233 0.42632,0.92966 0.20461,0.22875 0.28514,0.54909 0.48319,0.76688 0.23473,0.15667 0.31993,0.46364 0.57565,0.62012 0.33009,0.32683 0.71379,0.61356 1.10381,0.84439 0.28332,0.27588 0.71284,0.35275 1.0413,0.5488 0.2169,0.19288 0.56306,0.10615 0.79838,0.29249 0.68098,0.15227 1.36146,0.34575 2.06655,0.34003 1.28313,0.016 2.58927,0.0974 3.84575,-0.20929 0.53705,-0.0534 1.03724,-0.27416 1.55858,-0.38499 0.29329,-0.21256 0.78682,-0.18158 0.94155,-0.53898 -0.03,-1.05498 0.0613,-2.12214 -0.0501,-3.17035 -0.24001,-0.16269 -0.51978,0.2437 -0.78444,0.21962 -0.24985,0.0655 -0.43905,0.28294 -0.72504,0.27751 -0.38801,0.18227 -0.80142,0.25197 -1.21541,0.33589 -1.05281,0.29912 -2.17869,0.23105 -3.26181,0.17364 -0.48295,-0.0388 -0.9597,-0.19748 -1.36581,-0.45217 -0.81452,-0.61816 -1.46867,-1.52834 -1.58234,-2.56264 -0.0879,-0.44829 0.0988,-0.63252 0.55242,-0.52038 3.04263,-0.01 6.08497,-0.02 9.1276,-0.03 0.3923,-0.4062 0.16129,-1.04278 0.22582,-1.54564 -0.0466,-1.13857 -0.0166,-2.31804 -0.38912,-3.40496 -0.0222,-0.33572 -0.25046,-0.61252 -0.33433,-0.92863 -0.46387,-0.61868 -0.84997,-1.29864 -1.46452,-1.79007 -0.55388,-0.46374 -1.18946,-0.84465 -1.87534,-1.06867 -0.24297,-0.19744 -0.6083,-0.13067 -0.86559,-0.33021 -0.51188,-0.0791 -1.03391,-0.0912 -1.55752,-0.0873 z m -36.29029,2.55695 c 0.78969,0.0352 1.64633,0.42509 1.92391,1.21491 0.51668,1.10072 0.44963,2.49897 -0.27697,3.48712 -0.24929,0.28585 -0.58643,0.45436 -0.9059,0.63149 -0.75545,0.11581 -1.62804,0.1383 -2.20865,-0.44958 -0.87379,-0.87855 -0.97221,-2.29139 -0.59118,-3.42253 0.15207,-0.37784 0.31835,-0.79045 0.70125,-0.99219 0.37808,-0.29893 0.87971,-0.45271 1.35754,-0.46922 z m 35.58698,0.51573 c 0.51969,0.0381 1.10725,-0.0765 1.54977,0.25166 0.4413,0.0758 0.66741,0.55684 0.9829,0.83199 0.34602,0.53406 0.53297,1.18068 0.60047,1.80144 -0.44815,0.32969 -1.07857,0.1538 -1.59991,0.21343 -1.34104,-0.0162 -2.69253,0.0385 -4.02714,-0.0693 -0.38741,-0.23673 0.0325,-0.73599 0.0284,-1.06247 -0.003,-0.29358 0.25525,-0.48902 0.31266,-0.76378 0.4748,-0.57735 1.1234,-1.10168 1.88722,-1.1994 0.0885,-0.004 0.17703,-0.004 0.26562,-0.004 z m -50.11322,5.54178 c 0.25936,4.8e-4 0.53136,0.14542 0.48059,0.45062 -0.0331,0.96407 0.0326,2.11079 -0.75138,2.81791 -0.32495,0.3592 -0.79712,0.52561 -1.19682,0.7767 -0.77328,0.15372 -1.62817,0.29638 -2.3766,-0.0274 -0.63612,-0.41618 -1.06282,-1.24469 -0.74517,-1.98902 0.10463,-0.62282 0.56651,-1.15626 1.08158,-1.48622 0.32923,-0.14895 0.65847,-0.29836 1.02888,-0.31419 0.75961,-0.25042 1.58164,-0.17796 2.36988,-0.21963 0.0356,-0.006 0.072,-0.009 0.10904,-0.009 z m 13.20074,7.42693 c 0.32935,-0.004 0.65871,-10e-4 0.98806,0 1.05371,0.0414 2.12506,-0.0557 3.16776,0.10594 0.29689,0.18086 0.68728,0.16957 0.91106,0.48111 0.4476,0.38639 0.51594,1.06118 0.17569,1.54254 -0.31441,0.61515 -0.97774,0.94591 -1.59989,1.1653 -0.38843,0.10767 -0.7625,0.29652 -1.18495,0.28578 -0.87957,0.10714 -1.78484,0.31126 -2.65616,0.0568 -0.42378,-0.0495 -0.84678,-0.13956 -1.22112,-0.33487 -0.37739,-0.13199 -0.7166,-0.46616 -0.90847,-0.81286 -0.1223,-0.45005 -0.18947,-0.93763 0.0811,-1.35548 0.49981,-0.71422 1.36265,-1.19744 2.24689,-1.1343 z" /></g></svg>
